<?xml version="1.0" encoding="UTF-8" standalone="no"?><svg xmlns="http://www.w3.org/2000/svg" xmlns:xlink="http://www.w3.org/1999/xlink" contentStyleType="text/css" height="917px" preserveAspectRatio="none" style="width:1501px;height:917px;background:#FFFFFF;" version="1.1" viewBox="0 0 1501 917" width="1501px" zoomAndPan="magnify"><defs/><g><!--MD5=[6b13f1b330d33795af281e5c1dfe1e98]
class Resource--><g id="elem_Resource"><rect codeLine="1" fill="#F1F1F1" height="329.75" id="Resource" rx="2.5" ry="2.5" style="stroke:#181818;stroke-width:0.5;" width="317" x="738" y="115"/><ellipse cx="861.75" cy="131" fill="#ADD1B2" rx="11" ry="11" style="stroke:#181818;stroke-width:1.0;"/><path d="M864.5156,126.875 Q864.6719,126.6563 864.8594,126.5469 Q865.0469,126.4375 865.2656,126.4375 Q865.6406,126.4375 865.875,126.6953 Q866.1094,126.9531 866.1094,127.5625 L866.1094,129.0156 Q866.1094,129.625 865.875,129.8906 Q865.6406,130.1563 865.2656,130.1563 Q864.9219,130.1563 864.7188,129.9531 Q864.5156,129.7656 864.4063,129.25 Q864.3594,128.8906 864.1719,128.7031 Q863.8438,128.3281 863.2344,128.1094 Q862.625,127.8906 862,127.8906 Q861.2344,127.8906 860.6016,128.2188 Q859.9688,128.5469 859.4766,129.2969 Q858.9844,130.0469 858.9844,131.0781 L858.9844,132.1719 Q858.9844,133.4063 859.875,134.2266 Q860.7656,135.0469 862.3594,135.0469 Q863.2969,135.0469 863.9531,134.7969 Q864.3438,134.6406 864.7656,134.2031 Q865.0313,133.9375 865.1797,133.8594 Q865.3281,133.7813 865.5313,133.7813 Q865.8594,133.7813 866.1172,134.0391 Q866.375,134.2969 866.375,134.6406 Q866.375,134.9844 866.0313,135.3906 Q865.5313,135.9688 864.7344,136.2969 Q863.6563,136.75 862.3594,136.75 Q860.8438,136.75 859.6406,136.125 Q858.6563,135.625 857.9688,134.5547 Q857.2813,133.4844 857.2813,132.2031 L857.2813,131.0469 Q857.2813,129.7188 857.8984,128.5703 Q858.5156,127.4219 859.6094,126.8047 Q860.7031,126.1875 861.9375,126.1875 Q862.6719,126.1875 863.3203,126.3516 Q863.9688,126.5156 864.5156,126.875 Z " fill="#000000"/><text fill="#000000" font-family="sans-serif" font-size="14" lengthAdjust="spacing" textLength="61" x="882.25" y="136.7285">Resource</text><line style="stroke:#181818;stroke-width:0.5;" x1="739" x2="1054" y1="147" y2="147"/><text fill="#000000" font-family="sans-serif" font-size="14" lengthAdjust="spacing" textLength="39" x="744" y="165.5332">res_id</text><text fill="#000000" font-family="sans-serif" font-size="14" lengthAdjust="spacing" textLength="35" x="744" y="183.1426">name</text><text fill="#000000" font-family="sans-serif" font-size="14" lengthAdjust="spacing" textLength="73" x="744" y="200.752">namespace</text><line style="stroke:#181818;stroke-width:0.5;" x1="739" x2="1054" y1="207.8281" y2="207.8281"/><text fill="#000000" font-family="sans-serif" font-size="14" lengthAdjust="spacing" textLength="249" x="744" y="226.3613">create(Savable resource, res_id=None)</text><text fill="#000000" font-family="sans-serif" font-size="14" lengthAdjust="spacing" textLength="80" x="744" y="243.9707">read(Object)</text><text fill="#000000" font-family="sans-serif" font-size="14" lengthAdjust="spacing" textLength="253" x="744" y="261.5801">update(Savable resource, res_id=None)</text><text fill="#000000" font-family="sans-serif" font-size="14" lengthAdjust="spacing" textLength="305" x="744" y="279.1895">delete(Savable resource, res_id=None ? Object)</text><text fill="#000000" font-family="sans-serif" font-size="14" lengthAdjust="spacing" textLength="4" x="744" y="296.7988"> </text><text fill="#000000" font-family="sans-serif" font-size="14" lengthAdjust="spacing" textLength="153" x="744" y="314.4082">create_all(List[Savable])</text><text fill="#000000" font-family="sans-serif" font-size="14" lengthAdjust="spacing" textLength="157" x="744" y="332.0176">update_all(List[Savable])</text><text fill="#000000" font-family="sans-serif" font-size="14" lengthAdjust="spacing" textLength="79" x="744" y="349.627">delete_all(?)</text><text fill="#000000" font-family="sans-serif" font-size="14" lengthAdjust="spacing" textLength="4" x="744" y="367.2363"> </text><text fill="#000000" font-family="sans-serif" font-size="14" lengthAdjust="spacing" textLength="172" x="744" y="384.8457">serialize(Savable resource)</text><text fill="#000000" font-family="sans-serif" font-size="14" lengthAdjust="spacing" textLength="93" x="744" y="402.4551">deserialize(str)</text><text fill="#000000" font-family="sans-serif" font-size="14" lengthAdjust="spacing" textLength="4" x="744" y="420.0645"> </text><text fill="#000000" font-family="sans-serif" font-size="14" lengthAdjust="spacing" textLength="137" x="744" y="437.6738">"execute"(str script='')</text></g><!--MD5=[464be7afade68e010f8f1d76973bc1ef]
class Db--><g id="elem_Db"><rect codeLine="21" fill="#F1F1F1" height="83.2188" id="Db" rx="2.5" ry="2.5" style="stroke:#181818;stroke-width:0.5;" width="253" x="115" y="238.5"/><ellipse cx="228.25" cy="254.5" fill="#ADD1B2" rx="11" ry="11" style="stroke:#181818;stroke-width:1.0;"/><path d="M231.0156,250.375 Q231.1719,250.1563 231.3594,250.0469 Q231.5469,249.9375 231.7656,249.9375 Q232.1406,249.9375 232.375,250.1953 Q232.6094,250.4531 232.6094,251.0625 L232.6094,252.5156 Q232.6094,253.125 232.375,253.3906 Q232.1406,253.6563 231.7656,253.6563 Q231.4219,253.6563 231.2188,253.4531 Q231.0156,253.2656 230.9063,252.75 Q230.8594,252.3906 230.6719,252.2031 Q230.3438,251.8281 229.7344,251.6094 Q229.125,251.3906 228.5,251.3906 Q227.7344,251.3906 227.1016,251.7188 Q226.4688,252.0469 225.9766,252.7969 Q225.4844,253.5469 225.4844,254.5781 L225.4844,255.6719 Q225.4844,256.9063 226.375,257.7266 Q227.2656,258.5469 228.8594,258.5469 Q229.7969,258.5469 230.4531,258.2969 Q230.8438,258.1406 231.2656,257.7031 Q231.5313,257.4375 231.6797,257.3594 Q231.8281,257.2813 232.0313,257.2813 Q232.3594,257.2813 232.6172,257.5391 Q232.875,257.7969 232.875,258.1406 Q232.875,258.4844 232.5313,258.8906 Q232.0313,259.4688 231.2344,259.7969 Q230.1563,260.25 228.8594,260.25 Q227.3438,260.25 226.1406,259.625 Q225.1563,259.125 224.4688,258.0547 Q223.7813,256.9844 223.7813,255.7031 L223.7813,254.5469 Q223.7813,253.2188 224.3984,252.0703 Q225.0156,250.9219 226.1094,250.3047 Q227.2031,249.6875 228.4375,249.6875 Q229.1719,249.6875 229.8203,249.8516 Q230.4688,250.0156 231.0156,250.375 Z " fill="#000000"/><text fill="#000000" font-family="sans-serif" font-size="14" lengthAdjust="spacing" textLength="18" x="248.75" y="260.2285">Db</text><line style="stroke:#181818;stroke-width:0.5;" x1="116" x2="367" y1="270.5" y2="270.5"/><line style="stroke:#181818;stroke-width:0.5;" x1="116" x2="367" y1="278.5" y2="278.5"/><text fill="#000000" font-family="sans-serif" font-size="14" lengthAdjust="spacing" textLength="122" x="121" y="297.0332">init(str connect_str)</text><text fill="#000000" font-family="sans-serif" font-size="14" lengthAdjust="spacing" textLength="241" x="121" y="314.6426">table_for_resource(Savable resource)</text></g><!--MD5=[b8a4a1ca1450bb299e951990c40768f9]
class DbEntity--><g id="elem_DbEntity"><rect codeLine="26" fill="#F1F1F1" height="48" id="DbEntity" rx="2.5" ry="2.5" style="stroke:#181818;stroke-width:0.5;" width="85" x="623" y="558"/><ellipse cx="638" cy="574" fill="#ADD1B2" rx="11" ry="11" style="stroke:#181818;stroke-width:1.0;"/><path d="M640.7656,569.875 Q640.9219,569.6563 641.1094,569.5469 Q641.2969,569.4375 641.5156,569.4375 Q641.8906,569.4375 642.125,569.6953 Q642.3594,569.9531 642.3594,570.5625 L642.3594,572.0156 Q642.3594,572.625 642.125,572.8906 Q641.8906,573.1563 641.5156,573.1563 Q641.1719,573.1563 640.9688,572.9531 Q640.7656,572.7656 640.6563,572.25 Q640.6094,571.8906 640.4219,571.7031 Q640.0938,571.3281 639.4844,571.1094 Q638.875,570.8906 638.25,570.8906 Q637.4844,570.8906 636.8516,571.2188 Q636.2188,571.5469 635.7266,572.2969 Q635.2344,573.0469 635.2344,574.0781 L635.2344,575.1719 Q635.2344,576.4063 636.125,577.2266 Q637.0156,578.0469 638.6094,578.0469 Q639.5469,578.0469 640.2031,577.7969 Q640.5938,577.6406 641.0156,577.2031 Q641.2813,576.9375 641.4297,576.8594 Q641.5781,576.7813 641.7813,576.7813 Q642.1094,576.7813 642.3672,577.0391 Q642.625,577.2969 642.625,577.6406 Q642.625,577.9844 642.2813,578.3906 Q641.7813,578.9688 640.9844,579.2969 Q639.9063,579.75 638.6094,579.75 Q637.0938,579.75 635.8906,579.125 Q634.9063,578.625 634.2188,577.5547 Q633.5313,576.4844 633.5313,575.2031 L633.5313,574.0469 Q633.5313,572.7188 634.1484,571.5703 Q634.7656,570.4219 635.8594,569.8047 Q636.9531,569.1875 638.1875,569.1875 Q638.9219,569.1875 639.5703,569.3516 Q640.2188,569.5156 640.7656,569.875 Z " fill="#000000"/><text fill="#000000" font-family="sans-serif" font-size="14" lengthAdjust="spacing" textLength="53" x="652" y="579.7285">DbEntity</text><line style="stroke:#181818;stroke-width:0.5;" x1="624" x2="707" y1="590" y2="590"/><line style="stroke:#181818;stroke-width:0.5;" x1="624" x2="707" y1="598" y2="598"/></g><!--MD5=[cc914a5aa8b011f144e226c95c556c28]
class GresEntity--><g id="elem_GresEntity"><rect codeLine="27" fill="#F1F1F1" height="48" id="GresEntity" rx="2.5" ry="2.5" style="stroke:#181818;stroke-width:0.5;" width="98" x="487.5" y="558"/><ellipse cx="502.5" cy="574" fill="#ADD1B2" rx="11" ry="11" style="stroke:#181818;stroke-width:1.0;"/><path d="M505.2656,569.875 Q505.4219,569.6563 505.6094,569.5469 Q505.7969,569.4375 506.0156,569.4375 Q506.3906,569.4375 506.625,569.6953 Q506.8594,569.9531 506.8594,570.5625 L506.8594,572.0156 Q506.8594,572.625 506.625,572.8906 Q506.3906,573.1563 506.0156,573.1563 Q505.6719,573.1563 505.4688,572.9531 Q505.2656,572.7656 505.1563,572.25 Q505.1094,571.8906 504.9219,571.7031 Q504.5938,571.3281 503.9844,571.1094 Q503.375,570.8906 502.75,570.8906 Q501.9844,570.8906 501.3516,571.2188 Q500.7188,571.5469 500.2266,572.2969 Q499.7344,573.0469 499.7344,574.0781 L499.7344,575.1719 Q499.7344,576.4063 500.625,577.2266 Q501.5156,578.0469 503.1094,578.0469 Q504.0469,578.0469 504.7031,577.7969 Q505.0938,577.6406 505.5156,577.2031 Q505.7813,576.9375 505.9297,576.8594 Q506.0781,576.7813 506.2813,576.7813 Q506.6094,576.7813 506.8672,577.0391 Q507.125,577.2969 507.125,577.6406 Q507.125,577.9844 506.7813,578.3906 Q506.2813,578.9688 505.4844,579.2969 Q504.4063,579.75 503.1094,579.75 Q501.5938,579.75 500.3906,579.125 Q499.4063,578.625 498.7188,577.5547 Q498.0313,576.4844 498.0313,575.2031 L498.0313,574.0469 Q498.0313,572.7188 498.6484,571.5703 Q499.2656,570.4219 500.3594,569.8047 Q501.4531,569.1875 502.6875,569.1875 Q503.4219,569.1875 504.0703,569.3516 Q504.7188,569.5156 505.2656,569.875 Z " fill="#000000"/><text fill="#000000" font-family="sans-serif" font-size="14" lengthAdjust="spacing" textLength="66" x="516.5" y="579.7285">GresEntity</text><line style="stroke:#181818;stroke-width:0.5;" x1="488.5" x2="584.5" y1="590" y2="590"/><line style="stroke:#181818;stroke-width:0.5;" x1="488.5" x2="584.5" y1="598" y2="598"/></g><!--MD5=[b2db8ccf06f2c83cde37e701a8b7a4d1]
class GresDb--><g id="elem_GresDb"><rect codeLine="29" fill="#F1F1F1" height="48" id="GresDb" rx="2.5" ry="2.5" style="stroke:#181818;stroke-width:0.5;" width="81" x="201" y="7"/><ellipse cx="216" cy="23" fill="#ADD1B2" rx="11" ry="11" style="stroke:#181818;stroke-width:1.0;"/><path d="M218.7656,18.875 Q218.9219,18.6563 219.1094,18.5469 Q219.2969,18.4375 219.5156,18.4375 Q219.8906,18.4375 220.125,18.6953 Q220.3594,18.9531 220.3594,19.5625 L220.3594,21.0156 Q220.3594,21.625 220.125,21.8906 Q219.8906,22.1563 219.5156,22.1563 Q219.1719,22.1563 218.9688,21.9531 Q218.7656,21.7656 218.6563,21.25 Q218.6094,20.8906 218.4219,20.7031 Q218.0938,20.3281 217.4844,20.1094 Q216.875,19.8906 216.25,19.8906 Q215.4844,19.8906 214.8516,20.2188 Q214.2188,20.5469 213.7266,21.2969 Q213.2344,22.0469 213.2344,23.0781 L213.2344,24.1719 Q213.2344,25.4063 214.125,26.2266 Q215.0156,27.0469 216.6094,27.0469 Q217.5469,27.0469 218.2031,26.7969 Q218.5938,26.6406 219.0156,26.2031 Q219.2813,25.9375 219.4297,25.8594 Q219.5781,25.7813 219.7813,25.7813 Q220.1094,25.7813 220.3672,26.0391 Q220.625,26.2969 220.625,26.6406 Q220.625,26.9844 220.2813,27.3906 Q219.7813,27.9688 218.9844,28.2969 Q217.9063,28.75 216.6094,28.75 Q215.0938,28.75 213.8906,28.125 Q212.9063,27.625 212.2188,26.5547 Q211.5313,25.4844 211.5313,24.2031 L211.5313,23.0469 Q211.5313,21.7188 212.1484,20.5703 Q212.7656,19.4219 213.8594,18.8047 Q214.9531,18.1875 216.1875,18.1875 Q216.9219,18.1875 217.5703,18.3516 Q218.2188,18.5156 218.7656,18.875 Z " fill="#000000"/><text fill="#000000" font-family="sans-serif" font-size="14" lengthAdjust="spacing" textLength="49" x="230" y="28.7285">GresDb</text><line style="stroke:#181818;stroke-width:0.5;" x1="202" x2="281" y1="39" y2="39"/><line style="stroke:#181818;stroke-width:0.5;" x1="202" x2="281" y1="47" y2="47"/></g><!--MD5=[4d307c3040e9f3ff2b2d0c8321016fdb]
class LiteDb--><g id="elem_LiteDb"><rect codeLine="30" fill="#F1F1F1" height="48" id="LiteDb" rx="2.5" ry="2.5" style="stroke:#181818;stroke-width:0.5;" width="73" x="7" y="256"/><ellipse cx="22" cy="272" fill="#ADD1B2" rx="11" ry="11" style="stroke:#181818;stroke-width:1.0;"/><path d="M24.7656,267.875 Q24.9219,267.6563 25.1094,267.5469 Q25.2969,267.4375 25.5156,267.4375 Q25.8906,267.4375 26.125,267.6953 Q26.3594,267.9531 26.3594,268.5625 L26.3594,270.0156 Q26.3594,270.625 26.125,270.8906 Q25.8906,271.1563 25.5156,271.1563 Q25.1719,271.1563 24.9688,270.9531 Q24.7656,270.7656 24.6563,270.25 Q24.6094,269.8906 24.4219,269.7031 Q24.0938,269.3281 23.4844,269.1094 Q22.875,268.8906 22.25,268.8906 Q21.4844,268.8906 20.8516,269.2188 Q20.2188,269.5469 19.7266,270.2969 Q19.2344,271.0469 19.2344,272.0781 L19.2344,273.1719 Q19.2344,274.4063 20.125,275.2266 Q21.0156,276.0469 22.6094,276.0469 Q23.5469,276.0469 24.2031,275.7969 Q24.5938,275.6406 25.0156,275.2031 Q25.2813,274.9375 25.4297,274.8594 Q25.5781,274.7813 25.7813,274.7813 Q26.1094,274.7813 26.3672,275.0391 Q26.625,275.2969 26.625,275.6406 Q26.625,275.9844 26.2813,276.3906 Q25.7813,276.9688 24.9844,277.2969 Q23.9063,277.75 22.6094,277.75 Q21.0938,277.75 19.8906,277.125 Q18.9063,276.625 18.2188,275.5547 Q17.5313,274.4844 17.5313,273.2031 L17.5313,272.0469 Q17.5313,270.7188 18.1484,269.5703 Q18.7656,268.4219 19.8594,267.8047 Q20.9531,267.1875 22.1875,267.1875 Q22.9219,267.1875 23.5703,267.3516 Q24.2188,267.5156 24.7656,267.875 Z " fill="#000000"/><text fill="#000000" font-family="sans-serif" font-size="14" lengthAdjust="spacing" textLength="41" x="36" y="277.7285">LiteDb</text><line style="stroke:#181818;stroke-width:0.5;" x1="8" x2="79" y1="288" y2="288"/><line style="stroke:#181818;stroke-width:0.5;" x1="8" x2="79" y1="296" y2="296"/></g><!--MD5=[04add1350e67c79380c0d55bbbeb7508]
class Savable--><g id="elem_Savable"><rect codeLine="32" fill="#F1F1F1" height="153.6563" id="Savable" rx="2.5" ry="2.5" style="stroke:#181818;stroke-width:0.5;" width="176" x="808.5" y="505"/><ellipse cx="866.75" cy="521" fill="#ADD1B2" rx="11" ry="11" style="stroke:#181818;stroke-width:1.0;"/><path d="M869.5156,516.875 Q869.6719,516.6563 869.8594,516.5469 Q870.0469,516.4375 870.2656,516.4375 Q870.6406,516.4375 870.875,516.6953 Q871.1094,516.9531 871.1094,517.5625 L871.1094,519.0156 Q871.1094,519.625 870.875,519.8906 Q870.6406,520.1563 870.2656,520.1563 Q869.9219,520.1563 869.7188,519.9531 Q869.5156,519.7656 869.4063,519.25 Q869.3594,518.8906 869.1719,518.7031 Q868.8438,518.3281 868.2344,518.1094 Q867.625,517.8906 867,517.8906 Q866.2344,517.8906 865.6016,518.2188 Q864.9688,518.5469 864.4766,519.2969 Q863.9844,520.0469 863.9844,521.0781 L863.9844,522.1719 Q863.9844,523.4063 864.875,524.2266 Q865.7656,525.0469 867.3594,525.0469 Q868.2969,525.0469 868.9531,524.7969 Q869.3438,524.6406 869.7656,524.2031 Q870.0313,523.9375 870.1797,523.8594 Q870.3281,523.7813 870.5313,523.7813 Q870.8594,523.7813 871.1172,524.0391 Q871.375,524.2969 871.375,524.6406 Q871.375,524.9844 871.0313,525.3906 Q870.5313,525.9688 869.7344,526.2969 Q868.6563,526.75 867.3594,526.75 Q865.8438,526.75 864.6406,526.125 Q863.6563,525.625 862.9688,524.5547 Q862.2813,523.4844 862.2813,522.2031 L862.2813,521.0469 Q862.2813,519.7188 862.8984,518.5703 Q863.5156,517.4219 864.6094,516.8047 Q865.7031,516.1875 866.9375,516.1875 Q867.6719,516.1875 868.3203,516.3516 Q868.9688,516.5156 869.5156,516.875 Z " fill="#000000"/><text fill="#000000" font-family="sans-serif" font-size="14" lengthAdjust="spacing" textLength="51" x="887.25" y="526.7285">Savable</text><line style="stroke:#181818;stroke-width:0.5;" x1="809.5" x2="983.5" y1="537" y2="537"/><text fill="#000000" font-family="sans-serif" font-size="14" lengthAdjust="spacing" textLength="90" x="814.5" y="555.5332">"__exclude__"</text><text fill="#000000" font-family="sans-serif" font-size="14" lengthAdjust="spacing" textLength="56" x="814.5" y="573.1426">resource</text><text fill="#000000" font-family="sans-serif" font-size="14" lengthAdjust="spacing" textLength="56" x="814.5" y="590.752">is_saved</text><line style="stroke:#181818;stroke-width:0.5;" x1="809.5" x2="983.5" y1="597.8281" y2="597.8281"/><text fill="#000000" font-family="sans-serif" font-size="14" lengthAdjust="spacing" textLength="104" x="814.5" y="616.3613">save(int level=0)</text><text fill="#000000" font-family="sans-serif" font-size="14" lengthAdjust="spacing" textLength="56" x="814.5" y="633.9707">to_json()</text><text fill="#000000" font-family="sans-serif" font-size="14" lengthAdjust="spacing" textLength="164" x="814.5" y="651.5801">is_excluded(str atr_name)</text></g><!--MD5=[c0b936abb008b3271898d4186b5531e4]
class Table--><g id="elem_Table"><rect codeLine="41" fill="#F1F1F1" height="83.2188" id="Table" rx="2.5" ry="2.5" style="stroke:#181818;stroke-width:0.5;" width="102" x="617.5" y="719"/><ellipse cx="647.8" cy="735" fill="#ADD1B2" rx="11" ry="11" style="stroke:#181818;stroke-width:1.0;"/><path d="M650.5656,730.875 Q650.7219,730.6563 650.9094,730.5469 Q651.0969,730.4375 651.3156,730.4375 Q651.6906,730.4375 651.925,730.6953 Q652.1594,730.9531 652.1594,731.5625 L652.1594,733.0156 Q652.1594,733.625 651.925,733.8906 Q651.6906,734.1563 651.3156,734.1563 Q650.9719,734.1563 650.7688,733.9531 Q650.5656,733.7656 650.4563,733.25 Q650.4094,732.8906 650.2219,732.7031 Q649.8938,732.3281 649.2844,732.1094 Q648.675,731.8906 648.05,731.8906 Q647.2844,731.8906 646.6516,732.2188 Q646.0188,732.5469 645.5266,733.2969 Q645.0344,734.0469 645.0344,735.0781 L645.0344,736.1719 Q645.0344,737.4063 645.925,738.2266 Q646.8156,739.0469 648.4094,739.0469 Q649.3469,739.0469 650.0031,738.7969 Q650.3938,738.6406 650.8156,738.2031 Q651.0813,737.9375 651.2297,737.8594 Q651.3781,737.7813 651.5813,737.7813 Q651.9094,737.7813 652.1672,738.0391 Q652.425,738.2969 652.425,738.6406 Q652.425,738.9844 652.0813,739.3906 Q651.5813,739.9688 650.7844,740.2969 Q649.7063,740.75 648.4094,740.75 Q646.8938,740.75 645.6906,740.125 Q644.7063,739.625 644.0188,738.5547 Q643.3313,737.4844 643.3313,736.2031 L643.3313,735.0469 Q643.3313,733.7188 643.9484,732.5703 Q644.5656,731.4219 645.6594,730.8047 Q646.7531,730.1875 647.9875,730.1875 Q648.7219,730.1875 649.3703,730.3516 Q650.0188,730.5156 650.5656,730.875 Z " fill="#000000"/><text fill="#000000" font-family="sans-serif" font-size="14" lengthAdjust="spacing" textLength="36" x="665.2" y="740.7285">Table</text><line style="stroke:#181818;stroke-width:0.5;" x1="618.5" x2="718.5" y1="751" y2="751"/><text fill="#000000" font-family="sans-serif" font-size="14" lengthAdjust="spacing" textLength="90" x="623.5" y="769.5332">name = res_id</text><text fill="#000000" font-family="sans-serif" font-size="14" lengthAdjust="spacing" textLength="16" x="623.5" y="787.1426">bd</text><line style="stroke:#181818;stroke-width:0.5;" x1="618.5" x2="718.5" y1="794.2188" y2="794.2188"/></g><!--MD5=[370961c8c67dbe83008ce44ed56af7e8]
class GresTable--><g id="elem_GresTable"><rect codeLine="46" fill="#F1F1F1" height="48" id="GresTable" rx="2.5" ry="2.5" style="stroke:#181818;stroke-width:0.5;" width="99" x="483" y="736.5"/><ellipse cx="498" cy="752.5" fill="#ADD1B2" rx="11" ry="11" style="stroke:#181818;stroke-width:1.0;"/><path d="M500.7656,748.375 Q500.9219,748.1563 501.1094,748.0469 Q501.2969,747.9375 501.5156,747.9375 Q501.8906,747.9375 502.125,748.1953 Q502.3594,748.4531 502.3594,749.0625 L502.3594,750.5156 Q502.3594,751.125 502.125,751.3906 Q501.8906,751.6563 501.5156,751.6563 Q501.1719,751.6563 500.9688,751.4531 Q500.7656,751.2656 500.6563,750.75 Q500.6094,750.3906 500.4219,750.2031 Q500.0938,749.8281 499.4844,749.6094 Q498.875,749.3906 498.25,749.3906 Q497.4844,749.3906 496.8516,749.7188 Q496.2188,750.0469 495.7266,750.7969 Q495.2344,751.5469 495.2344,752.5781 L495.2344,753.6719 Q495.2344,754.9063 496.125,755.7266 Q497.0156,756.5469 498.6094,756.5469 Q499.5469,756.5469 500.2031,756.2969 Q500.5938,756.1406 501.0156,755.7031 Q501.2813,755.4375 501.4297,755.3594 Q501.5781,755.2813 501.7813,755.2813 Q502.1094,755.2813 502.3672,755.5391 Q502.625,755.7969 502.625,756.1406 Q502.625,756.4844 502.2813,756.8906 Q501.7813,757.4688 500.9844,757.7969 Q499.9063,758.25 498.6094,758.25 Q497.0938,758.25 495.8906,757.625 Q494.9063,757.125 494.2188,756.0547 Q493.5313,754.9844 493.5313,753.7031 L493.5313,752.5469 Q493.5313,751.2188 494.1484,750.0703 Q494.7656,748.9219 495.8594,748.3047 Q496.9531,747.6875 498.1875,747.6875 Q498.9219,747.6875 499.5703,747.8516 Q500.2188,748.0156 500.7656,748.375 Z " fill="#000000"/><text fill="#000000" font-family="sans-serif" font-size="14" lengthAdjust="spacing" textLength="67" x="512" y="758.2285">GresTable</text><line style="stroke:#181818;stroke-width:0.5;" x1="484" x2="581" y1="768.5" y2="768.5"/><line style="stroke:#181818;stroke-width:0.5;" x1="484" x2="581" y1="776.5" y2="776.5"/></g><!--MD5=[d9ddd8318e09ba6dc510ea66047114ff]
class JsonbTable--><g id="elem_JsonbTable"><rect codeLine="47" fill="#F1F1F1" height="48" id="JsonbTable" rx="2.5" ry="2.5" style="stroke:#181818;stroke-width:0.5;" width="105" x="480" y="862"/><ellipse cx="495" cy="878" fill="#ADD1B2" rx="11" ry="11" style="stroke:#181818;stroke-width:1.0;"/><path d="M497.7656,873.875 Q497.9219,873.6563 498.1094,873.5469 Q498.2969,873.4375 498.5156,873.4375 Q498.8906,873.4375 499.125,873.6953 Q499.3594,873.9531 499.3594,874.5625 L499.3594,876.0156 Q499.3594,876.625 499.125,876.8906 Q498.8906,877.1563 498.5156,877.1563 Q498.1719,877.1563 497.9688,876.9531 Q497.7656,876.7656 497.6563,876.25 Q497.6094,875.8906 497.4219,875.7031 Q497.0938,875.3281 496.4844,875.1094 Q495.875,874.8906 495.25,874.8906 Q494.4844,874.8906 493.8516,875.2188 Q493.2188,875.5469 492.7266,876.2969 Q492.2344,877.0469 492.2344,878.0781 L492.2344,879.1719 Q492.2344,880.4063 493.125,881.2266 Q494.0156,882.0469 495.6094,882.0469 Q496.5469,882.0469 497.2031,881.7969 Q497.5938,881.6406 498.0156,881.2031 Q498.2813,880.9375 498.4297,880.8594 Q498.5781,880.7813 498.7813,880.7813 Q499.1094,880.7813 499.3672,881.0391 Q499.625,881.2969 499.625,881.6406 Q499.625,881.9844 499.2813,882.3906 Q498.7813,882.9688 497.9844,883.2969 Q496.9063,883.75 495.6094,883.75 Q494.0938,883.75 492.8906,883.125 Q491.9063,882.625 491.2188,881.5547 Q490.5313,880.4844 490.5313,879.2031 L490.5313,878.0469 Q490.5313,876.7188 491.1484,875.5703 Q491.7656,874.4219 492.8594,873.8047 Q493.9531,873.1875 495.1875,873.1875 Q495.9219,873.1875 496.5703,873.3516 Q497.2188,873.5156 497.7656,873.875 Z " fill="#000000"/><text fill="#000000" font-family="sans-serif" font-size="14" lengthAdjust="spacing" textLength="73" x="509" y="883.7285">JsonbTable</text><line style="stroke:#181818;stroke-width:0.5;" x1="481" x2="584" y1="894" y2="894"/><line style="stroke:#181818;stroke-width:0.5;" x1="481" x2="584" y1="902" y2="902"/></g><!--MD5=[80ff1cbdbf4e6fafe4447ae5c6d67dc9]
class LiteTable--><g id="elem_LiteTable"><rect codeLine="48" fill="#F1F1F1" height="48" id="LiteTable" rx="2.5" ry="2.5" style="stroke:#181818;stroke-width:0.5;" width="91" x="622" y="862"/><ellipse cx="637" cy="878" fill="#ADD1B2" rx="11" ry="11" style="stroke:#181818;stroke-width:1.0;"/><path d="M639.7656,873.875 Q639.9219,873.6563 640.1094,873.5469 Q640.2969,873.4375 640.5156,873.4375 Q640.8906,873.4375 641.125,873.6953 Q641.3594,873.9531 641.3594,874.5625 L641.3594,876.0156 Q641.3594,876.625 641.125,876.8906 Q640.8906,877.1563 640.5156,877.1563 Q640.1719,877.1563 639.9688,876.9531 Q639.7656,876.7656 639.6563,876.25 Q639.6094,875.8906 639.4219,875.7031 Q639.0938,875.3281 638.4844,875.1094 Q637.875,874.8906 637.25,874.8906 Q636.4844,874.8906 635.8516,875.2188 Q635.2188,875.5469 634.7266,876.2969 Q634.2344,877.0469 634.2344,878.0781 L634.2344,879.1719 Q634.2344,880.4063 635.125,881.2266 Q636.0156,882.0469 637.6094,882.0469 Q638.5469,882.0469 639.2031,881.7969 Q639.5938,881.6406 640.0156,881.2031 Q640.2813,880.9375 640.4297,880.8594 Q640.5781,880.7813 640.7813,880.7813 Q641.1094,880.7813 641.3672,881.0391 Q641.625,881.2969 641.625,881.6406 Q641.625,881.9844 641.2813,882.3906 Q640.7813,882.9688 639.9844,883.2969 Q638.9063,883.75 637.6094,883.75 Q636.0938,883.75 634.8906,883.125 Q633.9063,882.625 633.2188,881.5547 Q632.5313,880.4844 632.5313,879.2031 L632.5313,878.0469 Q632.5313,876.7188 633.1484,875.5703 Q633.7656,874.4219 634.8594,873.8047 Q635.9531,873.1875 637.1875,873.1875 Q637.9219,873.1875 638.5703,873.3516 Q639.2188,873.5156 639.7656,873.875 Z " fill="#000000"/><text fill="#000000" font-family="sans-serif" font-size="14" lengthAdjust="spacing" textLength="59" x="651" y="883.7285">LiteTable</text><line style="stroke:#181818;stroke-width:0.5;" x1="623" x2="712" y1="894" y2="894"/><line style="stroke:#181818;stroke-width:0.5;" x1="623" x2="712" y1="902" y2="902"/></g><!--MD5=[43d6d58434ec60818a2006166dc03379]
class TableHeader--><g id="elem_TableHeader"><rect codeLine="50" fill="#F1F1F1" height="48" id="TableHeader" rx="2.5" ry="2.5" style="stroke:#181818;stroke-width:0.5;" width="114" x="748.5" y="862"/><ellipse cx="763.5" cy="878" fill="#ADD1B2" rx="11" ry="11" style="stroke:#181818;stroke-width:1.0;"/><path d="M766.2656,873.875 Q766.4219,873.6563 766.6094,873.5469 Q766.7969,873.4375 767.0156,873.4375 Q767.3906,873.4375 767.625,873.6953 Q767.8594,873.9531 767.8594,874.5625 L767.8594,876.0156 Q767.8594,876.625 767.625,876.8906 Q767.3906,877.1563 767.0156,877.1563 Q766.6719,877.1563 766.4688,876.9531 Q766.2656,876.7656 766.1563,876.25 Q766.1094,875.8906 765.9219,875.7031 Q765.5938,875.3281 764.9844,875.1094 Q764.375,874.8906 763.75,874.8906 Q762.9844,874.8906 762.3516,875.2188 Q761.7188,875.5469 761.2266,876.2969 Q760.7344,877.0469 760.7344,878.0781 L760.7344,879.1719 Q760.7344,880.4063 761.625,881.2266 Q762.5156,882.0469 764.1094,882.0469 Q765.0469,882.0469 765.7031,881.7969 Q766.0938,881.6406 766.5156,881.2031 Q766.7813,880.9375 766.9297,880.8594 Q767.0781,880.7813 767.2813,880.7813 Q767.6094,880.7813 767.8672,881.0391 Q768.125,881.2969 768.125,881.6406 Q768.125,881.9844 767.7813,882.3906 Q767.2813,882.9688 766.4844,883.2969 Q765.4063,883.75 764.1094,883.75 Q762.5938,883.75 761.3906,883.125 Q760.4063,882.625 759.7188,881.5547 Q759.0313,880.4844 759.0313,879.2031 L759.0313,878.0469 Q759.0313,876.7188 759.6484,875.5703 Q760.2656,874.4219 761.3594,873.8047 Q762.4531,873.1875 763.6875,873.1875 Q764.4219,873.1875 765.0703,873.3516 Q765.7188,873.5156 766.2656,873.875 Z " fill="#000000"/><text fill="#000000" font-family="sans-serif" font-size="14" lengthAdjust="spacing" textLength="82" x="777.5" y="883.7285">TableHeader</text><line style="stroke:#181818;stroke-width:0.5;" x1="749.5" x2="861.5" y1="894" y2="894"/><line style="stroke:#181818;stroke-width:0.5;" x1="749.5" x2="861.5" y1="902" y2="902"/></g><!--MD5=[5de7445a3966e79bc254e6fe5fe40f7b]
class TableColumn--><g id="elem_TableColumn"><rect codeLine="51" fill="#F1F1F1" height="48" id="TableColumn" rx="2.5" ry="2.5" style="stroke:#181818;stroke-width:0.5;" width="116" x="897.5" y="862"/><ellipse cx="912.5" cy="878" fill="#ADD1B2" rx="11" ry="11" style="stroke:#181818;stroke-width:1.0;"/><path d="M915.2656,873.875 Q915.4219,873.6563 915.6094,873.5469 Q915.7969,873.4375 916.0156,873.4375 Q916.3906,873.4375 916.625,873.6953 Q916.8594,873.9531 916.8594,874.5625 L916.8594,876.0156 Q916.8594,876.625 916.625,876.8906 Q916.3906,877.1563 916.0156,877.1563 Q915.6719,877.1563 915.4688,876.9531 Q915.2656,876.7656 915.1563,876.25 Q915.1094,875.8906 914.9219,875.7031 Q914.5938,875.3281 913.9844,875.1094 Q913.375,874.8906 912.75,874.8906 Q911.9844,874.8906 911.3516,875.2188 Q910.7188,875.5469 910.2266,876.2969 Q909.7344,877.0469 909.7344,878.0781 L909.7344,879.1719 Q909.7344,880.4063 910.625,881.2266 Q911.5156,882.0469 913.1094,882.0469 Q914.0469,882.0469 914.7031,881.7969 Q915.0938,881.6406 915.5156,881.2031 Q915.7813,880.9375 915.9297,880.8594 Q916.0781,880.7813 916.2813,880.7813 Q916.6094,880.7813 916.8672,881.0391 Q917.125,881.2969 917.125,881.6406 Q917.125,881.9844 916.7813,882.3906 Q916.2813,882.9688 915.4844,883.2969 Q914.4063,883.75 913.1094,883.75 Q911.5938,883.75 910.3906,883.125 Q909.4063,882.625 908.7188,881.5547 Q908.0313,880.4844 908.0313,879.2031 L908.0313,878.0469 Q908.0313,876.7188 908.6484,875.5703 Q909.2656,874.4219 910.3594,873.8047 Q911.4531,873.1875 912.6875,873.1875 Q913.4219,873.1875 914.0703,873.3516 Q914.7188,873.5156 915.2656,873.875 Z " fill="#000000"/><text fill="#000000" font-family="sans-serif" font-size="14" lengthAdjust="spacing" textLength="84" x="926.5" y="883.7285">TableColumn</text><line style="stroke:#181818;stroke-width:0.5;" x1="898.5" x2="1012.5" y1="894" y2="894"/><line style="stroke:#181818;stroke-width:0.5;" x1="898.5" x2="1012.5" y1="902" y2="902"/></g><!--MD5=[8699619b1008ad6a65e734fe7c7e339d]
class NotNull--><g id="elem_NotNull"><rect codeLine="52" fill="#F1F1F1" height="48" id="NotNull" rx="2.5" ry="2.5" style="stroke:#181818;stroke-width:0.5;" width="76" x="317.5" y="7"/><ellipse cx="332.5" cy="23" fill="#ADD1B2" rx="11" ry="11" style="stroke:#181818;stroke-width:1.0;"/><path d="M335.2656,18.875 Q335.4219,18.6563 335.6094,18.5469 Q335.7969,18.4375 336.0156,18.4375 Q336.3906,18.4375 336.625,18.6953 Q336.8594,18.9531 336.8594,19.5625 L336.8594,21.0156 Q336.8594,21.625 336.625,21.8906 Q336.3906,22.1563 336.0156,22.1563 Q335.6719,22.1563 335.4688,21.9531 Q335.2656,21.7656 335.1563,21.25 Q335.1094,20.8906 334.9219,20.7031 Q334.5938,20.3281 333.9844,20.1094 Q333.375,19.8906 332.75,19.8906 Q331.9844,19.8906 331.3516,20.2188 Q330.7188,20.5469 330.2266,21.2969 Q329.7344,22.0469 329.7344,23.0781 L329.7344,24.1719 Q329.7344,25.4063 330.625,26.2266 Q331.5156,27.0469 333.1094,27.0469 Q334.0469,27.0469 334.7031,26.7969 Q335.0938,26.6406 335.5156,26.2031 Q335.7813,25.9375 335.9297,25.8594 Q336.0781,25.7813 336.2813,25.7813 Q336.6094,25.7813 336.8672,26.0391 Q337.125,26.2969 337.125,26.6406 Q337.125,26.9844 336.7813,27.3906 Q336.2813,27.9688 335.4844,28.2969 Q334.4063,28.75 333.1094,28.75 Q331.5938,28.75 330.3906,28.125 Q329.4063,27.625 328.7188,26.5547 Q328.0313,25.4844 328.0313,24.2031 L328.0313,23.0469 Q328.0313,21.7188 328.6484,20.5703 Q329.2656,19.4219 330.3594,18.8047 Q331.4531,18.1875 332.6875,18.1875 Q333.4219,18.1875 334.0703,18.3516 Q334.7188,18.5156 335.2656,18.875 Z " fill="#000000"/><text fill="#000000" font-family="sans-serif" font-size="14" lengthAdjust="spacing" textLength="44" x="346.5" y="28.7285">NotNull</text><line style="stroke:#181818;stroke-width:0.5;" x1="318.5" x2="392.5" y1="39" y2="39"/><line style="stroke:#181818;stroke-width:0.5;" x1="318.5" x2="392.5" y1="47" y2="47"/></g><!--MD5=[a6cda19987f54858434fa4113610982e]
class FileResource--><g id="elem_FileResource"><rect codeLine="54" fill="#F1F1F1" height="65.6094" id="FileResource" rx="2.5" ry="2.5" style="stroke:#181818;stroke-width:0.5;" width="116" x="1208.5" y="549"/><ellipse cx="1223.5" cy="565" fill="#ADD1B2" rx="11" ry="11" style="stroke:#181818;stroke-width:1.0;"/><path d="M1226.2656,560.875 Q1226.4219,560.6563 1226.6094,560.5469 Q1226.7969,560.4375 1227.0156,560.4375 Q1227.3906,560.4375 1227.625,560.6953 Q1227.8594,560.9531 1227.8594,561.5625 L1227.8594,563.0156 Q1227.8594,563.625 1227.625,563.8906 Q1227.3906,564.1563 1227.0156,564.1563 Q1226.6719,564.1563 1226.4688,563.9531 Q1226.2656,563.7656 1226.1563,563.25 Q1226.1094,562.8906 1225.9219,562.7031 Q1225.5938,562.3281 1224.9844,562.1094 Q1224.375,561.8906 1223.75,561.8906 Q1222.9844,561.8906 1222.3516,562.2188 Q1221.7188,562.5469 1221.2266,563.2969 Q1220.7344,564.0469 1220.7344,565.0781 L1220.7344,566.1719 Q1220.7344,567.4063 1221.625,568.2266 Q1222.5156,569.0469 1224.1094,569.0469 Q1225.0469,569.0469 1225.7031,568.7969 Q1226.0938,568.6406 1226.5156,568.2031 Q1226.7813,567.9375 1226.9297,567.8594 Q1227.0781,567.7813 1227.2813,567.7813 Q1227.6094,567.7813 1227.8672,568.0391 Q1228.125,568.2969 1228.125,568.6406 Q1228.125,568.9844 1227.7813,569.3906 Q1227.2813,569.9688 1226.4844,570.2969 Q1225.4063,570.75 1224.1094,570.75 Q1222.5938,570.75 1221.3906,570.125 Q1220.4063,569.625 1219.7188,568.5547 Q1219.0313,567.4844 1219.0313,566.2031 L1219.0313,565.0469 Q1219.0313,563.7188 1219.6484,562.5703 Q1220.2656,561.4219 1221.3594,560.8047 Q1222.4531,560.1875 1223.6875,560.1875 Q1224.4219,560.1875 1225.0703,560.3516 Q1225.7188,560.5156 1226.2656,560.875 Z " fill="#000000"/><text fill="#000000" font-family="sans-serif" font-size="14" lengthAdjust="spacing" textLength="84" x="1237.5" y="570.7285">FileResource</text><line style="stroke:#181818;stroke-width:0.5;" x1="1209.5" x2="1323.5" y1="581" y2="581"/><line style="stroke:#181818;stroke-width:0.5;" x1="1209.5" x2="1323.5" y1="589" y2="589"/><text fill="#000000" font-family="sans-serif" font-size="14" lengthAdjust="spacing" textLength="76" x="1214.5" y="607.5332">init(str path)</text></g><!--MD5=[e3c91158bcdad03aa33a6fcf074a92a7]
class IniFile--><g id="elem_IniFile"><rect codeLine="58" fill="#F1F1F1" height="48" id="IniFile" rx="2.5" ry="2.5" style="stroke:#181818;stroke-width:0.5;" width="69" x="1315" y="256"/><ellipse cx="1330" cy="272" fill="#ADD1B2" rx="11" ry="11" style="stroke:#181818;stroke-width:1.0;"/><path d="M1332.7656,267.875 Q1332.9219,267.6563 1333.1094,267.5469 Q1333.2969,267.4375 1333.5156,267.4375 Q1333.8906,267.4375 1334.125,267.6953 Q1334.3594,267.9531 1334.3594,268.5625 L1334.3594,270.0156 Q1334.3594,270.625 1334.125,270.8906 Q1333.8906,271.1563 1333.5156,271.1563 Q1333.1719,271.1563 1332.9688,270.9531 Q1332.7656,270.7656 1332.6563,270.25 Q1332.6094,269.8906 1332.4219,269.7031 Q1332.0938,269.3281 1331.4844,269.1094 Q1330.875,268.8906 1330.25,268.8906 Q1329.4844,268.8906 1328.8516,269.2188 Q1328.2188,269.5469 1327.7266,270.2969 Q1327.2344,271.0469 1327.2344,272.0781 L1327.2344,273.1719 Q1327.2344,274.4063 1328.125,275.2266 Q1329.0156,276.0469 1330.6094,276.0469 Q1331.5469,276.0469 1332.2031,275.7969 Q1332.5938,275.6406 1333.0156,275.2031 Q1333.2813,274.9375 1333.4297,274.8594 Q1333.5781,274.7813 1333.7813,274.7813 Q1334.1094,274.7813 1334.3672,275.0391 Q1334.625,275.2969 1334.625,275.6406 Q1334.625,275.9844 1334.2813,276.3906 Q1333.7813,276.9688 1332.9844,277.2969 Q1331.9063,277.75 1330.6094,277.75 Q1329.0938,277.75 1327.8906,277.125 Q1326.9063,276.625 1326.2188,275.5547 Q1325.5313,274.4844 1325.5313,273.2031 L1325.5313,272.0469 Q1325.5313,270.7188 1326.1484,269.5703 Q1326.7656,268.4219 1327.8594,267.8047 Q1328.9531,267.1875 1330.1875,267.1875 Q1330.9219,267.1875 1331.5703,267.3516 Q1332.2188,267.5156 1332.7656,267.875 Z " fill="#000000"/><text fill="#000000" font-family="sans-serif" font-size="14" lengthAdjust="spacing" textLength="37" x="1344" y="277.7285">IniFile</text><line style="stroke:#181818;stroke-width:0.5;" x1="1316" x2="1383" y1="288" y2="288"/><line style="stroke:#181818;stroke-width:0.5;" x1="1316" x2="1383" y1="296" y2="296"/></g><!--MD5=[d6207198cce69febe883b1dce65d01a1]
class IniSection--><g id="elem_IniSection"><rect codeLine="59" fill="#F1F1F1" height="48" id="IniSection" rx="2.5" ry="2.5" style="stroke:#181818;stroke-width:0.5;" width="93" x="1394" y="736.5"/><ellipse cx="1409" cy="752.5" fill="#ADD1B2" rx="11" ry="11" style="stroke:#181818;stroke-width:1.0;"/><path d="M1411.7656,748.375 Q1411.9219,748.1563 1412.1094,748.0469 Q1412.2969,747.9375 1412.5156,747.9375 Q1412.8906,747.9375 1413.125,748.1953 Q1413.3594,748.4531 1413.3594,749.0625 L1413.3594,750.5156 Q1413.3594,751.125 1413.125,751.3906 Q1412.8906,751.6563 1412.5156,751.6563 Q1412.1719,751.6563 1411.9688,751.4531 Q1411.7656,751.2656 1411.6563,750.75 Q1411.6094,750.3906 1411.4219,750.2031 Q1411.0938,749.8281 1410.4844,749.6094 Q1409.875,749.3906 1409.25,749.3906 Q1408.4844,749.3906 1407.8516,749.7188 Q1407.2188,750.0469 1406.7266,750.7969 Q1406.2344,751.5469 1406.2344,752.5781 L1406.2344,753.6719 Q1406.2344,754.9063 1407.125,755.7266 Q1408.0156,756.5469 1409.6094,756.5469 Q1410.5469,756.5469 1411.2031,756.2969 Q1411.5938,756.1406 1412.0156,755.7031 Q1412.2813,755.4375 1412.4297,755.3594 Q1412.5781,755.2813 1412.7813,755.2813 Q1413.1094,755.2813 1413.3672,755.5391 Q1413.625,755.7969 1413.625,756.1406 Q1413.625,756.4844 1413.2813,756.8906 Q1412.7813,757.4688 1411.9844,757.7969 Q1410.9063,758.25 1409.6094,758.25 Q1408.0938,758.25 1406.8906,757.625 Q1405.9063,757.125 1405.2188,756.0547 Q1404.5313,754.9844 1404.5313,753.7031 L1404.5313,752.5469 Q1404.5313,751.2188 1405.1484,750.0703 Q1405.7656,748.9219 1406.8594,748.3047 Q1407.9531,747.6875 1409.1875,747.6875 Q1409.9219,747.6875 1410.5703,747.8516 Q1411.2188,748.0156 1411.7656,748.375 Z " fill="#000000"/><text fill="#000000" font-family="sans-serif" font-size="14" lengthAdjust="spacing" textLength="61" x="1423" y="758.2285">IniSection</text><line style="stroke:#181818;stroke-width:0.5;" x1="1395" x2="1486" y1="768.5" y2="768.5"/><line style="stroke:#181818;stroke-width:0.5;" x1="1395" x2="1486" y1="776.5" y2="776.5"/></g><!--MD5=[e3e99a18f832b8bfe8c6c1c33e99e423]
class NoneIniSection--><g id="elem_NoneIniSection"><rect codeLine="60" fill="#F1F1F1" height="48" id="NoneIniSection" rx="2.5" ry="2.5" style="stroke:#181818;stroke-width:0.5;" width="126" x="1368.5" y="558"/><ellipse cx="1383.5" cy="574" fill="#ADD1B2" rx="11" ry="11" style="stroke:#181818;stroke-width:1.0;"/><path d="M1386.2656,569.875 Q1386.4219,569.6563 1386.6094,569.5469 Q1386.7969,569.4375 1387.0156,569.4375 Q1387.3906,569.4375 1387.625,569.6953 Q1387.8594,569.9531 1387.8594,570.5625 L1387.8594,572.0156 Q1387.8594,572.625 1387.625,572.8906 Q1387.3906,573.1563 1387.0156,573.1563 Q1386.6719,573.1563 1386.4688,572.9531 Q1386.2656,572.7656 1386.1563,572.25 Q1386.1094,571.8906 1385.9219,571.7031 Q1385.5938,571.3281 1384.9844,571.1094 Q1384.375,570.8906 1383.75,570.8906 Q1382.9844,570.8906 1382.3516,571.2188 Q1381.7188,571.5469 1381.2266,572.2969 Q1380.7344,573.0469 1380.7344,574.0781 L1380.7344,575.1719 Q1380.7344,576.4063 1381.625,577.2266 Q1382.5156,578.0469 1384.1094,578.0469 Q1385.0469,578.0469 1385.7031,577.7969 Q1386.0938,577.6406 1386.5156,577.2031 Q1386.7813,576.9375 1386.9297,576.8594 Q1387.0781,576.7813 1387.2813,576.7813 Q1387.6094,576.7813 1387.8672,577.0391 Q1388.125,577.2969 1388.125,577.6406 Q1388.125,577.9844 1387.7813,578.3906 Q1387.2813,578.9688 1386.4844,579.2969 Q1385.4063,579.75 1384.1094,579.75 Q1382.5938,579.75 1381.3906,579.125 Q1380.4063,578.625 1379.7188,577.5547 Q1379.0313,576.4844 1379.0313,575.2031 L1379.0313,574.0469 Q1379.0313,572.7188 1379.6484,571.5703 Q1380.2656,570.4219 1381.3594,569.8047 Q1382.4531,569.1875 1383.6875,569.1875 Q1384.4219,569.1875 1385.0703,569.3516 Q1385.7188,569.5156 1386.2656,569.875 Z " fill="#000000"/><text fill="#000000" font-family="sans-serif" font-size="14" lengthAdjust="spacing" textLength="94" x="1397.5" y="579.7285">NoneIniSection</text><line style="stroke:#181818;stroke-width:0.5;" x1="1369.5" x2="1493.5" y1="590" y2="590"/><line style="stroke:#181818;stroke-width:0.5;" x1="1369.5" x2="1493.5" y1="598" y2="598"/></g><!--MD5=[715128bba345a62fb0ee618baa868826]
class JsonFile--><g id="elem_JsonFile"><rect codeLine="61" fill="#F1F1F1" height="83.2188" id="JsonFile" rx="2.5" ry="2.5" style="stroke:#181818;stroke-width:0.5;" width="184" x="1174.5" y="719"/><ellipse cx="1236.25" cy="735" fill="#ADD1B2" rx="11" ry="11" style="stroke:#181818;stroke-width:1.0;"/><path d="M1239.0156,730.875 Q1239.1719,730.6563 1239.3594,730.5469 Q1239.5469,730.4375 1239.7656,730.4375 Q1240.1406,730.4375 1240.375,730.6953 Q1240.6094,730.9531 1240.6094,731.5625 L1240.6094,733.0156 Q1240.6094,733.625 1240.375,733.8906 Q1240.1406,734.1563 1239.7656,734.1563 Q1239.4219,734.1563 1239.2188,733.9531 Q1239.0156,733.7656 1238.9063,733.25 Q1238.8594,732.8906 1238.6719,732.7031 Q1238.3438,732.3281 1237.7344,732.1094 Q1237.125,731.8906 1236.5,731.8906 Q1235.7344,731.8906 1235.1016,732.2188 Q1234.4688,732.5469 1233.9766,733.2969 Q1233.4844,734.0469 1233.4844,735.0781 L1233.4844,736.1719 Q1233.4844,737.4063 1234.375,738.2266 Q1235.2656,739.0469 1236.8594,739.0469 Q1237.7969,739.0469 1238.4531,738.7969 Q1238.8438,738.6406 1239.2656,738.2031 Q1239.5313,737.9375 1239.6797,737.8594 Q1239.8281,737.7813 1240.0313,737.7813 Q1240.3594,737.7813 1240.6172,738.0391 Q1240.875,738.2969 1240.875,738.6406 Q1240.875,738.9844 1240.5313,739.3906 Q1240.0313,739.9688 1239.2344,740.2969 Q1238.1563,740.75 1236.8594,740.75 Q1235.3438,740.75 1234.1406,740.125 Q1233.1563,739.625 1232.4688,738.5547 Q1231.7813,737.4844 1231.7813,736.2031 L1231.7813,735.0469 Q1231.7813,733.7188 1232.3984,732.5703 Q1233.0156,731.4219 1234.1094,730.8047 Q1235.2031,730.1875 1236.4375,730.1875 Q1237.1719,730.1875 1237.8203,730.3516 Q1238.4688,730.5156 1239.0156,730.875 Z " fill="#000000"/><text fill="#000000" font-family="sans-serif" font-size="14" lengthAdjust="spacing" textLength="52" x="1256.75" y="740.7285">JsonFile</text><line style="stroke:#181818;stroke-width:0.5;" x1="1175.5" x2="1357.5" y1="751" y2="751"/><line style="stroke:#181818;stroke-width:0.5;" x1="1175.5" x2="1357.5" y1="759" y2="759"/><text fill="#000000" font-family="sans-serif" font-size="14" lengthAdjust="spacing" textLength="172" x="1180.5" y="777.5332">serialize(Savable resource)</text><text fill="#000000" font-family="sans-serif" font-size="14" lengthAdjust="spacing" textLength="115" x="1180.5" y="795.1426">deserialize(object)</text></g><!--MD5=[3fee75583bb7a64f68d843a3c9534ab3]
class Node--><g id="elem_Node"><rect codeLine="66" fill="#F1F1F1" height="65.6094" id="Node" rx="2.5" ry="2.5" style="stroke:#181818;stroke-width:0.5;" width="100" x="1019.5" y="549"/><ellipse cx="1050.25" cy="565" fill="#ADD1B2" rx="11" ry="11" style="stroke:#181818;stroke-width:1.0;"/><path d="M1053.0156,560.875 Q1053.1719,560.6563 1053.3594,560.5469 Q1053.5469,560.4375 1053.7656,560.4375 Q1054.1406,560.4375 1054.375,560.6953 Q1054.6094,560.9531 1054.6094,561.5625 L1054.6094,563.0156 Q1054.6094,563.625 1054.375,563.8906 Q1054.1406,564.1563 1053.7656,564.1563 Q1053.4219,564.1563 1053.2188,563.9531 Q1053.0156,563.7656 1052.9063,563.25 Q1052.8594,562.8906 1052.6719,562.7031 Q1052.3438,562.3281 1051.7344,562.1094 Q1051.125,561.8906 1050.5,561.8906 Q1049.7344,561.8906 1049.1016,562.2188 Q1048.4688,562.5469 1047.9766,563.2969 Q1047.4844,564.0469 1047.4844,565.0781 L1047.4844,566.1719 Q1047.4844,567.4063 1048.375,568.2266 Q1049.2656,569.0469 1050.8594,569.0469 Q1051.7969,569.0469 1052.4531,568.7969 Q1052.8438,568.6406 1053.2656,568.2031 Q1053.5313,567.9375 1053.6797,567.8594 Q1053.8281,567.7813 1054.0313,567.7813 Q1054.3594,567.7813 1054.6172,568.0391 Q1054.875,568.2969 1054.875,568.6406 Q1054.875,568.9844 1054.5313,569.3906 Q1054.0313,569.9688 1053.2344,570.2969 Q1052.1563,570.75 1050.8594,570.75 Q1049.3438,570.75 1048.1406,570.125 Q1047.1563,569.625 1046.4688,568.5547 Q1045.7813,567.4844 1045.7813,566.2031 L1045.7813,565.0469 Q1045.7813,563.7188 1046.3984,562.5703 Q1047.0156,561.4219 1048.1094,560.8047 Q1049.2031,560.1875 1050.4375,560.1875 Q1051.1719,560.1875 1051.8203,560.3516 Q1052.4688,560.5156 1053.0156,560.875 Z " fill="#000000"/><text fill="#000000" font-family="sans-serif" font-size="14" lengthAdjust="spacing" textLength="33" x="1067.75" y="570.7285">Node</text><line style="stroke:#181818;stroke-width:0.5;" x1="1020.5" x2="1118.5" y1="581" y2="581"/><line style="stroke:#181818;stroke-width:0.5;" x1="1020.5" x2="1118.5" y1="589" y2="589"/><text fill="#000000" font-family="sans-serif" font-size="14" lengthAdjust="spacing" textLength="88" x="1025.5" y="607.5332">save(int level)</text></g><!--MD5=[2486d40b882f2b25a6a3a545ecdc85be]
class TableNode--><g id="elem_TableNode"><rect codeLine="70" fill="#F1F1F1" height="83.2188" id="TableNode" rx="2.5" ry="2.5" style="stroke:#181818;stroke-width:0.5;" width="160" x="979.5" y="719"/><ellipse cx="1021.05" cy="735" fill="#ADD1B2" rx="11" ry="11" style="stroke:#181818;stroke-width:1.0;"/><path d="M1023.8156,730.875 Q1023.9719,730.6563 1024.1594,730.5469 Q1024.3469,730.4375 1024.5656,730.4375 Q1024.9406,730.4375 1025.175,730.6953 Q1025.4094,730.9531 1025.4094,731.5625 L1025.4094,733.0156 Q1025.4094,733.625 1025.175,733.8906 Q1024.9406,734.1563 1024.5656,734.1563 Q1024.2219,734.1563 1024.0188,733.9531 Q1023.8156,733.7656 1023.7063,733.25 Q1023.6594,732.8906 1023.4719,732.7031 Q1023.1438,732.3281 1022.5344,732.1094 Q1021.925,731.8906 1021.3,731.8906 Q1020.5344,731.8906 1019.9016,732.2188 Q1019.2688,732.5469 1018.7766,733.2969 Q1018.2844,734.0469 1018.2844,735.0781 L1018.2844,736.1719 Q1018.2844,737.4063 1019.175,738.2266 Q1020.0656,739.0469 1021.6594,739.0469 Q1022.5969,739.0469 1023.2531,738.7969 Q1023.6438,738.6406 1024.0656,738.2031 Q1024.3313,737.9375 1024.4797,737.8594 Q1024.6281,737.7813 1024.8313,737.7813 Q1025.1594,737.7813 1025.4172,738.0391 Q1025.675,738.2969 1025.675,738.6406 Q1025.675,738.9844 1025.3313,739.3906 Q1024.8313,739.9688 1024.0344,740.2969 Q1022.9563,740.75 1021.6594,740.75 Q1020.1438,740.75 1018.9406,740.125 Q1017.9563,739.625 1017.2688,738.5547 Q1016.5813,737.4844 1016.5813,736.2031 L1016.5813,735.0469 Q1016.5813,733.7188 1017.1984,732.5703 Q1017.8156,731.4219 1018.9094,730.8047 Q1020.0031,730.1875 1021.2375,730.1875 Q1021.9719,730.1875 1022.6203,730.3516 Q1023.2688,730.5156 1023.8156,730.875 Z " fill="#000000"/><text fill="#000000" font-family="sans-serif" font-size="14" lengthAdjust="spacing" textLength="69" x="1040.95" y="740.7285">TableNode</text><line style="stroke:#181818;stroke-width:0.5;" x1="980.5" x2="1138.5" y1="751" y2="751"/><text fill="#000000" font-family="sans-serif" font-size="14" lengthAdjust="spacing" textLength="103" x="985.5" y="769.5332">table = resource</text><text fill="#000000" font-family="sans-serif" font-size="14" lengthAdjust="spacing" textLength="148" x="985.5" y="787.1426">db = resource.resource</text><line style="stroke:#181818;stroke-width:0.5;" x1="980.5" x2="1138.5" y1="794.2188" y2="794.2188"/></g><!--MD5=[8fb7c67164596481d90bd4ec75b6ad0a]
class DbEntityResource--><g id="elem_DbEntityResource"><rect fill="#F1F1F1" height="48" id="DbEntityResource" rx="2.5" ry="2.5" style="stroke:#181818;stroke-width:0.5;" width="146" x="556.5" y="256"/><ellipse cx="571.5" cy="272" fill="#ADD1B2" rx="11" ry="11" style="stroke:#181818;stroke-width:1.0;"/><path d="M574.2656,267.875 Q574.4219,267.6563 574.6094,267.5469 Q574.7969,267.4375 575.0156,267.4375 Q575.3906,267.4375 575.625,267.6953 Q575.8594,267.9531 575.8594,268.5625 L575.8594,270.0156 Q575.8594,270.625 575.625,270.8906 Q575.3906,271.1563 575.0156,271.1563 Q574.6719,271.1563 574.4688,270.9531 Q574.2656,270.7656 574.1563,270.25 Q574.1094,269.8906 573.9219,269.7031 Q573.5938,269.3281 572.9844,269.1094 Q572.375,268.8906 571.75,268.8906 Q570.9844,268.8906 570.3516,269.2188 Q569.7188,269.5469 569.2266,270.2969 Q568.7344,271.0469 568.7344,272.0781 L568.7344,273.1719 Q568.7344,274.4063 569.625,275.2266 Q570.5156,276.0469 572.1094,276.0469 Q573.0469,276.0469 573.7031,275.7969 Q574.0938,275.6406 574.5156,275.2031 Q574.7813,274.9375 574.9297,274.8594 Q575.0781,274.7813 575.2813,274.7813 Q575.6094,274.7813 575.8672,275.0391 Q576.125,275.2969 576.125,275.6406 Q576.125,275.9844 575.7813,276.3906 Q575.2813,276.9688 574.4844,277.2969 Q573.4063,277.75 572.1094,277.75 Q570.5938,277.75 569.3906,277.125 Q568.4063,276.625 567.7188,275.5547 Q567.0313,274.4844 567.0313,273.2031 L567.0313,272.0469 Q567.0313,270.7188 567.6484,269.5703 Q568.2656,268.4219 569.3594,267.8047 Q570.4531,267.1875 571.6875,267.1875 Q572.4219,267.1875 573.0703,267.3516 Q573.7188,267.5156 574.2656,267.875 Z " fill="#000000"/><text fill="#000000" font-family="sans-serif" font-size="14" lengthAdjust="spacing" textLength="114" x="585.5" y="277.7285">DbEntityResource</text><line style="stroke:#181818;stroke-width:0.5;" x1="557.5" x2="701.5" y1="288" y2="288"/><line style="stroke:#181818;stroke-width:0.5;" x1="557.5" x2="701.5" y1="296" y2="296"/></g><!--MD5=[1e7095485db10410c06d439f922e3d53]
class TableStorage--><g id="elem_TableStorage"><rect fill="#F1F1F1" height="48" id="TableStorage" rx="2.5" ry="2.5" style="stroke:#181818;stroke-width:0.5;" width="118" x="403.5" y="256"/><ellipse cx="418.5" cy="272" fill="#ADD1B2" rx="11" ry="11" style="stroke:#181818;stroke-width:1.0;"/><path d="M421.2656,267.875 Q421.4219,267.6563 421.6094,267.5469 Q421.7969,267.4375 422.0156,267.4375 Q422.3906,267.4375 422.625,267.6953 Q422.8594,267.9531 422.8594,268.5625 L422.8594,270.0156 Q422.8594,270.625 422.625,270.8906 Q422.3906,271.1563 422.0156,271.1563 Q421.6719,271.1563 421.4688,270.9531 Q421.2656,270.7656 421.1563,270.25 Q421.1094,269.8906 420.9219,269.7031 Q420.5938,269.3281 419.9844,269.1094 Q419.375,268.8906 418.75,268.8906 Q417.9844,268.8906 417.3516,269.2188 Q416.7188,269.5469 416.2266,270.2969 Q415.7344,271.0469 415.7344,272.0781 L415.7344,273.1719 Q415.7344,274.4063 416.625,275.2266 Q417.5156,276.0469 419.1094,276.0469 Q420.0469,276.0469 420.7031,275.7969 Q421.0938,275.6406 421.5156,275.2031 Q421.7813,274.9375 421.9297,274.8594 Q422.0781,274.7813 422.2813,274.7813 Q422.6094,274.7813 422.8672,275.0391 Q423.125,275.2969 423.125,275.6406 Q423.125,275.9844 422.7813,276.3906 Q422.2813,276.9688 421.4844,277.2969 Q420.4063,277.75 419.1094,277.75 Q417.5938,277.75 416.3906,277.125 Q415.4063,276.625 414.7188,275.5547 Q414.0313,274.4844 414.0313,273.2031 L414.0313,272.0469 Q414.0313,270.7188 414.6484,269.5703 Q415.2656,268.4219 416.3594,267.8047 Q417.4531,267.1875 418.6875,267.1875 Q419.4219,267.1875 420.0703,267.3516 Q420.7188,267.5156 421.2656,267.875 Z " fill="#000000"/><text fill="#000000" font-family="sans-serif" font-size="14" lengthAdjust="spacing" textLength="86" x="432.5" y="277.7285">TableStorage</text><line style="stroke:#181818;stroke-width:0.5;" x1="404.5" x2="520.5" y1="288" y2="288"/><line style="stroke:#181818;stroke-width:0.5;" x1="404.5" x2="520.5" y1="296" y2="296"/></g><!--MD5=[6579ab085c9e38eb794518fdc173ede6]
link DbEntityResource to Resource--><g id="link_DbEntityResource_Resource"><path codeLine="77" d="M702.51,280 C707.55,280 712.6,280 717.65,280 " fill="none" id="DbEntityResource-to-Resource" style="stroke:#181818;stroke-width:1.0;"/><polygon fill="none" points="717.74,273,737.74,280,717.74,287,717.74,273" style="stroke:#181818;stroke-width:1.0;"/></g><!--MD5=[ffcdf36379f0a67e376cefeaca8a42a9]
link TableStorage to DbEntityResource--><g id="link_TableStorage_DbEntityResource"><path codeLine="78" d="M521.54,280 C526.31,280 531.08,280 535.86,280 " fill="none" id="TableStorage-to-DbEntityResource" style="stroke:#181818;stroke-width:1.0;"/><polygon fill="none" points="536.12,273,556.12,280,536.12,287,536.12,273" style="stroke:#181818;stroke-width:1.0;"/></g><!--MD5=[be39ac681a39bdfa9652d95579ee329f]
link Db to TableStorage--><g id="link_Db_TableStorage"><path codeLine="79" d="M368.4,280 C373.31,280 378.22,280 383.13,280 " fill="none" id="Db-to-TableStorage" style="stroke:#181818;stroke-width:1.0;"/><polygon fill="none" points="383.32,273,403.32,280,383.32,287,383.32,273" style="stroke:#181818;stroke-width:1.0;"/></g><!--MD5=[f99c02d12937b74020b8240a398a8d23]
link GresDb to Db--><g id="link_GresDb_Db"><path codeLine="80" d="M241.5,55.24 C241.5,92.16 241.5,165.41 241.5,218.06 " fill="none" id="GresDb-to-Db" style="stroke:#181818;stroke-width:1.0;"/><polygon fill="none" points="248.5,218.15,241.5,238.15,234.5,218.15,248.5,218.15" style="stroke:#181818;stroke-width:1.0;"/></g><!--MD5=[a335d8c56f8d19a4561fc9d26229b7a3]
link LiteDb to Db--><g id="link_LiteDb_Db"><path codeLine="81" d="M80.24,280 C85.11,280 89.98,280 94.85,280 " fill="none" id="LiteDb-to-Db" style="stroke:#181818;stroke-width:1.0;"/><polygon fill="none" points="94.88,273,114.88,280,94.88,287,94.88,273" style="stroke:#181818;stroke-width:1.0;"/></g><!--MD5=[d898e3f5fa770147969947d842f362a2]
link Db to DbEntity--><g id="link_Db_DbEntity"><path codeLine="82" d="M273.9447,331.6325 C273.9447,331.6325 339.97,416.45 385.5,445 C470.28,498.15 518.48,450.65 602.5,505 C619.01,515.68 633.38,532.06 644.21,546.88 " fill="none" id="Db-DbEntity" style="stroke:#181818;stroke-width:1.0;"/><polygon fill="#181818" points="651.77,557.79,649.9197,548.1165,648.9171,553.6838,643.3498,552.6812,651.77,557.79" style="stroke:#181818;stroke-width:1.0;"/><line style="stroke:#181818;stroke-width:1.0;" x1="648.9171" x2="644.365" y1="553.6838" y2="547.105"/><polygon fill="#181818" points="267.08,321.79,267.2315,328.9995,273.9447,331.6325,273.7932,324.423,267.08,321.79" style="stroke:#181818;stroke-width:1.0;"/></g><!--MD5=[d315e08582b3b573daf6d568793c5591]
link GresEntity to DbEntity--><g id="link_GresEntity_DbEntity"><path codeLine="83" d="M585.63,582 C591.34,582 597.04,582 602.74,582 " fill="none" id="GresEntity-to-DbEntity" style="stroke:#181818;stroke-width:1.0;"/><polygon fill="none" points="602.76,575,622.76,582,602.76,589,602.76,575" style="stroke:#181818;stroke-width:1.0;"/></g><!--MD5=[d2ec28d69675ff84c1283f5029b203c0]
reverse link Resource to Savable--><g id="link_Resource_Savable"><path codeLine="85" d="M884.05,465.34 C884.3,479.03 884.69,492.32 885.23,504.72 " fill="none" id="Resource-backto-Savable" style="stroke:#181818;stroke-width:1.0;"/><polygon fill="none" points="877.05,465.13,883.8,445.04,891.05,464.96,877.05,465.13" style="stroke:#181818;stroke-width:1.0;"/></g><!--MD5=[5222c9fd74b60e35ab2e93d3d00836e7]
link Resource to Savable--><g id="link_Resource_Savable"><path codeLine="86" d="M909.8181,457.0393 C909.8181,457.0393 909.36,480.74 908.97,491.44 " fill="none" id="Resource-Savable" style="stroke:#181818;stroke-width:1.0;"/><polygon fill="#181818" points="908.43,504.72,912.7927,495.8901,908.6334,499.7241,904.7993,495.5648,908.43,504.72" style="stroke:#181818;stroke-width:1.0;"/><line style="stroke:#181818;stroke-width:1.0;" x1="908.6334" x2="908.965" y1="499.7241" y2="491.725"/><polygon fill="#181818" points="909.95,445.04,905.8843,450.9957,909.8181,457.0393,913.8838,451.0836,909.95,445.04" style="stroke:#181818;stroke-width:1.0;"/></g><!--MD5=[f9836f65ecaecd3a4f4f6bff8bbaeffc]
reverse link Savable to FileResource--><g id="link_Savable_FileResource"><path codeLine="87" d="M984.76,492.83 C995.63,485.65 1007.12,479.46 1019,475 C1060.61,459.39 1076.73,461.28 1119,475 C1163.69,489.5 1206.16,523.18 1233.95,548.91 " fill="none" id="Savable-backto-FileResource" style="stroke:#181818;stroke-width:1.0;"/><polygon fill="none" points="988.54,498.74,968.24,504.82,980.32,487.41,988.54,498.74" style="stroke:#181818;stroke-width:1.0;"/></g><!--MD5=[e63ee973a175bd36670afcfe55ac44ff]
link IniFile to FileResource--><g id="link_IniFile_FileResource"><path codeLine="88" d="M1343.12,304.04 C1329.87,351.93 1299.08,463.25 1280.82,529.25 " fill="none" id="IniFile-to-FileResource" style="stroke:#181818;stroke-width:1.0;"/><polygon fill="none" points="1287.56,531.15,1275.48,548.56,1274.06,527.42,1287.56,531.15" style="stroke:#181818;stroke-width:1.0;"/></g><!--MD5=[8d68989c58e3a5256308129b75697cae]
link IniFile to NoneIniSection--><g id="link_IniFile_NoneIniSection"><path codeLine="89" d="M1358.9675,315.6144 C1358.9675,315.6144 1405.89,487.3 1421.69,545.1 " fill="none" id="IniFile-NoneIniSection" style="stroke:#181818;stroke-width:1.0;"/><polygon fill="#181818" points="1425.18,557.88,1426.6654,548.1438,1423.8616,553.0569,1418.9485,550.2532,1425.18,557.88" style="stroke:#181818;stroke-width:1.0;"/><line style="stroke:#181818;stroke-width:1.0;" x1="1423.8616" x2="1421.75" y1="553.0569" y2="545.34"/><polygon fill="none" points="1355.8,304.04,1353.5256,310.883,1358.9675,315.6144,1361.2419,308.7714,1355.8,304.04" style="stroke:#181818;stroke-width:1.0;"/></g><!--MD5=[7ab78a78f01f13b3f8adaa147fbe9d58]
reverse link NoneIniSection to IniSection--><g id="link_NoneIniSection_IniSection"><path codeLine="90" d="M1433.71,626.27 C1435.48,661.05 1437.9,708.54 1439.32,736.42 " fill="none" id="NoneIniSection-backto-IniSection" style="stroke:#181818;stroke-width:1.0;"/><polygon fill="none" points="1426.7,626.4,1432.68,606.07,1440.69,625.69,1426.7,626.4" style="stroke:#181818;stroke-width:1.0;"/></g><!--MD5=[be61dba62c4da3d8f0a63ab43f39e3cc]
reverse link FileResource to JsonFile--><g id="link_FileResource_JsonFile"><path codeLine="91" d="M1266.5,635.43 C1266.5,662.15 1266.5,694.15 1266.5,718.96 " fill="none" id="FileResource-backto-JsonFile" style="stroke:#181818;stroke-width:1.0;"/><polygon fill="none" points="1259.5,635.37,1266.5,615.37,1273.5,635.37,1259.5,635.37" style="stroke:#181818;stroke-width:1.0;"/></g><!--MD5=[476979e2784d0e3c0dc97d07b9255d0e]
link DbEntity to Savable--><g id="link_DbEntity_Savable"><path codeLine="92" d="M708.36,582 C734.91,582 761.46,582 788.01,582 " fill="none" id="DbEntity-to-Savable" style="stroke:#181818;stroke-width:1.0;"/><polygon fill="none" points="788.31,575,808.31,582,788.31,589,788.31,575" style="stroke:#181818;stroke-width:1.0;"/></g><!--MD5=[59bb3321d9d601d3994e42d1335e5422]
reverse link DbEntity to Table--><g id="link_DbEntity_Table"><path codeLine="93" d="M666.23,626.18 C666.71,654.44 667.34,691.13 667.81,718.86 " fill="none" id="DbEntity-backto-Table" style="stroke:#181818;stroke-width:1.0;"/><polygon fill="none" points="659.23,626.19,665.89,606.07,673.23,625.95,659.23,626.19" style="stroke:#181818;stroke-width:1.0;"/></g><!--MD5=[817a593cb3071089e8bc58510f4aa9d2]
reverse link GresEntity to GresTable--><g id="link_GresEntity_GresTable"><path codeLine="94" d="M535.52,626.27 C534.73,661.05 533.65,708.54 533.02,736.42 " fill="none" id="GresEntity-backto-GresTable" style="stroke:#181818;stroke-width:1.0;"/><polygon fill="none" points="528.53,625.91,535.98,606.07,542.52,626.23,528.53,625.91" style="stroke:#181818;stroke-width:1.0;"/></g><!--MD5=[51f38624dca375147f54fa729a19e73a]
link GresTable to Table--><g id="link_GresTable_Table"><path codeLine="95" d="M582.17,760.5 C587.2,760.5 592.22,760.5 597.24,760.5 " fill="none" id="GresTable-to-Table" style="stroke:#181818;stroke-width:1.0;"/><polygon fill="none" points="597.24,753.5,617.24,760.5,597.24,767.5,597.24,753.5" style="stroke:#181818;stroke-width:1.0;"/></g><!--MD5=[2267fa562c28ca81ba7d378d0de375b9]
reverse link GresTable to JsonbTable--><g id="link_GresTable_JsonbTable"><path codeLine="96" d="M532.5,804.85 C532.5,824.05 532.5,845.86 532.5,861.87 " fill="none" id="GresTable-backto-JsonbTable" style="stroke:#181818;stroke-width:1.0;"/><polygon fill="none" points="525.5,804.73,532.5,784.73,539.5,804.73,525.5,804.73" style="stroke:#181818;stroke-width:1.0;"/></g><!--MD5=[b8132b73519e6306962e830082501983]
reverse link Table to LiteTable--><g id="link_Table_LiteTable"><path codeLine="97" d="M668.01,822.5 C667.89,836.56 667.78,850.67 667.69,861.91 " fill="none" id="Table-backto-LiteTable" style="stroke:#181818;stroke-width:1.0;"/><polygon fill="none" points="661.01,822.22,668.17,802.28,675.01,822.34,661.01,822.22" style="stroke:#181818;stroke-width:1.0;"/></g><!--MD5=[898f62776bc99e1c278a663791d8a7e2]
link Table to TableHeader--><g id="link_Table_TableHeader"><path codeLine="98" d="M713.74,802.28 C734.17,820.7 757.74,841.95 775.87,858.29 " fill="none" id="Table-to-TableHeader" style="stroke:#181818;stroke-width:1.0;"/><polygon fill="#181818" points="779.89,861.91,775.8762,852.9161,776.1735,858.5652,770.5245,858.8625,779.89,861.91" style="stroke:#181818;stroke-width:1.0;"/></g><!--MD5=[b255d7e3895c07749ef7df1fca958c42]
reverse link Savable to Node--><g id="link_Savable_Node"><path codeLine="99" d="M1004.8,582 C1009.69,582 1014.58,582 1019.48,582 " fill="none" id="Savable-backto-Node" style="stroke:#181818;stroke-width:1.0;"/><polygon fill="none" points="1004.69,589,984.69,582,1004.69,575,1004.69,589" style="stroke:#181818;stroke-width:1.0;"/></g><!--MD5=[232f0cccf99ab70271aee7c45d0b6eb2]
reverse link Node to TableNode--><g id="link_Node_TableNode"><path codeLine="100" d="M1066.53,635.43 C1065.02,662.15 1063.2,694.15 1061.8,718.96 " fill="none" id="Node-backto-TableNode" style="stroke:#181818;stroke-width:1.0;"/><polygon fill="none" points="1059.55,634.94,1067.67,615.37,1073.52,635.74,1059.55,634.94" style="stroke:#181818;stroke-width:1.0;"/></g><!--MD5=[5fba4b337d51fe203cd457259c7fd2bb]
reverse link Savable to TableHeader--><g id="link_Savable_TableHeader"><path codeLine="101" d="M867.68,678.66 C848.24,743.15 824.1,823.28 812.44,861.97 " fill="none" id="Savable-backto-TableHeader" style="stroke:#181818;stroke-width:1.0;"/><polygon fill="none" points="861.06,676.34,873.54,659.21,874.47,680.38,861.06,676.34" style="stroke:#181818;stroke-width:1.0;"/></g><!--MD5=[8f9cc1c9f398c994aff6bc54f7862ee3]
link TableHeader to TableColumn--><g id="link_TableHeader_TableColumn"><path codeLine="102" d="M874.63,886 C874.63,886 881.36,886 884.19,886 " fill="none" id="TableHeader-TableColumn" style="stroke:#181818;stroke-width:1.0;"/><polygon fill="#181818" points="897.46,886,888.46,882,892.46,886,888.46,890,897.46,886" style="stroke:#181818;stroke-width:1.0;"/><line style="stroke:#181818;stroke-width:1.0;" x1="892.46" x2="884.46" y1="886" y2="886"/><polygon fill="none" points="862.63,886,868.63,890,874.63,886,868.63,882,862.63,886" style="stroke:#181818;stroke-width:1.0;"/></g><!--MD5=[dc8ea39670c93db972e1cde5acd5ca00]
reverse link Savable to TableColumn--><g id="link_Savable_TableColumn"><path codeLine="103" d="M915.27,679.08 C927.86,743.5 943.46,823.36 951,861.97 " fill="none" id="Savable-backto-TableColumn" style="stroke:#181818;stroke-width:1.0;"/><polygon fill="none" points="908.35,680.18,911.39,659.21,922.09,677.49,908.35,680.18" style="stroke:#181818;stroke-width:1.0;"/></g><!--MD5=[8bb78212eeed7a4f179e5ab20f812cdd]
@startuml
class Resource{    
    create(Savable resource, res_id=None)
    read(Object)
    update(Savable resource, res_id=None)
    delete(Savable resource, res_id=None ? Object)

    create_all(List[Savable])
    update_all(List[Savable])
    delete_all(?)

    serialize(Savable resource)
    deserialize(str)
    
    "execute"(str script='')
    res_id
    name
    namespace
}


class Db{
    init(str connect_str)
    table_for_resource(Savable resource)
}

class DbEntity{}
class GresEntity{}

class GresDb{}
class LiteDb{}

class Savable{
    "__exclude__"
    resource
    is_saved
    save(int level=0)
    to_json()
    is_excluded(str atr_name)
}

class Table{
    name = res_id
    bd
}

class GresTable{}
class JsonbTable{}
class LiteTable{}

class TableHeader{}
class TableColumn{}
class NotNull{}

class FileResource{
    init(str path)
}

class IniFile{}
class IniSection{}
class NoneIniSection{}
class JsonFile{
    serialize(Savable resource)
    deserialize(object)
}

class Node{    
    save(int level)    
}

class TableNode{
    table = resource
    db = resource.resource
}



Resource <|-left- DbEntityResource
    DbEntityResource <|-left- TableStorage
        TableStorage <|-left- Db
            Db <|-up- GresDb
            Db <|-left- LiteDb
            Db *-down-> DbEntity
                DbEntity <|-left- GresEntity
    
Resource <|- - Savable
Resource *- -> Savable
    Savable <|-right- FileResource
        FileResource <|-up- IniFile
            IniFile o- -> NoneIniSection
                NoneIniSection <|- - IniSection
        FileResource <|- - JsonFile
    Savable <|-left- DbEntity
        DbEntity <|- - Table
            GresEntity <|- - GresTable
            Table <|-left- GresTable
                GresTable <|- - JsonbTable
            Table <|- - LiteTable
            Table - -> TableHeader
        Savable <|-right- Node
            Node <|- - TableNode
        Savable <|- - TableHeader
            TableHeader o-right-> TableColumn
        Savable <|- - TableColumn
@enduml

PlantUML version 1.2022.5(Sat Apr 30 13:55:52 MSK 2022)
(GPL source distribution)
Java Runtime: Java(TM) SE Runtime Environment
JVM: Java HotSpot(TM) 64-Bit Server VM
Default Encoding: Cp1251
Language: ru
Country: RU
--></g></svg>