<?xml version="1.0" encoding="UTF-8" standalone="no"?><svg xmlns="http://www.w3.org/2000/svg" xmlns:xlink="http://www.w3.org/1999/xlink" contentStyleType="text/css" height="864px" preserveAspectRatio="none" style="width:1497px;height:864px;background:#FFFFFF;" version="1.1" viewBox="0 0 1497 864" width="1497px" zoomAndPan="magnify"><defs/><g><!--MD5=[6b13f1b330d33795af281e5c1dfe1e98]
class Resource--><g id="elem_Resource"><rect codeLine="1" fill="#F1F1F1" height="276.9219" id="Resource" rx="2.5" ry="2.5" style="stroke:#181818;stroke-width:0.5;" width="317" x="738" y="115"/><ellipse cx="861.75" cy="131" fill="#ADD1B2" rx="11" ry="11" style="stroke:#181818;stroke-width:1.0;"/><path d="M864.5156,126.875 Q864.6719,126.6563 864.8594,126.5469 Q865.0469,126.4375 865.2656,126.4375 Q865.6406,126.4375 865.875,126.6953 Q866.1094,126.9531 866.1094,127.5625 L866.1094,129.0156 Q866.1094,129.625 865.875,129.8906 Q865.6406,130.1563 865.2656,130.1563 Q864.9219,130.1563 864.7188,129.9531 Q864.5156,129.7656 864.4063,129.25 Q864.3594,128.8906 864.1719,128.7031 Q863.8438,128.3281 863.2344,128.1094 Q862.625,127.8906 862,127.8906 Q861.2344,127.8906 860.6016,128.2188 Q859.9688,128.5469 859.4766,129.2969 Q858.9844,130.0469 858.9844,131.0781 L858.9844,132.1719 Q858.9844,133.4063 859.875,134.2266 Q860.7656,135.0469 862.3594,135.0469 Q863.2969,135.0469 863.9531,134.7969 Q864.3438,134.6406 864.7656,134.2031 Q865.0313,133.9375 865.1797,133.8594 Q865.3281,133.7813 865.5313,133.7813 Q865.8594,133.7813 866.1172,134.0391 Q866.375,134.2969 866.375,134.6406 Q866.375,134.9844 866.0313,135.3906 Q865.5313,135.9688 864.7344,136.2969 Q863.6563,136.75 862.3594,136.75 Q860.8438,136.75 859.6406,136.125 Q858.6563,135.625 857.9688,134.5547 Q857.2813,133.4844 857.2813,132.2031 L857.2813,131.0469 Q857.2813,129.7188 857.8984,128.5703 Q858.5156,127.4219 859.6094,126.8047 Q860.7031,126.1875 861.9375,126.1875 Q862.6719,126.1875 863.3203,126.3516 Q863.9688,126.5156 864.5156,126.875 Z " fill="#000000"/><text fill="#000000" font-family="sans-serif" font-size="14" lengthAdjust="spacing" textLength="61" x="882.25" y="136.7285">Resource</text><line style="stroke:#181818;stroke-width:0.5;" x1="739" x2="1054" y1="147" y2="147"/><line style="stroke:#181818;stroke-width:0.5;" x1="739" x2="1054" y1="155" y2="155"/><text fill="#000000" font-family="sans-serif" font-size="14" lengthAdjust="spacing" textLength="249" x="744" y="173.5332">create(Savable resource, res_id=None)</text><text fill="#000000" font-family="sans-serif" font-size="14" lengthAdjust="spacing" textLength="80" x="744" y="191.1426">read(Object)</text><text fill="#000000" font-family="sans-serif" font-size="14" lengthAdjust="spacing" textLength="253" x="744" y="208.752">update(Savable resource, res_id=None)</text><text fill="#000000" font-family="sans-serif" font-size="14" lengthAdjust="spacing" textLength="305" x="744" y="226.3613">delete(Savable resource, res_id=None ? Object)</text><text fill="#000000" font-family="sans-serif" font-size="14" lengthAdjust="spacing" textLength="4" x="744" y="243.9707"> </text><text fill="#000000" font-family="sans-serif" font-size="14" lengthAdjust="spacing" textLength="153" x="744" y="261.5801">create_all(List[Savable])</text><text fill="#000000" font-family="sans-serif" font-size="14" lengthAdjust="spacing" textLength="157" x="744" y="279.1895">update_all(List[Savable])</text><text fill="#000000" font-family="sans-serif" font-size="14" lengthAdjust="spacing" textLength="79" x="744" y="296.7988">delete_all(?)</text><text fill="#000000" font-family="sans-serif" font-size="14" lengthAdjust="spacing" textLength="4" x="744" y="314.4082"> </text><text fill="#000000" font-family="sans-serif" font-size="14" lengthAdjust="spacing" textLength="172" x="744" y="332.0176">serialize(Savable resource)</text><text fill="#000000" font-family="sans-serif" font-size="14" lengthAdjust="spacing" textLength="93" x="744" y="349.627">deserialize(str)</text><text fill="#000000" font-family="sans-serif" font-size="14" lengthAdjust="spacing" textLength="4" x="744" y="367.2363"> </text><text fill="#000000" font-family="sans-serif" font-size="14" lengthAdjust="spacing" textLength="137" x="744" y="384.8457">"execute"(str script='')</text></g><!--MD5=[464be7afade68e010f8f1d76973bc1ef]
class Db--><g id="elem_Db"><rect codeLine="19" fill="#F1F1F1" height="83.2188" id="Db" rx="2.5" ry="2.5" style="stroke:#181818;stroke-width:0.5;" width="253" x="115" y="212"/><ellipse cx="228.25" cy="228" fill="#ADD1B2" rx="11" ry="11" style="stroke:#181818;stroke-width:1.0;"/><path d="M231.0156,223.875 Q231.1719,223.6563 231.3594,223.5469 Q231.5469,223.4375 231.7656,223.4375 Q232.1406,223.4375 232.375,223.6953 Q232.6094,223.9531 232.6094,224.5625 L232.6094,226.0156 Q232.6094,226.625 232.375,226.8906 Q232.1406,227.1563 231.7656,227.1563 Q231.4219,227.1563 231.2188,226.9531 Q231.0156,226.7656 230.9063,226.25 Q230.8594,225.8906 230.6719,225.7031 Q230.3438,225.3281 229.7344,225.1094 Q229.125,224.8906 228.5,224.8906 Q227.7344,224.8906 227.1016,225.2188 Q226.4688,225.5469 225.9766,226.2969 Q225.4844,227.0469 225.4844,228.0781 L225.4844,229.1719 Q225.4844,230.4063 226.375,231.2266 Q227.2656,232.0469 228.8594,232.0469 Q229.7969,232.0469 230.4531,231.7969 Q230.8438,231.6406 231.2656,231.2031 Q231.5313,230.9375 231.6797,230.8594 Q231.8281,230.7813 232.0313,230.7813 Q232.3594,230.7813 232.6172,231.0391 Q232.875,231.2969 232.875,231.6406 Q232.875,231.9844 232.5313,232.3906 Q232.0313,232.9688 231.2344,233.2969 Q230.1563,233.75 228.8594,233.75 Q227.3438,233.75 226.1406,233.125 Q225.1563,232.625 224.4688,231.5547 Q223.7813,230.4844 223.7813,229.2031 L223.7813,228.0469 Q223.7813,226.7188 224.3984,225.5703 Q225.0156,224.4219 226.1094,223.8047 Q227.2031,223.1875 228.4375,223.1875 Q229.1719,223.1875 229.8203,223.3516 Q230.4688,223.5156 231.0156,223.875 Z " fill="#000000"/><text fill="#000000" font-family="sans-serif" font-size="14" lengthAdjust="spacing" textLength="18" x="248.75" y="233.7285">Db</text><line style="stroke:#181818;stroke-width:0.5;" x1="116" x2="367" y1="244" y2="244"/><line style="stroke:#181818;stroke-width:0.5;" x1="116" x2="367" y1="252" y2="252"/><text fill="#000000" font-family="sans-serif" font-size="14" lengthAdjust="spacing" textLength="122" x="121" y="270.5332">init(str connect_str)</text><text fill="#000000" font-family="sans-serif" font-size="14" lengthAdjust="spacing" textLength="241" x="121" y="288.1426">table_for_resource(Savable resource)</text></g><!--MD5=[b8a4a1ca1450bb299e951990c40768f9]
class DbEntity--><g id="elem_DbEntity"><rect codeLine="24" fill="#F1F1F1" height="48" id="DbEntity" rx="2.5" ry="2.5" style="stroke:#181818;stroke-width:0.5;" width="85" x="527" y="505"/><ellipse cx="542" cy="521" fill="#ADD1B2" rx="11" ry="11" style="stroke:#181818;stroke-width:1.0;"/><path d="M544.7656,516.875 Q544.9219,516.6563 545.1094,516.5469 Q545.2969,516.4375 545.5156,516.4375 Q545.8906,516.4375 546.125,516.6953 Q546.3594,516.9531 546.3594,517.5625 L546.3594,519.0156 Q546.3594,519.625 546.125,519.8906 Q545.8906,520.1563 545.5156,520.1563 Q545.1719,520.1563 544.9688,519.9531 Q544.7656,519.7656 544.6563,519.25 Q544.6094,518.8906 544.4219,518.7031 Q544.0938,518.3281 543.4844,518.1094 Q542.875,517.8906 542.25,517.8906 Q541.4844,517.8906 540.8516,518.2188 Q540.2188,518.5469 539.7266,519.2969 Q539.2344,520.0469 539.2344,521.0781 L539.2344,522.1719 Q539.2344,523.4063 540.125,524.2266 Q541.0156,525.0469 542.6094,525.0469 Q543.5469,525.0469 544.2031,524.7969 Q544.5938,524.6406 545.0156,524.2031 Q545.2813,523.9375 545.4297,523.8594 Q545.5781,523.7813 545.7813,523.7813 Q546.1094,523.7813 546.3672,524.0391 Q546.625,524.2969 546.625,524.6406 Q546.625,524.9844 546.2813,525.3906 Q545.7813,525.9688 544.9844,526.2969 Q543.9063,526.75 542.6094,526.75 Q541.0938,526.75 539.8906,526.125 Q538.9063,525.625 538.2188,524.5547 Q537.5313,523.4844 537.5313,522.2031 L537.5313,521.0469 Q537.5313,519.7188 538.1484,518.5703 Q538.7656,517.4219 539.8594,516.8047 Q540.9531,516.1875 542.1875,516.1875 Q542.9219,516.1875 543.5703,516.3516 Q544.2188,516.5156 544.7656,516.875 Z " fill="#000000"/><text fill="#000000" font-family="sans-serif" font-size="14" lengthAdjust="spacing" textLength="53" x="556" y="526.7285">DbEntity</text><line style="stroke:#181818;stroke-width:0.5;" x1="528" x2="611" y1="537" y2="537"/><line style="stroke:#181818;stroke-width:0.5;" x1="528" x2="611" y1="545" y2="545"/></g><!--MD5=[cc914a5aa8b011f144e226c95c556c28]
class GresEntity--><g id="elem_GresEntity"><rect codeLine="25" fill="#F1F1F1" height="48" id="GresEntity" rx="2.5" ry="2.5" style="stroke:#181818;stroke-width:0.5;" width="98" x="389.5" y="505"/><ellipse cx="404.5" cy="521" fill="#ADD1B2" rx="11" ry="11" style="stroke:#181818;stroke-width:1.0;"/><path d="M407.2656,516.875 Q407.4219,516.6563 407.6094,516.5469 Q407.7969,516.4375 408.0156,516.4375 Q408.3906,516.4375 408.625,516.6953 Q408.8594,516.9531 408.8594,517.5625 L408.8594,519.0156 Q408.8594,519.625 408.625,519.8906 Q408.3906,520.1563 408.0156,520.1563 Q407.6719,520.1563 407.4688,519.9531 Q407.2656,519.7656 407.1563,519.25 Q407.1094,518.8906 406.9219,518.7031 Q406.5938,518.3281 405.9844,518.1094 Q405.375,517.8906 404.75,517.8906 Q403.9844,517.8906 403.3516,518.2188 Q402.7188,518.5469 402.2266,519.2969 Q401.7344,520.0469 401.7344,521.0781 L401.7344,522.1719 Q401.7344,523.4063 402.625,524.2266 Q403.5156,525.0469 405.1094,525.0469 Q406.0469,525.0469 406.7031,524.7969 Q407.0938,524.6406 407.5156,524.2031 Q407.7813,523.9375 407.9297,523.8594 Q408.0781,523.7813 408.2813,523.7813 Q408.6094,523.7813 408.8672,524.0391 Q409.125,524.2969 409.125,524.6406 Q409.125,524.9844 408.7813,525.3906 Q408.2813,525.9688 407.4844,526.2969 Q406.4063,526.75 405.1094,526.75 Q403.5938,526.75 402.3906,526.125 Q401.4063,525.625 400.7188,524.5547 Q400.0313,523.4844 400.0313,522.2031 L400.0313,521.0469 Q400.0313,519.7188 400.6484,518.5703 Q401.2656,517.4219 402.3594,516.8047 Q403.4531,516.1875 404.6875,516.1875 Q405.4219,516.1875 406.0703,516.3516 Q406.7188,516.5156 407.2656,516.875 Z " fill="#000000"/><text fill="#000000" font-family="sans-serif" font-size="14" lengthAdjust="spacing" textLength="66" x="418.5" y="526.7285">GresEntity</text><line style="stroke:#181818;stroke-width:0.5;" x1="390.5" x2="486.5" y1="537" y2="537"/><line style="stroke:#181818;stroke-width:0.5;" x1="390.5" x2="486.5" y1="545" y2="545"/></g><!--MD5=[b2db8ccf06f2c83cde37e701a8b7a4d1]
class GresDb--><g id="elem_GresDb"><rect codeLine="27" fill="#F1F1F1" height="48" id="GresDb" rx="2.5" ry="2.5" style="stroke:#181818;stroke-width:0.5;" width="81" x="201" y="7"/><ellipse cx="216" cy="23" fill="#ADD1B2" rx="11" ry="11" style="stroke:#181818;stroke-width:1.0;"/><path d="M218.7656,18.875 Q218.9219,18.6563 219.1094,18.5469 Q219.2969,18.4375 219.5156,18.4375 Q219.8906,18.4375 220.125,18.6953 Q220.3594,18.9531 220.3594,19.5625 L220.3594,21.0156 Q220.3594,21.625 220.125,21.8906 Q219.8906,22.1563 219.5156,22.1563 Q219.1719,22.1563 218.9688,21.9531 Q218.7656,21.7656 218.6563,21.25 Q218.6094,20.8906 218.4219,20.7031 Q218.0938,20.3281 217.4844,20.1094 Q216.875,19.8906 216.25,19.8906 Q215.4844,19.8906 214.8516,20.2188 Q214.2188,20.5469 213.7266,21.2969 Q213.2344,22.0469 213.2344,23.0781 L213.2344,24.1719 Q213.2344,25.4063 214.125,26.2266 Q215.0156,27.0469 216.6094,27.0469 Q217.5469,27.0469 218.2031,26.7969 Q218.5938,26.6406 219.0156,26.2031 Q219.2813,25.9375 219.4297,25.8594 Q219.5781,25.7813 219.7813,25.7813 Q220.1094,25.7813 220.3672,26.0391 Q220.625,26.2969 220.625,26.6406 Q220.625,26.9844 220.2813,27.3906 Q219.7813,27.9688 218.9844,28.2969 Q217.9063,28.75 216.6094,28.75 Q215.0938,28.75 213.8906,28.125 Q212.9063,27.625 212.2188,26.5547 Q211.5313,25.4844 211.5313,24.2031 L211.5313,23.0469 Q211.5313,21.7188 212.1484,20.5703 Q212.7656,19.4219 213.8594,18.8047 Q214.9531,18.1875 216.1875,18.1875 Q216.9219,18.1875 217.5703,18.3516 Q218.2188,18.5156 218.7656,18.875 Z " fill="#000000"/><text fill="#000000" font-family="sans-serif" font-size="14" lengthAdjust="spacing" textLength="49" x="230" y="28.7285">GresDb</text><line style="stroke:#181818;stroke-width:0.5;" x1="202" x2="281" y1="39" y2="39"/><line style="stroke:#181818;stroke-width:0.5;" x1="202" x2="281" y1="47" y2="47"/></g><!--MD5=[4d307c3040e9f3ff2b2d0c8321016fdb]
class LiteDb--><g id="elem_LiteDb"><rect codeLine="28" fill="#F1F1F1" height="48" id="LiteDb" rx="2.5" ry="2.5" style="stroke:#181818;stroke-width:0.5;" width="73" x="7" y="229.5"/><ellipse cx="22" cy="245.5" fill="#ADD1B2" rx="11" ry="11" style="stroke:#181818;stroke-width:1.0;"/><path d="M24.7656,241.375 Q24.9219,241.1563 25.1094,241.0469 Q25.2969,240.9375 25.5156,240.9375 Q25.8906,240.9375 26.125,241.1953 Q26.3594,241.4531 26.3594,242.0625 L26.3594,243.5156 Q26.3594,244.125 26.125,244.3906 Q25.8906,244.6563 25.5156,244.6563 Q25.1719,244.6563 24.9688,244.4531 Q24.7656,244.2656 24.6563,243.75 Q24.6094,243.3906 24.4219,243.2031 Q24.0938,242.8281 23.4844,242.6094 Q22.875,242.3906 22.25,242.3906 Q21.4844,242.3906 20.8516,242.7188 Q20.2188,243.0469 19.7266,243.7969 Q19.2344,244.5469 19.2344,245.5781 L19.2344,246.6719 Q19.2344,247.9063 20.125,248.7266 Q21.0156,249.5469 22.6094,249.5469 Q23.5469,249.5469 24.2031,249.2969 Q24.5938,249.1406 25.0156,248.7031 Q25.2813,248.4375 25.4297,248.3594 Q25.5781,248.2813 25.7813,248.2813 Q26.1094,248.2813 26.3672,248.5391 Q26.625,248.7969 26.625,249.1406 Q26.625,249.4844 26.2813,249.8906 Q25.7813,250.4688 24.9844,250.7969 Q23.9063,251.25 22.6094,251.25 Q21.0938,251.25 19.8906,250.625 Q18.9063,250.125 18.2188,249.0547 Q17.5313,247.9844 17.5313,246.7031 L17.5313,245.5469 Q17.5313,244.2188 18.1484,243.0703 Q18.7656,241.9219 19.8594,241.3047 Q20.9531,240.6875 22.1875,240.6875 Q22.9219,240.6875 23.5703,240.8516 Q24.2188,241.0156 24.7656,241.375 Z " fill="#000000"/><text fill="#000000" font-family="sans-serif" font-size="14" lengthAdjust="spacing" textLength="41" x="36" y="251.2285">LiteDb</text><line style="stroke:#181818;stroke-width:0.5;" x1="8" x2="79" y1="261.5" y2="261.5"/><line style="stroke:#181818;stroke-width:0.5;" x1="8" x2="79" y1="269.5" y2="269.5"/></g><!--MD5=[04add1350e67c79380c0d55bbbeb7508]
class Savable--><g id="elem_Savable"><rect codeLine="30" fill="#F1F1F1" height="153.6563" id="Savable" rx="2.5" ry="2.5" style="stroke:#181818;stroke-width:0.5;" width="176" x="808.5" y="452"/><ellipse cx="866.75" cy="468" fill="#ADD1B2" rx="11" ry="11" style="stroke:#181818;stroke-width:1.0;"/><path d="M869.5156,463.875 Q869.6719,463.6563 869.8594,463.5469 Q870.0469,463.4375 870.2656,463.4375 Q870.6406,463.4375 870.875,463.6953 Q871.1094,463.9531 871.1094,464.5625 L871.1094,466.0156 Q871.1094,466.625 870.875,466.8906 Q870.6406,467.1563 870.2656,467.1563 Q869.9219,467.1563 869.7188,466.9531 Q869.5156,466.7656 869.4063,466.25 Q869.3594,465.8906 869.1719,465.7031 Q868.8438,465.3281 868.2344,465.1094 Q867.625,464.8906 867,464.8906 Q866.2344,464.8906 865.6016,465.2188 Q864.9688,465.5469 864.4766,466.2969 Q863.9844,467.0469 863.9844,468.0781 L863.9844,469.1719 Q863.9844,470.4063 864.875,471.2266 Q865.7656,472.0469 867.3594,472.0469 Q868.2969,472.0469 868.9531,471.7969 Q869.3438,471.6406 869.7656,471.2031 Q870.0313,470.9375 870.1797,470.8594 Q870.3281,470.7813 870.5313,470.7813 Q870.8594,470.7813 871.1172,471.0391 Q871.375,471.2969 871.375,471.6406 Q871.375,471.9844 871.0313,472.3906 Q870.5313,472.9688 869.7344,473.2969 Q868.6563,473.75 867.3594,473.75 Q865.8438,473.75 864.6406,473.125 Q863.6563,472.625 862.9688,471.5547 Q862.2813,470.4844 862.2813,469.2031 L862.2813,468.0469 Q862.2813,466.7188 862.8984,465.5703 Q863.5156,464.4219 864.6094,463.8047 Q865.7031,463.1875 866.9375,463.1875 Q867.6719,463.1875 868.3203,463.3516 Q868.9688,463.5156 869.5156,463.875 Z " fill="#000000"/><text fill="#000000" font-family="sans-serif" font-size="14" lengthAdjust="spacing" textLength="51" x="887.25" y="473.7285">Savable</text><line style="stroke:#181818;stroke-width:0.5;" x1="809.5" x2="983.5" y1="484" y2="484"/><text fill="#000000" font-family="sans-serif" font-size="14" lengthAdjust="spacing" textLength="90" x="814.5" y="502.5332">"__exclude__"</text><text fill="#000000" font-family="sans-serif" font-size="14" lengthAdjust="spacing" textLength="56" x="814.5" y="520.1426">resource</text><text fill="#000000" font-family="sans-serif" font-size="14" lengthAdjust="spacing" textLength="56" x="814.5" y="537.752">is_saved</text><line style="stroke:#181818;stroke-width:0.5;" x1="809.5" x2="983.5" y1="544.8281" y2="544.8281"/><text fill="#000000" font-family="sans-serif" font-size="14" lengthAdjust="spacing" textLength="104" x="814.5" y="563.3613">save(int level=0)</text><text fill="#000000" font-family="sans-serif" font-size="14" lengthAdjust="spacing" textLength="56" x="814.5" y="580.9707">to_json()</text><text fill="#000000" font-family="sans-serif" font-size="14" lengthAdjust="spacing" textLength="164" x="814.5" y="598.5801">is_excluded(str atr_name)</text></g><!--MD5=[c0b936abb008b3271898d4186b5531e4]
class Table--><g id="elem_Table"><rect codeLine="39" fill="#F1F1F1" height="83.2188" id="Table" rx="2.5" ry="2.5" style="stroke:#181818;stroke-width:0.5;" width="102" x="518.5" y="666"/><ellipse cx="548.8" cy="682" fill="#ADD1B2" rx="11" ry="11" style="stroke:#181818;stroke-width:1.0;"/><path d="M551.5656,677.875 Q551.7219,677.6563 551.9094,677.5469 Q552.0969,677.4375 552.3156,677.4375 Q552.6906,677.4375 552.925,677.6953 Q553.1594,677.9531 553.1594,678.5625 L553.1594,680.0156 Q553.1594,680.625 552.925,680.8906 Q552.6906,681.1563 552.3156,681.1563 Q551.9719,681.1563 551.7688,680.9531 Q551.5656,680.7656 551.4563,680.25 Q551.4094,679.8906 551.2219,679.7031 Q550.8938,679.3281 550.2844,679.1094 Q549.675,678.8906 549.05,678.8906 Q548.2844,678.8906 547.6516,679.2188 Q547.0188,679.5469 546.5266,680.2969 Q546.0344,681.0469 546.0344,682.0781 L546.0344,683.1719 Q546.0344,684.4063 546.925,685.2266 Q547.8156,686.0469 549.4094,686.0469 Q550.3469,686.0469 551.0031,685.7969 Q551.3938,685.6406 551.8156,685.2031 Q552.0813,684.9375 552.2297,684.8594 Q552.3781,684.7813 552.5813,684.7813 Q552.9094,684.7813 553.1672,685.0391 Q553.425,685.2969 553.425,685.6406 Q553.425,685.9844 553.0813,686.3906 Q552.5813,686.9688 551.7844,687.2969 Q550.7063,687.75 549.4094,687.75 Q547.8938,687.75 546.6906,687.125 Q545.7063,686.625 545.0188,685.5547 Q544.3313,684.4844 544.3313,683.2031 L544.3313,682.0469 Q544.3313,680.7188 544.9484,679.5703 Q545.5656,678.4219 546.6594,677.8047 Q547.7531,677.1875 548.9875,677.1875 Q549.7219,677.1875 550.3703,677.3516 Q551.0188,677.5156 551.5656,677.875 Z " fill="#000000"/><text fill="#000000" font-family="sans-serif" font-size="14" lengthAdjust="spacing" textLength="36" x="566.2" y="687.7285">Table</text><line style="stroke:#181818;stroke-width:0.5;" x1="519.5" x2="619.5" y1="698" y2="698"/><text fill="#000000" font-family="sans-serif" font-size="14" lengthAdjust="spacing" textLength="90" x="524.5" y="716.5332">name = res_id</text><text fill="#000000" font-family="sans-serif" font-size="14" lengthAdjust="spacing" textLength="16" x="524.5" y="734.1426">bd</text><line style="stroke:#181818;stroke-width:0.5;" x1="519.5" x2="619.5" y1="741.2188" y2="741.2188"/></g><!--MD5=[370961c8c67dbe83008ce44ed56af7e8]
class GresTable--><g id="elem_GresTable"><rect codeLine="44" fill="#F1F1F1" height="48" id="GresTable" rx="2.5" ry="2.5" style="stroke:#181818;stroke-width:0.5;" width="99" x="384" y="683.5"/><ellipse cx="399" cy="699.5" fill="#ADD1B2" rx="11" ry="11" style="stroke:#181818;stroke-width:1.0;"/><path d="M401.7656,695.375 Q401.9219,695.1563 402.1094,695.0469 Q402.2969,694.9375 402.5156,694.9375 Q402.8906,694.9375 403.125,695.1953 Q403.3594,695.4531 403.3594,696.0625 L403.3594,697.5156 Q403.3594,698.125 403.125,698.3906 Q402.8906,698.6563 402.5156,698.6563 Q402.1719,698.6563 401.9688,698.4531 Q401.7656,698.2656 401.6563,697.75 Q401.6094,697.3906 401.4219,697.2031 Q401.0938,696.8281 400.4844,696.6094 Q399.875,696.3906 399.25,696.3906 Q398.4844,696.3906 397.8516,696.7188 Q397.2188,697.0469 396.7266,697.7969 Q396.2344,698.5469 396.2344,699.5781 L396.2344,700.6719 Q396.2344,701.9063 397.125,702.7266 Q398.0156,703.5469 399.6094,703.5469 Q400.5469,703.5469 401.2031,703.2969 Q401.5938,703.1406 402.0156,702.7031 Q402.2813,702.4375 402.4297,702.3594 Q402.5781,702.2813 402.7813,702.2813 Q403.1094,702.2813 403.3672,702.5391 Q403.625,702.7969 403.625,703.1406 Q403.625,703.4844 403.2813,703.8906 Q402.7813,704.4688 401.9844,704.7969 Q400.9063,705.25 399.6094,705.25 Q398.0938,705.25 396.8906,704.625 Q395.9063,704.125 395.2188,703.0547 Q394.5313,701.9844 394.5313,700.7031 L394.5313,699.5469 Q394.5313,698.2188 395.1484,697.0703 Q395.7656,695.9219 396.8594,695.3047 Q397.9531,694.6875 399.1875,694.6875 Q399.9219,694.6875 400.5703,694.8516 Q401.2188,695.0156 401.7656,695.375 Z " fill="#000000"/><text fill="#000000" font-family="sans-serif" font-size="14" lengthAdjust="spacing" textLength="67" x="413" y="705.2285">GresTable</text><line style="stroke:#181818;stroke-width:0.5;" x1="385" x2="482" y1="715.5" y2="715.5"/><line style="stroke:#181818;stroke-width:0.5;" x1="385" x2="482" y1="723.5" y2="723.5"/></g><!--MD5=[d9ddd8318e09ba6dc510ea66047114ff]
class JsonbTable--><g id="elem_JsonbTable"><rect codeLine="45" fill="#F1F1F1" height="48" id="JsonbTable" rx="2.5" ry="2.5" style="stroke:#181818;stroke-width:0.5;" width="105" x="381" y="809"/><ellipse cx="396" cy="825" fill="#ADD1B2" rx="11" ry="11" style="stroke:#181818;stroke-width:1.0;"/><path d="M398.7656,820.875 Q398.9219,820.6563 399.1094,820.5469 Q399.2969,820.4375 399.5156,820.4375 Q399.8906,820.4375 400.125,820.6953 Q400.3594,820.9531 400.3594,821.5625 L400.3594,823.0156 Q400.3594,823.625 400.125,823.8906 Q399.8906,824.1563 399.5156,824.1563 Q399.1719,824.1563 398.9688,823.9531 Q398.7656,823.7656 398.6563,823.25 Q398.6094,822.8906 398.4219,822.7031 Q398.0938,822.3281 397.4844,822.1094 Q396.875,821.8906 396.25,821.8906 Q395.4844,821.8906 394.8516,822.2188 Q394.2188,822.5469 393.7266,823.2969 Q393.2344,824.0469 393.2344,825.0781 L393.2344,826.1719 Q393.2344,827.4063 394.125,828.2266 Q395.0156,829.0469 396.6094,829.0469 Q397.5469,829.0469 398.2031,828.7969 Q398.5938,828.6406 399.0156,828.2031 Q399.2813,827.9375 399.4297,827.8594 Q399.5781,827.7813 399.7813,827.7813 Q400.1094,827.7813 400.3672,828.0391 Q400.625,828.2969 400.625,828.6406 Q400.625,828.9844 400.2813,829.3906 Q399.7813,829.9688 398.9844,830.2969 Q397.9063,830.75 396.6094,830.75 Q395.0938,830.75 393.8906,830.125 Q392.9063,829.625 392.2188,828.5547 Q391.5313,827.4844 391.5313,826.2031 L391.5313,825.0469 Q391.5313,823.7188 392.1484,822.5703 Q392.7656,821.4219 393.8594,820.8047 Q394.9531,820.1875 396.1875,820.1875 Q396.9219,820.1875 397.5703,820.3516 Q398.2188,820.5156 398.7656,820.875 Z " fill="#000000"/><text fill="#000000" font-family="sans-serif" font-size="14" lengthAdjust="spacing" textLength="73" x="410" y="830.7285">JsonbTable</text><line style="stroke:#181818;stroke-width:0.5;" x1="382" x2="485" y1="841" y2="841"/><line style="stroke:#181818;stroke-width:0.5;" x1="382" x2="485" y1="849" y2="849"/></g><!--MD5=[80ff1cbdbf4e6fafe4447ae5c6d67dc9]
class LiteTable--><g id="elem_LiteTable"><rect codeLine="46" fill="#F1F1F1" height="48" id="LiteTable" rx="2.5" ry="2.5" style="stroke:#181818;stroke-width:0.5;" width="91" x="524" y="809"/><ellipse cx="539" cy="825" fill="#ADD1B2" rx="11" ry="11" style="stroke:#181818;stroke-width:1.0;"/><path d="M541.7656,820.875 Q541.9219,820.6563 542.1094,820.5469 Q542.2969,820.4375 542.5156,820.4375 Q542.8906,820.4375 543.125,820.6953 Q543.3594,820.9531 543.3594,821.5625 L543.3594,823.0156 Q543.3594,823.625 543.125,823.8906 Q542.8906,824.1563 542.5156,824.1563 Q542.1719,824.1563 541.9688,823.9531 Q541.7656,823.7656 541.6563,823.25 Q541.6094,822.8906 541.4219,822.7031 Q541.0938,822.3281 540.4844,822.1094 Q539.875,821.8906 539.25,821.8906 Q538.4844,821.8906 537.8516,822.2188 Q537.2188,822.5469 536.7266,823.2969 Q536.2344,824.0469 536.2344,825.0781 L536.2344,826.1719 Q536.2344,827.4063 537.125,828.2266 Q538.0156,829.0469 539.6094,829.0469 Q540.5469,829.0469 541.2031,828.7969 Q541.5938,828.6406 542.0156,828.2031 Q542.2813,827.9375 542.4297,827.8594 Q542.5781,827.7813 542.7813,827.7813 Q543.1094,827.7813 543.3672,828.0391 Q543.625,828.2969 543.625,828.6406 Q543.625,828.9844 543.2813,829.3906 Q542.7813,829.9688 541.9844,830.2969 Q540.9063,830.75 539.6094,830.75 Q538.0938,830.75 536.8906,830.125 Q535.9063,829.625 535.2188,828.5547 Q534.5313,827.4844 534.5313,826.2031 L534.5313,825.0469 Q534.5313,823.7188 535.1484,822.5703 Q535.7656,821.4219 536.8594,820.8047 Q537.9531,820.1875 539.1875,820.1875 Q539.9219,820.1875 540.5703,820.3516 Q541.2188,820.5156 541.7656,820.875 Z " fill="#000000"/><text fill="#000000" font-family="sans-serif" font-size="14" lengthAdjust="spacing" textLength="59" x="553" y="830.7285">LiteTable</text><line style="stroke:#181818;stroke-width:0.5;" x1="525" x2="614" y1="841" y2="841"/><line style="stroke:#181818;stroke-width:0.5;" x1="525" x2="614" y1="849" y2="849"/></g><!--MD5=[43d6d58434ec60818a2006166dc03379]
class TableHeader--><g id="elem_TableHeader"><rect codeLine="48" fill="#F1F1F1" height="48" id="TableHeader" rx="2.5" ry="2.5" style="stroke:#181818;stroke-width:0.5;" width="114" x="700.5" y="809"/><ellipse cx="715.5" cy="825" fill="#ADD1B2" rx="11" ry="11" style="stroke:#181818;stroke-width:1.0;"/><path d="M718.2656,820.875 Q718.4219,820.6563 718.6094,820.5469 Q718.7969,820.4375 719.0156,820.4375 Q719.3906,820.4375 719.625,820.6953 Q719.8594,820.9531 719.8594,821.5625 L719.8594,823.0156 Q719.8594,823.625 719.625,823.8906 Q719.3906,824.1563 719.0156,824.1563 Q718.6719,824.1563 718.4688,823.9531 Q718.2656,823.7656 718.1563,823.25 Q718.1094,822.8906 717.9219,822.7031 Q717.5938,822.3281 716.9844,822.1094 Q716.375,821.8906 715.75,821.8906 Q714.9844,821.8906 714.3516,822.2188 Q713.7188,822.5469 713.2266,823.2969 Q712.7344,824.0469 712.7344,825.0781 L712.7344,826.1719 Q712.7344,827.4063 713.625,828.2266 Q714.5156,829.0469 716.1094,829.0469 Q717.0469,829.0469 717.7031,828.7969 Q718.0938,828.6406 718.5156,828.2031 Q718.7813,827.9375 718.9297,827.8594 Q719.0781,827.7813 719.2813,827.7813 Q719.6094,827.7813 719.8672,828.0391 Q720.125,828.2969 720.125,828.6406 Q720.125,828.9844 719.7813,829.3906 Q719.2813,829.9688 718.4844,830.2969 Q717.4063,830.75 716.1094,830.75 Q714.5938,830.75 713.3906,830.125 Q712.4063,829.625 711.7188,828.5547 Q711.0313,827.4844 711.0313,826.2031 L711.0313,825.0469 Q711.0313,823.7188 711.6484,822.5703 Q712.2656,821.4219 713.3594,820.8047 Q714.4531,820.1875 715.6875,820.1875 Q716.4219,820.1875 717.0703,820.3516 Q717.7188,820.5156 718.2656,820.875 Z " fill="#000000"/><text fill="#000000" font-family="sans-serif" font-size="14" lengthAdjust="spacing" textLength="82" x="729.5" y="830.7285">TableHeader</text><line style="stroke:#181818;stroke-width:0.5;" x1="701.5" x2="813.5" y1="841" y2="841"/><line style="stroke:#181818;stroke-width:0.5;" x1="701.5" x2="813.5" y1="849" y2="849"/></g><!--MD5=[5de7445a3966e79bc254e6fe5fe40f7b]
class TableColumn--><g id="elem_TableColumn"><rect codeLine="49" fill="#F1F1F1" height="48" id="TableColumn" rx="2.5" ry="2.5" style="stroke:#181818;stroke-width:0.5;" width="116" x="849.5" y="809"/><ellipse cx="864.5" cy="825" fill="#ADD1B2" rx="11" ry="11" style="stroke:#181818;stroke-width:1.0;"/><path d="M867.2656,820.875 Q867.4219,820.6563 867.6094,820.5469 Q867.7969,820.4375 868.0156,820.4375 Q868.3906,820.4375 868.625,820.6953 Q868.8594,820.9531 868.8594,821.5625 L868.8594,823.0156 Q868.8594,823.625 868.625,823.8906 Q868.3906,824.1563 868.0156,824.1563 Q867.6719,824.1563 867.4688,823.9531 Q867.2656,823.7656 867.1563,823.25 Q867.1094,822.8906 866.9219,822.7031 Q866.5938,822.3281 865.9844,822.1094 Q865.375,821.8906 864.75,821.8906 Q863.9844,821.8906 863.3516,822.2188 Q862.7188,822.5469 862.2266,823.2969 Q861.7344,824.0469 861.7344,825.0781 L861.7344,826.1719 Q861.7344,827.4063 862.625,828.2266 Q863.5156,829.0469 865.1094,829.0469 Q866.0469,829.0469 866.7031,828.7969 Q867.0938,828.6406 867.5156,828.2031 Q867.7813,827.9375 867.9297,827.8594 Q868.0781,827.7813 868.2813,827.7813 Q868.6094,827.7813 868.8672,828.0391 Q869.125,828.2969 869.125,828.6406 Q869.125,828.9844 868.7813,829.3906 Q868.2813,829.9688 867.4844,830.2969 Q866.4063,830.75 865.1094,830.75 Q863.5938,830.75 862.3906,830.125 Q861.4063,829.625 860.7188,828.5547 Q860.0313,827.4844 860.0313,826.2031 L860.0313,825.0469 Q860.0313,823.7188 860.6484,822.5703 Q861.2656,821.4219 862.3594,820.8047 Q863.4531,820.1875 864.6875,820.1875 Q865.4219,820.1875 866.0703,820.3516 Q866.7188,820.5156 867.2656,820.875 Z " fill="#000000"/><text fill="#000000" font-family="sans-serif" font-size="14" lengthAdjust="spacing" textLength="84" x="878.5" y="830.7285">TableColumn</text><line style="stroke:#181818;stroke-width:0.5;" x1="850.5" x2="964.5" y1="841" y2="841"/><line style="stroke:#181818;stroke-width:0.5;" x1="850.5" x2="964.5" y1="849" y2="849"/></g><!--MD5=[8699619b1008ad6a65e734fe7c7e339d]
class NotNull--><g id="elem_NotNull"><rect codeLine="50" fill="#F1F1F1" height="48" id="NotNull" rx="2.5" ry="2.5" style="stroke:#181818;stroke-width:0.5;" width="76" x="317.5" y="7"/><ellipse cx="332.5" cy="23" fill="#ADD1B2" rx="11" ry="11" style="stroke:#181818;stroke-width:1.0;"/><path d="M335.2656,18.875 Q335.4219,18.6563 335.6094,18.5469 Q335.7969,18.4375 336.0156,18.4375 Q336.3906,18.4375 336.625,18.6953 Q336.8594,18.9531 336.8594,19.5625 L336.8594,21.0156 Q336.8594,21.625 336.625,21.8906 Q336.3906,22.1563 336.0156,22.1563 Q335.6719,22.1563 335.4688,21.9531 Q335.2656,21.7656 335.1563,21.25 Q335.1094,20.8906 334.9219,20.7031 Q334.5938,20.3281 333.9844,20.1094 Q333.375,19.8906 332.75,19.8906 Q331.9844,19.8906 331.3516,20.2188 Q330.7188,20.5469 330.2266,21.2969 Q329.7344,22.0469 329.7344,23.0781 L329.7344,24.1719 Q329.7344,25.4063 330.625,26.2266 Q331.5156,27.0469 333.1094,27.0469 Q334.0469,27.0469 334.7031,26.7969 Q335.0938,26.6406 335.5156,26.2031 Q335.7813,25.9375 335.9297,25.8594 Q336.0781,25.7813 336.2813,25.7813 Q336.6094,25.7813 336.8672,26.0391 Q337.125,26.2969 337.125,26.6406 Q337.125,26.9844 336.7813,27.3906 Q336.2813,27.9688 335.4844,28.2969 Q334.4063,28.75 333.1094,28.75 Q331.5938,28.75 330.3906,28.125 Q329.4063,27.625 328.7188,26.5547 Q328.0313,25.4844 328.0313,24.2031 L328.0313,23.0469 Q328.0313,21.7188 328.6484,20.5703 Q329.2656,19.4219 330.3594,18.8047 Q331.4531,18.1875 332.6875,18.1875 Q333.4219,18.1875 334.0703,18.3516 Q334.7188,18.5156 335.2656,18.875 Z " fill="#000000"/><text fill="#000000" font-family="sans-serif" font-size="14" lengthAdjust="spacing" textLength="44" x="346.5" y="28.7285">NotNull</text><line style="stroke:#181818;stroke-width:0.5;" x1="318.5" x2="392.5" y1="39" y2="39"/><line style="stroke:#181818;stroke-width:0.5;" x1="318.5" x2="392.5" y1="47" y2="47"/></g><!--MD5=[a6cda19987f54858434fa4113610982e]
class FileResource--><g id="elem_FileResource"><rect codeLine="52" fill="#F1F1F1" height="65.6094" id="FileResource" rx="2.5" ry="2.5" style="stroke:#181818;stroke-width:0.5;" width="116" x="1322.5" y="496"/><ellipse cx="1337.5" cy="512" fill="#ADD1B2" rx="11" ry="11" style="stroke:#181818;stroke-width:1.0;"/><path d="M1340.2656,507.875 Q1340.4219,507.6563 1340.6094,507.5469 Q1340.7969,507.4375 1341.0156,507.4375 Q1341.3906,507.4375 1341.625,507.6953 Q1341.8594,507.9531 1341.8594,508.5625 L1341.8594,510.0156 Q1341.8594,510.625 1341.625,510.8906 Q1341.3906,511.1563 1341.0156,511.1563 Q1340.6719,511.1563 1340.4688,510.9531 Q1340.2656,510.7656 1340.1563,510.25 Q1340.1094,509.8906 1339.9219,509.7031 Q1339.5938,509.3281 1338.9844,509.1094 Q1338.375,508.8906 1337.75,508.8906 Q1336.9844,508.8906 1336.3516,509.2188 Q1335.7188,509.5469 1335.2266,510.2969 Q1334.7344,511.0469 1334.7344,512.0781 L1334.7344,513.1719 Q1334.7344,514.4063 1335.625,515.2266 Q1336.5156,516.0469 1338.1094,516.0469 Q1339.0469,516.0469 1339.7031,515.7969 Q1340.0938,515.6406 1340.5156,515.2031 Q1340.7813,514.9375 1340.9297,514.8594 Q1341.0781,514.7813 1341.2813,514.7813 Q1341.6094,514.7813 1341.8672,515.0391 Q1342.125,515.2969 1342.125,515.6406 Q1342.125,515.9844 1341.7813,516.3906 Q1341.2813,516.9688 1340.4844,517.2969 Q1339.4063,517.75 1338.1094,517.75 Q1336.5938,517.75 1335.3906,517.125 Q1334.4063,516.625 1333.7188,515.5547 Q1333.0313,514.4844 1333.0313,513.2031 L1333.0313,512.0469 Q1333.0313,510.7188 1333.6484,509.5703 Q1334.2656,508.4219 1335.3594,507.8047 Q1336.4531,507.1875 1337.6875,507.1875 Q1338.4219,507.1875 1339.0703,507.3516 Q1339.7188,507.5156 1340.2656,507.875 Z " fill="#000000"/><text fill="#000000" font-family="sans-serif" font-size="14" lengthAdjust="spacing" textLength="84" x="1351.5" y="517.7285">FileResource</text><line style="stroke:#181818;stroke-width:0.5;" x1="1323.5" x2="1437.5" y1="528" y2="528"/><line style="stroke:#181818;stroke-width:0.5;" x1="1323.5" x2="1437.5" y1="536" y2="536"/><text fill="#000000" font-family="sans-serif" font-size="14" lengthAdjust="spacing" textLength="76" x="1328.5" y="554.5332">init(str path)</text></g><!--MD5=[e3c91158bcdad03aa33a6fcf074a92a7]
class IniFile--><g id="elem_IniFile"><rect codeLine="56" fill="#F1F1F1" height="48" id="IniFile" rx="2.5" ry="2.5" style="stroke:#181818;stroke-width:0.5;" width="69" x="1268" y="229.5"/><ellipse cx="1283" cy="245.5" fill="#ADD1B2" rx="11" ry="11" style="stroke:#181818;stroke-width:1.0;"/><path d="M1285.7656,241.375 Q1285.9219,241.1563 1286.1094,241.0469 Q1286.2969,240.9375 1286.5156,240.9375 Q1286.8906,240.9375 1287.125,241.1953 Q1287.3594,241.4531 1287.3594,242.0625 L1287.3594,243.5156 Q1287.3594,244.125 1287.125,244.3906 Q1286.8906,244.6563 1286.5156,244.6563 Q1286.1719,244.6563 1285.9688,244.4531 Q1285.7656,244.2656 1285.6563,243.75 Q1285.6094,243.3906 1285.4219,243.2031 Q1285.0938,242.8281 1284.4844,242.6094 Q1283.875,242.3906 1283.25,242.3906 Q1282.4844,242.3906 1281.8516,242.7188 Q1281.2188,243.0469 1280.7266,243.7969 Q1280.2344,244.5469 1280.2344,245.5781 L1280.2344,246.6719 Q1280.2344,247.9063 1281.125,248.7266 Q1282.0156,249.5469 1283.6094,249.5469 Q1284.5469,249.5469 1285.2031,249.2969 Q1285.5938,249.1406 1286.0156,248.7031 Q1286.2813,248.4375 1286.4297,248.3594 Q1286.5781,248.2813 1286.7813,248.2813 Q1287.1094,248.2813 1287.3672,248.5391 Q1287.625,248.7969 1287.625,249.1406 Q1287.625,249.4844 1287.2813,249.8906 Q1286.7813,250.4688 1285.9844,250.7969 Q1284.9063,251.25 1283.6094,251.25 Q1282.0938,251.25 1280.8906,250.625 Q1279.9063,250.125 1279.2188,249.0547 Q1278.5313,247.9844 1278.5313,246.7031 L1278.5313,245.5469 Q1278.5313,244.2188 1279.1484,243.0703 Q1279.7656,241.9219 1280.8594,241.3047 Q1281.9531,240.6875 1283.1875,240.6875 Q1283.9219,240.6875 1284.5703,240.8516 Q1285.2188,241.0156 1285.7656,241.375 Z " fill="#000000"/><text fill="#000000" font-family="sans-serif" font-size="14" lengthAdjust="spacing" textLength="37" x="1297" y="251.2285">IniFile</text><line style="stroke:#181818;stroke-width:0.5;" x1="1269" x2="1336" y1="261.5" y2="261.5"/><line style="stroke:#181818;stroke-width:0.5;" x1="1269" x2="1336" y1="269.5" y2="269.5"/></g><!--MD5=[d6207198cce69febe883b1dce65d01a1]
class IniSection--><g id="elem_IniSection"><rect codeLine="57" fill="#F1F1F1" height="48" id="IniSection" rx="2.5" ry="2.5" style="stroke:#181818;stroke-width:0.5;" width="93" x="1178" y="683.5"/><ellipse cx="1193" cy="699.5" fill="#ADD1B2" rx="11" ry="11" style="stroke:#181818;stroke-width:1.0;"/><path d="M1195.7656,695.375 Q1195.9219,695.1563 1196.1094,695.0469 Q1196.2969,694.9375 1196.5156,694.9375 Q1196.8906,694.9375 1197.125,695.1953 Q1197.3594,695.4531 1197.3594,696.0625 L1197.3594,697.5156 Q1197.3594,698.125 1197.125,698.3906 Q1196.8906,698.6563 1196.5156,698.6563 Q1196.1719,698.6563 1195.9688,698.4531 Q1195.7656,698.2656 1195.6563,697.75 Q1195.6094,697.3906 1195.4219,697.2031 Q1195.0938,696.8281 1194.4844,696.6094 Q1193.875,696.3906 1193.25,696.3906 Q1192.4844,696.3906 1191.8516,696.7188 Q1191.2188,697.0469 1190.7266,697.7969 Q1190.2344,698.5469 1190.2344,699.5781 L1190.2344,700.6719 Q1190.2344,701.9063 1191.125,702.7266 Q1192.0156,703.5469 1193.6094,703.5469 Q1194.5469,703.5469 1195.2031,703.2969 Q1195.5938,703.1406 1196.0156,702.7031 Q1196.2813,702.4375 1196.4297,702.3594 Q1196.5781,702.2813 1196.7813,702.2813 Q1197.1094,702.2813 1197.3672,702.5391 Q1197.625,702.7969 1197.625,703.1406 Q1197.625,703.4844 1197.2813,703.8906 Q1196.7813,704.4688 1195.9844,704.7969 Q1194.9063,705.25 1193.6094,705.25 Q1192.0938,705.25 1190.8906,704.625 Q1189.9063,704.125 1189.2188,703.0547 Q1188.5313,701.9844 1188.5313,700.7031 L1188.5313,699.5469 Q1188.5313,698.2188 1189.1484,697.0703 Q1189.7656,695.9219 1190.8594,695.3047 Q1191.9531,694.6875 1193.1875,694.6875 Q1193.9219,694.6875 1194.5703,694.8516 Q1195.2188,695.0156 1195.7656,695.375 Z " fill="#000000"/><text fill="#000000" font-family="sans-serif" font-size="14" lengthAdjust="spacing" textLength="61" x="1207" y="705.2285">IniSection</text><line style="stroke:#181818;stroke-width:0.5;" x1="1179" x2="1270" y1="715.5" y2="715.5"/><line style="stroke:#181818;stroke-width:0.5;" x1="1179" x2="1270" y1="723.5" y2="723.5"/></g><!--MD5=[e3e99a18f832b8bfe8c6c1c33e99e423]
class NoneIniSection--><g id="elem_NoneIniSection"><rect codeLine="58" fill="#F1F1F1" height="48" id="NoneIniSection" rx="2.5" ry="2.5" style="stroke:#181818;stroke-width:0.5;" width="126" x="1161.5" y="505"/><ellipse cx="1176.5" cy="521" fill="#ADD1B2" rx="11" ry="11" style="stroke:#181818;stroke-width:1.0;"/><path d="M1179.2656,516.875 Q1179.4219,516.6563 1179.6094,516.5469 Q1179.7969,516.4375 1180.0156,516.4375 Q1180.3906,516.4375 1180.625,516.6953 Q1180.8594,516.9531 1180.8594,517.5625 L1180.8594,519.0156 Q1180.8594,519.625 1180.625,519.8906 Q1180.3906,520.1563 1180.0156,520.1563 Q1179.6719,520.1563 1179.4688,519.9531 Q1179.2656,519.7656 1179.1563,519.25 Q1179.1094,518.8906 1178.9219,518.7031 Q1178.5938,518.3281 1177.9844,518.1094 Q1177.375,517.8906 1176.75,517.8906 Q1175.9844,517.8906 1175.3516,518.2188 Q1174.7188,518.5469 1174.2266,519.2969 Q1173.7344,520.0469 1173.7344,521.0781 L1173.7344,522.1719 Q1173.7344,523.4063 1174.625,524.2266 Q1175.5156,525.0469 1177.1094,525.0469 Q1178.0469,525.0469 1178.7031,524.7969 Q1179.0938,524.6406 1179.5156,524.2031 Q1179.7813,523.9375 1179.9297,523.8594 Q1180.0781,523.7813 1180.2813,523.7813 Q1180.6094,523.7813 1180.8672,524.0391 Q1181.125,524.2969 1181.125,524.6406 Q1181.125,524.9844 1180.7813,525.3906 Q1180.2813,525.9688 1179.4844,526.2969 Q1178.4063,526.75 1177.1094,526.75 Q1175.5938,526.75 1174.3906,526.125 Q1173.4063,525.625 1172.7188,524.5547 Q1172.0313,523.4844 1172.0313,522.2031 L1172.0313,521.0469 Q1172.0313,519.7188 1172.6484,518.5703 Q1173.2656,517.4219 1174.3594,516.8047 Q1175.4531,516.1875 1176.6875,516.1875 Q1177.4219,516.1875 1178.0703,516.3516 Q1178.7188,516.5156 1179.2656,516.875 Z " fill="#000000"/><text fill="#000000" font-family="sans-serif" font-size="14" lengthAdjust="spacing" textLength="94" x="1190.5" y="526.7285">NoneIniSection</text><line style="stroke:#181818;stroke-width:0.5;" x1="1162.5" x2="1286.5" y1="537" y2="537"/><line style="stroke:#181818;stroke-width:0.5;" x1="1162.5" x2="1286.5" y1="545" y2="545"/></g><!--MD5=[715128bba345a62fb0ee618baa868826]
class JsonFile--><g id="elem_JsonFile"><rect codeLine="59" fill="#F1F1F1" height="83.2188" id="JsonFile" rx="2.5" ry="2.5" style="stroke:#181818;stroke-width:0.5;" width="184" x="1306.5" y="666"/><ellipse cx="1368.25" cy="682" fill="#ADD1B2" rx="11" ry="11" style="stroke:#181818;stroke-width:1.0;"/><path d="M1371.0156,677.875 Q1371.1719,677.6563 1371.3594,677.5469 Q1371.5469,677.4375 1371.7656,677.4375 Q1372.1406,677.4375 1372.375,677.6953 Q1372.6094,677.9531 1372.6094,678.5625 L1372.6094,680.0156 Q1372.6094,680.625 1372.375,680.8906 Q1372.1406,681.1563 1371.7656,681.1563 Q1371.4219,681.1563 1371.2188,680.9531 Q1371.0156,680.7656 1370.9063,680.25 Q1370.8594,679.8906 1370.6719,679.7031 Q1370.3438,679.3281 1369.7344,679.1094 Q1369.125,678.8906 1368.5,678.8906 Q1367.7344,678.8906 1367.1016,679.2188 Q1366.4688,679.5469 1365.9766,680.2969 Q1365.4844,681.0469 1365.4844,682.0781 L1365.4844,683.1719 Q1365.4844,684.4063 1366.375,685.2266 Q1367.2656,686.0469 1368.8594,686.0469 Q1369.7969,686.0469 1370.4531,685.7969 Q1370.8438,685.6406 1371.2656,685.2031 Q1371.5313,684.9375 1371.6797,684.8594 Q1371.8281,684.7813 1372.0313,684.7813 Q1372.3594,684.7813 1372.6172,685.0391 Q1372.875,685.2969 1372.875,685.6406 Q1372.875,685.9844 1372.5313,686.3906 Q1372.0313,686.9688 1371.2344,687.2969 Q1370.1563,687.75 1368.8594,687.75 Q1367.3438,687.75 1366.1406,687.125 Q1365.1563,686.625 1364.4688,685.5547 Q1363.7813,684.4844 1363.7813,683.2031 L1363.7813,682.0469 Q1363.7813,680.7188 1364.3984,679.5703 Q1365.0156,678.4219 1366.1094,677.8047 Q1367.2031,677.1875 1368.4375,677.1875 Q1369.1719,677.1875 1369.8203,677.3516 Q1370.4688,677.5156 1371.0156,677.875 Z " fill="#000000"/><text fill="#000000" font-family="sans-serif" font-size="14" lengthAdjust="spacing" textLength="52" x="1388.75" y="687.7285">JsonFile</text><line style="stroke:#181818;stroke-width:0.5;" x1="1307.5" x2="1489.5" y1="698" y2="698"/><line style="stroke:#181818;stroke-width:0.5;" x1="1307.5" x2="1489.5" y1="706" y2="706"/><text fill="#000000" font-family="sans-serif" font-size="14" lengthAdjust="spacing" textLength="172" x="1312.5" y="724.5332">serialize(Savable resource)</text><text fill="#000000" font-family="sans-serif" font-size="14" lengthAdjust="spacing" textLength="115" x="1312.5" y="742.1426">deserialize(object)</text></g><!--MD5=[3fee75583bb7a64f68d843a3c9534ab3]
class Node--><g id="elem_Node"><rect codeLine="64" fill="#F1F1F1" height="83.2188" id="Node" rx="2.5" ry="2.5" style="stroke:#181818;stroke-width:0.5;" width="100" x="1019.5" y="487.5"/><ellipse cx="1050.25" cy="503.5" fill="#ADD1B2" rx="11" ry="11" style="stroke:#181818;stroke-width:1.0;"/><path d="M1053.0156,499.375 Q1053.1719,499.1563 1053.3594,499.0469 Q1053.5469,498.9375 1053.7656,498.9375 Q1054.1406,498.9375 1054.375,499.1953 Q1054.6094,499.4531 1054.6094,500.0625 L1054.6094,501.5156 Q1054.6094,502.125 1054.375,502.3906 Q1054.1406,502.6563 1053.7656,502.6563 Q1053.4219,502.6563 1053.2188,502.4531 Q1053.0156,502.2656 1052.9063,501.75 Q1052.8594,501.3906 1052.6719,501.2031 Q1052.3438,500.8281 1051.7344,500.6094 Q1051.125,500.3906 1050.5,500.3906 Q1049.7344,500.3906 1049.1016,500.7188 Q1048.4688,501.0469 1047.9766,501.7969 Q1047.4844,502.5469 1047.4844,503.5781 L1047.4844,504.6719 Q1047.4844,505.9063 1048.375,506.7266 Q1049.2656,507.5469 1050.8594,507.5469 Q1051.7969,507.5469 1052.4531,507.2969 Q1052.8438,507.1406 1053.2656,506.7031 Q1053.5313,506.4375 1053.6797,506.3594 Q1053.8281,506.2813 1054.0313,506.2813 Q1054.3594,506.2813 1054.6172,506.5391 Q1054.875,506.7969 1054.875,507.1406 Q1054.875,507.4844 1054.5313,507.8906 Q1054.0313,508.4688 1053.2344,508.7969 Q1052.1563,509.25 1050.8594,509.25 Q1049.3438,509.25 1048.1406,508.625 Q1047.1563,508.125 1046.4688,507.0547 Q1045.7813,505.9844 1045.7813,504.7031 L1045.7813,503.5469 Q1045.7813,502.2188 1046.3984,501.0703 Q1047.0156,499.9219 1048.1094,499.3047 Q1049.2031,498.6875 1050.4375,498.6875 Q1051.1719,498.6875 1051.8203,498.8516 Q1052.4688,499.0156 1053.0156,499.375 Z " fill="#000000"/><text fill="#000000" font-family="sans-serif" font-size="14" lengthAdjust="spacing" textLength="33" x="1067.75" y="509.2285">Node</text><line style="stroke:#181818;stroke-width:0.5;" x1="1020.5" x2="1118.5" y1="519.5" y2="519.5"/><text fill="#000000" font-family="sans-serif" font-size="14" lengthAdjust="spacing" textLength="51" x="1025.5" y="538.0332">node_id</text><line style="stroke:#181818;stroke-width:0.5;" x1="1020.5" x2="1118.5" y1="545.1094" y2="545.1094"/><text fill="#000000" font-family="sans-serif" font-size="14" lengthAdjust="spacing" textLength="88" x="1025.5" y="563.6426">save(int level)</text></g><!--MD5=[2486d40b882f2b25a6a3a545ecdc85be]
class TableNode--><g id="elem_TableNode"><rect codeLine="69" fill="#F1F1F1" height="83.2188" id="TableNode" rx="2.5" ry="2.5" style="stroke:#181818;stroke-width:0.5;" width="160" x="982.5" y="666"/><ellipse cx="1024.05" cy="682" fill="#ADD1B2" rx="11" ry="11" style="stroke:#181818;stroke-width:1.0;"/><path d="M1026.8156,677.875 Q1026.9719,677.6563 1027.1594,677.5469 Q1027.3469,677.4375 1027.5656,677.4375 Q1027.9406,677.4375 1028.175,677.6953 Q1028.4094,677.9531 1028.4094,678.5625 L1028.4094,680.0156 Q1028.4094,680.625 1028.175,680.8906 Q1027.9406,681.1563 1027.5656,681.1563 Q1027.2219,681.1563 1027.0188,680.9531 Q1026.8156,680.7656 1026.7063,680.25 Q1026.6594,679.8906 1026.4719,679.7031 Q1026.1438,679.3281 1025.5344,679.1094 Q1024.925,678.8906 1024.3,678.8906 Q1023.5344,678.8906 1022.9016,679.2188 Q1022.2688,679.5469 1021.7766,680.2969 Q1021.2844,681.0469 1021.2844,682.0781 L1021.2844,683.1719 Q1021.2844,684.4063 1022.175,685.2266 Q1023.0656,686.0469 1024.6594,686.0469 Q1025.5969,686.0469 1026.2531,685.7969 Q1026.6438,685.6406 1027.0656,685.2031 Q1027.3313,684.9375 1027.4797,684.8594 Q1027.6281,684.7813 1027.8313,684.7813 Q1028.1594,684.7813 1028.4172,685.0391 Q1028.675,685.2969 1028.675,685.6406 Q1028.675,685.9844 1028.3313,686.3906 Q1027.8313,686.9688 1027.0344,687.2969 Q1025.9563,687.75 1024.6594,687.75 Q1023.1438,687.75 1021.9406,687.125 Q1020.9563,686.625 1020.2688,685.5547 Q1019.5813,684.4844 1019.5813,683.2031 L1019.5813,682.0469 Q1019.5813,680.7188 1020.1984,679.5703 Q1020.8156,678.4219 1021.9094,677.8047 Q1023.0031,677.1875 1024.2375,677.1875 Q1024.9719,677.1875 1025.6203,677.3516 Q1026.2688,677.5156 1026.8156,677.875 Z " fill="#000000"/><text fill="#000000" font-family="sans-serif" font-size="14" lengthAdjust="spacing" textLength="69" x="1043.95" y="687.7285">TableNode</text><line style="stroke:#181818;stroke-width:0.5;" x1="983.5" x2="1141.5" y1="698" y2="698"/><text fill="#000000" font-family="sans-serif" font-size="14" lengthAdjust="spacing" textLength="103" x="988.5" y="716.5332">table = resource</text><text fill="#000000" font-family="sans-serif" font-size="14" lengthAdjust="spacing" textLength="148" x="988.5" y="734.1426">db = resource.resource</text><line style="stroke:#181818;stroke-width:0.5;" x1="983.5" x2="1141.5" y1="741.2188" y2="741.2188"/></g><!--MD5=[7c5c88a606935469d5f89b0b5794816c]
class Named--><g id="elem_Named"><rect codeLine="74" fill="#F1F1F1" height="83.2188" id="Named" rx="2.5" ry="2.5" style="stroke:#181818;stroke-width:0.5;" width="85" x="677" y="487.5"/><ellipse cx="696.05" cy="503.5" fill="#ADD1B2" rx="11" ry="11" style="stroke:#181818;stroke-width:1.0;"/><path d="M698.8156,499.375 Q698.9719,499.1563 699.1594,499.0469 Q699.3469,498.9375 699.5656,498.9375 Q699.9406,498.9375 700.175,499.1953 Q700.4094,499.4531 700.4094,500.0625 L700.4094,501.5156 Q700.4094,502.125 700.175,502.3906 Q699.9406,502.6563 699.5656,502.6563 Q699.2219,502.6563 699.0188,502.4531 Q698.8156,502.2656 698.7063,501.75 Q698.6594,501.3906 698.4719,501.2031 Q698.1438,500.8281 697.5344,500.6094 Q696.925,500.3906 696.3,500.3906 Q695.5344,500.3906 694.9016,500.7188 Q694.2688,501.0469 693.7766,501.7969 Q693.2844,502.5469 693.2844,503.5781 L693.2844,504.6719 Q693.2844,505.9063 694.175,506.7266 Q695.0656,507.5469 696.6594,507.5469 Q697.5969,507.5469 698.2531,507.2969 Q698.6438,507.1406 699.0656,506.7031 Q699.3313,506.4375 699.4797,506.3594 Q699.6281,506.2813 699.8313,506.2813 Q700.1594,506.2813 700.4172,506.5391 Q700.675,506.7969 700.675,507.1406 Q700.675,507.4844 700.3313,507.8906 Q699.8313,508.4688 699.0344,508.7969 Q697.9563,509.25 696.6594,509.25 Q695.1438,509.25 693.9406,508.625 Q692.9563,508.125 692.2688,507.0547 Q691.5813,505.9844 691.5813,504.7031 L691.5813,503.5469 Q691.5813,502.2188 692.1984,501.0703 Q692.8156,499.9219 693.9094,499.3047 Q695.0031,498.6875 696.2375,498.6875 Q696.9719,498.6875 697.6203,498.8516 Q698.2688,499.0156 698.8156,499.375 Z " fill="#000000"/><text fill="#000000" font-family="sans-serif" font-size="14" lengthAdjust="spacing" textLength="44" x="710.95" y="509.2285">Named</text><line style="stroke:#181818;stroke-width:0.5;" x1="678" x2="761" y1="519.5" y2="519.5"/><text fill="#000000" font-family="sans-serif" font-size="14" lengthAdjust="spacing" textLength="35" x="683" y="538.0332">name</text><text fill="#000000" font-family="sans-serif" font-size="14" lengthAdjust="spacing" textLength="73" x="683" y="555.6426">namespace</text><line style="stroke:#181818;stroke-width:0.5;" x1="678" x2="761" y1="562.7188" y2="562.7188"/></g><!--MD5=[3bdd6c13bf717147ba500eaa56e7cb2f]
class NamedByClass--><g id="elem_NamedByClass"><rect codeLine="78" fill="#F1F1F1" height="48" id="NamedByClass" rx="2.5" ry="2.5" style="stroke:#181818;stroke-width:0.5;" width="127" x="656" y="683.5"/><ellipse cx="671" cy="699.5" fill="#ADD1B2" rx="11" ry="11" style="stroke:#181818;stroke-width:1.0;"/><path d="M673.7656,695.375 Q673.9219,695.1563 674.1094,695.0469 Q674.2969,694.9375 674.5156,694.9375 Q674.8906,694.9375 675.125,695.1953 Q675.3594,695.4531 675.3594,696.0625 L675.3594,697.5156 Q675.3594,698.125 675.125,698.3906 Q674.8906,698.6563 674.5156,698.6563 Q674.1719,698.6563 673.9688,698.4531 Q673.7656,698.2656 673.6563,697.75 Q673.6094,697.3906 673.4219,697.2031 Q673.0938,696.8281 672.4844,696.6094 Q671.875,696.3906 671.25,696.3906 Q670.4844,696.3906 669.8516,696.7188 Q669.2188,697.0469 668.7266,697.7969 Q668.2344,698.5469 668.2344,699.5781 L668.2344,700.6719 Q668.2344,701.9063 669.125,702.7266 Q670.0156,703.5469 671.6094,703.5469 Q672.5469,703.5469 673.2031,703.2969 Q673.5938,703.1406 674.0156,702.7031 Q674.2813,702.4375 674.4297,702.3594 Q674.5781,702.2813 674.7813,702.2813 Q675.1094,702.2813 675.3672,702.5391 Q675.625,702.7969 675.625,703.1406 Q675.625,703.4844 675.2813,703.8906 Q674.7813,704.4688 673.9844,704.7969 Q672.9063,705.25 671.6094,705.25 Q670.0938,705.25 668.8906,704.625 Q667.9063,704.125 667.2188,703.0547 Q666.5313,701.9844 666.5313,700.7031 L666.5313,699.5469 Q666.5313,698.2188 667.1484,697.0703 Q667.7656,695.9219 668.8594,695.3047 Q669.9531,694.6875 671.1875,694.6875 Q671.9219,694.6875 672.5703,694.8516 Q673.2188,695.0156 673.7656,695.375 Z " fill="#000000"/><text fill="#000000" font-family="sans-serif" font-size="14" lengthAdjust="spacing" textLength="95" x="685" y="705.2285">NamedByClass</text><line style="stroke:#181818;stroke-width:0.5;" x1="657" x2="782" y1="715.5" y2="715.5"/><line style="stroke:#181818;stroke-width:0.5;" x1="657" x2="782" y1="723.5" y2="723.5"/></g><!--MD5=[8fb7c67164596481d90bd4ec75b6ad0a]
class DbEntityResource--><g id="elem_DbEntityResource"><rect fill="#F1F1F1" height="48" id="DbEntityResource" rx="2.5" ry="2.5" style="stroke:#181818;stroke-width:0.5;" width="146" x="556.5" y="229.5"/><ellipse cx="571.5" cy="245.5" fill="#ADD1B2" rx="11" ry="11" style="stroke:#181818;stroke-width:1.0;"/><path d="M574.2656,241.375 Q574.4219,241.1563 574.6094,241.0469 Q574.7969,240.9375 575.0156,240.9375 Q575.3906,240.9375 575.625,241.1953 Q575.8594,241.4531 575.8594,242.0625 L575.8594,243.5156 Q575.8594,244.125 575.625,244.3906 Q575.3906,244.6563 575.0156,244.6563 Q574.6719,244.6563 574.4688,244.4531 Q574.2656,244.2656 574.1563,243.75 Q574.1094,243.3906 573.9219,243.2031 Q573.5938,242.8281 572.9844,242.6094 Q572.375,242.3906 571.75,242.3906 Q570.9844,242.3906 570.3516,242.7188 Q569.7188,243.0469 569.2266,243.7969 Q568.7344,244.5469 568.7344,245.5781 L568.7344,246.6719 Q568.7344,247.9063 569.625,248.7266 Q570.5156,249.5469 572.1094,249.5469 Q573.0469,249.5469 573.7031,249.2969 Q574.0938,249.1406 574.5156,248.7031 Q574.7813,248.4375 574.9297,248.3594 Q575.0781,248.2813 575.2813,248.2813 Q575.6094,248.2813 575.8672,248.5391 Q576.125,248.7969 576.125,249.1406 Q576.125,249.4844 575.7813,249.8906 Q575.2813,250.4688 574.4844,250.7969 Q573.4063,251.25 572.1094,251.25 Q570.5938,251.25 569.3906,250.625 Q568.4063,250.125 567.7188,249.0547 Q567.0313,247.9844 567.0313,246.7031 L567.0313,245.5469 Q567.0313,244.2188 567.6484,243.0703 Q568.2656,241.9219 569.3594,241.3047 Q570.4531,240.6875 571.6875,240.6875 Q572.4219,240.6875 573.0703,240.8516 Q573.7188,241.0156 574.2656,241.375 Z " fill="#000000"/><text fill="#000000" font-family="sans-serif" font-size="14" lengthAdjust="spacing" textLength="114" x="585.5" y="251.2285">DbEntityResource</text><line style="stroke:#181818;stroke-width:0.5;" x1="557.5" x2="701.5" y1="261.5" y2="261.5"/><line style="stroke:#181818;stroke-width:0.5;" x1="557.5" x2="701.5" y1="269.5" y2="269.5"/></g><!--MD5=[1e7095485db10410c06d439f922e3d53]
class TableStorage--><g id="elem_TableStorage"><rect fill="#F1F1F1" height="48" id="TableStorage" rx="2.5" ry="2.5" style="stroke:#181818;stroke-width:0.5;" width="118" x="403.5" y="229.5"/><ellipse cx="418.5" cy="245.5" fill="#ADD1B2" rx="11" ry="11" style="stroke:#181818;stroke-width:1.0;"/><path d="M421.2656,241.375 Q421.4219,241.1563 421.6094,241.0469 Q421.7969,240.9375 422.0156,240.9375 Q422.3906,240.9375 422.625,241.1953 Q422.8594,241.4531 422.8594,242.0625 L422.8594,243.5156 Q422.8594,244.125 422.625,244.3906 Q422.3906,244.6563 422.0156,244.6563 Q421.6719,244.6563 421.4688,244.4531 Q421.2656,244.2656 421.1563,243.75 Q421.1094,243.3906 420.9219,243.2031 Q420.5938,242.8281 419.9844,242.6094 Q419.375,242.3906 418.75,242.3906 Q417.9844,242.3906 417.3516,242.7188 Q416.7188,243.0469 416.2266,243.7969 Q415.7344,244.5469 415.7344,245.5781 L415.7344,246.6719 Q415.7344,247.9063 416.625,248.7266 Q417.5156,249.5469 419.1094,249.5469 Q420.0469,249.5469 420.7031,249.2969 Q421.0938,249.1406 421.5156,248.7031 Q421.7813,248.4375 421.9297,248.3594 Q422.0781,248.2813 422.2813,248.2813 Q422.6094,248.2813 422.8672,248.5391 Q423.125,248.7969 423.125,249.1406 Q423.125,249.4844 422.7813,249.8906 Q422.2813,250.4688 421.4844,250.7969 Q420.4063,251.25 419.1094,251.25 Q417.5938,251.25 416.3906,250.625 Q415.4063,250.125 414.7188,249.0547 Q414.0313,247.9844 414.0313,246.7031 L414.0313,245.5469 Q414.0313,244.2188 414.6484,243.0703 Q415.2656,241.9219 416.3594,241.3047 Q417.4531,240.6875 418.6875,240.6875 Q419.4219,240.6875 420.0703,240.8516 Q420.7188,241.0156 421.2656,241.375 Z " fill="#000000"/><text fill="#000000" font-family="sans-serif" font-size="14" lengthAdjust="spacing" textLength="86" x="432.5" y="251.2285">TableStorage</text><line style="stroke:#181818;stroke-width:0.5;" x1="404.5" x2="520.5" y1="261.5" y2="261.5"/><line style="stroke:#181818;stroke-width:0.5;" x1="404.5" x2="520.5" y1="269.5" y2="269.5"/></g><!--MD5=[e69a038b943ae8347c58fcc7f327fd17]
reverse link Named to NamedByClass--><g id="link_Named_NamedByClass"><path codeLine="80" d="M719.5,591.38 C719.5,623.16 719.5,660.07 719.5,683.36 " fill="none" id="Named-backto-NamedByClass" style="stroke:#181818;stroke-width:1.0;"/><polygon fill="none" points="712.5,590.94,719.5,570.94,726.5,590.94,712.5,590.94" style="stroke:#181818;stroke-width:1.0;"/></g><!--MD5=[6579ab085c9e38eb794518fdc173ede6]
link DbEntityResource to Resource--><g id="link_DbEntityResource_Resource"><path codeLine="82" d="M702.51,253.5 C707.55,253.5 712.6,253.5 717.65,253.5 " fill="none" id="DbEntityResource-to-Resource" style="stroke:#181818;stroke-width:1.0;"/><polygon fill="none" points="717.74,246.5,737.74,253.5,717.74,260.5,717.74,246.5" style="stroke:#181818;stroke-width:1.0;"/></g><!--MD5=[ffcdf36379f0a67e376cefeaca8a42a9]
link TableStorage to DbEntityResource--><g id="link_TableStorage_DbEntityResource"><path codeLine="83" d="M521.54,253.5 C526.31,253.5 531.08,253.5 535.86,253.5 " fill="none" id="TableStorage-to-DbEntityResource" style="stroke:#181818;stroke-width:1.0;"/><polygon fill="none" points="536.12,246.5,556.12,253.5,536.12,260.5,536.12,246.5" style="stroke:#181818;stroke-width:1.0;"/></g><!--MD5=[be39ac681a39bdfa9652d95579ee329f]
link Db to TableStorage--><g id="link_Db_TableStorage"><path codeLine="84" d="M368.4,253.5 C373.31,253.5 378.22,253.5 383.13,253.5 " fill="none" id="Db-to-TableStorage" style="stroke:#181818;stroke-width:1.0;"/><polygon fill="none" points="383.32,246.5,403.32,253.5,383.32,260.5,383.32,246.5" style="stroke:#181818;stroke-width:1.0;"/></g><!--MD5=[f99c02d12937b74020b8240a398a8d23]
link GresDb to Db--><g id="link_GresDb_Db"><path codeLine="85" d="M241.5,55.18 C241.5,87.25 241.5,146.32 241.5,191.49 " fill="none" id="GresDb-to-Db" style="stroke:#181818;stroke-width:1.0;"/><polygon fill="none" points="248.5,191.75,241.5,211.75,234.5,191.75,248.5,191.75" style="stroke:#181818;stroke-width:1.0;"/></g><!--MD5=[a335d8c56f8d19a4561fc9d26229b7a3]
link LiteDb to Db--><g id="link_LiteDb_Db"><path codeLine="86" d="M80.24,253.5 C85.11,253.5 89.98,253.5 94.85,253.5 " fill="none" id="LiteDb-to-Db" style="stroke:#181818;stroke-width:1.0;"/><polygon fill="none" points="94.88,246.5,114.88,253.5,94.88,260.5,94.88,246.5" style="stroke:#181818;stroke-width:1.0;"/></g><!--MD5=[df0385a83cd53f83abafa82e7ea07515]
link DbEntity to NamedByClass--><g id="link_DbEntity_NamedByClass"><path codeLine="87" d="M589.11,553.07 C613.93,582.28 657.03,632.99 686.84,668.07 " fill="none" id="DbEntity-to-NamedByClass" style="stroke:#181818;stroke-width:1.0;"/><polygon fill="none" points="692.27,663.65,699.89,683.42,681.6,672.71,692.27,663.65" style="stroke:#181818;stroke-width:1.0;"/></g><!--MD5=[d898e3f5fa770147969947d842f362a2]
link Db to DbEntity--><g id="link_Db_DbEntity"><path codeLine="88" d="M286.1585,303.8671 C286.1585,303.8671 349.63,366.68 385.5,392 C433.89,426.16 457.89,415.44 504.5,452 C519.85,464.04 534.25,480.15 545.57,494.44 " fill="none" id="Db-DbEntity" style="stroke:#181818;stroke-width:1.0;"/><polygon fill="#181818" points="553.6,504.92,551.303,495.3427,550.5597,500.9506,544.9519,500.2072,553.6,504.92" style="stroke:#181818;stroke-width:1.0;"/><line style="stroke:#181818;stroke-width:1.0;" x1="550.5597" x2="545.69" y1="500.9506" y2="494.595"/><polygon fill="#181818" points="277.88,295.18,279.1235,302.2831,286.1585,303.8671,284.915,296.7641,277.88,295.18" style="stroke:#181818;stroke-width:1.0;"/></g><!--MD5=[d315e08582b3b573daf6d568793c5591]
link GresEntity to DbEntity--><g id="link_GresEntity_DbEntity"><path codeLine="89" d="M487.62,529 C493.98,529 500.33,529 506.68,529 " fill="none" id="GresEntity-to-DbEntity" style="stroke:#181818;stroke-width:1.0;"/><polygon fill="none" points="506.96,522,526.96,529,506.96,536,506.96,522" style="stroke:#181818;stroke-width:1.0;"/></g><!--MD5=[d2ec28d69675ff84c1283f5029b203c0]
reverse link Resource to Savable--><g id="link_Resource_Savable"><path codeLine="91" d="M883.88,412.27 C884.06,425.98 884.41,439.4 884.94,451.96 " fill="none" id="Resource-backto-Savable" style="stroke:#181818;stroke-width:1.0;"/><polygon fill="none" points="876.88,412.1,883.75,392.05,890.88,412,876.88,412.1" style="stroke:#181818;stroke-width:1.0;"/></g><!--MD5=[5222c9fd74b60e35ab2e93d3d00836e7]
link Resource to Savable--><g id="link_Resource_Savable"><path codeLine="92" d="M909.9473,404.0499 C909.9473,404.0499 909.6,427.97 909.24,438.89 " fill="none" id="Resource-Savable" style="stroke:#181818;stroke-width:1.0;"/><polygon fill="#181818" points="908.74,451.96,913.0829,443.1204,908.9322,446.9637,905.0889,442.8129,908.74,451.96" style="stroke:#181818;stroke-width:1.0;"/><line style="stroke:#181818;stroke-width:1.0;" x1="908.9322" x2="909.24" y1="446.9637" y2="438.965"/><polygon fill="#181818" points="910,392.05,905.9737,398.0324,909.9473,404.0499,913.9736,398.0675,910,392.05" style="stroke:#181818;stroke-width:1.0;"/></g><!--MD5=[f9836f65ecaecd3a4f4f6bff8bbaeffc]
reverse link Savable to FileResource--><g id="link_Savable_FileResource"><path codeLine="93" d="M984.76,439.83 C995.63,432.65 1007.12,426.46 1019,422 C1074.97,401 1233.64,397.14 1288,422 C1320.94,437.07 1346.63,470.29 1362.49,495.75 " fill="none" id="Savable-backto-FileResource" style="stroke:#181818;stroke-width:1.0;"/><polygon fill="none" points="988.54,445.74,968.24,451.82,980.32,434.41,988.54,445.74" style="stroke:#181818;stroke-width:1.0;"/></g><!--MD5=[e63ee973a175bd36670afcfe55ac44ff]
link IniFile to FileResource--><g id="link_IniFile_FileResource"><path codeLine="94" d="M1309.15,277.82 C1321.61,321.5 1348.73,416.6 1365.71,476.15 " fill="none" id="IniFile-to-FileResource" style="stroke:#181818;stroke-width:1.0;"/><polygon fill="none" points="1372.5,474.44,1371.26,495.59,1359.04,478.28,1372.5,474.44" style="stroke:#181818;stroke-width:1.0;"/></g><!--MD5=[8d68989c58e3a5256308129b75697cae]
link IniFile to NoneIniSection--><g id="link_IniFile_NoneIniSection"><path codeLine="95" d="M1292.5533,289.3583 C1292.5533,289.3583 1249.67,439.75 1234.73,492.13 " fill="none" id="IniFile-NoneIniSection" style="stroke:#181818;stroke-width:1.0;"/><polygon fill="#181818" points="1231.13,504.74,1237.4486,497.1852,1232.5036,499.9324,1229.7564,494.9874,1231.13,504.74" style="stroke:#181818;stroke-width:1.0;"/><line style="stroke:#181818;stroke-width:1.0;" x1="1232.5036" x2="1234.695" y1="499.9324" y2="492.24"/><polygon fill="none" points="1295.85,277.82,1290.3556,282.4903,1292.5533,289.3583,1298.0478,284.688,1295.85,277.82" style="stroke:#181818;stroke-width:1.0;"/></g><!--MD5=[7ab78a78f01f13b3f8adaa147fbe9d58]
reverse link NoneIniSection to IniSection--><g id="link_NoneIniSection_IniSection"><path codeLine="96" d="M1224.5,573.27 C1224.5,608.05 1224.5,655.54 1224.5,683.42 " fill="none" id="NoneIniSection-backto-IniSection" style="stroke:#181818;stroke-width:1.0;"/><polygon fill="none" points="1217.5,573.07,1224.5,553.07,1231.5,573.07,1217.5,573.07" style="stroke:#181818;stroke-width:1.0;"/></g><!--MD5=[be61dba62c4da3d8f0a63ab43f39e3cc]
reverse link FileResource to JsonFile--><g id="link_FileResource_JsonFile"><path codeLine="97" d="M1385.85,582.43 C1388.57,609.15 1391.84,641.15 1394.37,665.96 " fill="none" id="FileResource-backto-JsonFile" style="stroke:#181818;stroke-width:1.0;"/><polygon fill="none" points="1378.87,582.98,1383.8,562.37,1392.79,581.56,1378.87,582.98" style="stroke:#181818;stroke-width:1.0;"/></g><!--MD5=[476979e2784d0e3c0dc97d07b9255d0e]
link DbEntity to Savable--><g id="link_DbEntity_Savable"><path codeLine="98" d="M585.04,504.81 C603.39,478.72 636.6,438.68 677,422 C711.92,407.58 726.33,409.54 762,422 C775.21,426.61 788.1,433.13 800.33,440.69 " fill="none" id="DbEntity-to-Savable" style="stroke:#181818;stroke-width:1.0;"/><polygon fill="none" points="804.46,435.03,817.16,452,796.65,446.66,804.46,435.03" style="stroke:#181818;stroke-width:1.0;"/></g><!--MD5=[59bb3321d9d601d3994e42d1335e5422]
reverse link DbEntity to Table--><g id="link_DbEntity_Table"><path codeLine="99" d="M569.5,573.18 C569.5,601.44 569.5,638.13 569.5,665.86 " fill="none" id="DbEntity-backto-Table" style="stroke:#181818;stroke-width:1.0;"/><polygon fill="none" points="562.5,573.07,569.5,553.07,576.5,573.07,562.5,573.07" style="stroke:#181818;stroke-width:1.0;"/></g><!--MD5=[817a593cb3071089e8bc58510f4aa9d2]
reverse link GresEntity to GresTable--><g id="link_GresEntity_GresTable"><path codeLine="100" d="M437.27,573.27 C436.29,608.05 434.94,655.54 434.15,683.42 " fill="none" id="GresEntity-backto-GresTable" style="stroke:#181818;stroke-width:1.0;"/><polygon fill="none" points="430.28,572.87,437.85,553.07,444.28,573.26,430.28,572.87" style="stroke:#181818;stroke-width:1.0;"/></g><!--MD5=[51f38624dca375147f54fa729a19e73a]
link GresTable to Table--><g id="link_GresTable_Table"><path codeLine="101" d="M483.17,707.5 C488.2,707.5 493.22,707.5 498.24,707.5 " fill="none" id="GresTable-to-Table" style="stroke:#181818;stroke-width:1.0;"/><polygon fill="none" points="498.24,700.5,518.24,707.5,498.24,714.5,498.24,700.5" style="stroke:#181818;stroke-width:1.0;"/></g><!--MD5=[2267fa562c28ca81ba7d378d0de375b9]
reverse link GresTable to JsonbTable--><g id="link_GresTable_JsonbTable"><path codeLine="102" d="M433.5,751.85 C433.5,771.05 433.5,792.86 433.5,808.87 " fill="none" id="GresTable-backto-JsonbTable" style="stroke:#181818;stroke-width:1.0;"/><polygon fill="none" points="426.5,751.73,433.5,731.73,440.5,751.73,426.5,751.73" style="stroke:#181818;stroke-width:1.0;"/></g><!--MD5=[b8132b73519e6306962e830082501983]
reverse link Table to LiteTable--><g id="link_Table_LiteTable"><path codeLine="103" d="M569.5,769.5 C569.5,783.56 569.5,797.67 569.5,808.91 " fill="none" id="Table-backto-LiteTable" style="stroke:#181818;stroke-width:1.0;"/><polygon fill="none" points="562.5,769.28,569.5,749.28,576.5,769.28,562.5,769.28" style="stroke:#181818;stroke-width:1.0;"/></g><!--MD5=[898f62776bc99e1c278a663791d8a7e2]
link Table to TableHeader--><g id="link_Table_TableHeader"><path codeLine="104" d="M620.87,742.25 C651.42,762.31 689.58,787.38 717.81,805.93 " fill="none" id="Table-to-TableHeader" style="stroke:#181818;stroke-width:1.0;"/><polygon fill="#181818" points="722.25,808.84,716.9276,800.5531,718.0722,806.093,712.5324,807.2376,722.25,808.84" style="stroke:#181818;stroke-width:1.0;"/></g><!--MD5=[b255d7e3895c07749ef7df1fca958c42]
reverse link Savable to Node--><g id="link_Savable_Node"><path codeLine="105" d="M1004.8,529 C1009.69,529 1014.58,529 1019.48,529 " fill="none" id="Savable-backto-Node" style="stroke:#181818;stroke-width:1.0;"/><polygon fill="none" points="1004.69,536,984.69,529,1004.69,522,1004.69,536" style="stroke:#181818;stroke-width:1.0;"/></g><!--MD5=[232f0cccf99ab70271aee7c45d0b6eb2]
reverse link Node to TableNode--><g id="link_Node_TableNode"><path codeLine="106" d="M1067.07,591.17 C1066.1,615.85 1064.99,643.66 1064.11,665.79 " fill="none" id="Node-backto-TableNode" style="stroke:#181818;stroke-width:1.0;"/><polygon fill="none" points="1060.09,590.64,1067.88,570.94,1074.08,591.2,1060.09,590.64" style="stroke:#181818;stroke-width:1.0;"/></g><!--MD5=[5fba4b337d51fe203cd457259c7fd2bb]
reverse link Savable to TableHeader--><g id="link_Savable_TableHeader"><path codeLine="107" d="M856.65,624.55 C839.87,663.37 819.8,708.6 800.5,749 C790.71,769.5 778.77,792.4 769.95,808.95 " fill="none" id="Savable-backto-TableHeader" style="stroke:#181818;stroke-width:1.0;"/><polygon fill="none" points="850.27,621.67,864.6,606.06,863.13,627.2,850.27,621.67" style="stroke:#181818;stroke-width:1.0;"/></g><!--MD5=[8f9cc1c9f398c994aff6bc54f7862ee3]
link TableHeader to TableColumn--><g id="link_TableHeader_TableColumn"><path codeLine="108" d="M826.63,833 C826.63,833 833.36,833 836.19,833 " fill="none" id="TableHeader-TableColumn" style="stroke:#181818;stroke-width:1.0;"/><polygon fill="#181818" points="849.46,833,840.46,829,844.46,833,840.46,837,849.46,833" style="stroke:#181818;stroke-width:1.0;"/><line style="stroke:#181818;stroke-width:1.0;" x1="844.46" x2="836.46" y1="833" y2="833"/><polygon fill="none" points="814.63,833,820.63,837,826.63,833,820.63,829,814.63,833" style="stroke:#181818;stroke-width:1.0;"/></g><!--MD5=[dc8ea39670c93db972e1cde5acd5ca00]
reverse link Savable to TableColumn--><g id="link_Savable_TableColumn"><path codeLine="109" d="M900.01,626.49 C902.36,690.84 905.26,770.45 906.66,808.97 " fill="none" id="Savable-backto-TableColumn" style="stroke:#181818;stroke-width:1.0;"/><polygon fill="none" points="893.01,626.45,899.28,606.21,907,625.94,893.01,626.45" style="stroke:#181818;stroke-width:1.0;"/></g><!--MD5=[5f8af08961eb6980071b9695db66c0e9]
@startuml
class Resource{    
    create(Savable resource, res_id=None)
    read(Object)
    update(Savable resource, res_id=None)
    delete(Savable resource, res_id=None ? Object)

    create_all(List[Savable])
    update_all(List[Savable])
    delete_all(?)

    serialize(Savable resource)
    deserialize(str)
    
    "execute"(str script='')    

}


class Db{
    init(str connect_str)
    table_for_resource(Savable resource)
}

class DbEntity{}
class GresEntity{}

class GresDb{}
class LiteDb{}

class Savable{
    "__exclude__"
    resource
    is_saved
    save(int level=0)
    to_json()
    is_excluded(str atr_name)
}

class Table{
    name = res_id
    bd
}

class GresTable{}
class JsonbTable{}
class LiteTable{}

class TableHeader{}
class TableColumn{}
class NotNull{}

class FileResource{
    init(str path)
}

class IniFile{}
class IniSection{}
class NoneIniSection{}
class JsonFile{
    serialize(Savable resource)
    deserialize(object)
}

class Node{    
    save(int level)
    node_id
}

class TableNode{
    table = resource
    db = resource.resource
}

class Named{
    name
    namespace
}
class NamedByClass{}

Named <|-down- NamedByClass

Resource <|-left- DbEntityResource
    DbEntityResource <|-left- TableStorage
        TableStorage <|-left- Db
            Db <|-up- GresDb
            Db <|-left- LiteDb
            NamedByClass <|-up- DbEntity
            Db *-down-> DbEntity
                DbEntity <|-left- GresEntity
    
Resource <|- - Savable
Resource *- -> Savable
    Savable <|-right- FileResource
        FileResource <|-up- IniFile
            IniFile o- -> NoneIniSection
                NoneIniSection <|- - IniSection
        FileResource <|- - JsonFile
    Savable <|-left- DbEntity
        DbEntity <|- - Table
            GresEntity <|- - GresTable
            Table <|-left- GresTable
                GresTable <|- - JsonbTable
            Table <|- - LiteTable
            Table - -> TableHeader
        Savable <|-right- Node
            Node <|- - TableNode
        Savable <|- - TableHeader
            TableHeader o-right-> TableColumn
        Savable <|- - TableColumn
@enduml

PlantUML version 1.2022.7(Mon Aug 22 20:01:30 MSK 2022)
(GPL source distribution)
Java Runtime: Java(TM) SE Runtime Environment
JVM: Java HotSpot(TM) 64-Bit Server VM
Default Encoding: Cp1251
Language: en
Country: US
--></g></svg>