<?xml version="1.0" encoding="UTF-8" standalone="no"?><svg xmlns="http://www.w3.org/2000/svg" xmlns:xlink="http://www.w3.org/1999/xlink" contentStyleType="text/css" height="791px" preserveAspectRatio="none" style="width:1176px;height:791px;background:#FFFFFF;" version="1.1" viewBox="0 0 1176 791" width="1176px" zoomAndPan="magnify"><defs/><g><!--MD5=[6b13f1b330d33795af281e5c1dfe1e98]
class Resource--><g id="elem_Resource"><rect codeLine="1" fill="#F1F1F1" height="329.75" id="Resource" rx="2.5" ry="2.5" style="stroke:#181818;stroke-width:0.5;" width="317" x="403" y="115"/><ellipse cx="526.75" cy="131" fill="#ADD1B2" rx="11" ry="11" style="stroke:#181818;stroke-width:1.0;"/><path d="M529.5156,126.875 Q529.6719,126.6563 529.8594,126.5469 Q530.0469,126.4375 530.2656,126.4375 Q530.6406,126.4375 530.875,126.6953 Q531.1094,126.9531 531.1094,127.5625 L531.1094,129.0156 Q531.1094,129.625 530.875,129.8906 Q530.6406,130.1563 530.2656,130.1563 Q529.9219,130.1563 529.7188,129.9531 Q529.5156,129.7656 529.4063,129.25 Q529.3594,128.8906 529.1719,128.7031 Q528.8438,128.3281 528.2344,128.1094 Q527.625,127.8906 527,127.8906 Q526.2344,127.8906 525.6016,128.2188 Q524.9688,128.5469 524.4766,129.2969 Q523.9844,130.0469 523.9844,131.0781 L523.9844,132.1719 Q523.9844,133.4063 524.875,134.2266 Q525.7656,135.0469 527.3594,135.0469 Q528.2969,135.0469 528.9531,134.7969 Q529.3438,134.6406 529.7656,134.2031 Q530.0313,133.9375 530.1797,133.8594 Q530.3281,133.7813 530.5313,133.7813 Q530.8594,133.7813 531.1172,134.0391 Q531.375,134.2969 531.375,134.6406 Q531.375,134.9844 531.0313,135.3906 Q530.5313,135.9688 529.7344,136.2969 Q528.6563,136.75 527.3594,136.75 Q525.8438,136.75 524.6406,136.125 Q523.6563,135.625 522.9688,134.5547 Q522.2813,133.4844 522.2813,132.2031 L522.2813,131.0469 Q522.2813,129.7188 522.8984,128.5703 Q523.5156,127.4219 524.6094,126.8047 Q525.7031,126.1875 526.9375,126.1875 Q527.6719,126.1875 528.3203,126.3516 Q528.9688,126.5156 529.5156,126.875 Z " fill="#000000"/><text fill="#000000" font-family="sans-serif" font-size="14" lengthAdjust="spacing" textLength="61" x="547.25" y="136.7285">Resource</text><line style="stroke:#181818;stroke-width:0.5;" x1="404" x2="719" y1="147" y2="147"/><text fill="#000000" font-family="sans-serif" font-size="14" lengthAdjust="spacing" textLength="39" x="409" y="165.5332">res_id</text><text fill="#000000" font-family="sans-serif" font-size="14" lengthAdjust="spacing" textLength="35" x="409" y="183.1426">name</text><text fill="#000000" font-family="sans-serif" font-size="14" lengthAdjust="spacing" textLength="73" x="409" y="200.752">namespace</text><line style="stroke:#181818;stroke-width:0.5;" x1="404" x2="719" y1="207.8281" y2="207.8281"/><text fill="#000000" font-family="sans-serif" font-size="14" lengthAdjust="spacing" textLength="249" x="409" y="226.3613">create(Savable resource, res_id=None)</text><text fill="#000000" font-family="sans-serif" font-size="14" lengthAdjust="spacing" textLength="80" x="409" y="243.9707">read(Object)</text><text fill="#000000" font-family="sans-serif" font-size="14" lengthAdjust="spacing" textLength="253" x="409" y="261.5801">update(Savable resource, res_id=None)</text><text fill="#000000" font-family="sans-serif" font-size="14" lengthAdjust="spacing" textLength="305" x="409" y="279.1895">delete(Savable resource, res_id=None ? Object)</text><text fill="#000000" font-family="sans-serif" font-size="14" lengthAdjust="spacing" textLength="4" x="409" y="296.7988"> </text><text fill="#000000" font-family="sans-serif" font-size="14" lengthAdjust="spacing" textLength="153" x="409" y="314.4082">create_all(List[Savable])</text><text fill="#000000" font-family="sans-serif" font-size="14" lengthAdjust="spacing" textLength="157" x="409" y="332.0176">update_all(List[Savable])</text><text fill="#000000" font-family="sans-serif" font-size="14" lengthAdjust="spacing" textLength="79" x="409" y="349.627">delete_all(?)</text><text fill="#000000" font-family="sans-serif" font-size="14" lengthAdjust="spacing" textLength="4" x="409" y="367.2363"> </text><text fill="#000000" font-family="sans-serif" font-size="14" lengthAdjust="spacing" textLength="172" x="409" y="384.8457">serialize(Savable resource)</text><text fill="#000000" font-family="sans-serif" font-size="14" lengthAdjust="spacing" textLength="93" x="409" y="402.4551">deserialize(str)</text><text fill="#000000" font-family="sans-serif" font-size="14" lengthAdjust="spacing" textLength="4" x="409" y="420.0645"> </text><text fill="#000000" font-family="sans-serif" font-size="14" lengthAdjust="spacing" textLength="137" x="409" y="437.6738">"execute"(str script='')</text></g><!--MD5=[464be7afade68e010f8f1d76973bc1ef]
class Db--><g id="elem_Db"><rect codeLine="21" fill="#F1F1F1" height="83.2188" id="Db" rx="2.5" ry="2.5" style="stroke:#181818;stroke-width:0.5;" width="253" x="115" y="238.5"/><ellipse cx="228.25" cy="254.5" fill="#ADD1B2" rx="11" ry="11" style="stroke:#181818;stroke-width:1.0;"/><path d="M231.0156,250.375 Q231.1719,250.1563 231.3594,250.0469 Q231.5469,249.9375 231.7656,249.9375 Q232.1406,249.9375 232.375,250.1953 Q232.6094,250.4531 232.6094,251.0625 L232.6094,252.5156 Q232.6094,253.125 232.375,253.3906 Q232.1406,253.6563 231.7656,253.6563 Q231.4219,253.6563 231.2188,253.4531 Q231.0156,253.2656 230.9063,252.75 Q230.8594,252.3906 230.6719,252.2031 Q230.3438,251.8281 229.7344,251.6094 Q229.125,251.3906 228.5,251.3906 Q227.7344,251.3906 227.1016,251.7188 Q226.4688,252.0469 225.9766,252.7969 Q225.4844,253.5469 225.4844,254.5781 L225.4844,255.6719 Q225.4844,256.9063 226.375,257.7266 Q227.2656,258.5469 228.8594,258.5469 Q229.7969,258.5469 230.4531,258.2969 Q230.8438,258.1406 231.2656,257.7031 Q231.5313,257.4375 231.6797,257.3594 Q231.8281,257.2813 232.0313,257.2813 Q232.3594,257.2813 232.6172,257.5391 Q232.875,257.7969 232.875,258.1406 Q232.875,258.4844 232.5313,258.8906 Q232.0313,259.4688 231.2344,259.7969 Q230.1563,260.25 228.8594,260.25 Q227.3438,260.25 226.1406,259.625 Q225.1563,259.125 224.4688,258.0547 Q223.7813,256.9844 223.7813,255.7031 L223.7813,254.5469 Q223.7813,253.2188 224.3984,252.0703 Q225.0156,250.9219 226.1094,250.3047 Q227.2031,249.6875 228.4375,249.6875 Q229.1719,249.6875 229.8203,249.8516 Q230.4688,250.0156 231.0156,250.375 Z " fill="#000000"/><text fill="#000000" font-family="sans-serif" font-size="14" lengthAdjust="spacing" textLength="18" x="248.75" y="260.2285">Db</text><line style="stroke:#181818;stroke-width:0.5;" x1="116" x2="367" y1="270.5" y2="270.5"/><line style="stroke:#181818;stroke-width:0.5;" x1="116" x2="367" y1="278.5" y2="278.5"/><text fill="#000000" font-family="sans-serif" font-size="14" lengthAdjust="spacing" textLength="122" x="121" y="297.0332">init(str connect_str)</text><text fill="#000000" font-family="sans-serif" font-size="14" lengthAdjust="spacing" textLength="241" x="121" y="314.6426">table_for_resource(Savable resource)</text></g><!--MD5=[b2db8ccf06f2c83cde37e701a8b7a4d1]
class GresDb--><g id="elem_GresDb"><rect codeLine="26" fill="#F1F1F1" height="48" id="GresDb" rx="2.5" ry="2.5" style="stroke:#181818;stroke-width:0.5;" width="81" x="201" y="7"/><ellipse cx="216" cy="23" fill="#ADD1B2" rx="11" ry="11" style="stroke:#181818;stroke-width:1.0;"/><path d="M218.7656,18.875 Q218.9219,18.6563 219.1094,18.5469 Q219.2969,18.4375 219.5156,18.4375 Q219.8906,18.4375 220.125,18.6953 Q220.3594,18.9531 220.3594,19.5625 L220.3594,21.0156 Q220.3594,21.625 220.125,21.8906 Q219.8906,22.1563 219.5156,22.1563 Q219.1719,22.1563 218.9688,21.9531 Q218.7656,21.7656 218.6563,21.25 Q218.6094,20.8906 218.4219,20.7031 Q218.0938,20.3281 217.4844,20.1094 Q216.875,19.8906 216.25,19.8906 Q215.4844,19.8906 214.8516,20.2188 Q214.2188,20.5469 213.7266,21.2969 Q213.2344,22.0469 213.2344,23.0781 L213.2344,24.1719 Q213.2344,25.4063 214.125,26.2266 Q215.0156,27.0469 216.6094,27.0469 Q217.5469,27.0469 218.2031,26.7969 Q218.5938,26.6406 219.0156,26.2031 Q219.2813,25.9375 219.4297,25.8594 Q219.5781,25.7813 219.7813,25.7813 Q220.1094,25.7813 220.3672,26.0391 Q220.625,26.2969 220.625,26.6406 Q220.625,26.9844 220.2813,27.3906 Q219.7813,27.9688 218.9844,28.2969 Q217.9063,28.75 216.6094,28.75 Q215.0938,28.75 213.8906,28.125 Q212.9063,27.625 212.2188,26.5547 Q211.5313,25.4844 211.5313,24.2031 L211.5313,23.0469 Q211.5313,21.7188 212.1484,20.5703 Q212.7656,19.4219 213.8594,18.8047 Q214.9531,18.1875 216.1875,18.1875 Q216.9219,18.1875 217.5703,18.3516 Q218.2188,18.5156 218.7656,18.875 Z " fill="#000000"/><text fill="#000000" font-family="sans-serif" font-size="14" lengthAdjust="spacing" textLength="49" x="230" y="28.7285">GresDb</text><line style="stroke:#181818;stroke-width:0.5;" x1="202" x2="281" y1="39" y2="39"/><line style="stroke:#181818;stroke-width:0.5;" x1="202" x2="281" y1="47" y2="47"/></g><!--MD5=[4d307c3040e9f3ff2b2d0c8321016fdb]
class LiteDb--><g id="elem_LiteDb"><rect codeLine="27" fill="#F1F1F1" height="48" id="LiteDb" rx="2.5" ry="2.5" style="stroke:#181818;stroke-width:0.5;" width="73" x="7" y="256"/><ellipse cx="22" cy="272" fill="#ADD1B2" rx="11" ry="11" style="stroke:#181818;stroke-width:1.0;"/><path d="M24.7656,267.875 Q24.9219,267.6563 25.1094,267.5469 Q25.2969,267.4375 25.5156,267.4375 Q25.8906,267.4375 26.125,267.6953 Q26.3594,267.9531 26.3594,268.5625 L26.3594,270.0156 Q26.3594,270.625 26.125,270.8906 Q25.8906,271.1563 25.5156,271.1563 Q25.1719,271.1563 24.9688,270.9531 Q24.7656,270.7656 24.6563,270.25 Q24.6094,269.8906 24.4219,269.7031 Q24.0938,269.3281 23.4844,269.1094 Q22.875,268.8906 22.25,268.8906 Q21.4844,268.8906 20.8516,269.2188 Q20.2188,269.5469 19.7266,270.2969 Q19.2344,271.0469 19.2344,272.0781 L19.2344,273.1719 Q19.2344,274.4063 20.125,275.2266 Q21.0156,276.0469 22.6094,276.0469 Q23.5469,276.0469 24.2031,275.7969 Q24.5938,275.6406 25.0156,275.2031 Q25.2813,274.9375 25.4297,274.8594 Q25.5781,274.7813 25.7813,274.7813 Q26.1094,274.7813 26.3672,275.0391 Q26.625,275.2969 26.625,275.6406 Q26.625,275.9844 26.2813,276.3906 Q25.7813,276.9688 24.9844,277.2969 Q23.9063,277.75 22.6094,277.75 Q21.0938,277.75 19.8906,277.125 Q18.9063,276.625 18.2188,275.5547 Q17.5313,274.4844 17.5313,273.2031 L17.5313,272.0469 Q17.5313,270.7188 18.1484,269.5703 Q18.7656,268.4219 19.8594,267.8047 Q20.9531,267.1875 22.1875,267.1875 Q22.9219,267.1875 23.5703,267.3516 Q24.2188,267.5156 24.7656,267.875 Z " fill="#000000"/><text fill="#000000" font-family="sans-serif" font-size="14" lengthAdjust="spacing" textLength="41" x="36" y="277.7285">LiteDb</text><line style="stroke:#181818;stroke-width:0.5;" x1="8" x2="79" y1="288" y2="288"/><line style="stroke:#181818;stroke-width:0.5;" x1="8" x2="79" y1="296" y2="296"/></g><!--MD5=[04add1350e67c79380c0d55bbbeb7508]
class Savable--><g id="elem_Savable"><rect codeLine="29" fill="#F1F1F1" height="136.0469" id="Savable" rx="2.5" ry="2.5" style="stroke:#181818;stroke-width:0.5;" width="176" x="473.5" y="505"/><ellipse cx="531.75" cy="521" fill="#ADD1B2" rx="11" ry="11" style="stroke:#181818;stroke-width:1.0;"/><path d="M534.5156,516.875 Q534.6719,516.6563 534.8594,516.5469 Q535.0469,516.4375 535.2656,516.4375 Q535.6406,516.4375 535.875,516.6953 Q536.1094,516.9531 536.1094,517.5625 L536.1094,519.0156 Q536.1094,519.625 535.875,519.8906 Q535.6406,520.1563 535.2656,520.1563 Q534.9219,520.1563 534.7188,519.9531 Q534.5156,519.7656 534.4063,519.25 Q534.3594,518.8906 534.1719,518.7031 Q533.8438,518.3281 533.2344,518.1094 Q532.625,517.8906 532,517.8906 Q531.2344,517.8906 530.6016,518.2188 Q529.9688,518.5469 529.4766,519.2969 Q528.9844,520.0469 528.9844,521.0781 L528.9844,522.1719 Q528.9844,523.4063 529.875,524.2266 Q530.7656,525.0469 532.3594,525.0469 Q533.2969,525.0469 533.9531,524.7969 Q534.3438,524.6406 534.7656,524.2031 Q535.0313,523.9375 535.1797,523.8594 Q535.3281,523.7813 535.5313,523.7813 Q535.8594,523.7813 536.1172,524.0391 Q536.375,524.2969 536.375,524.6406 Q536.375,524.9844 536.0313,525.3906 Q535.5313,525.9688 534.7344,526.2969 Q533.6563,526.75 532.3594,526.75 Q530.8438,526.75 529.6406,526.125 Q528.6563,525.625 527.9688,524.5547 Q527.2813,523.4844 527.2813,522.2031 L527.2813,521.0469 Q527.2813,519.7188 527.8984,518.5703 Q528.5156,517.4219 529.6094,516.8047 Q530.7031,516.1875 531.9375,516.1875 Q532.6719,516.1875 533.3203,516.3516 Q533.9688,516.5156 534.5156,516.875 Z " fill="#000000"/><text fill="#000000" font-family="sans-serif" font-size="14" lengthAdjust="spacing" textLength="51" x="552.25" y="526.7285">Savable</text><line style="stroke:#181818;stroke-width:0.5;" x1="474.5" x2="648.5" y1="537" y2="537"/><text fill="#000000" font-family="sans-serif" font-size="14" lengthAdjust="spacing" textLength="90" x="479.5" y="555.5332">"__exclude__"</text><text fill="#000000" font-family="sans-serif" font-size="14" lengthAdjust="spacing" textLength="56" x="479.5" y="573.1426">resource</text><line style="stroke:#181818;stroke-width:0.5;" x1="474.5" x2="648.5" y1="580.2188" y2="580.2188"/><text fill="#000000" font-family="sans-serif" font-size="14" lengthAdjust="spacing" textLength="104" x="479.5" y="598.752">save(int level=0)</text><text fill="#000000" font-family="sans-serif" font-size="14" lengthAdjust="spacing" textLength="56" x="479.5" y="616.3613">to_json()</text><text fill="#000000" font-family="sans-serif" font-size="14" lengthAdjust="spacing" textLength="164" x="479.5" y="633.9707">is_excluded(str atr_name)</text></g><!--MD5=[c0b936abb008b3271898d4186b5531e4]
class Table--><g id="elem_Table"><rect codeLine="37" fill="#F1F1F1" height="83.2188" id="Table" rx="2.5" ry="2.5" style="stroke:#181818;stroke-width:0.5;" width="102" x="223.5" y="531.5"/><ellipse cx="253.8" cy="547.5" fill="#ADD1B2" rx="11" ry="11" style="stroke:#181818;stroke-width:1.0;"/><path d="M256.5656,543.375 Q256.7219,543.1563 256.9094,543.0469 Q257.0969,542.9375 257.3156,542.9375 Q257.6906,542.9375 257.925,543.1953 Q258.1594,543.4531 258.1594,544.0625 L258.1594,545.5156 Q258.1594,546.125 257.925,546.3906 Q257.6906,546.6563 257.3156,546.6563 Q256.9719,546.6563 256.7688,546.4531 Q256.5656,546.2656 256.4563,545.75 Q256.4094,545.3906 256.2219,545.2031 Q255.8938,544.8281 255.2844,544.6094 Q254.675,544.3906 254.05,544.3906 Q253.2844,544.3906 252.6516,544.7188 Q252.0188,545.0469 251.5266,545.7969 Q251.0344,546.5469 251.0344,547.5781 L251.0344,548.6719 Q251.0344,549.9063 251.925,550.7266 Q252.8156,551.5469 254.4094,551.5469 Q255.3469,551.5469 256.0031,551.2969 Q256.3938,551.1406 256.8156,550.7031 Q257.0813,550.4375 257.2297,550.3594 Q257.3781,550.2813 257.5813,550.2813 Q257.9094,550.2813 258.1672,550.5391 Q258.425,550.7969 258.425,551.1406 Q258.425,551.4844 258.0813,551.8906 Q257.5813,552.4688 256.7844,552.7969 Q255.7063,553.25 254.4094,553.25 Q252.8938,553.25 251.6906,552.625 Q250.7063,552.125 250.0188,551.0547 Q249.3313,549.9844 249.3313,548.7031 L249.3313,547.5469 Q249.3313,546.2188 249.9484,545.0703 Q250.5656,543.9219 251.6594,543.3047 Q252.7531,542.6875 253.9875,542.6875 Q254.7219,542.6875 255.3703,542.8516 Q256.0188,543.0156 256.5656,543.375 Z " fill="#000000"/><text fill="#000000" font-family="sans-serif" font-size="14" lengthAdjust="spacing" textLength="36" x="271.2" y="553.2285">Table</text><line style="stroke:#181818;stroke-width:0.5;" x1="224.5" x2="324.5" y1="563.5" y2="563.5"/><text fill="#000000" font-family="sans-serif" font-size="14" lengthAdjust="spacing" textLength="90" x="229.5" y="582.0332">name = res_id</text><text fill="#000000" font-family="sans-serif" font-size="14" lengthAdjust="spacing" textLength="16" x="229.5" y="599.6426">bd</text><line style="stroke:#181818;stroke-width:0.5;" x1="224.5" x2="324.5" y1="606.7188" y2="606.7188"/></g><!--MD5=[370961c8c67dbe83008ce44ed56af7e8]
class GresTable--><g id="elem_GresTable"><rect codeLine="42" fill="#F1F1F1" height="48" id="GresTable" rx="2.5" ry="2.5" style="stroke:#181818;stroke-width:0.5;" width="99" x="89" y="549"/><ellipse cx="104" cy="565" fill="#ADD1B2" rx="11" ry="11" style="stroke:#181818;stroke-width:1.0;"/><path d="M106.7656,560.875 Q106.9219,560.6563 107.1094,560.5469 Q107.2969,560.4375 107.5156,560.4375 Q107.8906,560.4375 108.125,560.6953 Q108.3594,560.9531 108.3594,561.5625 L108.3594,563.0156 Q108.3594,563.625 108.125,563.8906 Q107.8906,564.1563 107.5156,564.1563 Q107.1719,564.1563 106.9688,563.9531 Q106.7656,563.7656 106.6563,563.25 Q106.6094,562.8906 106.4219,562.7031 Q106.0938,562.3281 105.4844,562.1094 Q104.875,561.8906 104.25,561.8906 Q103.4844,561.8906 102.8516,562.2188 Q102.2188,562.5469 101.7266,563.2969 Q101.2344,564.0469 101.2344,565.0781 L101.2344,566.1719 Q101.2344,567.4063 102.125,568.2266 Q103.0156,569.0469 104.6094,569.0469 Q105.5469,569.0469 106.2031,568.7969 Q106.5938,568.6406 107.0156,568.2031 Q107.2813,567.9375 107.4297,567.8594 Q107.5781,567.7813 107.7813,567.7813 Q108.1094,567.7813 108.3672,568.0391 Q108.625,568.2969 108.625,568.6406 Q108.625,568.9844 108.2813,569.3906 Q107.7813,569.9688 106.9844,570.2969 Q105.9063,570.75 104.6094,570.75 Q103.0938,570.75 101.8906,570.125 Q100.9063,569.625 100.2188,568.5547 Q99.5313,567.4844 99.5313,566.2031 L99.5313,565.0469 Q99.5313,563.7188 100.1484,562.5703 Q100.7656,561.4219 101.8594,560.8047 Q102.9531,560.1875 104.1875,560.1875 Q104.9219,560.1875 105.5703,560.3516 Q106.2188,560.5156 106.7656,560.875 Z " fill="#000000"/><text fill="#000000" font-family="sans-serif" font-size="14" lengthAdjust="spacing" textLength="67" x="118" y="570.7285">GresTable</text><line style="stroke:#181818;stroke-width:0.5;" x1="90" x2="187" y1="581" y2="581"/><line style="stroke:#181818;stroke-width:0.5;" x1="90" x2="187" y1="589" y2="589"/></g><!--MD5=[d9ddd8318e09ba6dc510ea66047114ff]
class JsonbTable--><g id="elem_JsonbTable"><rect codeLine="43" fill="#F1F1F1" height="48" id="JsonbTable" rx="2.5" ry="2.5" style="stroke:#181818;stroke-width:0.5;" width="105" x="86" y="718.5"/><ellipse cx="101" cy="734.5" fill="#ADD1B2" rx="11" ry="11" style="stroke:#181818;stroke-width:1.0;"/><path d="M103.7656,730.375 Q103.9219,730.1563 104.1094,730.0469 Q104.2969,729.9375 104.5156,729.9375 Q104.8906,729.9375 105.125,730.1953 Q105.3594,730.4531 105.3594,731.0625 L105.3594,732.5156 Q105.3594,733.125 105.125,733.3906 Q104.8906,733.6563 104.5156,733.6563 Q104.1719,733.6563 103.9688,733.4531 Q103.7656,733.2656 103.6563,732.75 Q103.6094,732.3906 103.4219,732.2031 Q103.0938,731.8281 102.4844,731.6094 Q101.875,731.3906 101.25,731.3906 Q100.4844,731.3906 99.8516,731.7188 Q99.2188,732.0469 98.7266,732.7969 Q98.2344,733.5469 98.2344,734.5781 L98.2344,735.6719 Q98.2344,736.9063 99.125,737.7266 Q100.0156,738.5469 101.6094,738.5469 Q102.5469,738.5469 103.2031,738.2969 Q103.5938,738.1406 104.0156,737.7031 Q104.2813,737.4375 104.4297,737.3594 Q104.5781,737.2813 104.7813,737.2813 Q105.1094,737.2813 105.3672,737.5391 Q105.625,737.7969 105.625,738.1406 Q105.625,738.4844 105.2813,738.8906 Q104.7813,739.4688 103.9844,739.7969 Q102.9063,740.25 101.6094,740.25 Q100.0938,740.25 98.8906,739.625 Q97.9063,739.125 97.2188,738.0547 Q96.5313,736.9844 96.5313,735.7031 L96.5313,734.5469 Q96.5313,733.2188 97.1484,732.0703 Q97.7656,730.9219 98.8594,730.3047 Q99.9531,729.6875 101.1875,729.6875 Q101.9219,729.6875 102.5703,729.8516 Q103.2188,730.0156 103.7656,730.375 Z " fill="#000000"/><text fill="#000000" font-family="sans-serif" font-size="14" lengthAdjust="spacing" textLength="73" x="115" y="740.2285">JsonbTable</text><line style="stroke:#181818;stroke-width:0.5;" x1="87" x2="190" y1="750.5" y2="750.5"/><line style="stroke:#181818;stroke-width:0.5;" x1="87" x2="190" y1="758.5" y2="758.5"/></g><!--MD5=[80ff1cbdbf4e6fafe4447ae5c6d67dc9]
class LiteTable--><g id="elem_LiteTable"><rect codeLine="44" fill="#F1F1F1" height="48" id="LiteTable" rx="2.5" ry="2.5" style="stroke:#181818;stroke-width:0.5;" width="91" x="228" y="718.5"/><ellipse cx="243" cy="734.5" fill="#ADD1B2" rx="11" ry="11" style="stroke:#181818;stroke-width:1.0;"/><path d="M245.7656,730.375 Q245.9219,730.1563 246.1094,730.0469 Q246.2969,729.9375 246.5156,729.9375 Q246.8906,729.9375 247.125,730.1953 Q247.3594,730.4531 247.3594,731.0625 L247.3594,732.5156 Q247.3594,733.125 247.125,733.3906 Q246.8906,733.6563 246.5156,733.6563 Q246.1719,733.6563 245.9688,733.4531 Q245.7656,733.2656 245.6563,732.75 Q245.6094,732.3906 245.4219,732.2031 Q245.0938,731.8281 244.4844,731.6094 Q243.875,731.3906 243.25,731.3906 Q242.4844,731.3906 241.8516,731.7188 Q241.2188,732.0469 240.7266,732.7969 Q240.2344,733.5469 240.2344,734.5781 L240.2344,735.6719 Q240.2344,736.9063 241.125,737.7266 Q242.0156,738.5469 243.6094,738.5469 Q244.5469,738.5469 245.2031,738.2969 Q245.5938,738.1406 246.0156,737.7031 Q246.2813,737.4375 246.4297,737.3594 Q246.5781,737.2813 246.7813,737.2813 Q247.1094,737.2813 247.3672,737.5391 Q247.625,737.7969 247.625,738.1406 Q247.625,738.4844 247.2813,738.8906 Q246.7813,739.4688 245.9844,739.7969 Q244.9063,740.25 243.6094,740.25 Q242.0938,740.25 240.8906,739.625 Q239.9063,739.125 239.2188,738.0547 Q238.5313,736.9844 238.5313,735.7031 L238.5313,734.5469 Q238.5313,733.2188 239.1484,732.0703 Q239.7656,730.9219 240.8594,730.3047 Q241.9531,729.6875 243.1875,729.6875 Q243.9219,729.6875 244.5703,729.8516 Q245.2188,730.0156 245.7656,730.375 Z " fill="#000000"/><text fill="#000000" font-family="sans-serif" font-size="14" lengthAdjust="spacing" textLength="59" x="257" y="740.2285">LiteTable</text><line style="stroke:#181818;stroke-width:0.5;" x1="229" x2="318" y1="750.5" y2="750.5"/><line style="stroke:#181818;stroke-width:0.5;" x1="229" x2="318" y1="758.5" y2="758.5"/></g><!--MD5=[43d6d58434ec60818a2006166dc03379]
class TableHeader--><g id="elem_TableHeader"><rect codeLine="46" fill="#F1F1F1" height="48" id="TableHeader" rx="2.5" ry="2.5" style="stroke:#181818;stroke-width:0.5;" width="114" x="354.5" y="718.5"/><ellipse cx="369.5" cy="734.5" fill="#ADD1B2" rx="11" ry="11" style="stroke:#181818;stroke-width:1.0;"/><path d="M372.2656,730.375 Q372.4219,730.1563 372.6094,730.0469 Q372.7969,729.9375 373.0156,729.9375 Q373.3906,729.9375 373.625,730.1953 Q373.8594,730.4531 373.8594,731.0625 L373.8594,732.5156 Q373.8594,733.125 373.625,733.3906 Q373.3906,733.6563 373.0156,733.6563 Q372.6719,733.6563 372.4688,733.4531 Q372.2656,733.2656 372.1563,732.75 Q372.1094,732.3906 371.9219,732.2031 Q371.5938,731.8281 370.9844,731.6094 Q370.375,731.3906 369.75,731.3906 Q368.9844,731.3906 368.3516,731.7188 Q367.7188,732.0469 367.2266,732.7969 Q366.7344,733.5469 366.7344,734.5781 L366.7344,735.6719 Q366.7344,736.9063 367.625,737.7266 Q368.5156,738.5469 370.1094,738.5469 Q371.0469,738.5469 371.7031,738.2969 Q372.0938,738.1406 372.5156,737.7031 Q372.7813,737.4375 372.9297,737.3594 Q373.0781,737.2813 373.2813,737.2813 Q373.6094,737.2813 373.8672,737.5391 Q374.125,737.7969 374.125,738.1406 Q374.125,738.4844 373.7813,738.8906 Q373.2813,739.4688 372.4844,739.7969 Q371.4063,740.25 370.1094,740.25 Q368.5938,740.25 367.3906,739.625 Q366.4063,739.125 365.7188,738.0547 Q365.0313,736.9844 365.0313,735.7031 L365.0313,734.5469 Q365.0313,733.2188 365.6484,732.0703 Q366.2656,730.9219 367.3594,730.3047 Q368.4531,729.6875 369.6875,729.6875 Q370.4219,729.6875 371.0703,729.8516 Q371.7188,730.0156 372.2656,730.375 Z " fill="#000000"/><text fill="#000000" font-family="sans-serif" font-size="14" lengthAdjust="spacing" textLength="82" x="383.5" y="740.2285">TableHeader</text><line style="stroke:#181818;stroke-width:0.5;" x1="355.5" x2="467.5" y1="750.5" y2="750.5"/><line style="stroke:#181818;stroke-width:0.5;" x1="355.5" x2="467.5" y1="758.5" y2="758.5"/></g><!--MD5=[5de7445a3966e79bc254e6fe5fe40f7b]
class TableColumn--><g id="elem_TableColumn"><rect codeLine="47" fill="#F1F1F1" height="48" id="TableColumn" rx="2.5" ry="2.5" style="stroke:#181818;stroke-width:0.5;" width="116" x="503.5" y="718.5"/><ellipse cx="518.5" cy="734.5" fill="#ADD1B2" rx="11" ry="11" style="stroke:#181818;stroke-width:1.0;"/><path d="M521.2656,730.375 Q521.4219,730.1563 521.6094,730.0469 Q521.7969,729.9375 522.0156,729.9375 Q522.3906,729.9375 522.625,730.1953 Q522.8594,730.4531 522.8594,731.0625 L522.8594,732.5156 Q522.8594,733.125 522.625,733.3906 Q522.3906,733.6563 522.0156,733.6563 Q521.6719,733.6563 521.4688,733.4531 Q521.2656,733.2656 521.1563,732.75 Q521.1094,732.3906 520.9219,732.2031 Q520.5938,731.8281 519.9844,731.6094 Q519.375,731.3906 518.75,731.3906 Q517.9844,731.3906 517.3516,731.7188 Q516.7188,732.0469 516.2266,732.7969 Q515.7344,733.5469 515.7344,734.5781 L515.7344,735.6719 Q515.7344,736.9063 516.625,737.7266 Q517.5156,738.5469 519.1094,738.5469 Q520.0469,738.5469 520.7031,738.2969 Q521.0938,738.1406 521.5156,737.7031 Q521.7813,737.4375 521.9297,737.3594 Q522.0781,737.2813 522.2813,737.2813 Q522.6094,737.2813 522.8672,737.5391 Q523.125,737.7969 523.125,738.1406 Q523.125,738.4844 522.7813,738.8906 Q522.2813,739.4688 521.4844,739.7969 Q520.4063,740.25 519.1094,740.25 Q517.5938,740.25 516.3906,739.625 Q515.4063,739.125 514.7188,738.0547 Q514.0313,736.9844 514.0313,735.7031 L514.0313,734.5469 Q514.0313,733.2188 514.6484,732.0703 Q515.2656,730.9219 516.3594,730.3047 Q517.4531,729.6875 518.6875,729.6875 Q519.4219,729.6875 520.0703,729.8516 Q520.7188,730.0156 521.2656,730.375 Z " fill="#000000"/><text fill="#000000" font-family="sans-serif" font-size="14" lengthAdjust="spacing" textLength="84" x="532.5" y="740.2285">TableColumn</text><line style="stroke:#181818;stroke-width:0.5;" x1="504.5" x2="618.5" y1="750.5" y2="750.5"/><line style="stroke:#181818;stroke-width:0.5;" x1="504.5" x2="618.5" y1="758.5" y2="758.5"/></g><!--MD5=[8699619b1008ad6a65e734fe7c7e339d]
class NotNull--><g id="elem_NotNull"><rect codeLine="48" fill="#F1F1F1" height="48" id="NotNull" rx="2.5" ry="2.5" style="stroke:#181818;stroke-width:0.5;" width="76" x="317.5" y="7"/><ellipse cx="332.5" cy="23" fill="#ADD1B2" rx="11" ry="11" style="stroke:#181818;stroke-width:1.0;"/><path d="M335.2656,18.875 Q335.4219,18.6563 335.6094,18.5469 Q335.7969,18.4375 336.0156,18.4375 Q336.3906,18.4375 336.625,18.6953 Q336.8594,18.9531 336.8594,19.5625 L336.8594,21.0156 Q336.8594,21.625 336.625,21.8906 Q336.3906,22.1563 336.0156,22.1563 Q335.6719,22.1563 335.4688,21.9531 Q335.2656,21.7656 335.1563,21.25 Q335.1094,20.8906 334.9219,20.7031 Q334.5938,20.3281 333.9844,20.1094 Q333.375,19.8906 332.75,19.8906 Q331.9844,19.8906 331.3516,20.2188 Q330.7188,20.5469 330.2266,21.2969 Q329.7344,22.0469 329.7344,23.0781 L329.7344,24.1719 Q329.7344,25.4063 330.625,26.2266 Q331.5156,27.0469 333.1094,27.0469 Q334.0469,27.0469 334.7031,26.7969 Q335.0938,26.6406 335.5156,26.2031 Q335.7813,25.9375 335.9297,25.8594 Q336.0781,25.7813 336.2813,25.7813 Q336.6094,25.7813 336.8672,26.0391 Q337.125,26.2969 337.125,26.6406 Q337.125,26.9844 336.7813,27.3906 Q336.2813,27.9688 335.4844,28.2969 Q334.4063,28.75 333.1094,28.75 Q331.5938,28.75 330.3906,28.125 Q329.4063,27.625 328.7188,26.5547 Q328.0313,25.4844 328.0313,24.2031 L328.0313,23.0469 Q328.0313,21.7188 328.6484,20.5703 Q329.2656,19.4219 330.3594,18.8047 Q331.4531,18.1875 332.6875,18.1875 Q333.4219,18.1875 334.0703,18.3516 Q334.7188,18.5156 335.2656,18.875 Z " fill="#000000"/><text fill="#000000" font-family="sans-serif" font-size="14" lengthAdjust="spacing" textLength="44" x="346.5" y="28.7285">NotNull</text><line style="stroke:#181818;stroke-width:0.5;" x1="318.5" x2="392.5" y1="39" y2="39"/><line style="stroke:#181818;stroke-width:0.5;" x1="318.5" x2="392.5" y1="47" y2="47"/></g><!--MD5=[a6cda19987f54858434fa4113610982e]
class FileResource--><g id="elem_FileResource"><rect codeLine="50" fill="#F1F1F1" height="65.6094" id="FileResource" rx="2.5" ry="2.5" style="stroke:#181818;stroke-width:0.5;" width="116" x="883.5" y="540"/><ellipse cx="898.5" cy="556" fill="#ADD1B2" rx="11" ry="11" style="stroke:#181818;stroke-width:1.0;"/><path d="M901.2656,551.875 Q901.4219,551.6563 901.6094,551.5469 Q901.7969,551.4375 902.0156,551.4375 Q902.3906,551.4375 902.625,551.6953 Q902.8594,551.9531 902.8594,552.5625 L902.8594,554.0156 Q902.8594,554.625 902.625,554.8906 Q902.3906,555.1563 902.0156,555.1563 Q901.6719,555.1563 901.4688,554.9531 Q901.2656,554.7656 901.1563,554.25 Q901.1094,553.8906 900.9219,553.7031 Q900.5938,553.3281 899.9844,553.1094 Q899.375,552.8906 898.75,552.8906 Q897.9844,552.8906 897.3516,553.2188 Q896.7188,553.5469 896.2266,554.2969 Q895.7344,555.0469 895.7344,556.0781 L895.7344,557.1719 Q895.7344,558.4063 896.625,559.2266 Q897.5156,560.0469 899.1094,560.0469 Q900.0469,560.0469 900.7031,559.7969 Q901.0938,559.6406 901.5156,559.2031 Q901.7813,558.9375 901.9297,558.8594 Q902.0781,558.7813 902.2813,558.7813 Q902.6094,558.7813 902.8672,559.0391 Q903.125,559.2969 903.125,559.6406 Q903.125,559.9844 902.7813,560.3906 Q902.2813,560.9688 901.4844,561.2969 Q900.4063,561.75 899.1094,561.75 Q897.5938,561.75 896.3906,561.125 Q895.4063,560.625 894.7188,559.5547 Q894.0313,558.4844 894.0313,557.2031 L894.0313,556.0469 Q894.0313,554.7188 894.6484,553.5703 Q895.2656,552.4219 896.3594,551.8047 Q897.4531,551.1875 898.6875,551.1875 Q899.4219,551.1875 900.0703,551.3516 Q900.7188,551.5156 901.2656,551.875 Z " fill="#000000"/><text fill="#000000" font-family="sans-serif" font-size="14" lengthAdjust="spacing" textLength="84" x="912.5" y="561.7285">FileResource</text><line style="stroke:#181818;stroke-width:0.5;" x1="884.5" x2="998.5" y1="572" y2="572"/><line style="stroke:#181818;stroke-width:0.5;" x1="884.5" x2="998.5" y1="580" y2="580"/><text fill="#000000" font-family="sans-serif" font-size="14" lengthAdjust="spacing" textLength="76" x="889.5" y="598.5332">init(str path)</text></g><!--MD5=[e3c91158bcdad03aa33a6fcf074a92a7]
class IniFile--><g id="elem_IniFile"><rect codeLine="54" fill="#F1F1F1" height="48" id="IniFile" rx="2.5" ry="2.5" style="stroke:#181818;stroke-width:0.5;" width="69" x="985" y="256"/><ellipse cx="1000" cy="272" fill="#ADD1B2" rx="11" ry="11" style="stroke:#181818;stroke-width:1.0;"/><path d="M1002.7656,267.875 Q1002.9219,267.6563 1003.1094,267.5469 Q1003.2969,267.4375 1003.5156,267.4375 Q1003.8906,267.4375 1004.125,267.6953 Q1004.3594,267.9531 1004.3594,268.5625 L1004.3594,270.0156 Q1004.3594,270.625 1004.125,270.8906 Q1003.8906,271.1563 1003.5156,271.1563 Q1003.1719,271.1563 1002.9688,270.9531 Q1002.7656,270.7656 1002.6563,270.25 Q1002.6094,269.8906 1002.4219,269.7031 Q1002.0938,269.3281 1001.4844,269.1094 Q1000.875,268.8906 1000.25,268.8906 Q999.4844,268.8906 998.8516,269.2188 Q998.2188,269.5469 997.7266,270.2969 Q997.2344,271.0469 997.2344,272.0781 L997.2344,273.1719 Q997.2344,274.4063 998.125,275.2266 Q999.0156,276.0469 1000.6094,276.0469 Q1001.5469,276.0469 1002.2031,275.7969 Q1002.5938,275.6406 1003.0156,275.2031 Q1003.2813,274.9375 1003.4297,274.8594 Q1003.5781,274.7813 1003.7813,274.7813 Q1004.1094,274.7813 1004.3672,275.0391 Q1004.625,275.2969 1004.625,275.6406 Q1004.625,275.9844 1004.2813,276.3906 Q1003.7813,276.9688 1002.9844,277.2969 Q1001.9063,277.75 1000.6094,277.75 Q999.0938,277.75 997.8906,277.125 Q996.9063,276.625 996.2188,275.5547 Q995.5313,274.4844 995.5313,273.2031 L995.5313,272.0469 Q995.5313,270.7188 996.1484,269.5703 Q996.7656,268.4219 997.8594,267.8047 Q998.9531,267.1875 1000.1875,267.1875 Q1000.9219,267.1875 1001.5703,267.3516 Q1002.2188,267.5156 1002.7656,267.875 Z " fill="#000000"/><text fill="#000000" font-family="sans-serif" font-size="14" lengthAdjust="spacing" textLength="37" x="1014" y="277.7285">IniFile</text><line style="stroke:#181818;stroke-width:0.5;" x1="986" x2="1053" y1="288" y2="288"/><line style="stroke:#181818;stroke-width:0.5;" x1="986" x2="1053" y1="296" y2="296"/></g><!--MD5=[d6207198cce69febe883b1dce65d01a1]
class IniSection--><g id="elem_IniSection"><rect codeLine="55" fill="#F1F1F1" height="48" id="IniSection" rx="2.5" ry="2.5" style="stroke:#181818;stroke-width:0.5;" width="93" x="1069" y="718.5"/><ellipse cx="1084" cy="734.5" fill="#ADD1B2" rx="11" ry="11" style="stroke:#181818;stroke-width:1.0;"/><path d="M1086.7656,730.375 Q1086.9219,730.1563 1087.1094,730.0469 Q1087.2969,729.9375 1087.5156,729.9375 Q1087.8906,729.9375 1088.125,730.1953 Q1088.3594,730.4531 1088.3594,731.0625 L1088.3594,732.5156 Q1088.3594,733.125 1088.125,733.3906 Q1087.8906,733.6563 1087.5156,733.6563 Q1087.1719,733.6563 1086.9688,733.4531 Q1086.7656,733.2656 1086.6563,732.75 Q1086.6094,732.3906 1086.4219,732.2031 Q1086.0938,731.8281 1085.4844,731.6094 Q1084.875,731.3906 1084.25,731.3906 Q1083.4844,731.3906 1082.8516,731.7188 Q1082.2188,732.0469 1081.7266,732.7969 Q1081.2344,733.5469 1081.2344,734.5781 L1081.2344,735.6719 Q1081.2344,736.9063 1082.125,737.7266 Q1083.0156,738.5469 1084.6094,738.5469 Q1085.5469,738.5469 1086.2031,738.2969 Q1086.5938,738.1406 1087.0156,737.7031 Q1087.2813,737.4375 1087.4297,737.3594 Q1087.5781,737.2813 1087.7813,737.2813 Q1088.1094,737.2813 1088.3672,737.5391 Q1088.625,737.7969 1088.625,738.1406 Q1088.625,738.4844 1088.2813,738.8906 Q1087.7813,739.4688 1086.9844,739.7969 Q1085.9063,740.25 1084.6094,740.25 Q1083.0938,740.25 1081.8906,739.625 Q1080.9063,739.125 1080.2188,738.0547 Q1079.5313,736.9844 1079.5313,735.7031 L1079.5313,734.5469 Q1079.5313,733.2188 1080.1484,732.0703 Q1080.7656,730.9219 1081.8594,730.3047 Q1082.9531,729.6875 1084.1875,729.6875 Q1084.9219,729.6875 1085.5703,729.8516 Q1086.2188,730.0156 1086.7656,730.375 Z " fill="#000000"/><text fill="#000000" font-family="sans-serif" font-size="14" lengthAdjust="spacing" textLength="61" x="1098" y="740.2285">IniSection</text><line style="stroke:#181818;stroke-width:0.5;" x1="1070" x2="1161" y1="750.5" y2="750.5"/><line style="stroke:#181818;stroke-width:0.5;" x1="1070" x2="1161" y1="758.5" y2="758.5"/></g><!--MD5=[e3e99a18f832b8bfe8c6c1c33e99e423]
class NoneIniSection--><g id="elem_NoneIniSection"><rect codeLine="56" fill="#F1F1F1" height="48" id="NoneIniSection" rx="2.5" ry="2.5" style="stroke:#181818;stroke-width:0.5;" width="126" x="1043.5" y="549"/><ellipse cx="1058.5" cy="565" fill="#ADD1B2" rx="11" ry="11" style="stroke:#181818;stroke-width:1.0;"/><path d="M1061.2656,560.875 Q1061.4219,560.6563 1061.6094,560.5469 Q1061.7969,560.4375 1062.0156,560.4375 Q1062.3906,560.4375 1062.625,560.6953 Q1062.8594,560.9531 1062.8594,561.5625 L1062.8594,563.0156 Q1062.8594,563.625 1062.625,563.8906 Q1062.3906,564.1563 1062.0156,564.1563 Q1061.6719,564.1563 1061.4688,563.9531 Q1061.2656,563.7656 1061.1563,563.25 Q1061.1094,562.8906 1060.9219,562.7031 Q1060.5938,562.3281 1059.9844,562.1094 Q1059.375,561.8906 1058.75,561.8906 Q1057.9844,561.8906 1057.3516,562.2188 Q1056.7188,562.5469 1056.2266,563.2969 Q1055.7344,564.0469 1055.7344,565.0781 L1055.7344,566.1719 Q1055.7344,567.4063 1056.625,568.2266 Q1057.5156,569.0469 1059.1094,569.0469 Q1060.0469,569.0469 1060.7031,568.7969 Q1061.0938,568.6406 1061.5156,568.2031 Q1061.7813,567.9375 1061.9297,567.8594 Q1062.0781,567.7813 1062.2813,567.7813 Q1062.6094,567.7813 1062.8672,568.0391 Q1063.125,568.2969 1063.125,568.6406 Q1063.125,568.9844 1062.7813,569.3906 Q1062.2813,569.9688 1061.4844,570.2969 Q1060.4063,570.75 1059.1094,570.75 Q1057.5938,570.75 1056.3906,570.125 Q1055.4063,569.625 1054.7188,568.5547 Q1054.0313,567.4844 1054.0313,566.2031 L1054.0313,565.0469 Q1054.0313,563.7188 1054.6484,562.5703 Q1055.2656,561.4219 1056.3594,560.8047 Q1057.4531,560.1875 1058.6875,560.1875 Q1059.4219,560.1875 1060.0703,560.3516 Q1060.7188,560.5156 1061.2656,560.875 Z " fill="#000000"/><text fill="#000000" font-family="sans-serif" font-size="14" lengthAdjust="spacing" textLength="94" x="1072.5" y="570.7285">NoneIniSection</text><line style="stroke:#181818;stroke-width:0.5;" x1="1044.5" x2="1168.5" y1="581" y2="581"/><line style="stroke:#181818;stroke-width:0.5;" x1="1044.5" x2="1168.5" y1="589" y2="589"/></g><!--MD5=[715128bba345a62fb0ee618baa868826]
class JsonFile--><g id="elem_JsonFile"><rect codeLine="57" fill="#F1F1F1" height="83.2188" id="JsonFile" rx="2.5" ry="2.5" style="stroke:#181818;stroke-width:0.5;" width="184" x="849.5" y="701"/><ellipse cx="911.25" cy="717" fill="#ADD1B2" rx="11" ry="11" style="stroke:#181818;stroke-width:1.0;"/><path d="M914.0156,712.875 Q914.1719,712.6563 914.3594,712.5469 Q914.5469,712.4375 914.7656,712.4375 Q915.1406,712.4375 915.375,712.6953 Q915.6094,712.9531 915.6094,713.5625 L915.6094,715.0156 Q915.6094,715.625 915.375,715.8906 Q915.1406,716.1563 914.7656,716.1563 Q914.4219,716.1563 914.2188,715.9531 Q914.0156,715.7656 913.9063,715.25 Q913.8594,714.8906 913.6719,714.7031 Q913.3438,714.3281 912.7344,714.1094 Q912.125,713.8906 911.5,713.8906 Q910.7344,713.8906 910.1016,714.2188 Q909.4688,714.5469 908.9766,715.2969 Q908.4844,716.0469 908.4844,717.0781 L908.4844,718.1719 Q908.4844,719.4063 909.375,720.2266 Q910.2656,721.0469 911.8594,721.0469 Q912.7969,721.0469 913.4531,720.7969 Q913.8438,720.6406 914.2656,720.2031 Q914.5313,719.9375 914.6797,719.8594 Q914.8281,719.7813 915.0313,719.7813 Q915.3594,719.7813 915.6172,720.0391 Q915.875,720.2969 915.875,720.6406 Q915.875,720.9844 915.5313,721.3906 Q915.0313,721.9688 914.2344,722.2969 Q913.1563,722.75 911.8594,722.75 Q910.3438,722.75 909.1406,722.125 Q908.1563,721.625 907.4688,720.5547 Q906.7813,719.4844 906.7813,718.2031 L906.7813,717.0469 Q906.7813,715.7188 907.3984,714.5703 Q908.0156,713.4219 909.1094,712.8047 Q910.2031,712.1875 911.4375,712.1875 Q912.1719,712.1875 912.8203,712.3516 Q913.4688,712.5156 914.0156,712.875 Z " fill="#000000"/><text fill="#000000" font-family="sans-serif" font-size="14" lengthAdjust="spacing" textLength="52" x="931.75" y="722.7285">JsonFile</text><line style="stroke:#181818;stroke-width:0.5;" x1="850.5" x2="1032.5" y1="733" y2="733"/><line style="stroke:#181818;stroke-width:0.5;" x1="850.5" x2="1032.5" y1="741" y2="741"/><text fill="#000000" font-family="sans-serif" font-size="14" lengthAdjust="spacing" textLength="172" x="855.5" y="759.5332">serialize(Savable resource)</text><text fill="#000000" font-family="sans-serif" font-size="14" lengthAdjust="spacing" textLength="115" x="855.5" y="777.1426">deserialize(object)</text></g><!--MD5=[3fee75583bb7a64f68d843a3c9534ab3]
class Node--><g id="elem_Node"><rect codeLine="62" fill="#F1F1F1" height="65.6094" id="Node" rx="2.5" ry="2.5" style="stroke:#181818;stroke-width:0.5;" width="100" x="684.5" y="540"/><ellipse cx="715.25" cy="556" fill="#ADD1B2" rx="11" ry="11" style="stroke:#181818;stroke-width:1.0;"/><path d="M718.0156,551.875 Q718.1719,551.6563 718.3594,551.5469 Q718.5469,551.4375 718.7656,551.4375 Q719.1406,551.4375 719.375,551.6953 Q719.6094,551.9531 719.6094,552.5625 L719.6094,554.0156 Q719.6094,554.625 719.375,554.8906 Q719.1406,555.1563 718.7656,555.1563 Q718.4219,555.1563 718.2188,554.9531 Q718.0156,554.7656 717.9063,554.25 Q717.8594,553.8906 717.6719,553.7031 Q717.3438,553.3281 716.7344,553.1094 Q716.125,552.8906 715.5,552.8906 Q714.7344,552.8906 714.1016,553.2188 Q713.4688,553.5469 712.9766,554.2969 Q712.4844,555.0469 712.4844,556.0781 L712.4844,557.1719 Q712.4844,558.4063 713.375,559.2266 Q714.2656,560.0469 715.8594,560.0469 Q716.7969,560.0469 717.4531,559.7969 Q717.8438,559.6406 718.2656,559.2031 Q718.5313,558.9375 718.6797,558.8594 Q718.8281,558.7813 719.0313,558.7813 Q719.3594,558.7813 719.6172,559.0391 Q719.875,559.2969 719.875,559.6406 Q719.875,559.9844 719.5313,560.3906 Q719.0313,560.9688 718.2344,561.2969 Q717.1563,561.75 715.8594,561.75 Q714.3438,561.75 713.1406,561.125 Q712.1563,560.625 711.4688,559.5547 Q710.7813,558.4844 710.7813,557.2031 L710.7813,556.0469 Q710.7813,554.7188 711.3984,553.5703 Q712.0156,552.4219 713.1094,551.8047 Q714.2031,551.1875 715.4375,551.1875 Q716.1719,551.1875 716.8203,551.3516 Q717.4688,551.5156 718.0156,551.875 Z " fill="#000000"/><text fill="#000000" font-family="sans-serif" font-size="14" lengthAdjust="spacing" textLength="33" x="732.75" y="561.7285">Node</text><line style="stroke:#181818;stroke-width:0.5;" x1="685.5" x2="783.5" y1="572" y2="572"/><line style="stroke:#181818;stroke-width:0.5;" x1="685.5" x2="783.5" y1="580" y2="580"/><text fill="#000000" font-family="sans-serif" font-size="14" lengthAdjust="spacing" textLength="88" x="690.5" y="598.5332">save(int level)</text></g><!--MD5=[2486d40b882f2b25a6a3a545ecdc85be]
class TableNode--><g id="elem_TableNode"><rect codeLine="66" fill="#F1F1F1" height="83.2188" id="TableNode" rx="2.5" ry="2.5" style="stroke:#181818;stroke-width:0.5;" width="160" x="654.5" y="701"/><ellipse cx="696.05" cy="717" fill="#ADD1B2" rx="11" ry="11" style="stroke:#181818;stroke-width:1.0;"/><path d="M698.8156,712.875 Q698.9719,712.6563 699.1594,712.5469 Q699.3469,712.4375 699.5656,712.4375 Q699.9406,712.4375 700.175,712.6953 Q700.4094,712.9531 700.4094,713.5625 L700.4094,715.0156 Q700.4094,715.625 700.175,715.8906 Q699.9406,716.1563 699.5656,716.1563 Q699.2219,716.1563 699.0188,715.9531 Q698.8156,715.7656 698.7063,715.25 Q698.6594,714.8906 698.4719,714.7031 Q698.1438,714.3281 697.5344,714.1094 Q696.925,713.8906 696.3,713.8906 Q695.5344,713.8906 694.9016,714.2188 Q694.2688,714.5469 693.7766,715.2969 Q693.2844,716.0469 693.2844,717.0781 L693.2844,718.1719 Q693.2844,719.4063 694.175,720.2266 Q695.0656,721.0469 696.6594,721.0469 Q697.5969,721.0469 698.2531,720.7969 Q698.6438,720.6406 699.0656,720.2031 Q699.3313,719.9375 699.4797,719.8594 Q699.6281,719.7813 699.8313,719.7813 Q700.1594,719.7813 700.4172,720.0391 Q700.675,720.2969 700.675,720.6406 Q700.675,720.9844 700.3313,721.3906 Q699.8313,721.9688 699.0344,722.2969 Q697.9563,722.75 696.6594,722.75 Q695.1438,722.75 693.9406,722.125 Q692.9563,721.625 692.2688,720.5547 Q691.5813,719.4844 691.5813,718.2031 L691.5813,717.0469 Q691.5813,715.7188 692.1984,714.5703 Q692.8156,713.4219 693.9094,712.8047 Q695.0031,712.1875 696.2375,712.1875 Q696.9719,712.1875 697.6203,712.3516 Q698.2688,712.5156 698.8156,712.875 Z " fill="#000000"/><text fill="#000000" font-family="sans-serif" font-size="14" lengthAdjust="spacing" textLength="69" x="715.95" y="722.7285">TableNode</text><line style="stroke:#181818;stroke-width:0.5;" x1="655.5" x2="813.5" y1="733" y2="733"/><text fill="#000000" font-family="sans-serif" font-size="14" lengthAdjust="spacing" textLength="103" x="660.5" y="751.5332">table = resource</text><text fill="#000000" font-family="sans-serif" font-size="14" lengthAdjust="spacing" textLength="148" x="660.5" y="769.1426">db = resource.resource</text><line style="stroke:#181818;stroke-width:0.5;" x1="655.5" x2="813.5" y1="776.2188" y2="776.2188"/></g><!--MD5=[7b3e1712e9081d3d8b958043a5801735]
link Db to Resource--><g id="link_Db_Resource"><path codeLine="73" d="M368.06,280 C372.95,280 377.84,280 382.73,280 " fill="none" id="Db-to-Resource" style="stroke:#181818;stroke-width:1.0;"/><polygon fill="none" points="382.82,273,402.82,280,382.82,287,382.82,273" style="stroke:#181818;stroke-width:1.0;"/></g><!--MD5=[f99c02d12937b74020b8240a398a8d23]
link GresDb to Db--><g id="link_GresDb_Db"><path codeLine="74" d="M241.5,55.24 C241.5,92.16 241.5,165.41 241.5,218.06 " fill="none" id="GresDb-to-Db" style="stroke:#181818;stroke-width:1.0;"/><polygon fill="none" points="248.5,218.15,241.5,238.15,234.5,218.15,248.5,218.15" style="stroke:#181818;stroke-width:1.0;"/></g><!--MD5=[a335d8c56f8d19a4561fc9d26229b7a3]
link LiteDb to Db--><g id="link_LiteDb_Db"><path codeLine="75" d="M80.24,280 C85.11,280 89.98,280 94.85,280 " fill="none" id="LiteDb-to-Db" style="stroke:#181818;stroke-width:1.0;"/><polygon fill="none" points="94.88,273,114.88,280,94.88,287,94.88,273" style="stroke:#181818;stroke-width:1.0;"/></g><!--MD5=[1ccc123cd51227ade960b8cbb501f504]
link Db to Table--><g id="link_Db_Table"><path codeLine="76" d="M247.4785,333.6929 C247.4785,333.6929 262.45,465.76 268.38,518.03 " fill="none" id="Db-Table" style="stroke:#181818;stroke-width:1.0;"/><polygon fill="#181818" points="269.85,531.04,272.8157,521.6483,269.2894,526.0715,264.8661,522.5452,269.85,531.04" style="stroke:#181818;stroke-width:1.0;"/><line style="stroke:#181818;stroke-width:1.0;" x1="269.2894" x2="268.39" y1="526.0715" y2="518.12"/><polygon fill="none" points="246.12,321.77,242.8249,328.1843,247.4785,333.6929,250.7735,327.2786,246.12,321.77" style="stroke:#181818;stroke-width:1.0;"/></g><!--MD5=[d2ec28d69675ff84c1283f5029b203c0]
reverse link Resource to Savable--><g id="link_Resource_Savable"><path codeLine="77" d="M549.17,465.66 C549.47,479.42 549.94,492.67 550.56,504.87 " fill="none" id="Resource-backto-Savable" style="stroke:#181818;stroke-width:1.0;"/><polygon fill="none" points="542.16,465.32,548.84,445.21,556.16,465.1,542.16,465.32" style="stroke:#181818;stroke-width:1.0;"/></g><!--MD5=[5222c9fd74b60e35ab2e93d3d00836e7]
link Resource to Savable--><g id="link_Resource_Savable"><path codeLine="78" d="M574.7286,457.2088 C574.7286,457.2088 574.16,481.12 573.71,491.75 " fill="none" id="Resource-Savable" style="stroke:#181818;stroke-width:1.0;"/><polygon fill="#181818" points="573.08,504.87,577.5008,496.0691,573.3163,499.8756,569.5097,495.691,573.08,504.87" style="stroke:#181818;stroke-width:1.0;"/><line style="stroke:#181818;stroke-width:1.0;" x1="573.3163" x2="573.705" y1="499.8756" y2="491.885"/><polygon fill="none" points="574.9,445.21,570.8147,451.1523,574.7286,457.2088,578.8139,451.2665,574.9,445.21" style="stroke:#181818;stroke-width:1.0;"/></g><!--MD5=[f9836f65ecaecd3a4f4f6bff8bbaeffc]
reverse link Savable to FileResource--><g id="link_Savable_FileResource"><path codeLine="79" d="M647.04,493.38 C658.79,485.92 671.22,479.48 684,475 C725.94,460.29 741.27,462.79 784,475 C828.28,487.65 872.24,516.75 902.41,539.97 " fill="none" id="Savable-backto-FileResource" style="stroke:#181818;stroke-width:1.0;"/><polygon fill="none" points="650.8,499.3,630.37,504.95,642.82,487.8,650.8,499.3" style="stroke:#181818;stroke-width:1.0;"/></g><!--MD5=[e63ee973a175bd36670afcfe55ac44ff]
link IniFile to FileResource--><g id="link_IniFile_FileResource"><path codeLine="80" d="M1013.25,304.32 C1000.75,350.95 972.41,456.67 955.33,520.41 " fill="none" id="IniFile-to-FileResource" style="stroke:#181818;stroke-width:1.0;"/><polygon fill="none" points="962.05,522.38,950.11,539.89,948.52,518.76,962.05,522.38" style="stroke:#181818;stroke-width:1.0;"/></g><!--MD5=[8d68989c58e3a5256308129b75697cae]
link IniFile to NoneIniSection--><g id="link_IniFile_NoneIniSection"><path codeLine="81" d="M1029.9109,315.8161 C1029.9109,315.8161 1079.11,480.4 1095.82,536.26 " fill="none" id="IniFile-NoneIniSection" style="stroke:#181818;stroke-width:1.0;"/><polygon fill="#181818" points="1099.62,548.97,1100.8713,539.201,1098.1863,544.18,1093.2073,541.4949,1099.62,548.97" style="stroke:#181818;stroke-width:1.0;"/><line style="stroke:#181818;stroke-width:1.0;" x1="1098.1863" x2="1095.89" y1="544.18" y2="536.515"/><polygon fill="none" points="1026.47,304.32,1024.3584,311.215,1029.9109,315.8161,1032.0225,308.9211,1026.47,304.32" style="stroke:#181818;stroke-width:1.0;"/></g><!--MD5=[7ab78a78f01f13b3f8adaa147fbe9d58]
reverse link NoneIniSection to IniSection--><g id="link_NoneIniSection_IniSection"><path codeLine="82" d="M1108.84,617.62 C1110.58,649.86 1112.87,692.49 1114.26,718.41 " fill="none" id="NoneIniSection-backto-IniSection" style="stroke:#181818;stroke-width:1.0;"/><polygon fill="none" points="1101.83,617.64,1107.75,597.29,1115.81,616.89,1101.83,617.64" style="stroke:#181818;stroke-width:1.0;"/></g><!--MD5=[be61dba62c4da3d8f0a63ab43f39e3cc]
reverse link FileResource to JsonFile--><g id="link_FileResource_JsonFile"><path codeLine="83" d="M941.5,626.48 C941.5,650.43 941.5,678.36 941.5,700.7 " fill="none" id="FileResource-backto-JsonFile" style="stroke:#181818;stroke-width:1.0;"/><polygon fill="none" points="934.5,626.3,941.5,606.3,948.5,626.3,934.5,626.3" style="stroke:#181818;stroke-width:1.0;"/></g><!--MD5=[e527005c2b6ea5a209a486f8a584f00b]
link Table to Savable--><g id="link_Table_Savable"><path codeLine="84" d="M325.51,573 C368.09,573 410.66,573 453.24,573 " fill="none" id="Table-to-Savable" style="stroke:#181818;stroke-width:1.0;"/><polygon fill="none" points="453.46,566,473.46,573,453.46,580,453.46,566" style="stroke:#181818;stroke-width:1.0;"/></g><!--MD5=[51f38624dca375147f54fa729a19e73a]
link GresTable to Table--><g id="link_GresTable_Table"><path codeLine="85" d="M188.17,573 C193.2,573 198.22,573 203.24,573 " fill="none" id="GresTable-to-Table" style="stroke:#181818;stroke-width:1.0;"/><polygon fill="none" points="203.24,566,223.24,573,203.24,580,203.24,566" style="stroke:#181818;stroke-width:1.0;"/></g><!--MD5=[2267fa562c28ca81ba7d378d0de375b9]
reverse link GresTable to JsonbTable--><g id="link_GresTable_JsonbTable"><path codeLine="86" d="M138.5,617.62 C138.5,649.86 138.5,692.49 138.5,718.41 " fill="none" id="GresTable-backto-JsonbTable" style="stroke:#181818;stroke-width:1.0;"/><polygon fill="none" points="131.5,617.29,138.5,597.29,145.5,617.29,131.5,617.29" style="stroke:#181818;stroke-width:1.0;"/></g><!--MD5=[b8132b73519e6306962e830082501983]
reverse link Table to LiteTable--><g id="link_Table_LiteTable"><path codeLine="87" d="M274.14,634.76 C273.96,663.79 273.77,696.81 273.64,718.34 " fill="none" id="Table-backto-LiteTable" style="stroke:#181818;stroke-width:1.0;"/><polygon fill="none" points="267.14,634.5,274.26,614.55,281.14,634.59,267.14,634.5" style="stroke:#181818;stroke-width:1.0;"/></g><!--MD5=[898f62776bc99e1c278a663791d8a7e2]
link Table to TableHeader--><g id="link_Table_TableHeader"><path codeLine="88" d="M307.66,614.55 C333.02,645.55 367.28,687.44 389.39,714.47 " fill="none" id="Table-to-TableHeader" style="stroke:#181818;stroke-width:1.0;"/><polygon fill="#181818" points="392.56,718.34,389.951,708.843,389.3915,714.4721,383.7624,713.9126,392.56,718.34" style="stroke:#181818;stroke-width:1.0;"/></g><!--MD5=[b255d7e3895c07749ef7df1fca958c42]
reverse link Savable to Node--><g id="link_Savable_Node"><path codeLine="89" d="M669.8,573 C674.69,573 679.58,573 684.48,573 " fill="none" id="Savable-backto-Node" style="stroke:#181818;stroke-width:1.0;"/><polygon fill="none" points="669.69,580,649.69,573,669.69,566,669.69,580" style="stroke:#181818;stroke-width:1.0;"/></g><!--MD5=[232f0cccf99ab70271aee7c45d0b6eb2]
reverse link Node to TableNode--><g id="link_Node_TableNode"><path codeLine="90" d="M734.5,626.48 C734.5,650.43 734.5,678.36 734.5,700.7 " fill="none" id="Node-backto-TableNode" style="stroke:#181818;stroke-width:1.0;"/><polygon fill="none" points="727.5,626.3,734.5,606.3,741.5,626.3,727.5,626.3" style="stroke:#181818;stroke-width:1.0;"/></g><!--MD5=[5fba4b337d51fe203cd457259c7fd2bb]
reverse link Savable to TableHeader--><g id="link_Savable_TableHeader"><path codeLine="91" d="M487.73,656.37 C467.41,679.06 446.97,701.89 432.38,718.18 " fill="none" id="Savable-backto-TableHeader" style="stroke:#181818;stroke-width:1.0;"/><polygon fill="none" points="482.8,651.39,501.35,641.16,493.23,660.73,482.8,651.39" style="stroke:#181818;stroke-width:1.0;"/></g><!--MD5=[8f9cc1c9f398c994aff6bc54f7862ee3]
link TableHeader to TableColumn--><g id="link_TableHeader_TableColumn"><path codeLine="92" d="M480.63,742.5 C480.63,742.5 487.36,742.5 490.19,742.5 " fill="none" id="TableHeader-TableColumn" style="stroke:#181818;stroke-width:1.0;"/><polygon fill="#181818" points="503.46,742.5,494.46,738.5,498.46,742.5,494.46,746.5,503.46,742.5" style="stroke:#181818;stroke-width:1.0;"/><line style="stroke:#181818;stroke-width:1.0;" x1="498.46" x2="490.46" y1="742.5" y2="742.5"/><polygon fill="none" points="468.63,742.5,474.63,746.5,480.63,742.5,474.63,738.5,468.63,742.5" style="stroke:#181818;stroke-width:1.0;"/></g><!--MD5=[dc8ea39670c93db972e1cde5acd5ca00]
reverse link Savable to TableColumn--><g id="link_Savable_TableColumn"><path codeLine="93" d="M561.5,661.26 C561.5,682.31 561.5,703.06 561.5,718.18 " fill="none" id="Savable-backto-TableColumn" style="stroke:#181818;stroke-width:1.0;"/><polygon fill="none" points="554.5,661.16,561.5,641.16,568.5,661.16,554.5,661.16" style="stroke:#181818;stroke-width:1.0;"/></g><!--MD5=[18b2e916b2bfc8dc9d315f9722cf6675]
@startuml
class Resource{    
    create(Savable resource, res_id=None)
    read(Object)
    update(Savable resource, res_id=None)
    delete(Savable resource, res_id=None ? Object)

    create_all(List[Savable])
    update_all(List[Savable])
    delete_all(?)

    serialize(Savable resource)
    deserialize(str)
    
    "execute"(str script='')
    res_id
    name
    namespace
}


class Db{
    init(str connect_str)
    table_for_resource(Savable resource)
}

class GresDb{}
class LiteDb{}

class Savable{
    "__exclude__"
    resource
    save(int level=0)
    to_json()
    is_excluded(str atr_name)
}

class Table{
    name = res_id
    bd
}

class GresTable{}
class JsonbTable{}
class LiteTable{}

class TableHeader{}
class TableColumn{}
class NotNull{}

class FileResource{
    init(str path)
}

class IniFile{}
class IniSection{}
class NoneIniSection{}
class JsonFile{
    serialize(Savable resource)
    deserialize(object)
}

class Node{    
    save(int level)    
}

class TableNode{
    table = resource
    db = resource.resource
}



Resource <|-left- Db
    Db <|-up- GresDb
    Db <|-left- LiteDb
    Db o-down-> Table
Resource <|- - Savable
Resource o- -> Savable
    Savable <|-right- FileResource
        FileResource <|-up- IniFile
            IniFile o- -> NoneIniSection
                NoneIniSection <|- - IniSection
        FileResource <|- - JsonFile
    Savable <|-left- Table
        Table <|-left- GresTable
            GresTable <|- - JsonbTable
        Table <|- - LiteTable
        Table - -> TableHeader
    Savable <|-right- Node
        Node <|- - TableNode
    Savable <|- - TableHeader
        TableHeader o-right-> TableColumn
    Savable <|- - TableColumn
@enduml

PlantUML version 1.2022.5(Sat Apr 30 13:55:52 MSK 2022)
(GPL source distribution)
Java Runtime: Java(TM) SE Runtime Environment
JVM: Java HotSpot(TM) 64-Bit Server VM
Default Encoding: Cp1251
Language: ru
Country: RU
--></g></svg>