<?xml version="1.0" encoding="UTF-8" standalone="no"?><svg xmlns="http://www.w3.org/2000/svg" xmlns:xlink="http://www.w3.org/1999/xlink" contentStyleType="text/css" height="494px" preserveAspectRatio="none" style="width:706px;height:494px;background:#FFFFFF;" version="1.1" viewBox="0 0 706 494" width="706px" zoomAndPan="magnify"><defs/><g><!--MD5=[a40b17eea413225aac43454b95ec0b4d]
class Memory--><g id="elem_Memory"><rect codeLine="1" fill="#F1F1F1" height="48" id="Memory" rx="2.5" ry="2.5" style="stroke:#181818;stroke-width:0.5;" width="82" x="413" y="7"/><ellipse cx="428" cy="23" fill="#ADD1B2" rx="11" ry="11" style="stroke:#181818;stroke-width:1.0;"/><path d="M430.7656,18.875 Q430.9219,18.6563 431.1094,18.5469 Q431.2969,18.4375 431.5156,18.4375 Q431.8906,18.4375 432.125,18.6953 Q432.3594,18.9531 432.3594,19.5625 L432.3594,21.0156 Q432.3594,21.625 432.125,21.8906 Q431.8906,22.1563 431.5156,22.1563 Q431.1719,22.1563 430.9688,21.9531 Q430.7656,21.7656 430.6563,21.25 Q430.6094,20.8906 430.4219,20.7031 Q430.0938,20.3281 429.4844,20.1094 Q428.875,19.8906 428.25,19.8906 Q427.4844,19.8906 426.8516,20.2188 Q426.2188,20.5469 425.7266,21.2969 Q425.2344,22.0469 425.2344,23.0781 L425.2344,24.1719 Q425.2344,25.4063 426.125,26.2266 Q427.0156,27.0469 428.6094,27.0469 Q429.5469,27.0469 430.2031,26.7969 Q430.5938,26.6406 431.0156,26.2031 Q431.2813,25.9375 431.4297,25.8594 Q431.5781,25.7813 431.7813,25.7813 Q432.1094,25.7813 432.3672,26.0391 Q432.625,26.2969 432.625,26.6406 Q432.625,26.9844 432.2813,27.3906 Q431.7813,27.9688 430.9844,28.2969 Q429.9063,28.75 428.6094,28.75 Q427.0938,28.75 425.8906,28.125 Q424.9063,27.625 424.2188,26.5547 Q423.5313,25.4844 423.5313,24.2031 L423.5313,23.0469 Q423.5313,21.7188 424.1484,20.5703 Q424.7656,19.4219 425.8594,18.8047 Q426.9531,18.1875 428.1875,18.1875 Q428.9219,18.1875 429.5703,18.3516 Q430.2188,18.5156 430.7656,18.875 Z " fill="#000000"/><text fill="#000000" font-family="sans-serif" font-size="14" lengthAdjust="spacing" textLength="50" x="442" y="28.7285">Memory</text><line style="stroke:#181818;stroke-width:0.5;" x1="414" x2="494" y1="39" y2="39"/><line style="stroke:#181818;stroke-width:0.5;" x1="414" x2="494" y1="47" y2="47"/></g><!--MD5=[7b5d829a22d676ecf0e1f99e6dd7e05e]
class PersistentMemory--><g id="elem_PersistentMemory"><rect codeLine="5" fill="#F1F1F1" height="48" id="PersistentMemory" rx="2.5" ry="2.5" style="stroke:#181818;stroke-width:0.5;" width="145" x="215.5" y="223"/><ellipse cx="230.5" cy="239" fill="#ADD1B2" rx="11" ry="11" style="stroke:#181818;stroke-width:1.0;"/><path d="M233.2656,234.875 Q233.4219,234.6563 233.6094,234.5469 Q233.7969,234.4375 234.0156,234.4375 Q234.3906,234.4375 234.625,234.6953 Q234.8594,234.9531 234.8594,235.5625 L234.8594,237.0156 Q234.8594,237.625 234.625,237.8906 Q234.3906,238.1563 234.0156,238.1563 Q233.6719,238.1563 233.4688,237.9531 Q233.2656,237.7656 233.1563,237.25 Q233.1094,236.8906 232.9219,236.7031 Q232.5938,236.3281 231.9844,236.1094 Q231.375,235.8906 230.75,235.8906 Q229.9844,235.8906 229.3516,236.2188 Q228.7188,236.5469 228.2266,237.2969 Q227.7344,238.0469 227.7344,239.0781 L227.7344,240.1719 Q227.7344,241.4063 228.625,242.2266 Q229.5156,243.0469 231.1094,243.0469 Q232.0469,243.0469 232.7031,242.7969 Q233.0938,242.6406 233.5156,242.2031 Q233.7813,241.9375 233.9297,241.8594 Q234.0781,241.7813 234.2813,241.7813 Q234.6094,241.7813 234.8672,242.0391 Q235.125,242.2969 235.125,242.6406 Q235.125,242.9844 234.7813,243.3906 Q234.2813,243.9688 233.4844,244.2969 Q232.4063,244.75 231.1094,244.75 Q229.5938,244.75 228.3906,244.125 Q227.4063,243.625 226.7188,242.5547 Q226.0313,241.4844 226.0313,240.2031 L226.0313,239.0469 Q226.0313,237.7188 226.6484,236.5703 Q227.2656,235.4219 228.3594,234.8047 Q229.4531,234.1875 230.6875,234.1875 Q231.4219,234.1875 232.0703,234.3516 Q232.7188,234.5156 233.2656,234.875 Z " fill="#000000"/><text fill="#000000" font-family="sans-serif" font-size="14" lengthAdjust="spacing" textLength="113" x="244.5" y="244.7285">PersistentMemory</text><line style="stroke:#181818;stroke-width:0.5;" x1="216.5" x2="359.5" y1="255" y2="255"/><line style="stroke:#181818;stroke-width:0.5;" x1="216.5" x2="359.5" y1="263" y2="263"/></g><!--MD5=[6b13f1b330d33795af281e5c1dfe1e98]
class Resource--><g id="elem_Resource"><rect codeLine="7" fill="#F1F1F1" height="48" id="Resource" rx="2.5" ry="2.5" style="stroke:#181818;stroke-width:0.5;" width="93" x="407.5" y="223"/><ellipse cx="422.5" cy="239" fill="#ADD1B2" rx="11" ry="11" style="stroke:#181818;stroke-width:1.0;"/><path d="M425.2656,234.875 Q425.4219,234.6563 425.6094,234.5469 Q425.7969,234.4375 426.0156,234.4375 Q426.3906,234.4375 426.625,234.6953 Q426.8594,234.9531 426.8594,235.5625 L426.8594,237.0156 Q426.8594,237.625 426.625,237.8906 Q426.3906,238.1563 426.0156,238.1563 Q425.6719,238.1563 425.4688,237.9531 Q425.2656,237.7656 425.1563,237.25 Q425.1094,236.8906 424.9219,236.7031 Q424.5938,236.3281 423.9844,236.1094 Q423.375,235.8906 422.75,235.8906 Q421.9844,235.8906 421.3516,236.2188 Q420.7188,236.5469 420.2266,237.2969 Q419.7344,238.0469 419.7344,239.0781 L419.7344,240.1719 Q419.7344,241.4063 420.625,242.2266 Q421.5156,243.0469 423.1094,243.0469 Q424.0469,243.0469 424.7031,242.7969 Q425.0938,242.6406 425.5156,242.2031 Q425.7813,241.9375 425.9297,241.8594 Q426.0781,241.7813 426.2813,241.7813 Q426.6094,241.7813 426.8672,242.0391 Q427.125,242.2969 427.125,242.6406 Q427.125,242.9844 426.7813,243.3906 Q426.2813,243.9688 425.4844,244.2969 Q424.4063,244.75 423.1094,244.75 Q421.5938,244.75 420.3906,244.125 Q419.4063,243.625 418.7188,242.5547 Q418.0313,241.4844 418.0313,240.2031 L418.0313,239.0469 Q418.0313,237.7188 418.6484,236.5703 Q419.2656,235.4219 420.3594,234.8047 Q421.4531,234.1875 422.6875,234.1875 Q423.4219,234.1875 424.0703,234.3516 Q424.7188,234.5156 425.2656,234.875 Z " fill="#000000"/><text fill="#000000" font-family="sans-serif" font-size="14" lengthAdjust="spacing" textLength="61" x="436.5" y="244.7285">Resource</text><line style="stroke:#181818;stroke-width:0.5;" x1="408.5" x2="499.5" y1="255" y2="255"/><line style="stroke:#181818;stroke-width:0.5;" x1="408.5" x2="499.5" y1="263" y2="263"/></g><!--MD5=[6b8845a69f96d52189aadf56f34dcde6]
class WritableMemory--><g id="elem_WritableMemory"><rect codeLine="9" fill="#F1F1F1" height="48" id="WritableMemory" rx="2.5" ry="2.5" style="stroke:#181818;stroke-width:0.5;" width="134" x="387" y="115"/><ellipse cx="402" cy="131" fill="#ADD1B2" rx="11" ry="11" style="stroke:#181818;stroke-width:1.0;"/><path d="M404.7656,126.875 Q404.9219,126.6563 405.1094,126.5469 Q405.2969,126.4375 405.5156,126.4375 Q405.8906,126.4375 406.125,126.6953 Q406.3594,126.9531 406.3594,127.5625 L406.3594,129.0156 Q406.3594,129.625 406.125,129.8906 Q405.8906,130.1563 405.5156,130.1563 Q405.1719,130.1563 404.9688,129.9531 Q404.7656,129.7656 404.6563,129.25 Q404.6094,128.8906 404.4219,128.7031 Q404.0938,128.3281 403.4844,128.1094 Q402.875,127.8906 402.25,127.8906 Q401.4844,127.8906 400.8516,128.2188 Q400.2188,128.5469 399.7266,129.2969 Q399.2344,130.0469 399.2344,131.0781 L399.2344,132.1719 Q399.2344,133.4063 400.125,134.2266 Q401.0156,135.0469 402.6094,135.0469 Q403.5469,135.0469 404.2031,134.7969 Q404.5938,134.6406 405.0156,134.2031 Q405.2813,133.9375 405.4297,133.8594 Q405.5781,133.7813 405.7813,133.7813 Q406.1094,133.7813 406.3672,134.0391 Q406.625,134.2969 406.625,134.6406 Q406.625,134.9844 406.2813,135.3906 Q405.7813,135.9688 404.9844,136.2969 Q403.9063,136.75 402.6094,136.75 Q401.0938,136.75 399.8906,136.125 Q398.9063,135.625 398.2188,134.5547 Q397.5313,133.4844 397.5313,132.2031 L397.5313,131.0469 Q397.5313,129.7188 398.1484,128.5703 Q398.7656,127.4219 399.8594,126.8047 Q400.9531,126.1875 402.1875,126.1875 Q402.9219,126.1875 403.5703,126.3516 Q404.2188,126.5156 404.7656,126.875 Z " fill="#000000"/><text fill="#000000" font-family="sans-serif" font-size="14" lengthAdjust="spacing" textLength="102" x="416" y="136.7285">WritableMemory</text><line style="stroke:#181818;stroke-width:0.5;" x1="388" x2="520" y1="147" y2="147"/><line style="stroke:#181818;stroke-width:0.5;" x1="388" x2="520" y1="155" y2="155"/></g><!--MD5=[1c2e6440352a2ab348da17a8d43d5a28]
class ReadableMemory--><g id="elem_ReadableMemory"><rect codeLine="11" fill="#F1F1F1" height="48" id="ReadableMemory" rx="2.5" ry="2.5" style="stroke:#181818;stroke-width:0.5;" width="143" x="556.5" y="115"/><ellipse cx="571.5" cy="131" fill="#ADD1B2" rx="11" ry="11" style="stroke:#181818;stroke-width:1.0;"/><path d="M574.2656,126.875 Q574.4219,126.6563 574.6094,126.5469 Q574.7969,126.4375 575.0156,126.4375 Q575.3906,126.4375 575.625,126.6953 Q575.8594,126.9531 575.8594,127.5625 L575.8594,129.0156 Q575.8594,129.625 575.625,129.8906 Q575.3906,130.1563 575.0156,130.1563 Q574.6719,130.1563 574.4688,129.9531 Q574.2656,129.7656 574.1563,129.25 Q574.1094,128.8906 573.9219,128.7031 Q573.5938,128.3281 572.9844,128.1094 Q572.375,127.8906 571.75,127.8906 Q570.9844,127.8906 570.3516,128.2188 Q569.7188,128.5469 569.2266,129.2969 Q568.7344,130.0469 568.7344,131.0781 L568.7344,132.1719 Q568.7344,133.4063 569.625,134.2266 Q570.5156,135.0469 572.1094,135.0469 Q573.0469,135.0469 573.7031,134.7969 Q574.0938,134.6406 574.5156,134.2031 Q574.7813,133.9375 574.9297,133.8594 Q575.0781,133.7813 575.2813,133.7813 Q575.6094,133.7813 575.8672,134.0391 Q576.125,134.2969 576.125,134.6406 Q576.125,134.9844 575.7813,135.3906 Q575.2813,135.9688 574.4844,136.2969 Q573.4063,136.75 572.1094,136.75 Q570.5938,136.75 569.3906,136.125 Q568.4063,135.625 567.7188,134.5547 Q567.0313,133.4844 567.0313,132.2031 L567.0313,131.0469 Q567.0313,129.7188 567.6484,128.5703 Q568.2656,127.4219 569.3594,126.8047 Q570.4531,126.1875 571.6875,126.1875 Q572.4219,126.1875 573.0703,126.3516 Q573.7188,126.5156 574.2656,126.875 Z " fill="#000000"/><text fill="#000000" font-family="sans-serif" font-size="14" lengthAdjust="spacing" textLength="111" x="585.5" y="136.7285">ReadableMemory</text><line style="stroke:#181818;stroke-width:0.5;" x1="557.5" x2="698.5" y1="147" y2="147"/><line style="stroke:#181818;stroke-width:0.5;" x1="557.5" x2="698.5" y1="155" y2="155"/></g><!--MD5=[0540f0bfada5cda59b19623105df310e]
class TemporaryMemory--><g id="elem_TemporaryMemory"><rect codeLine="13" fill="#F1F1F1" height="48" id="TemporaryMemory" rx="2.5" ry="2.5" style="stroke:#181818;stroke-width:0.5;" width="151" x="200.5" y="115"/><ellipse cx="215.5" cy="131" fill="#ADD1B2" rx="11" ry="11" style="stroke:#181818;stroke-width:1.0;"/><path d="M218.2656,126.875 Q218.4219,126.6563 218.6094,126.5469 Q218.7969,126.4375 219.0156,126.4375 Q219.3906,126.4375 219.625,126.6953 Q219.8594,126.9531 219.8594,127.5625 L219.8594,129.0156 Q219.8594,129.625 219.625,129.8906 Q219.3906,130.1563 219.0156,130.1563 Q218.6719,130.1563 218.4688,129.9531 Q218.2656,129.7656 218.1563,129.25 Q218.1094,128.8906 217.9219,128.7031 Q217.5938,128.3281 216.9844,128.1094 Q216.375,127.8906 215.75,127.8906 Q214.9844,127.8906 214.3516,128.2188 Q213.7188,128.5469 213.2266,129.2969 Q212.7344,130.0469 212.7344,131.0781 L212.7344,132.1719 Q212.7344,133.4063 213.625,134.2266 Q214.5156,135.0469 216.1094,135.0469 Q217.0469,135.0469 217.7031,134.7969 Q218.0938,134.6406 218.5156,134.2031 Q218.7813,133.9375 218.9297,133.8594 Q219.0781,133.7813 219.2813,133.7813 Q219.6094,133.7813 219.8672,134.0391 Q220.125,134.2969 220.125,134.6406 Q220.125,134.9844 219.7813,135.3906 Q219.2813,135.9688 218.4844,136.2969 Q217.4063,136.75 216.1094,136.75 Q214.5938,136.75 213.3906,136.125 Q212.4063,135.625 211.7188,134.5547 Q211.0313,133.4844 211.0313,132.2031 L211.0313,131.0469 Q211.0313,129.7188 211.6484,128.5703 Q212.2656,127.4219 213.3594,126.8047 Q214.4531,126.1875 215.6875,126.1875 Q216.4219,126.1875 217.0703,126.3516 Q217.7188,126.5156 218.2656,126.875 Z " fill="#000000"/><text fill="#000000" font-family="sans-serif" font-size="14" lengthAdjust="spacing" textLength="119" x="229.5" y="136.7285">TemporaryMemory</text><line style="stroke:#181818;stroke-width:0.5;" x1="201.5" x2="350.5" y1="147" y2="147"/><line style="stroke:#181818;stroke-width:0.5;" x1="201.5" x2="350.5" y1="155" y2="155"/></g><!--MD5=[9a8c48f1550f06ab9c9ca1b4e60b3a80]
class NonSavableMemory--><g id="elem_NonSavableMemory"><rect codeLine="15" fill="#F1F1F1" height="48" id="NonSavableMemory" rx="2.5" ry="2.5" style="stroke:#181818;stroke-width:0.5;" width="158" x="7" y="115"/><ellipse cx="22" cy="131" fill="#ADD1B2" rx="11" ry="11" style="stroke:#181818;stroke-width:1.0;"/><path d="M24.7656,126.875 Q24.9219,126.6563 25.1094,126.5469 Q25.2969,126.4375 25.5156,126.4375 Q25.8906,126.4375 26.125,126.6953 Q26.3594,126.9531 26.3594,127.5625 L26.3594,129.0156 Q26.3594,129.625 26.125,129.8906 Q25.8906,130.1563 25.5156,130.1563 Q25.1719,130.1563 24.9688,129.9531 Q24.7656,129.7656 24.6563,129.25 Q24.6094,128.8906 24.4219,128.7031 Q24.0938,128.3281 23.4844,128.1094 Q22.875,127.8906 22.25,127.8906 Q21.4844,127.8906 20.8516,128.2188 Q20.2188,128.5469 19.7266,129.2969 Q19.2344,130.0469 19.2344,131.0781 L19.2344,132.1719 Q19.2344,133.4063 20.125,134.2266 Q21.0156,135.0469 22.6094,135.0469 Q23.5469,135.0469 24.2031,134.7969 Q24.5938,134.6406 25.0156,134.2031 Q25.2813,133.9375 25.4297,133.8594 Q25.5781,133.7813 25.7813,133.7813 Q26.1094,133.7813 26.3672,134.0391 Q26.625,134.2969 26.625,134.6406 Q26.625,134.9844 26.2813,135.3906 Q25.7813,135.9688 24.9844,136.2969 Q23.9063,136.75 22.6094,136.75 Q21.0938,136.75 19.8906,136.125 Q18.9063,135.625 18.2188,134.5547 Q17.5313,133.4844 17.5313,132.2031 L17.5313,131.0469 Q17.5313,129.7188 18.1484,128.5703 Q18.7656,127.4219 19.8594,126.8047 Q20.9531,126.1875 22.1875,126.1875 Q22.9219,126.1875 23.5703,126.3516 Q24.2188,126.5156 24.7656,126.875 Z " fill="#000000"/><text fill="#000000" font-family="sans-serif" font-size="14" lengthAdjust="spacing" textLength="126" x="36" y="136.7285">NonSavableMemory</text><line style="stroke:#181818;stroke-width:0.5;" x1="8" x2="164" y1="147" y2="147"/><line style="stroke:#181818;stroke-width:0.5;" x1="8" x2="164" y1="155" y2="155"/></g><!--MD5=[04add1350e67c79380c0d55bbbeb7508]
class Savable--><g id="elem_Savable"><rect codeLine="17" fill="#F1F1F1" height="48" id="Savable" rx="2.5" ry="2.5" style="stroke:#181818;stroke-width:0.5;" width="83" x="323.5" y="331"/><ellipse cx="338.5" cy="347" fill="#ADD1B2" rx="11" ry="11" style="stroke:#181818;stroke-width:1.0;"/><path d="M341.2656,342.875 Q341.4219,342.6563 341.6094,342.5469 Q341.7969,342.4375 342.0156,342.4375 Q342.3906,342.4375 342.625,342.6953 Q342.8594,342.9531 342.8594,343.5625 L342.8594,345.0156 Q342.8594,345.625 342.625,345.8906 Q342.3906,346.1563 342.0156,346.1563 Q341.6719,346.1563 341.4688,345.9531 Q341.2656,345.7656 341.1563,345.25 Q341.1094,344.8906 340.9219,344.7031 Q340.5938,344.3281 339.9844,344.1094 Q339.375,343.8906 338.75,343.8906 Q337.9844,343.8906 337.3516,344.2188 Q336.7188,344.5469 336.2266,345.2969 Q335.7344,346.0469 335.7344,347.0781 L335.7344,348.1719 Q335.7344,349.4063 336.625,350.2266 Q337.5156,351.0469 339.1094,351.0469 Q340.0469,351.0469 340.7031,350.7969 Q341.0938,350.6406 341.5156,350.2031 Q341.7813,349.9375 341.9297,349.8594 Q342.0781,349.7813 342.2813,349.7813 Q342.6094,349.7813 342.8672,350.0391 Q343.125,350.2969 343.125,350.6406 Q343.125,350.9844 342.7813,351.3906 Q342.2813,351.9688 341.4844,352.2969 Q340.4063,352.75 339.1094,352.75 Q337.5938,352.75 336.3906,352.125 Q335.4063,351.625 334.7188,350.5547 Q334.0313,349.4844 334.0313,348.2031 L334.0313,347.0469 Q334.0313,345.7188 334.6484,344.5703 Q335.2656,343.4219 336.3594,342.8047 Q337.4531,342.1875 338.6875,342.1875 Q339.4219,342.1875 340.0703,342.3516 Q340.7188,342.5156 341.2656,342.875 Z " fill="#000000"/><text fill="#000000" font-family="sans-serif" font-size="14" lengthAdjust="spacing" textLength="51" x="352.5" y="352.7285">Savable</text><line style="stroke:#181818;stroke-width:0.5;" x1="324.5" x2="405.5" y1="363" y2="363"/><line style="stroke:#181818;stroke-width:0.5;" x1="324.5" x2="405.5" y1="371" y2="371"/></g><!--MD5=[0fac961a4c468dfbe81f5e90079ff267]
class SolidTemporaryMemory--><g id="elem_SolidTemporaryMemory"><rect codeLine="18" fill="#F1F1F1" height="48" id="SolidTemporaryMemory" rx="2.5" ry="2.5" style="stroke:#181818;stroke-width:0.5;" width="182" x="161" y="439"/><ellipse cx="176" cy="455" fill="#ADD1B2" rx="11" ry="11" style="stroke:#181818;stroke-width:1.0;"/><path d="M178.7656,450.875 Q178.9219,450.6563 179.1094,450.5469 Q179.2969,450.4375 179.5156,450.4375 Q179.8906,450.4375 180.125,450.6953 Q180.3594,450.9531 180.3594,451.5625 L180.3594,453.0156 Q180.3594,453.625 180.125,453.8906 Q179.8906,454.1563 179.5156,454.1563 Q179.1719,454.1563 178.9688,453.9531 Q178.7656,453.7656 178.6563,453.25 Q178.6094,452.8906 178.4219,452.7031 Q178.0938,452.3281 177.4844,452.1094 Q176.875,451.8906 176.25,451.8906 Q175.4844,451.8906 174.8516,452.2188 Q174.2188,452.5469 173.7266,453.2969 Q173.2344,454.0469 173.2344,455.0781 L173.2344,456.1719 Q173.2344,457.4063 174.125,458.2266 Q175.0156,459.0469 176.6094,459.0469 Q177.5469,459.0469 178.2031,458.7969 Q178.5938,458.6406 179.0156,458.2031 Q179.2813,457.9375 179.4297,457.8594 Q179.5781,457.7813 179.7813,457.7813 Q180.1094,457.7813 180.3672,458.0391 Q180.625,458.2969 180.625,458.6406 Q180.625,458.9844 180.2813,459.3906 Q179.7813,459.9688 178.9844,460.2969 Q177.9063,460.75 176.6094,460.75 Q175.0938,460.75 173.8906,460.125 Q172.9063,459.625 172.2188,458.5547 Q171.5313,457.4844 171.5313,456.2031 L171.5313,455.0469 Q171.5313,453.7188 172.1484,452.5703 Q172.7656,451.4219 173.8594,450.8047 Q174.9531,450.1875 176.1875,450.1875 Q176.9219,450.1875 177.5703,450.3516 Q178.2188,450.5156 178.7656,450.875 Z " fill="#000000"/><text fill="#000000" font-family="sans-serif" font-size="14" lengthAdjust="spacing" textLength="150" x="190" y="460.7285">SolidTemporaryMemory</text><line style="stroke:#181818;stroke-width:0.5;" x1="162" x2="342" y1="471" y2="471"/><line style="stroke:#181818;stroke-width:0.5;" x1="162" x2="342" y1="479" y2="479"/></g><!--MD5=[7f57d5315ce003e03916167758269d63]
class IteratedTemporaryMemory--><g id="elem_IteratedTemporaryMemory"><rect codeLine="19" fill="#F1F1F1" height="48" id="IteratedTemporaryMemory" rx="2.5" ry="2.5" style="stroke:#181818;stroke-width:0.5;" width="199" x="378.5" y="439"/><ellipse cx="393.5" cy="455" fill="#ADD1B2" rx="11" ry="11" style="stroke:#181818;stroke-width:1.0;"/><path d="M396.2656,450.875 Q396.4219,450.6563 396.6094,450.5469 Q396.7969,450.4375 397.0156,450.4375 Q397.3906,450.4375 397.625,450.6953 Q397.8594,450.9531 397.8594,451.5625 L397.8594,453.0156 Q397.8594,453.625 397.625,453.8906 Q397.3906,454.1563 397.0156,454.1563 Q396.6719,454.1563 396.4688,453.9531 Q396.2656,453.7656 396.1563,453.25 Q396.1094,452.8906 395.9219,452.7031 Q395.5938,452.3281 394.9844,452.1094 Q394.375,451.8906 393.75,451.8906 Q392.9844,451.8906 392.3516,452.2188 Q391.7188,452.5469 391.2266,453.2969 Q390.7344,454.0469 390.7344,455.0781 L390.7344,456.1719 Q390.7344,457.4063 391.625,458.2266 Q392.5156,459.0469 394.1094,459.0469 Q395.0469,459.0469 395.7031,458.7969 Q396.0938,458.6406 396.5156,458.2031 Q396.7813,457.9375 396.9297,457.8594 Q397.0781,457.7813 397.2813,457.7813 Q397.6094,457.7813 397.8672,458.0391 Q398.125,458.2969 398.125,458.6406 Q398.125,458.9844 397.7813,459.3906 Q397.2813,459.9688 396.4844,460.2969 Q395.4063,460.75 394.1094,460.75 Q392.5938,460.75 391.3906,460.125 Q390.4063,459.625 389.7188,458.5547 Q389.0313,457.4844 389.0313,456.2031 L389.0313,455.0469 Q389.0313,453.7188 389.6484,452.5703 Q390.2656,451.4219 391.3594,450.8047 Q392.4531,450.1875 393.6875,450.1875 Q394.4219,450.1875 395.0703,450.3516 Q395.7188,450.5156 396.2656,450.875 Z " fill="#000000"/><text fill="#000000" font-family="sans-serif" font-size="14" lengthAdjust="spacing" textLength="167" x="407.5" y="460.7285">IteratedTemporaryMemory</text><line style="stroke:#181818;stroke-width:0.5;" x1="379.5" x2="576.5" y1="471" y2="471"/><line style="stroke:#181818;stroke-width:0.5;" x1="379.5" x2="576.5" y1="479" y2="479"/></g><!--MD5=[87e0a225fa371735b0e6bd45961e3e2d]
reverse link Memory to TemporaryMemory--><g id="link_Memory_TemporaryMemory"><path codeLine="22" d="M397.99,65.35 C370.96,81.45 339.19,100.37 314.85,114.86 " fill="none" id="Memory-backto-TemporaryMemory" style="stroke:#181818;stroke-width:1.0;"/><polygon fill="none" points="394.61,59.22,415.38,55,401.77,71.25,394.61,59.22" style="stroke:#181818;stroke-width:1.0;"/></g><!--MD5=[c6cc41a16aa24d8a8cc4658d5fe37f8f]
reverse link TemporaryMemory to PersistentMemory--><g id="link_TemporaryMemory_PersistentMemory"><path codeLine="23" d="M280.87,183.02 C282.41,196.58 284.04,211.04 285.36,222.68 " fill="none" id="TemporaryMemory-backto-PersistentMemory" style="stroke:#181818;stroke-width:1.0;"/><polygon fill="none" points="273.9,183.66,278.6,163,287.81,182.09,273.9,183.66" style="stroke:#181818;stroke-width:1.0;"/></g><!--MD5=[364ddf2ab81747c79f690cdc18550382]
reverse link Memory to WritableMemory--><g id="link_Memory_WritableMemory"><path codeLine="24" d="M454,75.02 C454,88.58 454,103.04 454,114.68 " fill="none" id="Memory-backto-WritableMemory" style="stroke:#181818;stroke-width:1.0;"/><polygon fill="none" points="447,75,454,55,461,75,447,75" style="stroke:#181818;stroke-width:1.0;"/></g><!--MD5=[e3097423e4ba82c93f98eaa3df651c05]
reverse link Memory to ReadableMemory--><g id="link_Memory_ReadableMemory"><path codeLine="25" d="M509.13,65.58 C535.47,81.63 566.34,100.44 590.02,114.86 " fill="none" id="Memory-backto-ReadableMemory" style="stroke:#181818;stroke-width:1.0;"/><polygon fill="none" points="505.19,71.38,491.76,55,512.48,59.43,505.19,71.38" style="stroke:#181818;stroke-width:1.0;"/></g><!--MD5=[00ab6fa363049455b5b8052e3d0c1e27]
reverse link WritableMemory to Resource--><g id="link_WritableMemory_Resource"><path codeLine="27" d="M454,183.02 C454,196.58 454,211.04 454,222.68 " fill="none" id="WritableMemory-backto-Resource" style="stroke:#181818;stroke-width:1.0;"/><polygon fill="none" points="447,183,454,163,461,183,447,183" style="stroke:#181818;stroke-width:1.0;"/></g><!--MD5=[3d342ec952f5ecab805599595354fa51]
reverse link ReadableMemory to Resource--><g id="link_ReadableMemory_Resource"><path codeLine="28" d="M572.87,173.58 C546.53,189.63 515.66,208.44 491.98,222.86 " fill="none" id="ReadableMemory-backto-Resource" style="stroke:#181818;stroke-width:1.0;"/><polygon fill="none" points="569.52,167.43,590.24,163,576.81,179.38,569.52,167.43" style="stroke:#181818;stroke-width:1.0;"/></g><!--MD5=[125765d128f25945af2c534ebf319bf4]
link NonSavableMemory to TemporaryMemory--><g id="link_NonSavableMemory_TemporaryMemory"><path codeLine="30" d="M165.04,139 C170.07,139 175.1,139 180.13,139 " fill="none" id="NonSavableMemory-to-TemporaryMemory" style="stroke:#181818;stroke-width:1.0;"/><polygon fill="none" points="180.15,132,200.15,139,180.15,146,180.15,132" style="stroke:#181818;stroke-width:1.0;"/></g><!--MD5=[a69eebcb9daa87db007210818f65a8b5]
reverse link PersistentMemory to Savable--><g id="link_PersistentMemory_Savable"><path codeLine="31" d="M316.81,287.66 C327.34,302.15 338.9,318.07 348.06,330.68 " fill="none" id="PersistentMemory-backto-Savable" style="stroke:#181818;stroke-width:1.0;"/><polygon fill="none" points="310.8,291.3,304.71,271,322.13,283.07,310.8,291.3" style="stroke:#181818;stroke-width:1.0;"/></g><!--MD5=[d2ec28d69675ff84c1283f5029b203c0]
reverse link Resource to Savable--><g id="link_Resource_Savable"><path codeLine="32" d="M421.5,286.7 C409.12,301.45 395.4,317.79 384.58,330.68 " fill="none" id="Resource-backto-Savable" style="stroke:#181818;stroke-width:1.0;"/><polygon fill="none" points="416.47,281.82,434.69,271,427.19,290.82,416.47,281.82" style="stroke:#181818;stroke-width:1.0;"/></g><!--MD5=[16472be3c15eede7051e7d0951e685e4]
reverse link Savable to SolidTemporaryMemory--><g id="link_Savable_SolidTemporaryMemory"><path codeLine="34" d="M325.76,392.81 C309.53,408.04 291.19,425.24 276.86,438.68 " fill="none" id="Savable-backto-SolidTemporaryMemory" style="stroke:#181818;stroke-width:1.0;"/><polygon fill="none" points="321.1,387.58,340.48,379,330.68,397.79,321.1,387.58" style="stroke:#181818;stroke-width:1.0;"/></g><!--MD5=[751adbf16e79a13d90242fc1619f823f]
reverse link Savable to IteratedTemporaryMemory--><g id="link_Savable_IteratedTemporaryMemory"><path codeLine="35" d="M404.24,392.81 C420.47,408.04 438.81,425.24 453.14,438.68 " fill="none" id="Savable-backto-IteratedTemporaryMemory" style="stroke:#181818;stroke-width:1.0;"/><polygon fill="none" points="399.32,397.79,389.52,379,408.9,387.58,399.32,397.79" style="stroke:#181818;stroke-width:1.0;"/></g><!--MD5=[1d9b6f8590558bb7abd7321ba6042e58]
@startuml
class Memory{

}

class PersistentMemory{}

class Resource{}

class WritableMemory{}

class ReadableMemory{}

class TemporaryMemory{}

class NonSavableMemory{}

class Savable{}
class SolidTemporaryMemory{}
class IteratedTemporaryMemory{}


Memory <|- - TemporaryMemory
TemporaryMemory <|- - PersistentMemory
Memory <|- - WritableMemory
Memory <|- - ReadableMemory

WritableMemory <|- - Resource
ReadableMemory <|- - Resource

TemporaryMemory <|-left- NonSavableMemory
PersistentMemory <|- - Savable
Resource <|- - Savable

Savable <|- - SolidTemporaryMemory
Savable <|- - IteratedTemporaryMemory
@enduml

PlantUML version 1.2022.5(Sat Apr 30 13:55:52 MSK 2022)
(GPL source distribution)
Java Runtime: Java(TM) SE Runtime Environment
JVM: Java HotSpot(TM) 64-Bit Server VM
Default Encoding: Cp1251
Language: ru
Country: RU
--></g></svg>