<?xml version="1.0" encoding="UTF-8" standalone="no"?><svg xmlns="http://www.w3.org/2000/svg" xmlns:xlink="http://www.w3.org/1999/xlink" contentStyleType="text/css" height="580px" preserveAspectRatio="none" style="width:1088px;height:580px;background:#FFFFFF;" version="1.1" viewBox="0 0 1088 580" width="1088px" zoomAndPan="magnify"><defs/><g><!--MD5=[11b747870319a085bc745183e08c5f76]
class Storage--><g id="elem_Storage"><rect codeLine="1" fill="#F1F1F1" height="153.6563" id="Storage" rx="2.5" ry="2.5" style="stroke:#181818;stroke-width:0.5;" width="145" x="285" y="115"/><ellipse cx="328.35" cy="131" fill="#ADD1B2" rx="11" ry="11" style="stroke:#181818;stroke-width:1.0;"/><path d="M331.1156,126.875 Q331.2719,126.6563 331.4594,126.5469 Q331.6469,126.4375 331.8656,126.4375 Q332.2406,126.4375 332.475,126.6953 Q332.7094,126.9531 332.7094,127.5625 L332.7094,129.0156 Q332.7094,129.625 332.475,129.8906 Q332.2406,130.1563 331.8656,130.1563 Q331.5219,130.1563 331.3188,129.9531 Q331.1156,129.7656 331.0063,129.25 Q330.9594,128.8906 330.7719,128.7031 Q330.4438,128.3281 329.8344,128.1094 Q329.225,127.8906 328.6,127.8906 Q327.8344,127.8906 327.2016,128.2188 Q326.5688,128.5469 326.0766,129.2969 Q325.5844,130.0469 325.5844,131.0781 L325.5844,132.1719 Q325.5844,133.4063 326.475,134.2266 Q327.3656,135.0469 328.9594,135.0469 Q329.8969,135.0469 330.5531,134.7969 Q330.9438,134.6406 331.3656,134.2031 Q331.6313,133.9375 331.7797,133.8594 Q331.9281,133.7813 332.1313,133.7813 Q332.4594,133.7813 332.7172,134.0391 Q332.975,134.2969 332.975,134.6406 Q332.975,134.9844 332.6313,135.3906 Q332.1313,135.9688 331.3344,136.2969 Q330.2563,136.75 328.9594,136.75 Q327.4438,136.75 326.2406,136.125 Q325.2563,135.625 324.5688,134.5547 Q323.8813,133.4844 323.8813,132.2031 L323.8813,131.0469 Q323.8813,129.7188 324.4984,128.5703 Q325.1156,127.4219 326.2094,126.8047 Q327.3031,126.1875 328.5375,126.1875 Q329.2719,126.1875 329.9203,126.3516 Q330.5688,126.5156 331.1156,126.875 Z " fill="#000000"/><text fill="#000000" font-family="sans-serif" font-size="14" lengthAdjust="spacing" textLength="50" x="348.65" y="136.7285">Storage</text><line style="stroke:#181818;stroke-width:0.5;" x1="286" x2="429" y1="147" y2="147"/><text fill="#000000" font-family="sans-serif" font-size="14" lengthAdjust="spacing" textLength="35" x="291" y="165.5332">name</text><line style="stroke:#181818;stroke-width:0.5;" x1="286" x2="429" y1="172.6094" y2="172.6094"/><text fill="#000000" font-family="sans-serif" font-size="14" lengthAdjust="spacing" textLength="133" x="291" y="191.1426">put(Savable storage)</text><text fill="#000000" font-family="sans-serif" font-size="14" lengthAdjust="spacing" textLength="133" x="291" y="208.752">put_all(List[Savable])</text><text fill="#000000" font-family="sans-serif" font-size="14" lengthAdjust="spacing" textLength="94" x="291" y="226.3613">search(Object)</text><text fill="#000000" font-family="sans-serif" font-size="14" lengthAdjust="spacing" textLength="90" x="291" y="243.9707">delete(Objest)</text><text fill="#000000" font-family="sans-serif" font-size="14" lengthAdjust="spacing" textLength="127" x="291" y="261.5801">execute(str script='')</text></g><!--MD5=[464be7afade68e010f8f1d76973bc1ef]
class Db--><g id="elem_Db"><rect codeLine="10" fill="#F1F1F1" height="65.6094" id="Db" rx="2.5" ry="2.5" style="stroke:#181818;stroke-width:0.5;" width="134" x="115.5" y="159"/><ellipse cx="169.25" cy="175" fill="#ADD1B2" rx="11" ry="11" style="stroke:#181818;stroke-width:1.0;"/><path d="M172.0156,170.875 Q172.1719,170.6563 172.3594,170.5469 Q172.5469,170.4375 172.7656,170.4375 Q173.1406,170.4375 173.375,170.6953 Q173.6094,170.9531 173.6094,171.5625 L173.6094,173.0156 Q173.6094,173.625 173.375,173.8906 Q173.1406,174.1563 172.7656,174.1563 Q172.4219,174.1563 172.2188,173.9531 Q172.0156,173.7656 171.9063,173.25 Q171.8594,172.8906 171.6719,172.7031 Q171.3438,172.3281 170.7344,172.1094 Q170.125,171.8906 169.5,171.8906 Q168.7344,171.8906 168.1016,172.2188 Q167.4688,172.5469 166.9766,173.2969 Q166.4844,174.0469 166.4844,175.0781 L166.4844,176.1719 Q166.4844,177.4063 167.375,178.2266 Q168.2656,179.0469 169.8594,179.0469 Q170.7969,179.0469 171.4531,178.7969 Q171.8438,178.6406 172.2656,178.2031 Q172.5313,177.9375 172.6797,177.8594 Q172.8281,177.7813 173.0313,177.7813 Q173.3594,177.7813 173.6172,178.0391 Q173.875,178.2969 173.875,178.6406 Q173.875,178.9844 173.5313,179.3906 Q173.0313,179.9688 172.2344,180.2969 Q171.1563,180.75 169.8594,180.75 Q168.3438,180.75 167.1406,180.125 Q166.1563,179.625 165.4688,178.5547 Q164.7813,177.4844 164.7813,176.2031 L164.7813,175.0469 Q164.7813,173.7188 165.3984,172.5703 Q166.0156,171.4219 167.1094,170.8047 Q168.2031,170.1875 169.4375,170.1875 Q170.1719,170.1875 170.8203,170.3516 Q171.4688,170.5156 172.0156,170.875 Z " fill="#000000"/><text fill="#000000" font-family="sans-serif" font-size="14" lengthAdjust="spacing" textLength="18" x="189.75" y="180.7285">Db</text><line style="stroke:#181818;stroke-width:0.5;" x1="116.5" x2="248.5" y1="191" y2="191"/><line style="stroke:#181818;stroke-width:0.5;" x1="116.5" x2="248.5" y1="199" y2="199"/><text fill="#000000" font-family="sans-serif" font-size="14" lengthAdjust="spacing" textLength="122" x="121.5" y="217.5332">init(str connect_str)</text></g><!--MD5=[b2db8ccf06f2c83cde37e701a8b7a4d1]
class GresDb--><g id="elem_GresDb"><rect codeLine="14" fill="#F1F1F1" height="48" id="GresDb" rx="2.5" ry="2.5" style="stroke:#181818;stroke-width:0.5;" width="81" x="142" y="7"/><ellipse cx="157" cy="23" fill="#ADD1B2" rx="11" ry="11" style="stroke:#181818;stroke-width:1.0;"/><path d="M159.7656,18.875 Q159.9219,18.6563 160.1094,18.5469 Q160.2969,18.4375 160.5156,18.4375 Q160.8906,18.4375 161.125,18.6953 Q161.3594,18.9531 161.3594,19.5625 L161.3594,21.0156 Q161.3594,21.625 161.125,21.8906 Q160.8906,22.1563 160.5156,22.1563 Q160.1719,22.1563 159.9688,21.9531 Q159.7656,21.7656 159.6563,21.25 Q159.6094,20.8906 159.4219,20.7031 Q159.0938,20.3281 158.4844,20.1094 Q157.875,19.8906 157.25,19.8906 Q156.4844,19.8906 155.8516,20.2188 Q155.2188,20.5469 154.7266,21.2969 Q154.2344,22.0469 154.2344,23.0781 L154.2344,24.1719 Q154.2344,25.4063 155.125,26.2266 Q156.0156,27.0469 157.6094,27.0469 Q158.5469,27.0469 159.2031,26.7969 Q159.5938,26.6406 160.0156,26.2031 Q160.2813,25.9375 160.4297,25.8594 Q160.5781,25.7813 160.7813,25.7813 Q161.1094,25.7813 161.3672,26.0391 Q161.625,26.2969 161.625,26.6406 Q161.625,26.9844 161.2813,27.3906 Q160.7813,27.9688 159.9844,28.2969 Q158.9063,28.75 157.6094,28.75 Q156.0938,28.75 154.8906,28.125 Q153.9063,27.625 153.2188,26.5547 Q152.5313,25.4844 152.5313,24.2031 L152.5313,23.0469 Q152.5313,21.7188 153.1484,20.5703 Q153.7656,19.4219 154.8594,18.8047 Q155.9531,18.1875 157.1875,18.1875 Q157.9219,18.1875 158.5703,18.3516 Q159.2188,18.5156 159.7656,18.875 Z " fill="#000000"/><text fill="#000000" font-family="sans-serif" font-size="14" lengthAdjust="spacing" textLength="49" x="171" y="28.7285">GresDb</text><line style="stroke:#181818;stroke-width:0.5;" x1="143" x2="222" y1="39" y2="39"/><line style="stroke:#181818;stroke-width:0.5;" x1="143" x2="222" y1="47" y2="47"/></g><!--MD5=[4d307c3040e9f3ff2b2d0c8321016fdb]
class LiteDb--><g id="elem_LiteDb"><rect codeLine="15" fill="#F1F1F1" height="48" id="LiteDb" rx="2.5" ry="2.5" style="stroke:#181818;stroke-width:0.5;" width="73" x="7" y="168"/><ellipse cx="22" cy="184" fill="#ADD1B2" rx="11" ry="11" style="stroke:#181818;stroke-width:1.0;"/><path d="M24.7656,179.875 Q24.9219,179.6563 25.1094,179.5469 Q25.2969,179.4375 25.5156,179.4375 Q25.8906,179.4375 26.125,179.6953 Q26.3594,179.9531 26.3594,180.5625 L26.3594,182.0156 Q26.3594,182.625 26.125,182.8906 Q25.8906,183.1563 25.5156,183.1563 Q25.1719,183.1563 24.9688,182.9531 Q24.7656,182.7656 24.6563,182.25 Q24.6094,181.8906 24.4219,181.7031 Q24.0938,181.3281 23.4844,181.1094 Q22.875,180.8906 22.25,180.8906 Q21.4844,180.8906 20.8516,181.2188 Q20.2188,181.5469 19.7266,182.2969 Q19.2344,183.0469 19.2344,184.0781 L19.2344,185.1719 Q19.2344,186.4063 20.125,187.2266 Q21.0156,188.0469 22.6094,188.0469 Q23.5469,188.0469 24.2031,187.7969 Q24.5938,187.6406 25.0156,187.2031 Q25.2813,186.9375 25.4297,186.8594 Q25.5781,186.7813 25.7813,186.7813 Q26.1094,186.7813 26.3672,187.0391 Q26.625,187.2969 26.625,187.6406 Q26.625,187.9844 26.2813,188.3906 Q25.7813,188.9688 24.9844,189.2969 Q23.9063,189.75 22.6094,189.75 Q21.0938,189.75 19.8906,189.125 Q18.9063,188.625 18.2188,187.5547 Q17.5313,186.4844 17.5313,185.2031 L17.5313,184.0469 Q17.5313,182.7188 18.1484,181.5703 Q18.7656,180.4219 19.8594,179.8047 Q20.9531,179.1875 22.1875,179.1875 Q22.9219,179.1875 23.5703,179.3516 Q24.2188,179.5156 24.7656,179.875 Z " fill="#000000"/><text fill="#000000" font-family="sans-serif" font-size="14" lengthAdjust="spacing" textLength="41" x="36" y="189.7285">LiteDb</text><line style="stroke:#181818;stroke-width:0.5;" x1="8" x2="79" y1="200" y2="200"/><line style="stroke:#181818;stroke-width:0.5;" x1="8" x2="79" y1="208" y2="208"/></g><!--MD5=[04add1350e67c79380c0d55bbbeb7508]
class Savable--><g id="elem_Savable"><rect codeLine="17" fill="#F1F1F1" height="118.4375" id="Savable" rx="2.5" ry="2.5" style="stroke:#181818;stroke-width:0.5;" width="116" x="299.5" y="338"/><ellipse cx="329.35" cy="354" fill="#ADD1B2" rx="11" ry="11" style="stroke:#181818;stroke-width:1.0;"/><path d="M332.1156,349.875 Q332.2719,349.6563 332.4594,349.5469 Q332.6469,349.4375 332.8656,349.4375 Q333.2406,349.4375 333.475,349.6953 Q333.7094,349.9531 333.7094,350.5625 L333.7094,352.0156 Q333.7094,352.625 333.475,352.8906 Q333.2406,353.1563 332.8656,353.1563 Q332.5219,353.1563 332.3188,352.9531 Q332.1156,352.7656 332.0063,352.25 Q331.9594,351.8906 331.7719,351.7031 Q331.4438,351.3281 330.8344,351.1094 Q330.225,350.8906 329.6,350.8906 Q328.8344,350.8906 328.2016,351.2188 Q327.5688,351.5469 327.0766,352.2969 Q326.5844,353.0469 326.5844,354.0781 L326.5844,355.1719 Q326.5844,356.4063 327.475,357.2266 Q328.3656,358.0469 329.9594,358.0469 Q330.8969,358.0469 331.5531,357.7969 Q331.9438,357.6406 332.3656,357.2031 Q332.6313,356.9375 332.7797,356.8594 Q332.9281,356.7813 333.1313,356.7813 Q333.4594,356.7813 333.7172,357.0391 Q333.975,357.2969 333.975,357.6406 Q333.975,357.9844 333.6313,358.3906 Q333.1313,358.9688 332.3344,359.2969 Q331.2563,359.75 329.9594,359.75 Q328.4438,359.75 327.2406,359.125 Q326.2563,358.625 325.5688,357.5547 Q324.8813,356.4844 324.8813,355.2031 L324.8813,354.0469 Q324.8813,352.7188 325.4984,351.5703 Q326.1156,350.4219 327.2094,349.8047 Q328.3031,349.1875 329.5375,349.1875 Q330.2719,349.1875 330.9203,349.3516 Q331.5688,349.5156 332.1156,349.875 Z " fill="#000000"/><text fill="#000000" font-family="sans-serif" font-size="14" lengthAdjust="spacing" textLength="51" x="346.65" y="359.7285">Savable</text><line style="stroke:#181818;stroke-width:0.5;" x1="300.5" x2="414.5" y1="370" y2="370"/><text fill="#000000" font-family="sans-serif" font-size="14" lengthAdjust="spacing" textLength="48" x="305.5" y="388.5332">storage</text><line style="stroke:#181818;stroke-width:0.5;" x1="300.5" x2="414.5" y1="395.6094" y2="395.6094"/><text fill="#000000" font-family="sans-serif" font-size="14" lengthAdjust="spacing" textLength="104" x="305.5" y="414.1426">save(int level=0)</text><text fill="#000000" font-family="sans-serif" font-size="14" lengthAdjust="spacing" textLength="61" x="305.5" y="431.752">serialize()</text><text fill="#000000" font-family="sans-serif" font-size="14" lengthAdjust="spacing" textLength="77" x="305.5" y="449.3613">deserialize()</text></g><!--MD5=[c0b936abb008b3271898d4186b5531e4]
class Table--><g id="elem_Table"><rect codeLine="24" fill="#F1F1F1" height="48" id="Table" rx="2.5" ry="2.5" style="stroke:#181818;stroke-width:0.5;" width="68" x="172.5" y="373"/><ellipse cx="187.5" cy="389" fill="#ADD1B2" rx="11" ry="11" style="stroke:#181818;stroke-width:1.0;"/><path d="M190.2656,384.875 Q190.4219,384.6563 190.6094,384.5469 Q190.7969,384.4375 191.0156,384.4375 Q191.3906,384.4375 191.625,384.6953 Q191.8594,384.9531 191.8594,385.5625 L191.8594,387.0156 Q191.8594,387.625 191.625,387.8906 Q191.3906,388.1563 191.0156,388.1563 Q190.6719,388.1563 190.4688,387.9531 Q190.2656,387.7656 190.1563,387.25 Q190.1094,386.8906 189.9219,386.7031 Q189.5938,386.3281 188.9844,386.1094 Q188.375,385.8906 187.75,385.8906 Q186.9844,385.8906 186.3516,386.2188 Q185.7188,386.5469 185.2266,387.2969 Q184.7344,388.0469 184.7344,389.0781 L184.7344,390.1719 Q184.7344,391.4063 185.625,392.2266 Q186.5156,393.0469 188.1094,393.0469 Q189.0469,393.0469 189.7031,392.7969 Q190.0938,392.6406 190.5156,392.2031 Q190.7813,391.9375 190.9297,391.8594 Q191.0781,391.7813 191.2813,391.7813 Q191.6094,391.7813 191.8672,392.0391 Q192.125,392.2969 192.125,392.6406 Q192.125,392.9844 191.7813,393.3906 Q191.2813,393.9688 190.4844,394.2969 Q189.4063,394.75 188.1094,394.75 Q186.5938,394.75 185.3906,394.125 Q184.4063,393.625 183.7188,392.5547 Q183.0313,391.4844 183.0313,390.2031 L183.0313,389.0469 Q183.0313,387.7188 183.6484,386.5703 Q184.2656,385.4219 185.3594,384.8047 Q186.4531,384.1875 187.6875,384.1875 Q188.4219,384.1875 189.0703,384.3516 Q189.7188,384.5156 190.2656,384.875 Z " fill="#000000"/><text fill="#000000" font-family="sans-serif" font-size="14" lengthAdjust="spacing" textLength="36" x="201.5" y="394.7285">Table</text><line style="stroke:#181818;stroke-width:0.5;" x1="173.5" x2="239.5" y1="405" y2="405"/><line style="stroke:#181818;stroke-width:0.5;" x1="173.5" x2="239.5" y1="413" y2="413"/></g><!--MD5=[370961c8c67dbe83008ce44ed56af7e8]
class GresTable--><g id="elem_GresTable"><rect codeLine="26" fill="#F1F1F1" height="48" id="GresTable" rx="2.5" ry="2.5" style="stroke:#181818;stroke-width:0.5;" width="99" x="38" y="373"/><ellipse cx="53" cy="389" fill="#ADD1B2" rx="11" ry="11" style="stroke:#181818;stroke-width:1.0;"/><path d="M55.7656,384.875 Q55.9219,384.6563 56.1094,384.5469 Q56.2969,384.4375 56.5156,384.4375 Q56.8906,384.4375 57.125,384.6953 Q57.3594,384.9531 57.3594,385.5625 L57.3594,387.0156 Q57.3594,387.625 57.125,387.8906 Q56.8906,388.1563 56.5156,388.1563 Q56.1719,388.1563 55.9688,387.9531 Q55.7656,387.7656 55.6563,387.25 Q55.6094,386.8906 55.4219,386.7031 Q55.0938,386.3281 54.4844,386.1094 Q53.875,385.8906 53.25,385.8906 Q52.4844,385.8906 51.8516,386.2188 Q51.2188,386.5469 50.7266,387.2969 Q50.2344,388.0469 50.2344,389.0781 L50.2344,390.1719 Q50.2344,391.4063 51.125,392.2266 Q52.0156,393.0469 53.6094,393.0469 Q54.5469,393.0469 55.2031,392.7969 Q55.5938,392.6406 56.0156,392.2031 Q56.2813,391.9375 56.4297,391.8594 Q56.5781,391.7813 56.7813,391.7813 Q57.1094,391.7813 57.3672,392.0391 Q57.625,392.2969 57.625,392.6406 Q57.625,392.9844 57.2813,393.3906 Q56.7813,393.9688 55.9844,394.2969 Q54.9063,394.75 53.6094,394.75 Q52.0938,394.75 50.8906,394.125 Q49.9063,393.625 49.2188,392.5547 Q48.5313,391.4844 48.5313,390.2031 L48.5313,389.0469 Q48.5313,387.7188 49.1484,386.5703 Q49.7656,385.4219 50.8594,384.8047 Q51.9531,384.1875 53.1875,384.1875 Q53.9219,384.1875 54.5703,384.3516 Q55.2188,384.5156 55.7656,384.875 Z " fill="#000000"/><text fill="#000000" font-family="sans-serif" font-size="14" lengthAdjust="spacing" textLength="67" x="67" y="394.7285">GresTable</text><line style="stroke:#181818;stroke-width:0.5;" x1="39" x2="136" y1="405" y2="405"/><line style="stroke:#181818;stroke-width:0.5;" x1="39" x2="136" y1="413" y2="413"/></g><!--MD5=[80ff1cbdbf4e6fafe4447ae5c6d67dc9]
class LiteTable--><g id="elem_LiteTable"><rect codeLine="27" fill="#F1F1F1" height="48" id="LiteTable" rx="2.5" ry="2.5" style="stroke:#181818;stroke-width:0.5;" width="91" x="105" y="525"/><ellipse cx="120" cy="541" fill="#ADD1B2" rx="11" ry="11" style="stroke:#181818;stroke-width:1.0;"/><path d="M122.7656,536.875 Q122.9219,536.6563 123.1094,536.5469 Q123.2969,536.4375 123.5156,536.4375 Q123.8906,536.4375 124.125,536.6953 Q124.3594,536.9531 124.3594,537.5625 L124.3594,539.0156 Q124.3594,539.625 124.125,539.8906 Q123.8906,540.1563 123.5156,540.1563 Q123.1719,540.1563 122.9688,539.9531 Q122.7656,539.7656 122.6563,539.25 Q122.6094,538.8906 122.4219,538.7031 Q122.0938,538.3281 121.4844,538.1094 Q120.875,537.8906 120.25,537.8906 Q119.4844,537.8906 118.8516,538.2188 Q118.2188,538.5469 117.7266,539.2969 Q117.2344,540.0469 117.2344,541.0781 L117.2344,542.1719 Q117.2344,543.4063 118.125,544.2266 Q119.0156,545.0469 120.6094,545.0469 Q121.5469,545.0469 122.2031,544.7969 Q122.5938,544.6406 123.0156,544.2031 Q123.2813,543.9375 123.4297,543.8594 Q123.5781,543.7813 123.7813,543.7813 Q124.1094,543.7813 124.3672,544.0391 Q124.625,544.2969 124.625,544.6406 Q124.625,544.9844 124.2813,545.3906 Q123.7813,545.9688 122.9844,546.2969 Q121.9063,546.75 120.6094,546.75 Q119.0938,546.75 117.8906,546.125 Q116.9063,545.625 116.2188,544.5547 Q115.5313,543.4844 115.5313,542.2031 L115.5313,541.0469 Q115.5313,539.7188 116.1484,538.5703 Q116.7656,537.4219 117.8594,536.8047 Q118.9531,536.1875 120.1875,536.1875 Q120.9219,536.1875 121.5703,536.3516 Q122.2188,536.5156 122.7656,536.875 Z " fill="#000000"/><text fill="#000000" font-family="sans-serif" font-size="14" lengthAdjust="spacing" textLength="59" x="134" y="546.7285">LiteTable</text><line style="stroke:#181818;stroke-width:0.5;" x1="106" x2="195" y1="557" y2="557"/><line style="stroke:#181818;stroke-width:0.5;" x1="106" x2="195" y1="565" y2="565"/></g><!--MD5=[43d6d58434ec60818a2006166dc03379]
class TableHeader--><g id="elem_TableHeader"><rect codeLine="29" fill="#F1F1F1" height="48" id="TableHeader" rx="2.5" ry="2.5" style="stroke:#181818;stroke-width:0.5;" width="114" x="231.5" y="525"/><ellipse cx="246.5" cy="541" fill="#ADD1B2" rx="11" ry="11" style="stroke:#181818;stroke-width:1.0;"/><path d="M249.2656,536.875 Q249.4219,536.6563 249.6094,536.5469 Q249.7969,536.4375 250.0156,536.4375 Q250.3906,536.4375 250.625,536.6953 Q250.8594,536.9531 250.8594,537.5625 L250.8594,539.0156 Q250.8594,539.625 250.625,539.8906 Q250.3906,540.1563 250.0156,540.1563 Q249.6719,540.1563 249.4688,539.9531 Q249.2656,539.7656 249.1563,539.25 Q249.1094,538.8906 248.9219,538.7031 Q248.5938,538.3281 247.9844,538.1094 Q247.375,537.8906 246.75,537.8906 Q245.9844,537.8906 245.3516,538.2188 Q244.7188,538.5469 244.2266,539.2969 Q243.7344,540.0469 243.7344,541.0781 L243.7344,542.1719 Q243.7344,543.4063 244.625,544.2266 Q245.5156,545.0469 247.1094,545.0469 Q248.0469,545.0469 248.7031,544.7969 Q249.0938,544.6406 249.5156,544.2031 Q249.7813,543.9375 249.9297,543.8594 Q250.0781,543.7813 250.2813,543.7813 Q250.6094,543.7813 250.8672,544.0391 Q251.125,544.2969 251.125,544.6406 Q251.125,544.9844 250.7813,545.3906 Q250.2813,545.9688 249.4844,546.2969 Q248.4063,546.75 247.1094,546.75 Q245.5938,546.75 244.3906,546.125 Q243.4063,545.625 242.7188,544.5547 Q242.0313,543.4844 242.0313,542.2031 L242.0313,541.0469 Q242.0313,539.7188 242.6484,538.5703 Q243.2656,537.4219 244.3594,536.8047 Q245.4531,536.1875 246.6875,536.1875 Q247.4219,536.1875 248.0703,536.3516 Q248.7188,536.5156 249.2656,536.875 Z " fill="#000000"/><text fill="#000000" font-family="sans-serif" font-size="14" lengthAdjust="spacing" textLength="82" x="260.5" y="546.7285">TableHeader</text><line style="stroke:#181818;stroke-width:0.5;" x1="232.5" x2="344.5" y1="557" y2="557"/><line style="stroke:#181818;stroke-width:0.5;" x1="232.5" x2="344.5" y1="565" y2="565"/></g><!--MD5=[5de7445a3966e79bc254e6fe5fe40f7b]
class TableColumn--><g id="elem_TableColumn"><rect codeLine="30" fill="#F1F1F1" height="48" id="TableColumn" rx="2.5" ry="2.5" style="stroke:#181818;stroke-width:0.5;" width="116" x="380.5" y="525"/><ellipse cx="395.5" cy="541" fill="#ADD1B2" rx="11" ry="11" style="stroke:#181818;stroke-width:1.0;"/><path d="M398.2656,536.875 Q398.4219,536.6563 398.6094,536.5469 Q398.7969,536.4375 399.0156,536.4375 Q399.3906,536.4375 399.625,536.6953 Q399.8594,536.9531 399.8594,537.5625 L399.8594,539.0156 Q399.8594,539.625 399.625,539.8906 Q399.3906,540.1563 399.0156,540.1563 Q398.6719,540.1563 398.4688,539.9531 Q398.2656,539.7656 398.1563,539.25 Q398.1094,538.8906 397.9219,538.7031 Q397.5938,538.3281 396.9844,538.1094 Q396.375,537.8906 395.75,537.8906 Q394.9844,537.8906 394.3516,538.2188 Q393.7188,538.5469 393.2266,539.2969 Q392.7344,540.0469 392.7344,541.0781 L392.7344,542.1719 Q392.7344,543.4063 393.625,544.2266 Q394.5156,545.0469 396.1094,545.0469 Q397.0469,545.0469 397.7031,544.7969 Q398.0938,544.6406 398.5156,544.2031 Q398.7813,543.9375 398.9297,543.8594 Q399.0781,543.7813 399.2813,543.7813 Q399.6094,543.7813 399.8672,544.0391 Q400.125,544.2969 400.125,544.6406 Q400.125,544.9844 399.7813,545.3906 Q399.2813,545.9688 398.4844,546.2969 Q397.4063,546.75 396.1094,546.75 Q394.5938,546.75 393.3906,546.125 Q392.4063,545.625 391.7188,544.5547 Q391.0313,543.4844 391.0313,542.2031 L391.0313,541.0469 Q391.0313,539.7188 391.6484,538.5703 Q392.2656,537.4219 393.3594,536.8047 Q394.4531,536.1875 395.6875,536.1875 Q396.4219,536.1875 397.0703,536.3516 Q397.7188,536.5156 398.2656,536.875 Z " fill="#000000"/><text fill="#000000" font-family="sans-serif" font-size="14" lengthAdjust="spacing" textLength="84" x="409.5" y="546.7285">TableColumn</text><line style="stroke:#181818;stroke-width:0.5;" x1="381.5" x2="495.5" y1="557" y2="557"/><line style="stroke:#181818;stroke-width:0.5;" x1="381.5" x2="495.5" y1="565" y2="565"/></g><!--MD5=[4559e451c9ce63b7bac6a4b27b898818]
class FileStorage--><g id="elem_FileStorage"><rect codeLine="32" fill="#F1F1F1" height="65.6094" id="FileStorage" rx="2.5" ry="2.5" style="stroke:#181818;stroke-width:0.5;" width="105" x="662" y="364"/><ellipse cx="677" cy="380" fill="#ADD1B2" rx="11" ry="11" style="stroke:#181818;stroke-width:1.0;"/><path d="M679.7656,375.875 Q679.9219,375.6563 680.1094,375.5469 Q680.2969,375.4375 680.5156,375.4375 Q680.8906,375.4375 681.125,375.6953 Q681.3594,375.9531 681.3594,376.5625 L681.3594,378.0156 Q681.3594,378.625 681.125,378.8906 Q680.8906,379.1563 680.5156,379.1563 Q680.1719,379.1563 679.9688,378.9531 Q679.7656,378.7656 679.6563,378.25 Q679.6094,377.8906 679.4219,377.7031 Q679.0938,377.3281 678.4844,377.1094 Q677.875,376.8906 677.25,376.8906 Q676.4844,376.8906 675.8516,377.2188 Q675.2188,377.5469 674.7266,378.2969 Q674.2344,379.0469 674.2344,380.0781 L674.2344,381.1719 Q674.2344,382.4063 675.125,383.2266 Q676.0156,384.0469 677.6094,384.0469 Q678.5469,384.0469 679.2031,383.7969 Q679.5938,383.6406 680.0156,383.2031 Q680.2813,382.9375 680.4297,382.8594 Q680.5781,382.7813 680.7813,382.7813 Q681.1094,382.7813 681.3672,383.0391 Q681.625,383.2969 681.625,383.6406 Q681.625,383.9844 681.2813,384.3906 Q680.7813,384.9688 679.9844,385.2969 Q678.9063,385.75 677.6094,385.75 Q676.0938,385.75 674.8906,385.125 Q673.9063,384.625 673.2188,383.5547 Q672.5313,382.4844 672.5313,381.2031 L672.5313,380.0469 Q672.5313,378.7188 673.1484,377.5703 Q673.7656,376.4219 674.8594,375.8047 Q675.9531,375.1875 677.1875,375.1875 Q677.9219,375.1875 678.5703,375.3516 Q679.2188,375.5156 679.7656,375.875 Z " fill="#000000"/><text fill="#000000" font-family="sans-serif" font-size="14" lengthAdjust="spacing" textLength="73" x="691" y="385.7285">FileStorage</text><line style="stroke:#181818;stroke-width:0.5;" x1="663" x2="766" y1="396" y2="396"/><line style="stroke:#181818;stroke-width:0.5;" x1="663" x2="766" y1="404" y2="404"/><text fill="#000000" font-family="sans-serif" font-size="14" lengthAdjust="spacing" textLength="76" x="668" y="422.5332">init(str path)</text></g><!--MD5=[e3c91158bcdad03aa33a6fcf074a92a7]
class IniFile--><g id="elem_IniFile"><rect codeLine="36" fill="#F1F1F1" height="48" id="IniFile" rx="2.5" ry="2.5" style="stroke:#181818;stroke-width:0.5;" width="69" x="748" y="168"/><ellipse cx="763" cy="184" fill="#ADD1B2" rx="11" ry="11" style="stroke:#181818;stroke-width:1.0;"/><path d="M765.7656,179.875 Q765.9219,179.6563 766.1094,179.5469 Q766.2969,179.4375 766.5156,179.4375 Q766.8906,179.4375 767.125,179.6953 Q767.3594,179.9531 767.3594,180.5625 L767.3594,182.0156 Q767.3594,182.625 767.125,182.8906 Q766.8906,183.1563 766.5156,183.1563 Q766.1719,183.1563 765.9688,182.9531 Q765.7656,182.7656 765.6563,182.25 Q765.6094,181.8906 765.4219,181.7031 Q765.0938,181.3281 764.4844,181.1094 Q763.875,180.8906 763.25,180.8906 Q762.4844,180.8906 761.8516,181.2188 Q761.2188,181.5469 760.7266,182.2969 Q760.2344,183.0469 760.2344,184.0781 L760.2344,185.1719 Q760.2344,186.4063 761.125,187.2266 Q762.0156,188.0469 763.6094,188.0469 Q764.5469,188.0469 765.2031,187.7969 Q765.5938,187.6406 766.0156,187.2031 Q766.2813,186.9375 766.4297,186.8594 Q766.5781,186.7813 766.7813,186.7813 Q767.1094,186.7813 767.3672,187.0391 Q767.625,187.2969 767.625,187.6406 Q767.625,187.9844 767.2813,188.3906 Q766.7813,188.9688 765.9844,189.2969 Q764.9063,189.75 763.6094,189.75 Q762.0938,189.75 760.8906,189.125 Q759.9063,188.625 759.2188,187.5547 Q758.5313,186.4844 758.5313,185.2031 L758.5313,184.0469 Q758.5313,182.7188 759.1484,181.5703 Q759.7656,180.4219 760.8594,179.8047 Q761.9531,179.1875 763.1875,179.1875 Q763.9219,179.1875 764.5703,179.3516 Q765.2188,179.5156 765.7656,179.875 Z " fill="#000000"/><text fill="#000000" font-family="sans-serif" font-size="14" lengthAdjust="spacing" textLength="37" x="777" y="189.7285">IniFile</text><line style="stroke:#181818;stroke-width:0.5;" x1="749" x2="816" y1="200" y2="200"/><line style="stroke:#181818;stroke-width:0.5;" x1="749" x2="816" y1="208" y2="208"/></g><!--MD5=[d6207198cce69febe883b1dce65d01a1]
class IniSection--><g id="elem_IniSection"><rect codeLine="37" fill="#F1F1F1" height="48" id="IniSection" rx="2.5" ry="2.5" style="stroke:#181818;stroke-width:0.5;" width="93" x="805" y="373"/><ellipse cx="820" cy="389" fill="#ADD1B2" rx="11" ry="11" style="stroke:#181818;stroke-width:1.0;"/><path d="M822.7656,384.875 Q822.9219,384.6563 823.1094,384.5469 Q823.2969,384.4375 823.5156,384.4375 Q823.8906,384.4375 824.125,384.6953 Q824.3594,384.9531 824.3594,385.5625 L824.3594,387.0156 Q824.3594,387.625 824.125,387.8906 Q823.8906,388.1563 823.5156,388.1563 Q823.1719,388.1563 822.9688,387.9531 Q822.7656,387.7656 822.6563,387.25 Q822.6094,386.8906 822.4219,386.7031 Q822.0938,386.3281 821.4844,386.1094 Q820.875,385.8906 820.25,385.8906 Q819.4844,385.8906 818.8516,386.2188 Q818.2188,386.5469 817.7266,387.2969 Q817.2344,388.0469 817.2344,389.0781 L817.2344,390.1719 Q817.2344,391.4063 818.125,392.2266 Q819.0156,393.0469 820.6094,393.0469 Q821.5469,393.0469 822.2031,392.7969 Q822.5938,392.6406 823.0156,392.2031 Q823.2813,391.9375 823.4297,391.8594 Q823.5781,391.7813 823.7813,391.7813 Q824.1094,391.7813 824.3672,392.0391 Q824.625,392.2969 824.625,392.6406 Q824.625,392.9844 824.2813,393.3906 Q823.7813,393.9688 822.9844,394.2969 Q821.9063,394.75 820.6094,394.75 Q819.0938,394.75 817.8906,394.125 Q816.9063,393.625 816.2188,392.5547 Q815.5313,391.4844 815.5313,390.2031 L815.5313,389.0469 Q815.5313,387.7188 816.1484,386.5703 Q816.7656,385.4219 817.8594,384.8047 Q818.9531,384.1875 820.1875,384.1875 Q820.9219,384.1875 821.5703,384.3516 Q822.2188,384.5156 822.7656,384.875 Z " fill="#000000"/><text fill="#000000" font-family="sans-serif" font-size="14" lengthAdjust="spacing" textLength="61" x="834" y="394.7285">IniSection</text><line style="stroke:#181818;stroke-width:0.5;" x1="806" x2="897" y1="405" y2="405"/><line style="stroke:#181818;stroke-width:0.5;" x1="806" x2="897" y1="413" y2="413"/></g><!--MD5=[e3e99a18f832b8bfe8c6c1c33e99e423]
class NoneIniSection--><g id="elem_NoneIniSection"><rect codeLine="38" fill="#F1F1F1" height="48" id="NoneIniSection" rx="2.5" ry="2.5" style="stroke:#181818;stroke-width:0.5;" width="126" x="788.5" y="525"/><ellipse cx="803.5" cy="541" fill="#ADD1B2" rx="11" ry="11" style="stroke:#181818;stroke-width:1.0;"/><path d="M806.2656,536.875 Q806.4219,536.6563 806.6094,536.5469 Q806.7969,536.4375 807.0156,536.4375 Q807.3906,536.4375 807.625,536.6953 Q807.8594,536.9531 807.8594,537.5625 L807.8594,539.0156 Q807.8594,539.625 807.625,539.8906 Q807.3906,540.1563 807.0156,540.1563 Q806.6719,540.1563 806.4688,539.9531 Q806.2656,539.7656 806.1563,539.25 Q806.1094,538.8906 805.9219,538.7031 Q805.5938,538.3281 804.9844,538.1094 Q804.375,537.8906 803.75,537.8906 Q802.9844,537.8906 802.3516,538.2188 Q801.7188,538.5469 801.2266,539.2969 Q800.7344,540.0469 800.7344,541.0781 L800.7344,542.1719 Q800.7344,543.4063 801.625,544.2266 Q802.5156,545.0469 804.1094,545.0469 Q805.0469,545.0469 805.7031,544.7969 Q806.0938,544.6406 806.5156,544.2031 Q806.7813,543.9375 806.9297,543.8594 Q807.0781,543.7813 807.2813,543.7813 Q807.6094,543.7813 807.8672,544.0391 Q808.125,544.2969 808.125,544.6406 Q808.125,544.9844 807.7813,545.3906 Q807.2813,545.9688 806.4844,546.2969 Q805.4063,546.75 804.1094,546.75 Q802.5938,546.75 801.3906,546.125 Q800.4063,545.625 799.7188,544.5547 Q799.0313,543.4844 799.0313,542.2031 L799.0313,541.0469 Q799.0313,539.7188 799.6484,538.5703 Q800.2656,537.4219 801.3594,536.8047 Q802.4531,536.1875 803.6875,536.1875 Q804.4219,536.1875 805.0703,536.3516 Q805.7188,536.5156 806.2656,536.875 Z " fill="#000000"/><text fill="#000000" font-family="sans-serif" font-size="14" lengthAdjust="spacing" textLength="94" x="817.5" y="546.7285">NoneIniSection</text><line style="stroke:#181818;stroke-width:0.5;" x1="789.5" x2="913.5" y1="557" y2="557"/><line style="stroke:#181818;stroke-width:0.5;" x1="789.5" x2="913.5" y1="565" y2="565"/></g><!--MD5=[f0440e131f146a5b3e310a27873509ba]
class ActualIniSection--><g id="elem_ActualIniSection"><rect codeLine="39" fill="#F1F1F1" height="48" id="ActualIniSection" rx="2.5" ry="2.5" style="stroke:#181818;stroke-width:0.5;" width="132" x="949.5" y="525"/><ellipse cx="964.5" cy="541" fill="#ADD1B2" rx="11" ry="11" style="stroke:#181818;stroke-width:1.0;"/><path d="M967.2656,536.875 Q967.4219,536.6563 967.6094,536.5469 Q967.7969,536.4375 968.0156,536.4375 Q968.3906,536.4375 968.625,536.6953 Q968.8594,536.9531 968.8594,537.5625 L968.8594,539.0156 Q968.8594,539.625 968.625,539.8906 Q968.3906,540.1563 968.0156,540.1563 Q967.6719,540.1563 967.4688,539.9531 Q967.2656,539.7656 967.1563,539.25 Q967.1094,538.8906 966.9219,538.7031 Q966.5938,538.3281 965.9844,538.1094 Q965.375,537.8906 964.75,537.8906 Q963.9844,537.8906 963.3516,538.2188 Q962.7188,538.5469 962.2266,539.2969 Q961.7344,540.0469 961.7344,541.0781 L961.7344,542.1719 Q961.7344,543.4063 962.625,544.2266 Q963.5156,545.0469 965.1094,545.0469 Q966.0469,545.0469 966.7031,544.7969 Q967.0938,544.6406 967.5156,544.2031 Q967.7813,543.9375 967.9297,543.8594 Q968.0781,543.7813 968.2813,543.7813 Q968.6094,543.7813 968.8672,544.0391 Q969.125,544.2969 969.125,544.6406 Q969.125,544.9844 968.7813,545.3906 Q968.2813,545.9688 967.4844,546.2969 Q966.4063,546.75 965.1094,546.75 Q963.5938,546.75 962.3906,546.125 Q961.4063,545.625 960.7188,544.5547 Q960.0313,543.4844 960.0313,542.2031 L960.0313,541.0469 Q960.0313,539.7188 960.6484,538.5703 Q961.2656,537.4219 962.3594,536.8047 Q963.4531,536.1875 964.6875,536.1875 Q965.4219,536.1875 966.0703,536.3516 Q966.7188,536.5156 967.2656,536.875 Z " fill="#000000"/><text fill="#000000" font-family="sans-serif" font-size="14" lengthAdjust="spacing" textLength="100" x="978.5" y="546.7285">ActualIniSection</text><line style="stroke:#181818;stroke-width:0.5;" x1="950.5" x2="1080.5" y1="557" y2="557"/><line style="stroke:#181818;stroke-width:0.5;" x1="950.5" x2="1080.5" y1="565" y2="565"/></g><!--MD5=[715128bba345a62fb0ee618baa868826]
class JsonFile--><g id="elem_JsonFile"><rect codeLine="40" fill="#F1F1F1" height="48" id="JsonFile" rx="2.5" ry="2.5" style="stroke:#181818;stroke-width:0.5;" width="84" x="669.5" y="525"/><ellipse cx="684.5" cy="541" fill="#ADD1B2" rx="11" ry="11" style="stroke:#181818;stroke-width:1.0;"/><path d="M687.2656,536.875 Q687.4219,536.6563 687.6094,536.5469 Q687.7969,536.4375 688.0156,536.4375 Q688.3906,536.4375 688.625,536.6953 Q688.8594,536.9531 688.8594,537.5625 L688.8594,539.0156 Q688.8594,539.625 688.625,539.8906 Q688.3906,540.1563 688.0156,540.1563 Q687.6719,540.1563 687.4688,539.9531 Q687.2656,539.7656 687.1563,539.25 Q687.1094,538.8906 686.9219,538.7031 Q686.5938,538.3281 685.9844,538.1094 Q685.375,537.8906 684.75,537.8906 Q683.9844,537.8906 683.3516,538.2188 Q682.7188,538.5469 682.2266,539.2969 Q681.7344,540.0469 681.7344,541.0781 L681.7344,542.1719 Q681.7344,543.4063 682.625,544.2266 Q683.5156,545.0469 685.1094,545.0469 Q686.0469,545.0469 686.7031,544.7969 Q687.0938,544.6406 687.5156,544.2031 Q687.7813,543.9375 687.9297,543.8594 Q688.0781,543.7813 688.2813,543.7813 Q688.6094,543.7813 688.8672,544.0391 Q689.125,544.2969 689.125,544.6406 Q689.125,544.9844 688.7813,545.3906 Q688.2813,545.9688 687.4844,546.2969 Q686.4063,546.75 685.1094,546.75 Q683.5938,546.75 682.3906,546.125 Q681.4063,545.625 680.7188,544.5547 Q680.0313,543.4844 680.0313,542.2031 L680.0313,541.0469 Q680.0313,539.7188 680.6484,538.5703 Q681.2656,537.4219 682.3594,536.8047 Q683.4531,536.1875 684.6875,536.1875 Q685.4219,536.1875 686.0703,536.3516 Q686.7188,536.5156 687.2656,536.875 Z " fill="#000000"/><text fill="#000000" font-family="sans-serif" font-size="14" lengthAdjust="spacing" textLength="52" x="698.5" y="546.7285">JsonFile</text><line style="stroke:#181818;stroke-width:0.5;" x1="670.5" x2="752.5" y1="557" y2="557"/><line style="stroke:#181818;stroke-width:0.5;" x1="670.5" x2="752.5" y1="565" y2="565"/></g><!--MD5=[3fee75583bb7a64f68d843a3c9534ab3]
class Node--><g id="elem_Node"><rect codeLine="42" fill="#F1F1F1" height="136.0469" id="Node" rx="2.5" ry="2.5" style="stroke:#181818;stroke-width:0.5;" width="176" x="450.5" y="329"/><ellipse cx="517.75" cy="345" fill="#ADD1B2" rx="11" ry="11" style="stroke:#181818;stroke-width:1.0;"/><path d="M520.5156,340.875 Q520.6719,340.6563 520.8594,340.5469 Q521.0469,340.4375 521.2656,340.4375 Q521.6406,340.4375 521.875,340.6953 Q522.1094,340.9531 522.1094,341.5625 L522.1094,343.0156 Q522.1094,343.625 521.875,343.8906 Q521.6406,344.1563 521.2656,344.1563 Q520.9219,344.1563 520.7188,343.9531 Q520.5156,343.7656 520.4063,343.25 Q520.3594,342.8906 520.1719,342.7031 Q519.8438,342.3281 519.2344,342.1094 Q518.625,341.8906 518,341.8906 Q517.2344,341.8906 516.6016,342.2188 Q515.9688,342.5469 515.4766,343.2969 Q514.9844,344.0469 514.9844,345.0781 L514.9844,346.1719 Q514.9844,347.4063 515.875,348.2266 Q516.7656,349.0469 518.3594,349.0469 Q519.2969,349.0469 519.9531,348.7969 Q520.3438,348.6406 520.7656,348.2031 Q521.0313,347.9375 521.1797,347.8594 Q521.3281,347.7813 521.5313,347.7813 Q521.8594,347.7813 522.1172,348.0391 Q522.375,348.2969 522.375,348.6406 Q522.375,348.9844 522.0313,349.3906 Q521.5313,349.9688 520.7344,350.2969 Q519.6563,350.75 518.3594,350.75 Q516.8438,350.75 515.6406,350.125 Q514.6563,349.625 513.9688,348.5547 Q513.2813,347.4844 513.2813,346.2031 L513.2813,345.0469 Q513.2813,343.7188 513.8984,342.5703 Q514.5156,341.4219 515.6094,340.8047 Q516.7031,340.1875 517.9375,340.1875 Q518.6719,340.1875 519.3203,340.3516 Q519.9688,340.5156 520.5156,340.875 Z " fill="#000000"/><text fill="#000000" font-family="sans-serif" font-size="14" lengthAdjust="spacing" textLength="33" x="538.25" y="350.7285">Node</text><line style="stroke:#181818;stroke-width:0.5;" x1="451.5" x2="625.5" y1="361" y2="361"/><text fill="#000000" font-family="sans-serif" font-size="14" lengthAdjust="spacing" textLength="31" x="456.5" y="379.5332">table</text><text fill="#000000" font-family="sans-serif" font-size="14" lengthAdjust="spacing" textLength="16" x="456.5" y="397.1426">db</text><text fill="#000000" font-family="sans-serif" font-size="14" lengthAdjust="spacing" textLength="48" x="456.5" y="414.752">exclude</text><line style="stroke:#181818;stroke-width:0.5;" x1="451.5" x2="625.5" y1="421.8281" y2="421.8281"/><text fill="#000000" font-family="sans-serif" font-size="14" lengthAdjust="spacing" textLength="88" x="456.5" y="440.3613">save(int level)</text><text fill="#000000" font-family="sans-serif" font-size="14" lengthAdjust="spacing" textLength="164" x="456.5" y="457.9707">is_excluded(str atr_name)</text></g><!--MD5=[62bea649ba5fd8c3c7e8807a92628a40]
link Db to Storage--><g id="link_Db_Storage"><path codeLine="51" d="M249.83,192 C254.74,192 259.65,192 264.56,192 " fill="none" id="Db-to-Storage" style="stroke:#181818;stroke-width:1.0;"/><polygon fill="none" points="264.74,185,284.74,192,264.74,199,264.74,185" style="stroke:#181818;stroke-width:1.0;"/></g><!--MD5=[f99c02d12937b74020b8240a398a8d23]
link GresDb to Db--><g id="link_GresDb_Db"><path codeLine="52" d="M182.5,55.12 C182.5,76.88 182.5,110.24 182.5,138.46 " fill="none" id="GresDb-to-Db" style="stroke:#181818;stroke-width:1.0;"/><polygon fill="none" points="189.5,138.76,182.5,158.76,175.5,138.76,189.5,138.76" style="stroke:#181818;stroke-width:1.0;"/></g><!--MD5=[a335d8c56f8d19a4561fc9d26229b7a3]
link LiteDb to Db--><g id="link_LiteDb_Db"><path codeLine="53" d="M80.15,192 C85.19,192 90.23,192 95.27,192 " fill="none" id="LiteDb-to-Db" style="stroke:#181818;stroke-width:1.0;"/><polygon fill="none" points="95.33,185,115.33,192,95.33,199,95.33,185" style="stroke:#181818;stroke-width:1.0;"/></g><!--MD5=[1ccc123cd51227ade960b8cbb501f504]
link Db to Table--><g id="link_Db_Table"><path codeLine="54" d="M187.7105,237.0868 C187.7105,237.0868 198.21,325.86 202.22,359.83 " fill="none" id="Db-Table" style="stroke:#181818;stroke-width:1.0;"/><polygon fill="#181818" points="203.76,372.82,206.6732,363.4118,203.1716,367.8547,198.7288,364.3532,203.76,372.82" style="stroke:#181818;stroke-width:1.0;"/><line style="stroke:#181818;stroke-width:1.0;" x1="203.1716" x2="202.235" y1="367.8547" y2="359.915"/><polygon fill="none" points="186.3,225.17,183.033,231.5986,187.7105,237.0868,190.9775,230.6582,186.3,225.17" style="stroke:#181818;stroke-width:1.0;"/></g><!--MD5=[06bc641697eb23114d71b656d69d464d]
reverse link Storage to Savable--><g id="link_Storage_Savable"><path codeLine="55" d="M344.77,289.21 C344.67,305.81 345.03,322.61 345.84,337.81 " fill="none" id="Storage-backto-Savable" style="stroke:#181818;stroke-width:1.0;"/><polygon fill="none" points="337.77,289.04,345.11,269.17,351.77,289.28,337.77,289.04" style="stroke:#181818;stroke-width:1.0;"/></g><!--MD5=[a171a7bcc152a8da2ec5a834ac4d66cd]
link Storage to Savable--><g id="link_Storage_Savable"><path codeLine="56" d="M370.8968,281.1668 C370.8968,281.1668 370.96,310.88 370.46,324.5 " fill="none" id="Storage-Savable" style="stroke:#181818;stroke-width:1.0;"/><polygon fill="#181818" points="369.84,337.81,374.2511,329.0042,370.0708,332.8153,366.2597,328.635,369.84,337.81" style="stroke:#181818;stroke-width:1.0;"/><line style="stroke:#181818;stroke-width:1.0;" x1="370.0708" x2="370.445" y1="332.8153" y2="324.82"/><polygon fill="none" points="370.62,269.17,366.7595,275.2607,370.8968,281.1668,374.7574,275.0761,370.62,269.17" style="stroke:#181818;stroke-width:1.0;"/></g><!--MD5=[c0c5e12ee215e209b572df56d584ba94]
reverse link Savable to FileStorage--><g id="link_Savable_FileStorage"><path codeLine="57" d="M413.1,323.63 C424.16,313.61 436.56,304.8 450,299 C521.83,268.03 554.52,267.24 626,299 C655.75,312.22 679.72,340.93 695.18,363.87 " fill="none" id="Savable-backto-FileStorage" style="stroke:#181818;stroke-width:1.0;"/><polygon fill="none" points="417.97,328.66,398.88,337.85,408.07,318.76,417.97,328.66" style="stroke:#181818;stroke-width:1.0;"/></g><!--MD5=[51c4a94d86ae9d54b3fcd092e527d563]
link IniFile to FileStorage--><g id="link_IniFile_FileStorage"><path codeLine="58" d="M774.7,216.29 C764.29,247.36 745.57,303.25 731.76,344.48 " fill="none" id="IniFile-to-FileStorage" style="stroke:#181818;stroke-width:1.0;"/><polygon fill="none" points="738.33,346.91,725.34,363.65,725.05,342.46,738.33,346.91" style="stroke:#181818;stroke-width:1.0;"/></g><!--MD5=[764386c5854af0a0d6c251f5ecc12e7c]
link IniFile to IniSection--><g id="link_IniFile_IniSection"><path codeLine="59" d="M794.2819,227.6516 C794.2819,227.6516 826.82,323.38 839.39,360.36 " fill="none" id="IniFile-IniSection" style="stroke:#181818;stroke-width:1.0;"/><polygon fill="#181818" points="843.68,372.98,844.5673,363.1712,842.0692,368.2466,836.9938,365.7485,843.68,372.98" style="stroke:#181818;stroke-width:1.0;"/><line style="stroke:#181818;stroke-width:1.0;" x1="842.0692" x2="839.495" y1="368.2466" y2="360.675"/><polygon fill="none" points="790.42,216.29,788.5637,223.2581,794.2819,227.6516,796.1381,220.6835,790.42,216.29" style="stroke:#181818;stroke-width:1.0;"/></g><!--MD5=[265649f1a879299a7f631cebf484d54c]
reverse link IniSection to NoneIniSection--><g id="link_IniSection_NoneIniSection"><path codeLine="60" d="M851.5,441.49 C851.5,468.61 851.5,502.45 851.5,524.62 " fill="none" id="IniSection-backto-NoneIniSection" style="stroke:#181818;stroke-width:1.0;"/><polygon fill="none" points="844.5,441.11,851.5,421.11,858.5,441.11,844.5,441.11" style="stroke:#181818;stroke-width:1.0;"/></g><!--MD5=[cc3929c0204d2be74472dd64268dac44]
reverse link IniSection to ActualIniSection--><g id="link_IniSection_ActualIniSection"><path codeLine="61" d="M891.74,434.8 C922.5,462.94 963.95,500.85 990.21,524.86 " fill="none" id="IniSection-backto-ActualIniSection" style="stroke:#181818;stroke-width:1.0;"/><polygon fill="none" points="886.8,439.77,876.77,421.11,896.25,429.44,886.8,439.77" style="stroke:#181818;stroke-width:1.0;"/></g><!--MD5=[a458a97d701919896b953fef19b5ac47]
reverse link FileStorage to JsonFile--><g id="link_FileStorage_JsonFile"><path codeLine="62" d="M713.45,450.3 C712.95,475.67 712.36,504.87 711.97,524.69 " fill="none" id="FileStorage-backto-JsonFile" style="stroke:#181818;stroke-width:1.0;"/><polygon fill="none" points="706.46,450.03,713.86,430.18,720.46,450.31,706.46,450.03" style="stroke:#181818;stroke-width:1.0;"/></g><!--MD5=[e527005c2b6ea5a209a486f8a584f00b]
link Table to Savable--><g id="link_Table_Savable"><path codeLine="63" d="M240.71,397 C253.48,397 266.26,397 279.03,397 " fill="none" id="Table-to-Savable" style="stroke:#181818;stroke-width:1.0;"/><polygon fill="none" points="279.11,390,299.11,397,279.11,404,279.11,390" style="stroke:#181818;stroke-width:1.0;"/></g><!--MD5=[51f38624dca375147f54fa729a19e73a]
link GresTable to Table--><g id="link_GresTable_Table"><path codeLine="64" d="M137.24,397 C142.28,397 147.31,397 152.35,397 " fill="none" id="GresTable-to-Table" style="stroke:#181818;stroke-width:1.0;"/><polygon fill="none" points="152.41,390,172.41,397,152.41,404,152.41,390" style="stroke:#181818;stroke-width:1.0;"/></g><!--MD5=[b8132b73519e6306962e830082501983]
reverse link Table to LiteTable--><g id="link_Table_LiteTable"><path codeLine="65" d="M190.87,439.88 C180.64,467.26 167.67,502.01 159.23,524.62 " fill="none" id="Table-backto-LiteTable" style="stroke:#181818;stroke-width:1.0;"/><polygon fill="none" points="184.32,437.4,197.87,421.11,197.44,442.29,184.32,437.4" style="stroke:#181818;stroke-width:1.0;"/></g><!--MD5=[898f62776bc99e1c278a663791d8a7e2]
link Table to TableHeader--><g id="link_Table_TableHeader"><path codeLine="66" d="M219.13,421.11 C233.72,447.79 257.69,491.65 273.29,520.18 " fill="none" id="Table-to-TableHeader" style="stroke:#181818;stroke-width:1.0;"/><polygon fill="#181818" points="275.72,524.62,274.9085,514.8046,273.3197,520.2338,267.8906,518.6451,275.72,524.62" style="stroke:#181818;stroke-width:1.0;"/></g><!--MD5=[b255d7e3895c07749ef7df1fca958c42]
reverse link Savable to Node--><g id="link_Savable_Node"><path codeLine="67" d="M436.05,397 C440.81,397 445.57,397 450.33,397 " fill="none" id="Savable-backto-Node" style="stroke:#181818;stroke-width:1.0;"/><polygon fill="none" points="435.83,404,415.83,397,435.83,390,435.83,404" style="stroke:#181818;stroke-width:1.0;"/></g><!--MD5=[5fba4b337d51fe203cd457259c7fd2bb]
reverse link Savable to TableHeader--><g id="link_Savable_TableHeader"><path codeLine="68" d="M322.27,474.6 C313.85,492.89 305.5,511.05 299.2,524.73 " fill="none" id="Savable-backto-TableHeader" style="stroke:#181818;stroke-width:1.0;"/><polygon fill="none" points="315.91,471.67,330.63,456.42,328.63,477.52,315.91,471.67" style="stroke:#181818;stroke-width:1.0;"/></g><!--MD5=[8f9cc1c9f398c994aff6bc54f7862ee3]
link TableHeader to TableColumn--><g id="link_TableHeader_TableColumn"><path codeLine="69" d="M357.63,549 C357.63,549 364.36,549 367.19,549 " fill="none" id="TableHeader-TableColumn" style="stroke:#181818;stroke-width:1.0;"/><polygon fill="#181818" points="380.46,549,371.46,545,375.46,549,371.46,553,380.46,549" style="stroke:#181818;stroke-width:1.0;"/><line style="stroke:#181818;stroke-width:1.0;" x1="375.46" x2="367.46" y1="549" y2="549"/><polygon fill="none" points="345.63,549,351.63,553,357.63,549,351.63,545,345.63,549" style="stroke:#181818;stroke-width:1.0;"/></g><!--MD5=[dc8ea39670c93db972e1cde5acd5ca00]
reverse link Savable to TableColumn--><g id="link_Savable_TableColumn"><path codeLine="70" d="M398.55,474.02 C408.53,492.51 418.47,510.91 425.94,524.73 " fill="none" id="Savable-backto-TableColumn" style="stroke:#181818;stroke-width:1.0;"/><polygon fill="none" points="392.39,477.35,389.05,456.42,404.71,470.7,392.39,477.35" style="stroke:#181818;stroke-width:1.0;"/></g><!--MD5=[9f0e494566447cf29b32f46db32b3410]
@startuml
class Storage{    
    put(Savable storage)
    put_all(List[Savable])
    search(Object)
    delete(Objest)
    execute(str script='')
    name
}

class Db{
    init(str connect_str)
}

class GresDb{}
class LiteDb{}

class Savable{    
    storage
    save(int level=0)
    serialize()
    deserialize()    
}

class Table{}

class GresTable{}
class LiteTable{}

class TableHeader{}
class TableColumn{}

class FileStorage{
    init(str path)
}

class IniFile{}
class IniSection{}
class NoneIniSection{}
class ActualIniSection{}
class JsonFile{}

class Node{
    table
    db
    exclude
    save(int level)
    is_excluded(str atr_name)
}


Storage <|-left- Db
    Db <|-up- GresDb
    Db <|-left- LiteDb
    Db o-down-> Table
Storage <|- - Savable
Storage o- -> Savable
    Savable <|-right- FileStorage
        FileStorage <|-up- IniFile
            IniFile o- -> IniSection
                IniSection <|- - NoneIniSection
                IniSection <|- - ActualIniSection
        FileStorage <|- - JsonFile
    Savable <|-left- Table
        Table <|-left- GresTable
        Table <|- - LiteTable
        Table - -> TableHeader
    Savable <|-right- Node
    Savable <|- - TableHeader
        TableHeader o-right-> TableColumn
    Savable <|- - TableColumn
@enduml

PlantUML version 1.2022.7(Mon Aug 22 20:01:30 MSK 2022)
(GPL source distribution)
Java Runtime: Java(TM) SE Runtime Environment
JVM: Java HotSpot(TM) 64-Bit Server VM
Default Encoding: Cp1251
Language: en
Country: US
--></g></svg>