<?xml version="1.0" encoding="UTF-8" standalone="no"?><svg xmlns="http://www.w3.org/2000/svg" xmlns:xlink="http://www.w3.org/1999/xlink" contentScriptType="application/ecmascript" contentStyleType="text/css" height="462px" preserveAspectRatio="none" style="width:563px;height:462px;background:#FFFFFF;" version="1.1" viewBox="0 0 563 462" width="563px" zoomAndPan="magnify"><defs><filter height="300%" id="f1krzmy7spwkno" width="300%" x="-1" y="-1"><feGaussianBlur result="blurOut" stdDeviation="2.0"/><feColorMatrix in="blurOut" result="blurOut2" type="matrix" values="0 0 0 0 0 0 0 0 0 0 0 0 0 0 0 0 0 0 .4 0"/><feOffset dx="4.0" dy="4.0" in="blurOut2" result="blurOut3"/><feBlend in="SourceGraphic" in2="blurOut3" mode="normal"/></filter></defs><g><!--MD5=[82c521ab5f33e54093245fc7e5a7a937]
class Epure--><rect codeLine="7" fill="#FEFECE" filter="url(#f1krzmy7spwkno)" height="61.8359" id="Epure" style="stroke:#A80036;stroke-width:1.5;" width="65" x="304" y="115"/><ellipse cx="319" cy="131" fill="#ADD1B2" rx="11" ry="11" style="stroke:#A80036;stroke-width:1.0;"/><path d="M321.7656,126.875 Q321.9219,126.6563 322.1094,126.5469 Q322.2969,126.4375 322.5156,126.4375 Q322.8906,126.4375 323.125,126.7031 Q323.3594,126.9531 323.3594,127.5625 L323.3594,129.0156 Q323.3594,129.625 323.125,129.8906 Q322.8906,130.1563 322.5156,130.1563 Q322.1719,130.1563 321.9688,129.9531 Q321.7656,129.7656 321.6563,129.25 Q321.6094,128.8906 321.4219,128.7031 Q321.0938,128.3281 320.4844,128.1094 Q319.875,127.8906 319.25,127.8906 Q318.4844,127.8906 317.8438,128.2188 Q317.2188,128.5469 316.7188,129.2969 Q316.2344,130.0469 316.2344,131.0781 L316.2344,132.1719 Q316.2344,133.4063 317.125,134.2344 Q318.0156,135.0469 319.6094,135.0469 Q320.5469,135.0469 321.2031,134.7969 Q321.5938,134.6406 322.0156,134.2031 Q322.2813,133.9375 322.4219,133.8594 Q322.5781,133.7813 322.7813,133.7813 Q323.1094,133.7813 323.3594,134.0469 Q323.625,134.2969 323.625,134.6406 Q323.625,134.9844 323.2813,135.3906 Q322.7813,135.9688 321.9844,136.2969 Q320.9063,136.75 319.6094,136.75 Q318.0938,136.75 316.8906,136.125 Q315.9063,135.625 315.2188,134.5625 Q314.5313,133.4844 314.5313,132.2031 L314.5313,131.0469 Q314.5313,129.7188 315.1406,128.5781 Q315.7656,127.4219 316.8594,126.8125 Q317.9531,126.1875 319.1875,126.1875 Q319.9219,126.1875 320.5625,126.3594 Q321.2188,126.5156 321.7656,126.875 Z " fill="#000000"/><text fill="#000000" font-family="sans-serif" font-size="12" lengthAdjust="spacing" textLength="33" x="333" y="135.9102">Epure</text><line style="stroke:#A80036;stroke-width:1.5;" x1="305" x2="368" y1="147" y2="147"/><text fill="#000000" font-family="sans-serif" font-size="11" lengthAdjust="spacing" textLength="25" x="310" y="162.4189">mask</text><line style="stroke:#A80036;stroke-width:1.5;" x1="305" x2="368" y1="168.8359" y2="168.8359"/><!--MD5=[e54af2a3dfd72988f8d17c8016ff295d]
class Box--><rect codeLine="11" fill="#FEFECE" filter="url(#f1krzmy7spwkno)" height="103.3438" id="Box" style="stroke:#A80036;stroke-width:1.5;" width="52" x="256.5" y="237"/><ellipse cx="271.5" cy="253" fill="#ADD1B2" rx="11" ry="11" style="stroke:#A80036;stroke-width:1.0;"/><path d="M274.2656,248.875 Q274.4219,248.6563 274.6094,248.5469 Q274.7969,248.4375 275.0156,248.4375 Q275.3906,248.4375 275.625,248.7031 Q275.8594,248.9531 275.8594,249.5625 L275.8594,251.0156 Q275.8594,251.625 275.625,251.8906 Q275.3906,252.1563 275.0156,252.1563 Q274.6719,252.1563 274.4688,251.9531 Q274.2656,251.7656 274.1563,251.25 Q274.1094,250.8906 273.9219,250.7031 Q273.5938,250.3281 272.9844,250.1094 Q272.375,249.8906 271.75,249.8906 Q270.9844,249.8906 270.3438,250.2188 Q269.7188,250.5469 269.2188,251.2969 Q268.7344,252.0469 268.7344,253.0781 L268.7344,254.1719 Q268.7344,255.4063 269.625,256.2344 Q270.5156,257.0469 272.1094,257.0469 Q273.0469,257.0469 273.7031,256.7969 Q274.0938,256.6406 274.5156,256.2031 Q274.7813,255.9375 274.9219,255.8594 Q275.0781,255.7813 275.2813,255.7813 Q275.6094,255.7813 275.8594,256.0469 Q276.125,256.2969 276.125,256.6406 Q276.125,256.9844 275.7813,257.3906 Q275.2813,257.9688 274.4844,258.2969 Q273.4063,258.75 272.1094,258.75 Q270.5938,258.75 269.3906,258.125 Q268.4063,257.625 267.7188,256.5625 Q267.0313,255.4844 267.0313,254.2031 L267.0313,253.0469 Q267.0313,251.7188 267.6406,250.5781 Q268.2656,249.4219 269.3594,248.8125 Q270.4531,248.1875 271.6875,248.1875 Q272.4219,248.1875 273.0625,248.3594 Q273.7188,248.5156 274.2656,248.875 Z " fill="#000000"/><text fill="#000000" font-family="sans-serif" font-size="12" lengthAdjust="spacing" textLength="20" x="285.5" y="257.9102">Box</text><line style="stroke:#A80036;stroke-width:1.5;" x1="257.5" x2="307.5" y1="269" y2="269"/><line style="stroke:#A80036;stroke-width:1.5;" x1="257.5" x2="307.5" y1="277" y2="277"/><text fill="#000000" font-family="sans-serif" font-size="11" lengthAdjust="spacing" textLength="26" x="262.5" y="292.4189">add()</text><text fill="#000000" font-family="sans-serif" font-size="11" lengthAdjust="spacing" textLength="23" x="262.5" y="306.2549">get()</text><text fill="#000000" font-family="sans-serif" font-size="11" lengthAdjust="spacing" textLength="33" x="262.5" y="320.0908">store()</text><text fill="#000000" font-family="sans-serif" font-size="11" lengthAdjust="spacing" textLength="28" x="262.5" y="333.9268">take()</text><!--MD5=[48f2f5951e10ac7f55be83389f58afab]
class EpureBox--><rect fill="#FEFECE" filter="url(#f1krzmy7spwkno)" height="48" id="EpureBox" style="stroke:#A80036;stroke-width:1.5;" width="85" x="281" y="7"/><ellipse cx="296" cy="23" fill="#ADD1B2" rx="11" ry="11" style="stroke:#A80036;stroke-width:1.0;"/><path d="M298.7656,18.875 Q298.9219,18.6563 299.1094,18.5469 Q299.2969,18.4375 299.5156,18.4375 Q299.8906,18.4375 300.125,18.7031 Q300.3594,18.9531 300.3594,19.5625 L300.3594,21.0156 Q300.3594,21.625 300.125,21.8906 Q299.8906,22.1563 299.5156,22.1563 Q299.1719,22.1563 298.9688,21.9531 Q298.7656,21.7656 298.6563,21.25 Q298.6094,20.8906 298.4219,20.7031 Q298.0938,20.3281 297.4844,20.1094 Q296.875,19.8906 296.25,19.8906 Q295.4844,19.8906 294.8438,20.2188 Q294.2188,20.5469 293.7188,21.2969 Q293.2344,22.0469 293.2344,23.0781 L293.2344,24.1719 Q293.2344,25.4063 294.125,26.2344 Q295.0156,27.0469 296.6094,27.0469 Q297.5469,27.0469 298.2031,26.7969 Q298.5938,26.6406 299.0156,26.2031 Q299.2813,25.9375 299.4219,25.8594 Q299.5781,25.7813 299.7813,25.7813 Q300.1094,25.7813 300.3594,26.0469 Q300.625,26.2969 300.625,26.6406 Q300.625,26.9844 300.2813,27.3906 Q299.7813,27.9688 298.9844,28.2969 Q297.9063,28.75 296.6094,28.75 Q295.0938,28.75 293.8906,28.125 Q292.9063,27.625 292.2188,26.5625 Q291.5313,25.4844 291.5313,24.2031 L291.5313,23.0469 Q291.5313,21.7188 292.1406,20.5781 Q292.7656,19.4219 293.8594,18.8125 Q294.9531,18.1875 296.1875,18.1875 Q296.9219,18.1875 297.5625,18.3594 Q298.2188,18.5156 298.7656,18.875 Z " fill="#000000"/><text fill="#000000" font-family="sans-serif" font-size="12" lengthAdjust="spacing" textLength="53" x="310" y="27.9102">EpureBox</text><line style="stroke:#A80036;stroke-width:1.5;" x1="282" x2="365" y1="39" y2="39"/><line style="stroke:#A80036;stroke-width:1.5;" x1="282" x2="365" y1="47" y2="47"/><!--MD5=[204a995c784cbe6b3a7450752a2139a2]
class Primitive--><rect fill="#FEFECE" filter="url(#f1krzmy7spwkno)" height="48" id="Primitive" style="stroke:#A80036;stroke-width:1.5;" width="79" x="190" y="122"/><ellipse cx="205" cy="138" fill="#ADD1B2" rx="11" ry="11" style="stroke:#A80036;stroke-width:1.0;"/><path d="M207.7656,133.875 Q207.9219,133.6563 208.1094,133.5469 Q208.2969,133.4375 208.5156,133.4375 Q208.8906,133.4375 209.125,133.7031 Q209.3594,133.9531 209.3594,134.5625 L209.3594,136.0156 Q209.3594,136.625 209.125,136.8906 Q208.8906,137.1563 208.5156,137.1563 Q208.1719,137.1563 207.9688,136.9531 Q207.7656,136.7656 207.6563,136.25 Q207.6094,135.8906 207.4219,135.7031 Q207.0938,135.3281 206.4844,135.1094 Q205.875,134.8906 205.25,134.8906 Q204.4844,134.8906 203.8438,135.2188 Q203.2188,135.5469 202.7188,136.2969 Q202.2344,137.0469 202.2344,138.0781 L202.2344,139.1719 Q202.2344,140.4063 203.125,141.2344 Q204.0156,142.0469 205.6094,142.0469 Q206.5469,142.0469 207.2031,141.7969 Q207.5938,141.6406 208.0156,141.2031 Q208.2813,140.9375 208.4219,140.8594 Q208.5781,140.7813 208.7813,140.7813 Q209.1094,140.7813 209.3594,141.0469 Q209.625,141.2969 209.625,141.6406 Q209.625,141.9844 209.2813,142.3906 Q208.7813,142.9688 207.9844,143.2969 Q206.9063,143.75 205.6094,143.75 Q204.0938,143.75 202.8906,143.125 Q201.9063,142.625 201.2188,141.5625 Q200.5313,140.4844 200.5313,139.2031 L200.5313,138.0469 Q200.5313,136.7188 201.1406,135.5781 Q201.7656,134.4219 202.8594,133.8125 Q203.9531,133.1875 205.1875,133.1875 Q205.9219,133.1875 206.5625,133.3594 Q207.2188,133.5156 207.7656,133.875 Z " fill="#000000"/><text fill="#000000" font-family="sans-serif" font-size="12" lengthAdjust="spacing" textLength="47" x="219" y="142.9102">Primitive</text><line style="stroke:#A80036;stroke-width:1.5;" x1="191" x2="268" y1="154" y2="154"/><line style="stroke:#A80036;stroke-width:1.5;" x1="191" x2="268" y1="162" y2="162"/><!--MD5=[11b747870319a085bc745183e08c5f76]
class Storage--><rect fill="#FEFECE" filter="url(#f1krzmy7spwkno)" height="48" id="Storage" style="stroke:#A80036;stroke-width:1.5;" width="75" x="105" y="264.5"/><ellipse cx="120" cy="280.5" fill="#ADD1B2" rx="11" ry="11" style="stroke:#A80036;stroke-width:1.0;"/><path d="M122.7656,276.375 Q122.9219,276.1563 123.1094,276.0469 Q123.2969,275.9375 123.5156,275.9375 Q123.8906,275.9375 124.125,276.2031 Q124.3594,276.4531 124.3594,277.0625 L124.3594,278.5156 Q124.3594,279.125 124.125,279.3906 Q123.8906,279.6563 123.5156,279.6563 Q123.1719,279.6563 122.9688,279.4531 Q122.7656,279.2656 122.6563,278.75 Q122.6094,278.3906 122.4219,278.2031 Q122.0938,277.8281 121.4844,277.6094 Q120.875,277.3906 120.25,277.3906 Q119.4844,277.3906 118.8438,277.7188 Q118.2188,278.0469 117.7188,278.7969 Q117.2344,279.5469 117.2344,280.5781 L117.2344,281.6719 Q117.2344,282.9063 118.125,283.7344 Q119.0156,284.5469 120.6094,284.5469 Q121.5469,284.5469 122.2031,284.2969 Q122.5938,284.1406 123.0156,283.7031 Q123.2813,283.4375 123.4219,283.3594 Q123.5781,283.2813 123.7813,283.2813 Q124.1094,283.2813 124.3594,283.5469 Q124.625,283.7969 124.625,284.1406 Q124.625,284.4844 124.2813,284.8906 Q123.7813,285.4688 122.9844,285.7969 Q121.9063,286.25 120.6094,286.25 Q119.0938,286.25 117.8906,285.625 Q116.9063,285.125 116.2188,284.0625 Q115.5313,282.9844 115.5313,281.7031 L115.5313,280.5469 Q115.5313,279.2188 116.1406,278.0781 Q116.7656,276.9219 117.8594,276.3125 Q118.9531,275.6875 120.1875,275.6875 Q120.9219,275.6875 121.5625,275.8594 Q122.2188,276.0156 122.7656,276.375 Z " fill="#000000"/><text fill="#000000" font-family="sans-serif" font-size="12" lengthAdjust="spacing" textLength="43" x="134" y="285.4102">Storage</text><line style="stroke:#A80036;stroke-width:1.5;" x1="106" x2="179" y1="296.5" y2="296.5"/><line style="stroke:#A80036;stroke-width:1.5;" x1="106" x2="179" y1="304.5" y2="304.5"/><!--MD5=[c0b936abb008b3271898d4186b5531e4]
class Table--><rect fill="#FEFECE" filter="url(#f1krzmy7spwkno)" height="48" id="Table" style="stroke:#A80036;stroke-width:1.5;" width="63" x="7" y="264.5"/><ellipse cx="22" cy="280.5" fill="#ADD1B2" rx="11" ry="11" style="stroke:#A80036;stroke-width:1.0;"/><path d="M24.7656,276.375 Q24.9219,276.1563 25.1094,276.0469 Q25.2969,275.9375 25.5156,275.9375 Q25.8906,275.9375 26.125,276.2031 Q26.3594,276.4531 26.3594,277.0625 L26.3594,278.5156 Q26.3594,279.125 26.125,279.3906 Q25.8906,279.6563 25.5156,279.6563 Q25.1719,279.6563 24.9688,279.4531 Q24.7656,279.2656 24.6563,278.75 Q24.6094,278.3906 24.4219,278.2031 Q24.0938,277.8281 23.4844,277.6094 Q22.875,277.3906 22.25,277.3906 Q21.4844,277.3906 20.8438,277.7188 Q20.2188,278.0469 19.7188,278.7969 Q19.2344,279.5469 19.2344,280.5781 L19.2344,281.6719 Q19.2344,282.9063 20.125,283.7344 Q21.0156,284.5469 22.6094,284.5469 Q23.5469,284.5469 24.2031,284.2969 Q24.5938,284.1406 25.0156,283.7031 Q25.2813,283.4375 25.4219,283.3594 Q25.5781,283.2813 25.7813,283.2813 Q26.1094,283.2813 26.3594,283.5469 Q26.625,283.7969 26.625,284.1406 Q26.625,284.4844 26.2813,284.8906 Q25.7813,285.4688 24.9844,285.7969 Q23.9063,286.25 22.6094,286.25 Q21.0938,286.25 19.8906,285.625 Q18.9063,285.125 18.2188,284.0625 Q17.5313,282.9844 17.5313,281.7031 L17.5313,280.5469 Q17.5313,279.2188 18.1406,278.0781 Q18.7656,276.9219 19.8594,276.3125 Q20.9531,275.6875 22.1875,275.6875 Q22.9219,275.6875 23.5625,275.8594 Q24.2188,276.0156 24.7656,276.375 Z " fill="#000000"/><text fill="#000000" font-family="sans-serif" font-size="12" lengthAdjust="spacing" textLength="31" x="36" y="285.4102">Table</text><line style="stroke:#A80036;stroke-width:1.5;" x1="8" x2="69" y1="296.5" y2="296.5"/><line style="stroke:#A80036;stroke-width:1.5;" x1="8" x2="69" y1="304.5" y2="304.5"/><!--MD5=[db0e56d58f1cf8c07751f3c8f869ffa5]
class NoSql--><rect fill="#FEFECE" filter="url(#f1krzmy7spwkno)" height="48" id="NoSql" style="stroke:#A80036;stroke-width:1.5;" width="66" x="99.5" y="400"/><ellipse cx="114.5" cy="416" fill="#ADD1B2" rx="11" ry="11" style="stroke:#A80036;stroke-width:1.0;"/><path d="M117.2656,411.875 Q117.4219,411.6563 117.6094,411.5469 Q117.7969,411.4375 118.0156,411.4375 Q118.3906,411.4375 118.625,411.7031 Q118.8594,411.9531 118.8594,412.5625 L118.8594,414.0156 Q118.8594,414.625 118.625,414.8906 Q118.3906,415.1563 118.0156,415.1563 Q117.6719,415.1563 117.4688,414.9531 Q117.2656,414.7656 117.1563,414.25 Q117.1094,413.8906 116.9219,413.7031 Q116.5938,413.3281 115.9844,413.1094 Q115.375,412.8906 114.75,412.8906 Q113.9844,412.8906 113.3438,413.2188 Q112.7188,413.5469 112.2188,414.2969 Q111.7344,415.0469 111.7344,416.0781 L111.7344,417.1719 Q111.7344,418.4063 112.625,419.2344 Q113.5156,420.0469 115.1094,420.0469 Q116.0469,420.0469 116.7031,419.7969 Q117.0938,419.6406 117.5156,419.2031 Q117.7813,418.9375 117.9219,418.8594 Q118.0781,418.7813 118.2813,418.7813 Q118.6094,418.7813 118.8594,419.0469 Q119.125,419.2969 119.125,419.6406 Q119.125,419.9844 118.7813,420.3906 Q118.2813,420.9688 117.4844,421.2969 Q116.4063,421.75 115.1094,421.75 Q113.5938,421.75 112.3906,421.125 Q111.4063,420.625 110.7188,419.5625 Q110.0313,418.4844 110.0313,417.2031 L110.0313,416.0469 Q110.0313,414.7188 110.6406,413.5781 Q111.2656,412.4219 112.3594,411.8125 Q113.4531,411.1875 114.6875,411.1875 Q115.4219,411.1875 116.0625,411.3594 Q116.7188,411.5156 117.2656,411.875 Z " fill="#000000"/><text fill="#000000" font-family="sans-serif" font-size="12" lengthAdjust="spacing" textLength="34" x="128.5" y="420.9102">NoSql</text><line style="stroke:#A80036;stroke-width:1.5;" x1="100.5" x2="164.5" y1="432" y2="432"/><line style="stroke:#A80036;stroke-width:1.5;" x1="100.5" x2="164.5" y1="440" y2="440"/><!--MD5=[a96594a83e2ecdc78cbf17c2ddf01934]
class Category--><rect fill="#FEFECE" filter="url(#f1krzmy7spwkno)" height="48" id="Category" style="stroke:#A80036;stroke-width:1.5;" width="81" x="382" y="264.5"/><ellipse cx="397" cy="280.5" fill="#ADD1B2" rx="11" ry="11" style="stroke:#A80036;stroke-width:1.0;"/><path d="M399.7656,276.375 Q399.9219,276.1563 400.1094,276.0469 Q400.2969,275.9375 400.5156,275.9375 Q400.8906,275.9375 401.125,276.2031 Q401.3594,276.4531 401.3594,277.0625 L401.3594,278.5156 Q401.3594,279.125 401.125,279.3906 Q400.8906,279.6563 400.5156,279.6563 Q400.1719,279.6563 399.9688,279.4531 Q399.7656,279.2656 399.6563,278.75 Q399.6094,278.3906 399.4219,278.2031 Q399.0938,277.8281 398.4844,277.6094 Q397.875,277.3906 397.25,277.3906 Q396.4844,277.3906 395.8438,277.7188 Q395.2188,278.0469 394.7188,278.7969 Q394.2344,279.5469 394.2344,280.5781 L394.2344,281.6719 Q394.2344,282.9063 395.125,283.7344 Q396.0156,284.5469 397.6094,284.5469 Q398.5469,284.5469 399.2031,284.2969 Q399.5938,284.1406 400.0156,283.7031 Q400.2813,283.4375 400.4219,283.3594 Q400.5781,283.2813 400.7813,283.2813 Q401.1094,283.2813 401.3594,283.5469 Q401.625,283.7969 401.625,284.1406 Q401.625,284.4844 401.2813,284.8906 Q400.7813,285.4688 399.9844,285.7969 Q398.9063,286.25 397.6094,286.25 Q396.0938,286.25 394.8906,285.625 Q393.9063,285.125 393.2188,284.0625 Q392.5313,282.9844 392.5313,281.7031 L392.5313,280.5469 Q392.5313,279.2188 393.1406,278.0781 Q393.7656,276.9219 394.8594,276.3125 Q395.9531,275.6875 397.1875,275.6875 Q397.9219,275.6875 398.5625,275.8594 Q399.2188,276.0156 399.7656,276.375 Z " fill="#000000"/><text fill="#000000" font-family="sans-serif" font-size="12" lengthAdjust="spacing" textLength="49" x="411" y="285.4102">Category</text><line style="stroke:#A80036;stroke-width:1.5;" x1="383" x2="462" y1="296.5" y2="296.5"/><line style="stroke:#A80036;stroke-width:1.5;" x1="383" x2="462" y1="304.5" y2="304.5"/><!--MD5=[b426800acd6da9b6ecac1a582c45d730]
class Ref--><rect fill="#FEFECE" filter="url(#f1krzmy7spwkno)" height="48" id="Ref" style="stroke:#A80036;stroke-width:1.5;" width="51" x="498" y="264.5"/><ellipse cx="513" cy="280.5" fill="#ADD1B2" rx="11" ry="11" style="stroke:#A80036;stroke-width:1.0;"/><path d="M515.7656,276.375 Q515.9219,276.1563 516.1094,276.0469 Q516.2969,275.9375 516.5156,275.9375 Q516.8906,275.9375 517.125,276.2031 Q517.3594,276.4531 517.3594,277.0625 L517.3594,278.5156 Q517.3594,279.125 517.125,279.3906 Q516.8906,279.6563 516.5156,279.6563 Q516.1719,279.6563 515.9688,279.4531 Q515.7656,279.2656 515.6563,278.75 Q515.6094,278.3906 515.4219,278.2031 Q515.0938,277.8281 514.4844,277.6094 Q513.875,277.3906 513.25,277.3906 Q512.4844,277.3906 511.8438,277.7188 Q511.2188,278.0469 510.7188,278.7969 Q510.2344,279.5469 510.2344,280.5781 L510.2344,281.6719 Q510.2344,282.9063 511.125,283.7344 Q512.0156,284.5469 513.6094,284.5469 Q514.5469,284.5469 515.2031,284.2969 Q515.5938,284.1406 516.0156,283.7031 Q516.2813,283.4375 516.4219,283.3594 Q516.5781,283.2813 516.7813,283.2813 Q517.1094,283.2813 517.3594,283.5469 Q517.625,283.7969 517.625,284.1406 Q517.625,284.4844 517.2813,284.8906 Q516.7813,285.4688 515.9844,285.7969 Q514.9063,286.25 513.6094,286.25 Q512.0938,286.25 510.8906,285.625 Q509.9063,285.125 509.2188,284.0625 Q508.5313,282.9844 508.5313,281.7031 L508.5313,280.5469 Q508.5313,279.2188 509.1406,278.0781 Q509.7656,276.9219 510.8594,276.3125 Q511.9531,275.6875 513.1875,275.6875 Q513.9219,275.6875 514.5625,275.8594 Q515.2188,276.0156 515.7656,276.375 Z " fill="#000000"/><text fill="#000000" font-family="sans-serif" font-size="12" lengthAdjust="spacing" textLength="19" x="527" y="285.4102">Ref</text><line style="stroke:#A80036;stroke-width:1.5;" x1="499" x2="548" y1="296.5" y2="296.5"/><line style="stroke:#A80036;stroke-width:1.5;" x1="499" x2="548" y1="304.5" y2="304.5"/><!--MD5=[685d6ec15f3caaaf2ddc1ca659765db7]
class Mask--><rect fill="#FEFECE" filter="url(#f1krzmy7spwkno)" height="48" id="Mask" style="stroke:#A80036;stroke-width:1.5;" width="61" x="201" y="400"/><ellipse cx="216" cy="416" fill="#ADD1B2" rx="11" ry="11" style="stroke:#A80036;stroke-width:1.0;"/><path d="M218.7656,411.875 Q218.9219,411.6563 219.1094,411.5469 Q219.2969,411.4375 219.5156,411.4375 Q219.8906,411.4375 220.125,411.7031 Q220.3594,411.9531 220.3594,412.5625 L220.3594,414.0156 Q220.3594,414.625 220.125,414.8906 Q219.8906,415.1563 219.5156,415.1563 Q219.1719,415.1563 218.9688,414.9531 Q218.7656,414.7656 218.6563,414.25 Q218.6094,413.8906 218.4219,413.7031 Q218.0938,413.3281 217.4844,413.1094 Q216.875,412.8906 216.25,412.8906 Q215.4844,412.8906 214.8438,413.2188 Q214.2188,413.5469 213.7188,414.2969 Q213.2344,415.0469 213.2344,416.0781 L213.2344,417.1719 Q213.2344,418.4063 214.125,419.2344 Q215.0156,420.0469 216.6094,420.0469 Q217.5469,420.0469 218.2031,419.7969 Q218.5938,419.6406 219.0156,419.2031 Q219.2813,418.9375 219.4219,418.8594 Q219.5781,418.7813 219.7813,418.7813 Q220.1094,418.7813 220.3594,419.0469 Q220.625,419.2969 220.625,419.6406 Q220.625,419.9844 220.2813,420.3906 Q219.7813,420.9688 218.9844,421.2969 Q217.9063,421.75 216.6094,421.75 Q215.0938,421.75 213.8906,421.125 Q212.9063,420.625 212.2188,419.5625 Q211.5313,418.4844 211.5313,417.2031 L211.5313,416.0469 Q211.5313,414.7188 212.1406,413.5781 Q212.7656,412.4219 213.8594,411.8125 Q214.9531,411.1875 216.1875,411.1875 Q216.9219,411.1875 217.5625,411.3594 Q218.2188,411.5156 218.7656,411.875 Z " fill="#000000"/><text fill="#000000" font-family="sans-serif" font-size="12" lengthAdjust="spacing" textLength="29" x="230" y="420.9102">Mask</text><line style="stroke:#A80036;stroke-width:1.5;" x1="202" x2="261" y1="432" y2="432"/><line style="stroke:#A80036;stroke-width:1.5;" x1="202" x2="261" y1="440" y2="440"/><!--MD5=[a3638c1e5b65d287ecad7f06f5c0f212]
class Role--><rect fill="#FEFECE" filter="url(#f1krzmy7spwkno)" height="48" id="Role" style="stroke:#A80036;stroke-width:1.5;" width="58" x="404.5" y="400"/><ellipse cx="419.5" cy="416" fill="#ADD1B2" rx="11" ry="11" style="stroke:#A80036;stroke-width:1.0;"/><path d="M422.2656,411.875 Q422.4219,411.6563 422.6094,411.5469 Q422.7969,411.4375 423.0156,411.4375 Q423.3906,411.4375 423.625,411.7031 Q423.8594,411.9531 423.8594,412.5625 L423.8594,414.0156 Q423.8594,414.625 423.625,414.8906 Q423.3906,415.1563 423.0156,415.1563 Q422.6719,415.1563 422.4688,414.9531 Q422.2656,414.7656 422.1563,414.25 Q422.1094,413.8906 421.9219,413.7031 Q421.5938,413.3281 420.9844,413.1094 Q420.375,412.8906 419.75,412.8906 Q418.9844,412.8906 418.3438,413.2188 Q417.7188,413.5469 417.2188,414.2969 Q416.7344,415.0469 416.7344,416.0781 L416.7344,417.1719 Q416.7344,418.4063 417.625,419.2344 Q418.5156,420.0469 420.1094,420.0469 Q421.0469,420.0469 421.7031,419.7969 Q422.0938,419.6406 422.5156,419.2031 Q422.7813,418.9375 422.9219,418.8594 Q423.0781,418.7813 423.2813,418.7813 Q423.6094,418.7813 423.8594,419.0469 Q424.125,419.2969 424.125,419.6406 Q424.125,419.9844 423.7813,420.3906 Q423.2813,420.9688 422.4844,421.2969 Q421.4063,421.75 420.1094,421.75 Q418.5938,421.75 417.3906,421.125 Q416.4063,420.625 415.7188,419.5625 Q415.0313,418.4844 415.0313,417.2031 L415.0313,416.0469 Q415.0313,414.7188 415.6406,413.5781 Q416.2656,412.4219 417.3594,411.8125 Q418.4531,411.1875 419.6875,411.1875 Q420.4219,411.1875 421.0625,411.3594 Q421.7188,411.5156 422.2656,411.875 Z " fill="#000000"/><text fill="#000000" font-family="sans-serif" font-size="12" lengthAdjust="spacing" textLength="26" x="433.5" y="420.9102">Role</text><line style="stroke:#A80036;stroke-width:1.5;" x1="405.5" x2="461.5" y1="432" y2="432"/><line style="stroke:#A80036;stroke-width:1.5;" x1="405.5" x2="461.5" y1="440" y2="440"/><!--MD5=[dab16d122782a892ddb6ee0eadcd68f0]
class Access--><rect fill="#FEFECE" filter="url(#f1krzmy7spwkno)" height="48" id="Access" style="stroke:#A80036;stroke-width:1.5;" width="72" x="297.5" y="400"/><ellipse cx="312.5" cy="416" fill="#ADD1B2" rx="11" ry="11" style="stroke:#A80036;stroke-width:1.0;"/><path d="M315.2656,411.875 Q315.4219,411.6563 315.6094,411.5469 Q315.7969,411.4375 316.0156,411.4375 Q316.3906,411.4375 316.625,411.7031 Q316.8594,411.9531 316.8594,412.5625 L316.8594,414.0156 Q316.8594,414.625 316.625,414.8906 Q316.3906,415.1563 316.0156,415.1563 Q315.6719,415.1563 315.4688,414.9531 Q315.2656,414.7656 315.1563,414.25 Q315.1094,413.8906 314.9219,413.7031 Q314.5938,413.3281 313.9844,413.1094 Q313.375,412.8906 312.75,412.8906 Q311.9844,412.8906 311.3438,413.2188 Q310.7188,413.5469 310.2188,414.2969 Q309.7344,415.0469 309.7344,416.0781 L309.7344,417.1719 Q309.7344,418.4063 310.625,419.2344 Q311.5156,420.0469 313.1094,420.0469 Q314.0469,420.0469 314.7031,419.7969 Q315.0938,419.6406 315.5156,419.2031 Q315.7813,418.9375 315.9219,418.8594 Q316.0781,418.7813 316.2813,418.7813 Q316.6094,418.7813 316.8594,419.0469 Q317.125,419.2969 317.125,419.6406 Q317.125,419.9844 316.7813,420.3906 Q316.2813,420.9688 315.4844,421.2969 Q314.4063,421.75 313.1094,421.75 Q311.5938,421.75 310.3906,421.125 Q309.4063,420.625 308.7188,419.5625 Q308.0313,418.4844 308.0313,417.2031 L308.0313,416.0469 Q308.0313,414.7188 308.6406,413.5781 Q309.2656,412.4219 310.3594,411.8125 Q311.4531,411.1875 312.6875,411.1875 Q313.4219,411.1875 314.0625,411.3594 Q314.7188,411.5156 315.2656,411.875 Z " fill="#000000"/><text fill="#000000" font-family="sans-serif" font-size="12" lengthAdjust="spacing" textLength="40" x="326.5" y="420.9102">Access</text><line style="stroke:#A80036;stroke-width:1.5;" x1="298.5" x2="368.5" y1="432" y2="432"/><line style="stroke:#A80036;stroke-width:1.5;" x1="298.5" x2="368.5" y1="440" y2="440"/><!--MD5=[dac0a69b15f476e13228099e8971fb80]
class Migration--><rect fill="#FEFECE" filter="url(#f1krzmy7spwkno)" height="48" id="Migration" style="stroke:#A80036;stroke-width:1.5;" width="82" x="401.5" y="7"/><ellipse cx="416.5" cy="23" fill="#ADD1B2" rx="11" ry="11" style="stroke:#A80036;stroke-width:1.0;"/><path d="M419.2656,18.875 Q419.4219,18.6563 419.6094,18.5469 Q419.7969,18.4375 420.0156,18.4375 Q420.3906,18.4375 420.625,18.7031 Q420.8594,18.9531 420.8594,19.5625 L420.8594,21.0156 Q420.8594,21.625 420.625,21.8906 Q420.3906,22.1563 420.0156,22.1563 Q419.6719,22.1563 419.4688,21.9531 Q419.2656,21.7656 419.1563,21.25 Q419.1094,20.8906 418.9219,20.7031 Q418.5938,20.3281 417.9844,20.1094 Q417.375,19.8906 416.75,19.8906 Q415.9844,19.8906 415.3438,20.2188 Q414.7188,20.5469 414.2188,21.2969 Q413.7344,22.0469 413.7344,23.0781 L413.7344,24.1719 Q413.7344,25.4063 414.625,26.2344 Q415.5156,27.0469 417.1094,27.0469 Q418.0469,27.0469 418.7031,26.7969 Q419.0938,26.6406 419.5156,26.2031 Q419.7813,25.9375 419.9219,25.8594 Q420.0781,25.7813 420.2813,25.7813 Q420.6094,25.7813 420.8594,26.0469 Q421.125,26.2969 421.125,26.6406 Q421.125,26.9844 420.7813,27.3906 Q420.2813,27.9688 419.4844,28.2969 Q418.4063,28.75 417.1094,28.75 Q415.5938,28.75 414.3906,28.125 Q413.4063,27.625 412.7188,26.5625 Q412.0313,25.4844 412.0313,24.2031 L412.0313,23.0469 Q412.0313,21.7188 412.6406,20.5781 Q413.2656,19.4219 414.3594,18.8125 Q415.4531,18.1875 416.6875,18.1875 Q417.4219,18.1875 418.0625,18.3594 Q418.7188,18.5156 419.2656,18.875 Z " fill="#000000"/><text fill="#000000" font-family="sans-serif" font-size="12" lengthAdjust="spacing" textLength="50" x="430.5" y="27.9102">Migration</text><line style="stroke:#A80036;stroke-width:1.5;" x1="402.5" x2="482.5" y1="39" y2="39"/><line style="stroke:#A80036;stroke-width:1.5;" x1="402.5" x2="482.5" y1="47" y2="47"/><!--MD5=[a0bf3eb66819985b5e778ef6b9e21e8b]
class BD--><rect fill="#FEFECE" filter="url(#f1krzmy7spwkno)" height="48" id="BD" style="stroke:#A80036;stroke-width:1.5;" width="49" x="418" y="122"/><ellipse cx="433" cy="138" fill="#ADD1B2" rx="11" ry="11" style="stroke:#A80036;stroke-width:1.0;"/><path d="M435.7656,133.875 Q435.9219,133.6563 436.1094,133.5469 Q436.2969,133.4375 436.5156,133.4375 Q436.8906,133.4375 437.125,133.7031 Q437.3594,133.9531 437.3594,134.5625 L437.3594,136.0156 Q437.3594,136.625 437.125,136.8906 Q436.8906,137.1563 436.5156,137.1563 Q436.1719,137.1563 435.9688,136.9531 Q435.7656,136.7656 435.6563,136.25 Q435.6094,135.8906 435.4219,135.7031 Q435.0938,135.3281 434.4844,135.1094 Q433.875,134.8906 433.25,134.8906 Q432.4844,134.8906 431.8438,135.2188 Q431.2188,135.5469 430.7188,136.2969 Q430.2344,137.0469 430.2344,138.0781 L430.2344,139.1719 Q430.2344,140.4063 431.125,141.2344 Q432.0156,142.0469 433.6094,142.0469 Q434.5469,142.0469 435.2031,141.7969 Q435.5938,141.6406 436.0156,141.2031 Q436.2813,140.9375 436.4219,140.8594 Q436.5781,140.7813 436.7813,140.7813 Q437.1094,140.7813 437.3594,141.0469 Q437.625,141.2969 437.625,141.6406 Q437.625,141.9844 437.2813,142.3906 Q436.7813,142.9688 435.9844,143.2969 Q434.9063,143.75 433.6094,143.75 Q432.0938,143.75 430.8906,143.125 Q429.9063,142.625 429.2188,141.5625 Q428.5313,140.4844 428.5313,139.2031 L428.5313,138.0469 Q428.5313,136.7188 429.1406,135.5781 Q429.7656,134.4219 430.8594,133.8125 Q431.9531,133.1875 433.1875,133.1875 Q433.9219,133.1875 434.5625,133.3594 Q435.2188,133.5156 435.7656,133.875 Z " fill="#000000"/><text fill="#000000" font-family="sans-serif" font-size="12" lengthAdjust="spacing" textLength="17" x="447" y="142.9102">BD</text><line style="stroke:#A80036;stroke-width:1.5;" x1="419" x2="466" y1="154" y2="154"/><line style="stroke:#A80036;stroke-width:1.5;" x1="419" x2="466" y1="162" y2="162"/><!--MD5=[a8fd47a5556434886f8e2bfebde1e08e]
link EpureBox to Epure--><path codeLine="19" d="M327.5315,67.0614 C327.5315,67.0614 330.23,90.53 331.51,101.59 " fill="none" id="EpureBox-Epure" style="stroke:#A80036;stroke-width:1.0;"/><polygon fill="#A80036" points="333,114.6,335.9452,105.2018,332.4285,109.6328,327.9976,106.1161,333,114.6" style="stroke:#A80036;stroke-width:1.0;"/><line style="stroke:#A80036;stroke-width:1.0;" x1="332.4285" x2="331.52" y1="109.6328" y2="101.68"/><polygon fill="#A80036" points="326.16,55.14,322.872,61.5578,327.5315,67.0614,330.8195,60.6435,326.16,55.14" style="stroke:#A80036;stroke-width:1.0;"/><!--MD5=[f92344d880b8e9c200f4f231c400aae8]
link Epure to Box--><path codeLine="21" d="M324.92,177.14 C318.74,193.2 310.96,213.46 303.75,232.22 " fill="none" id="Epure-to-Box" style="stroke:#A80036;stroke-width:1.0;"/><polygon fill="#A80036" points="301.93,236.96,308.9056,230.0073,303.7326,232.2962,301.4436,227.1232,301.93,236.96" style="stroke:#A80036;stroke-width:1.0;"/><!--MD5=[aca716dd19617447fb00ca7d5db64bf9]
link Primitive to Box--><path codeLine="22" d="M238.25,170.2 C243.23,183.41 249.77,200.72 256.28,217.98 " fill="none" id="Primitive-to-Box" style="stroke:#A80036;stroke-width:1.0;"/><polygon fill="none" points="262.88,215.67,263.39,236.85,249.79,220.61,262.88,215.67" style="stroke:#A80036;stroke-width:1.0;"/><!--MD5=[6e2cde80421961af7d92d05a9d4923fb]
link Box to Box--><path codeLine="25" d="M320.3308,263.5877 C320.3308,263.5877 343.5,272.11 343.5,288.5 C343.5,304.89 333.77,313.26 321.44,313.61 " fill="none" id="Box-Box" style="stroke:#A80036;stroke-width:1.0;"/><polygon fill="#A80036" points="308.52,311.29,316.6707,316.8186,313.4412,312.1743,318.0856,308.9447,308.52,311.29" style="stroke:#A80036;stroke-width:1.0;"/><line style="stroke:#A80036;stroke-width:1.0;" x1="313.4412" x2="321.315" y1="312.1743" y2="313.59"/><polygon fill="#A80036" points="308.52,265.71,315.1328,268.5858,320.3308,263.5877,313.718,260.7119,308.52,265.71" style="stroke:#A80036;stroke-width:1.0;"/><!--MD5=[108ad80295d2184add711487620b8a01]
link Storage to Box--><path codeLine="26" d="M180.23,288.5 C198.81,288.5 217.39,288.5 235.97,288.5 " fill="none" id="Storage-to-Box" style="stroke:#A80036;stroke-width:1.0;"/><polygon fill="none" points="236.13,281.5,256.13,288.5,236.13,295.5,236.13,281.5" style="stroke:#A80036;stroke-width:1.0;"/><!--MD5=[05309fd987834d6df49408a8def51c35]
link Table to Storage--><path codeLine="27" d="M70.19,288.5 C75.07,288.5 79.96,288.5 84.85,288.5 " fill="none" id="Table-to-Storage" style="stroke:#A80036;stroke-width:1.0;"/><polygon fill="none" points="84.93,281.5,104.93,288.5,84.93,295.5,84.93,281.5" style="stroke:#A80036;stroke-width:1.0;"/><!--MD5=[02cbf8de2d6e79acef69a1ca74b886b6]
reverse link Storage to NoSql--><path codeLine="28" d="M139.26,332.81 C137.59,355 135.63,381.15 134.26,399.56 " fill="none" id="Storage-backto-NoSql" style="stroke:#A80036;stroke-width:1.0;"/><polygon fill="none" points="132.28,332.18,140.76,312.75,146.24,333.22,132.28,332.18" style="stroke:#A80036;stroke-width:1.0;"/><!--MD5=[999d15f032d743bc0ba98e414132454b]
link Category to Ref--><path codeLine="30" d="M475.14,288.5 C475.14,288.5 481.63,288.5 484.28,288.5 " fill="none" id="Category-Ref" style="stroke:#A80036;stroke-width:1.0;"/><polygon fill="#A80036" points="497.56,288.5,488.56,284.5,492.56,288.5,488.56,292.5,497.56,288.5" style="stroke:#A80036;stroke-width:1.0;"/><line style="stroke:#A80036;stroke-width:1.0;" x1="492.56" x2="484.56" y1="288.5" y2="288.5"/><polygon fill="#A80036" points="463.14,288.5,469.14,292.5,475.14,288.5,469.14,284.5,463.14,288.5" style="stroke:#A80036;stroke-width:1.0;"/><!--MD5=[bc40acabe39ed56982f0dcd82adcf519]
reverse link Box to Category--><path codeLine="31" d="M328.96,288.5 C346.51,288.5 364.07,288.5 381.62,288.5 " fill="none" id="Box-backto-Category" style="stroke:#A80036;stroke-width:1.0;"/><polygon fill="none" points="328.75,295.5,308.75,288.5,328.75,281.5,328.75,295.5" style="stroke:#A80036;stroke-width:1.0;"/><!--MD5=[1324d8fe930c3cf36f3af222dcaa7aac]
link Box to Mask--><path codeLine="32" d="M263.07,340.35 C255.98,358.92 248.22,379.22 242.17,395.06 " fill="none" id="Box-to-Mask" style="stroke:#A80036;stroke-width:1.0;"/><polygon fill="#A80036" points="240.35,399.83,247.2999,392.8515,242.1353,395.1596,239.8273,389.995,240.35,399.83" style="stroke:#A80036;stroke-width:1.0;"/><!--MD5=[265b2031e2da21cdd0be02d42fa5c7f6]
reverse link Category to Role--><path codeLine="39" d="M426.07,332.81 C427.9,355 430.05,381.15 431.57,399.56 " fill="none" id="Category-backto-Role" style="stroke:#A80036;stroke-width:1.0;"/><polygon fill="none" points="419.08,333.26,424.42,312.75,433.03,332.11,419.08,333.26" style="stroke:#A80036;stroke-width:1.0;"/><!--MD5=[e25b0c96f2a3e10e48faa9ef0081d75d]
link Access to Role--><path codeLine="41" d="M369.83,424 C379.57,424 389.31,424 399.06,424 " fill="none" id="Access-to-Role" style="stroke:#A80036;stroke-width:1.0;"/><polygon fill="#A80036" points="404.15,424,395.15,420,399.15,424,395.15,428,404.15,424" style="stroke:#A80036;stroke-width:1.0;"/><!--MD5=[b9f12aa94b4e67c2d12b415847882adb]
reverse link Mask to Access--><path codeLine="42" d="M267.39,424 C277.35,424 287.32,424 297.28,424 " fill="none" id="Mask-backto-Access" style="stroke:#A80036;stroke-width:1.0;"/><polygon fill="#A80036" points="262.18,424,271.18,428,267.18,424,271.18,420,262.18,424" style="stroke:#A80036;stroke-width:1.0;"/><!--MD5=[8a8ba3d2a217c3fc9081735c416bfe07]
reverse link Box to Access--><path codeLine="43" d="M303.77,345.19 C311.09,364.33 318.88,384.72 324.65,399.83 " fill="none" id="Box-backto-Access" style="stroke:#A80036;stroke-width:1.0;"/><polygon fill="#A80036" points="301.93,340.35,301.4073,350.185,303.7153,345.0204,308.8799,347.3285,301.93,340.35" style="stroke:#A80036;stroke-width:1.0;"/><!--MD5=[50c36c8bd6cfdd792a753f020a84bbde]
link Migration to BD--><path codeLine="46" d="M442.5,55.14 C442.5,72.96 442.5,97.69 442.5,116.69 " fill="none" id="Migration-to-BD" style="stroke:#A80036;stroke-width:1.0;"/><polygon fill="#A80036" points="442.5,121.89,446.5,112.89,442.5,116.89,438.5,112.89,442.5,121.89" style="stroke:#A80036;stroke-width:1.0;"/><!--MD5=[9e46d42e72f9befd4f6727d875acdd4e]
link Migration to Epure--><path codeLine="47" d="M420.79,55.14 C405.81,71.11 385.64,92.61 368.78,110.58 " fill="none" id="Migration-to-Epure" style="stroke:#A80036;stroke-width:1.0;"/><polygon fill="#A80036" points="365.02,114.6,374.0936,110.7699,368.4397,110.9523,368.2573,105.2984,365.02,114.6" style="stroke:#A80036;stroke-width:1.0;"/><!--MD5=[344af4af7099bdff9c76ced3ca38d805]
@startuml
' enum box{
'     null(abstract)
'     this(parent)
'     Storage.get(storageName)
' }

class Epure{
    mask
}

class Box{
    add()
    get()
    store()
    take()
}

' Storage <|- - EpureStorage
EpureBox *- -> Epure
' Model - -> container
Epure - -> Box
Box <|-up- Primitive


Box *- -> Box
Box <|-left- Storage
Storage <|-left- Table
Storage <|- - NoSql

Category *-right-> Ref
Box <|-right- Category
Box - -> Mask


' Model - -> View
' Category <|- - View
' View o- -> Model

Category <|- - Role
' Access -up-> Node
    Access -right-> Role
    Access -left-> Mask
    Access -up-> Box
    ' Access -down-> Predicate

Migration - -> BD
Migration - -> Epure
@enduml

@startuml

class Epure{
    mask
}

class Box{
    add()
    get()
    store()
    take()
}

EpureBox *- -> Epure
Epure - -> Box
Box <|-up- Primitive


Box *- -> Box
Box <|-left- Storage
Storage <|-left- Table
Storage <|- - NoSql

Category *-right-> Ref
Box <|-right- Category
Box - -> Mask



Category <|- - Role
    Access -right-> Role
    Access -left-> Mask
    Access -up-> Box

Migration - -> BD
Migration - -> Epure
@enduml

PlantUML version 1.2021.7(Sun May 23 15:40:07 MSK 2021)
(GPL source distribution)
Java Runtime: OpenJDK Runtime Environment
JVM: OpenJDK 64-Bit Server VM
Default Encoding: Cp1251
Language: en
Country: US
--></g></svg>