<?xml version="1.0" encoding="UTF-8" standalone="no"?><svg xmlns="http://www.w3.org/2000/svg" xmlns:xlink="http://www.w3.org/1999/xlink" contentStyleType="text/css" height="615px" preserveAspectRatio="none" style="width:619px;height:615px;background:#FFFFFF;" version="1.1" viewBox="0 0 619 615" width="619px" zoomAndPan="magnify"><defs/><g><!--MD5=[82c521ab5f33e54093245fc7e5a7a937]
class Epure--><g id="elem_Epure"><rect codeLine="7" fill="#F1F1F1" height="224.0938" id="Epure" rx="2.5" ry="2.5" style="stroke:#181818;stroke-width:0.5;" width="142" x="276" y="7"/><ellipse cx="323.75" cy="23" fill="#ADD1B2" rx="11" ry="11" style="stroke:#181818;stroke-width:1.0;"/><path d="M326.5156,18.875 Q326.6719,18.6563 326.8594,18.5469 Q327.0469,18.4375 327.2656,18.4375 Q327.6406,18.4375 327.875,18.6953 Q328.1094,18.9531 328.1094,19.5625 L328.1094,21.0156 Q328.1094,21.625 327.875,21.8906 Q327.6406,22.1563 327.2656,22.1563 Q326.9219,22.1563 326.7188,21.9531 Q326.5156,21.7656 326.4063,21.25 Q326.3594,20.8906 326.1719,20.7031 Q325.8438,20.3281 325.2344,20.1094 Q324.625,19.8906 324,19.8906 Q323.2344,19.8906 322.6016,20.2188 Q321.9688,20.5469 321.4766,21.2969 Q320.9844,22.0469 320.9844,23.0781 L320.9844,24.1719 Q320.9844,25.4063 321.875,26.2266 Q322.7656,27.0469 324.3594,27.0469 Q325.2969,27.0469 325.9531,26.7969 Q326.3438,26.6406 326.7656,26.2031 Q327.0313,25.9375 327.1797,25.8594 Q327.3281,25.7813 327.5313,25.7813 Q327.8594,25.7813 328.1172,26.0391 Q328.375,26.2969 328.375,26.6406 Q328.375,26.9844 328.0313,27.3906 Q327.5313,27.9688 326.7344,28.2969 Q325.6563,28.75 324.3594,28.75 Q322.8438,28.75 321.6406,28.125 Q320.6563,27.625 319.9688,26.5547 Q319.2813,25.4844 319.2813,24.2031 L319.2813,23.0469 Q319.2813,21.7188 319.8984,20.5703 Q320.5156,19.4219 321.6094,18.8047 Q322.7031,18.1875 323.9375,18.1875 Q324.6719,18.1875 325.3203,18.3516 Q325.9688,18.5156 326.5156,18.875 Z " fill="#000000"/><text fill="#000000" font-family="sans-serif" font-size="14" lengthAdjust="spacing" textLength="38" x="344.25" y="28.7285">Epure</text><line style="stroke:#181818;stroke-width:0.5;" x1="277" x2="417" y1="39" y2="39"/><text fill="#000000" font-family="sans-serif" font-size="14" lengthAdjust="spacing" textLength="41" x="282" y="57.5332">parent</text><line style="stroke:#181818;stroke-width:0.5;" x1="277" x2="417" y1="64.6094" y2="64.6094"/><text fill="#000000" font-family="sans-serif" font-size="14" lengthAdjust="spacing" textLength="67" x="282" y="83.1426">__new__()</text><text fill="#000000" font-family="sans-serif" font-size="14" lengthAdjust="spacing" textLength="130" x="282" y="100.752">save(make, storage)</text><text fill="#000000" font-family="sans-serif" font-size="14" lengthAdjust="spacing" textLength="85" x="282" y="118.3613">take(storage)</text><text fill="#000000" font-family="sans-serif" font-size="14" lengthAdjust="spacing" textLength="97" x="282" y="135.9707">delete(storage)</text><text fill="#000000" font-family="sans-serif" font-size="14" lengthAdjust="spacing" textLength="4" x="282" y="153.5801"> </text><text fill="#000000" font-family="sans-serif" font-size="14" lengthAdjust="spacing" textLength="58" x="282" y="171.1895">storage()</text><text fill="#000000" font-family="sans-serif" font-size="14" lengthAdjust="spacing" textLength="4" x="282" y="188.7988"> </text><text fill="#000000" font-family="sans-serif" font-size="14" lengthAdjust="spacing" textLength="70" x="282" y="206.4082">pack(): row</text><text fill="#000000" font-family="sans-serif" font-size="14" lengthAdjust="spacing" textLength="78" x="282" y="224.0176">unpack(row)</text></g><!--MD5=[3fee75583bb7a64f68d843a3c9534ab3]
class Node--><g id="elem_Node"><rect codeLine="20" fill="#F1F1F1" height="100.8281" id="Node" rx="2.5" ry="2.5" style="stroke:#181818;stroke-width:0.5;" width="65" x="314.5" y="399"/><ellipse cx="329.5" cy="415" fill="#ADD1B2" rx="11" ry="11" style="stroke:#181818;stroke-width:1.0;"/><path d="M332.2656,410.875 Q332.4219,410.6563 332.6094,410.5469 Q332.7969,410.4375 333.0156,410.4375 Q333.3906,410.4375 333.625,410.6953 Q333.8594,410.9531 333.8594,411.5625 L333.8594,413.0156 Q333.8594,413.625 333.625,413.8906 Q333.3906,414.1563 333.0156,414.1563 Q332.6719,414.1563 332.4688,413.9531 Q332.2656,413.7656 332.1563,413.25 Q332.1094,412.8906 331.9219,412.7031 Q331.5938,412.3281 330.9844,412.1094 Q330.375,411.8906 329.75,411.8906 Q328.9844,411.8906 328.3516,412.2188 Q327.7188,412.5469 327.2266,413.2969 Q326.7344,414.0469 326.7344,415.0781 L326.7344,416.1719 Q326.7344,417.4063 327.625,418.2266 Q328.5156,419.0469 330.1094,419.0469 Q331.0469,419.0469 331.7031,418.7969 Q332.0938,418.6406 332.5156,418.2031 Q332.7813,417.9375 332.9297,417.8594 Q333.0781,417.7813 333.2813,417.7813 Q333.6094,417.7813 333.8672,418.0391 Q334.125,418.2969 334.125,418.6406 Q334.125,418.9844 333.7813,419.3906 Q333.2813,419.9688 332.4844,420.2969 Q331.4063,420.75 330.1094,420.75 Q328.5938,420.75 327.3906,420.125 Q326.4063,419.625 325.7188,418.5547 Q325.0313,417.4844 325.0313,416.2031 L325.0313,415.0469 Q325.0313,413.7188 325.6484,412.5703 Q326.2656,411.4219 327.3594,410.8047 Q328.4531,410.1875 329.6875,410.1875 Q330.4219,410.1875 331.0703,410.3516 Q331.7188,410.5156 332.2656,410.875 Z " fill="#000000"/><text fill="#000000" font-family="sans-serif" font-size="14" lengthAdjust="spacing" textLength="33" x="343.5" y="420.7285">Node</text><line style="stroke:#181818;stroke-width:0.5;" x1="315.5" x2="378.5" y1="431" y2="431"/><text fill="#000000" font-family="sans-serif" font-size="14" lengthAdjust="spacing" textLength="33" x="320.5" y="449.5332">mask</text><line style="stroke:#181818;stroke-width:0.5;" x1="315.5" x2="378.5" y1="456.6094" y2="456.6094"/><text fill="#000000" font-family="sans-serif" font-size="14" lengthAdjust="spacing" textLength="34" x="320.5" y="475.1426">add()</text><text fill="#000000" font-family="sans-serif" font-size="14" lengthAdjust="spacing" textLength="30" x="320.5" y="492.752">get()</text></g><!--MD5=[11b747870319a085bc745183e08c5f76]
class Storage--><g id="elem_Storage"><rect fill="#F1F1F1" height="48" id="Storage" rx="2.5" ry="2.5" style="stroke:#181818;stroke-width:0.5;" width="82" x="197" y="425.5"/><ellipse cx="212" cy="441.5" fill="#ADD1B2" rx="11" ry="11" style="stroke:#181818;stroke-width:1.0;"/><path d="M214.7656,437.375 Q214.9219,437.1563 215.1094,437.0469 Q215.2969,436.9375 215.5156,436.9375 Q215.8906,436.9375 216.125,437.1953 Q216.3594,437.4531 216.3594,438.0625 L216.3594,439.5156 Q216.3594,440.125 216.125,440.3906 Q215.8906,440.6563 215.5156,440.6563 Q215.1719,440.6563 214.9688,440.4531 Q214.7656,440.2656 214.6563,439.75 Q214.6094,439.3906 214.4219,439.2031 Q214.0938,438.8281 213.4844,438.6094 Q212.875,438.3906 212.25,438.3906 Q211.4844,438.3906 210.8516,438.7188 Q210.2188,439.0469 209.7266,439.7969 Q209.2344,440.5469 209.2344,441.5781 L209.2344,442.6719 Q209.2344,443.9063 210.125,444.7266 Q211.0156,445.5469 212.6094,445.5469 Q213.5469,445.5469 214.2031,445.2969 Q214.5938,445.1406 215.0156,444.7031 Q215.2813,444.4375 215.4297,444.3594 Q215.5781,444.2813 215.7813,444.2813 Q216.1094,444.2813 216.3672,444.5391 Q216.625,444.7969 216.625,445.1406 Q216.625,445.4844 216.2813,445.8906 Q215.7813,446.4688 214.9844,446.7969 Q213.9063,447.25 212.6094,447.25 Q211.0938,447.25 209.8906,446.625 Q208.9063,446.125 208.2188,445.0547 Q207.5313,443.9844 207.5313,442.7031 L207.5313,441.5469 Q207.5313,440.2188 208.1484,439.0703 Q208.7656,437.9219 209.8594,437.3047 Q210.9531,436.6875 212.1875,436.6875 Q212.9219,436.6875 213.5703,436.8516 Q214.2188,437.0156 214.7656,437.375 Z " fill="#000000"/><text fill="#000000" font-family="sans-serif" font-size="14" lengthAdjust="spacing" textLength="50" x="226" y="447.2285">Storage</text><line style="stroke:#181818;stroke-width:0.5;" x1="198" x2="278" y1="457.5" y2="457.5"/><line style="stroke:#181818;stroke-width:0.5;" x1="198" x2="278" y1="465.5" y2="465.5"/></g><!--MD5=[c0b936abb008b3271898d4186b5531e4]
class Table--><g id="elem_Table"><rect fill="#F1F1F1" height="48" id="Table" rx="2.5" ry="2.5" style="stroke:#181818;stroke-width:0.5;" width="68" x="94" y="425.5"/><ellipse cx="109" cy="441.5" fill="#ADD1B2" rx="11" ry="11" style="stroke:#181818;stroke-width:1.0;"/><path d="M111.7656,437.375 Q111.9219,437.1563 112.1094,437.0469 Q112.2969,436.9375 112.5156,436.9375 Q112.8906,436.9375 113.125,437.1953 Q113.3594,437.4531 113.3594,438.0625 L113.3594,439.5156 Q113.3594,440.125 113.125,440.3906 Q112.8906,440.6563 112.5156,440.6563 Q112.1719,440.6563 111.9688,440.4531 Q111.7656,440.2656 111.6563,439.75 Q111.6094,439.3906 111.4219,439.2031 Q111.0938,438.8281 110.4844,438.6094 Q109.875,438.3906 109.25,438.3906 Q108.4844,438.3906 107.8516,438.7188 Q107.2188,439.0469 106.7266,439.7969 Q106.2344,440.5469 106.2344,441.5781 L106.2344,442.6719 Q106.2344,443.9063 107.125,444.7266 Q108.0156,445.5469 109.6094,445.5469 Q110.5469,445.5469 111.2031,445.2969 Q111.5938,445.1406 112.0156,444.7031 Q112.2813,444.4375 112.4297,444.3594 Q112.5781,444.2813 112.7813,444.2813 Q113.1094,444.2813 113.3672,444.5391 Q113.625,444.7969 113.625,445.1406 Q113.625,445.4844 113.2813,445.8906 Q112.7813,446.4688 111.9844,446.7969 Q110.9063,447.25 109.6094,447.25 Q108.0938,447.25 106.8906,446.625 Q105.9063,446.125 105.2188,445.0547 Q104.5313,443.9844 104.5313,442.7031 L104.5313,441.5469 Q104.5313,440.2188 105.1484,439.0703 Q105.7656,437.9219 106.8594,437.3047 Q107.9531,436.6875 109.1875,436.6875 Q109.9219,436.6875 110.5703,436.8516 Q111.2188,437.0156 111.7656,437.375 Z " fill="#000000"/><text fill="#000000" font-family="sans-serif" font-size="14" lengthAdjust="spacing" textLength="36" x="123" y="447.2285">Table</text><line style="stroke:#181818;stroke-width:0.5;" x1="95" x2="161" y1="457.5" y2="457.5"/><line style="stroke:#181818;stroke-width:0.5;" x1="95" x2="161" y1="465.5" y2="465.5"/></g><!--MD5=[0ca46a7537f90897319c6a02d0780c9c]
class DBEpure--><g id="elem_DBEpure"><rect fill="#F1F1F1" height="48" id="DBEpure" rx="2.5" ry="2.5" style="stroke:#181818;stroke-width:0.5;" width="89" x="151.5" y="95"/><ellipse cx="166.5" cy="111" fill="#ADD1B2" rx="11" ry="11" style="stroke:#181818;stroke-width:1.0;"/><path d="M169.2656,106.875 Q169.4219,106.6563 169.6094,106.5469 Q169.7969,106.4375 170.0156,106.4375 Q170.3906,106.4375 170.625,106.6953 Q170.8594,106.9531 170.8594,107.5625 L170.8594,109.0156 Q170.8594,109.625 170.625,109.8906 Q170.3906,110.1563 170.0156,110.1563 Q169.6719,110.1563 169.4688,109.9531 Q169.2656,109.7656 169.1563,109.25 Q169.1094,108.8906 168.9219,108.7031 Q168.5938,108.3281 167.9844,108.1094 Q167.375,107.8906 166.75,107.8906 Q165.9844,107.8906 165.3516,108.2188 Q164.7188,108.5469 164.2266,109.2969 Q163.7344,110.0469 163.7344,111.0781 L163.7344,112.1719 Q163.7344,113.4063 164.625,114.2266 Q165.5156,115.0469 167.1094,115.0469 Q168.0469,115.0469 168.7031,114.7969 Q169.0938,114.6406 169.5156,114.2031 Q169.7813,113.9375 169.9297,113.8594 Q170.0781,113.7813 170.2813,113.7813 Q170.6094,113.7813 170.8672,114.0391 Q171.125,114.2969 171.125,114.6406 Q171.125,114.9844 170.7813,115.3906 Q170.2813,115.9688 169.4844,116.2969 Q168.4063,116.75 167.1094,116.75 Q165.5938,116.75 164.3906,116.125 Q163.4063,115.625 162.7188,114.5547 Q162.0313,113.4844 162.0313,112.2031 L162.0313,111.0469 Q162.0313,109.7188 162.6484,108.5703 Q163.2656,107.4219 164.3594,106.8047 Q165.4531,106.1875 166.6875,106.1875 Q167.4219,106.1875 168.0703,106.3516 Q168.7188,106.5156 169.2656,106.875 Z " fill="#000000"/><text fill="#000000" font-family="sans-serif" font-size="14" lengthAdjust="spacing" textLength="57" x="180.5" y="116.7285">DBEpure</text><line style="stroke:#181818;stroke-width:0.5;" x1="152.5" x2="239.5" y1="127" y2="127"/><line style="stroke:#181818;stroke-width:0.5;" x1="152.5" x2="239.5" y1="135" y2="135"/></g><!--MD5=[d9427b671d7d049aff2d6f2fe36a13b3]
class Field--><g id="elem_Field"><rect fill="#F1F1F1" height="48" id="Field" rx="2.5" ry="2.5" style="stroke:#181818;stroke-width:0.5;" width="63" x="188.5" y="291"/><ellipse cx="203.5" cy="307" fill="#ADD1B2" rx="11" ry="11" style="stroke:#181818;stroke-width:1.0;"/><path d="M206.2656,302.875 Q206.4219,302.6563 206.6094,302.5469 Q206.7969,302.4375 207.0156,302.4375 Q207.3906,302.4375 207.625,302.6953 Q207.8594,302.9531 207.8594,303.5625 L207.8594,305.0156 Q207.8594,305.625 207.625,305.8906 Q207.3906,306.1563 207.0156,306.1563 Q206.6719,306.1563 206.4688,305.9531 Q206.2656,305.7656 206.1563,305.25 Q206.1094,304.8906 205.9219,304.7031 Q205.5938,304.3281 204.9844,304.1094 Q204.375,303.8906 203.75,303.8906 Q202.9844,303.8906 202.3516,304.2188 Q201.7188,304.5469 201.2266,305.2969 Q200.7344,306.0469 200.7344,307.0781 L200.7344,308.1719 Q200.7344,309.4063 201.625,310.2266 Q202.5156,311.0469 204.1094,311.0469 Q205.0469,311.0469 205.7031,310.7969 Q206.0938,310.6406 206.5156,310.2031 Q206.7813,309.9375 206.9297,309.8594 Q207.0781,309.7813 207.2813,309.7813 Q207.6094,309.7813 207.8672,310.0391 Q208.125,310.2969 208.125,310.6406 Q208.125,310.9844 207.7813,311.3906 Q207.2813,311.9688 206.4844,312.2969 Q205.4063,312.75 204.1094,312.75 Q202.5938,312.75 201.3906,312.125 Q200.4063,311.625 199.7188,310.5547 Q199.0313,309.4844 199.0313,308.2031 L199.0313,307.0469 Q199.0313,305.7188 199.6484,304.5703 Q200.2656,303.4219 201.3594,302.8047 Q202.4531,302.1875 203.6875,302.1875 Q204.4219,302.1875 205.0703,302.3516 Q205.7188,302.5156 206.2656,302.875 Z " fill="#000000"/><text fill="#000000" font-family="sans-serif" font-size="14" lengthAdjust="spacing" textLength="31" x="217.5" y="312.7285">Field</text><line style="stroke:#181818;stroke-width:0.5;" x1="189.5" x2="250.5" y1="323" y2="323"/><line style="stroke:#181818;stroke-width:0.5;" x1="189.5" x2="250.5" y1="331" y2="331"/></g><!--MD5=[62db8e4c2d9e0408f5650e8d9a685ff5]
class DB--><g id="elem_DB"><rect fill="#F1F1F1" height="48" id="DB" rx="2.5" ry="2.5" style="stroke:#181818;stroke-width:0.5;" width="51" x="65.5" y="95"/><ellipse cx="80.5" cy="111" fill="#ADD1B2" rx="11" ry="11" style="stroke:#181818;stroke-width:1.0;"/><path d="M83.2656,106.875 Q83.4219,106.6563 83.6094,106.5469 Q83.7969,106.4375 84.0156,106.4375 Q84.3906,106.4375 84.625,106.6953 Q84.8594,106.9531 84.8594,107.5625 L84.8594,109.0156 Q84.8594,109.625 84.625,109.8906 Q84.3906,110.1563 84.0156,110.1563 Q83.6719,110.1563 83.4688,109.9531 Q83.2656,109.7656 83.1563,109.25 Q83.1094,108.8906 82.9219,108.7031 Q82.5938,108.3281 81.9844,108.1094 Q81.375,107.8906 80.75,107.8906 Q79.9844,107.8906 79.3516,108.2188 Q78.7188,108.5469 78.2266,109.2969 Q77.7344,110.0469 77.7344,111.0781 L77.7344,112.1719 Q77.7344,113.4063 78.625,114.2266 Q79.5156,115.0469 81.1094,115.0469 Q82.0469,115.0469 82.7031,114.7969 Q83.0938,114.6406 83.5156,114.2031 Q83.7813,113.9375 83.9297,113.8594 Q84.0781,113.7813 84.2813,113.7813 Q84.6094,113.7813 84.8672,114.0391 Q85.125,114.2969 85.125,114.6406 Q85.125,114.9844 84.7813,115.3906 Q84.2813,115.9688 83.4844,116.2969 Q82.4063,116.75 81.1094,116.75 Q79.5938,116.75 78.3906,116.125 Q77.4063,115.625 76.7188,114.5547 Q76.0313,113.4844 76.0313,112.2031 L76.0313,111.0469 Q76.0313,109.7188 76.6484,108.5703 Q77.2656,107.4219 78.3594,106.8047 Q79.4531,106.1875 80.6875,106.1875 Q81.4219,106.1875 82.0703,106.3516 Q82.7188,106.5156 83.2656,106.875 Z " fill="#000000"/><text fill="#000000" font-family="sans-serif" font-size="14" lengthAdjust="spacing" textLength="19" x="94.5" y="116.7285">DB</text><line style="stroke:#181818;stroke-width:0.5;" x1="66.5" x2="115.5" y1="127" y2="127"/><line style="stroke:#181818;stroke-width:0.5;" x1="66.5" x2="115.5" y1="135" y2="135"/></g><!--MD5=[d10018d7374cb536a2ec2f77e731452b]
class Header--><g id="elem_Header"><rect fill="#F1F1F1" height="48" id="Header" rx="2.5" ry="2.5" style="stroke:#181818;stroke-width:0.5;" width="78" x="7" y="560"/><ellipse cx="22" cy="576" fill="#ADD1B2" rx="11" ry="11" style="stroke:#181818;stroke-width:1.0;"/><path d="M24.7656,571.875 Q24.9219,571.6563 25.1094,571.5469 Q25.2969,571.4375 25.5156,571.4375 Q25.8906,571.4375 26.125,571.6953 Q26.3594,571.9531 26.3594,572.5625 L26.3594,574.0156 Q26.3594,574.625 26.125,574.8906 Q25.8906,575.1563 25.5156,575.1563 Q25.1719,575.1563 24.9688,574.9531 Q24.7656,574.7656 24.6563,574.25 Q24.6094,573.8906 24.4219,573.7031 Q24.0938,573.3281 23.4844,573.1094 Q22.875,572.8906 22.25,572.8906 Q21.4844,572.8906 20.8516,573.2188 Q20.2188,573.5469 19.7266,574.2969 Q19.2344,575.0469 19.2344,576.0781 L19.2344,577.1719 Q19.2344,578.4063 20.125,579.2266 Q21.0156,580.0469 22.6094,580.0469 Q23.5469,580.0469 24.2031,579.7969 Q24.5938,579.6406 25.0156,579.2031 Q25.2813,578.9375 25.4297,578.8594 Q25.5781,578.7813 25.7813,578.7813 Q26.1094,578.7813 26.3672,579.0391 Q26.625,579.2969 26.625,579.6406 Q26.625,579.9844 26.2813,580.3906 Q25.7813,580.9688 24.9844,581.2969 Q23.9063,581.75 22.6094,581.75 Q21.0938,581.75 19.8906,581.125 Q18.9063,580.625 18.2188,579.5547 Q17.5313,578.4844 17.5313,577.2031 L17.5313,576.0469 Q17.5313,574.7188 18.1484,573.5703 Q18.7656,572.4219 19.8594,571.8047 Q20.9531,571.1875 22.1875,571.1875 Q22.9219,571.1875 23.5703,571.3516 Q24.2188,571.5156 24.7656,571.875 Z " fill="#000000"/><text fill="#000000" font-family="sans-serif" font-size="14" lengthAdjust="spacing" textLength="46" x="36" y="581.7285">Header</text><line style="stroke:#181818;stroke-width:0.5;" x1="8" x2="84" y1="592" y2="592"/><line style="stroke:#181818;stroke-width:0.5;" x1="8" x2="84" y1="600" y2="600"/></g><!--MD5=[05aedcff764caeeb5d443618a4d90de7]
class Row--><g id="elem_Row"><rect fill="#F1F1F1" height="48" id="Row" rx="2.5" ry="2.5" style="stroke:#181818;stroke-width:0.5;" width="59" x="120.5" y="560"/><ellipse cx="135.5" cy="576" fill="#ADD1B2" rx="11" ry="11" style="stroke:#181818;stroke-width:1.0;"/><path d="M138.2656,571.875 Q138.4219,571.6563 138.6094,571.5469 Q138.7969,571.4375 139.0156,571.4375 Q139.3906,571.4375 139.625,571.6953 Q139.8594,571.9531 139.8594,572.5625 L139.8594,574.0156 Q139.8594,574.625 139.625,574.8906 Q139.3906,575.1563 139.0156,575.1563 Q138.6719,575.1563 138.4688,574.9531 Q138.2656,574.7656 138.1563,574.25 Q138.1094,573.8906 137.9219,573.7031 Q137.5938,573.3281 136.9844,573.1094 Q136.375,572.8906 135.75,572.8906 Q134.9844,572.8906 134.3516,573.2188 Q133.7188,573.5469 133.2266,574.2969 Q132.7344,575.0469 132.7344,576.0781 L132.7344,577.1719 Q132.7344,578.4063 133.625,579.2266 Q134.5156,580.0469 136.1094,580.0469 Q137.0469,580.0469 137.7031,579.7969 Q138.0938,579.6406 138.5156,579.2031 Q138.7813,578.9375 138.9297,578.8594 Q139.0781,578.7813 139.2813,578.7813 Q139.6094,578.7813 139.8672,579.0391 Q140.125,579.2969 140.125,579.6406 Q140.125,579.9844 139.7813,580.3906 Q139.2813,580.9688 138.4844,581.2969 Q137.4063,581.75 136.1094,581.75 Q134.5938,581.75 133.3906,581.125 Q132.4063,580.625 131.7188,579.5547 Q131.0313,578.4844 131.0313,577.2031 L131.0313,576.0469 Q131.0313,574.7188 131.6484,573.5703 Q132.2656,572.4219 133.3594,571.8047 Q134.4531,571.1875 135.6875,571.1875 Q136.4219,571.1875 137.0703,571.3516 Q137.7188,571.5156 138.2656,571.875 Z " fill="#000000"/><text fill="#000000" font-family="sans-serif" font-size="14" lengthAdjust="spacing" textLength="27" x="149.5" y="581.7285">Row</text><line style="stroke:#181818;stroke-width:0.5;" x1="121.5" x2="178.5" y1="592" y2="592"/><line style="stroke:#181818;stroke-width:0.5;" x1="121.5" x2="178.5" y1="600" y2="600"/></g><!--MD5=[a96594a83e2ecdc78cbf17c2ddf01934]
class Category--><g id="elem_Category"><rect fill="#F1F1F1" height="48" id="Category" rx="2.5" ry="2.5" style="stroke:#181818;stroke-width:0.5;" width="90" x="433" y="425.5"/><ellipse cx="448" cy="441.5" fill="#ADD1B2" rx="11" ry="11" style="stroke:#181818;stroke-width:1.0;"/><path d="M450.7656,437.375 Q450.9219,437.1563 451.1094,437.0469 Q451.2969,436.9375 451.5156,436.9375 Q451.8906,436.9375 452.125,437.1953 Q452.3594,437.4531 452.3594,438.0625 L452.3594,439.5156 Q452.3594,440.125 452.125,440.3906 Q451.8906,440.6563 451.5156,440.6563 Q451.1719,440.6563 450.9688,440.4531 Q450.7656,440.2656 450.6563,439.75 Q450.6094,439.3906 450.4219,439.2031 Q450.0938,438.8281 449.4844,438.6094 Q448.875,438.3906 448.25,438.3906 Q447.4844,438.3906 446.8516,438.7188 Q446.2188,439.0469 445.7266,439.7969 Q445.2344,440.5469 445.2344,441.5781 L445.2344,442.6719 Q445.2344,443.9063 446.125,444.7266 Q447.0156,445.5469 448.6094,445.5469 Q449.5469,445.5469 450.2031,445.2969 Q450.5938,445.1406 451.0156,444.7031 Q451.2813,444.4375 451.4297,444.3594 Q451.5781,444.2813 451.7813,444.2813 Q452.1094,444.2813 452.3672,444.5391 Q452.625,444.7969 452.625,445.1406 Q452.625,445.4844 452.2813,445.8906 Q451.7813,446.4688 450.9844,446.7969 Q449.9063,447.25 448.6094,447.25 Q447.0938,447.25 445.8906,446.625 Q444.9063,446.125 444.2188,445.0547 Q443.5313,443.9844 443.5313,442.7031 L443.5313,441.5469 Q443.5313,440.2188 444.1484,439.0703 Q444.7656,437.9219 445.8594,437.3047 Q446.9531,436.6875 448.1875,436.6875 Q448.9219,436.6875 449.5703,436.8516 Q450.2188,437.0156 450.7656,437.375 Z " fill="#000000"/><text fill="#000000" font-family="sans-serif" font-size="14" lengthAdjust="spacing" textLength="58" x="462" y="447.2285">Category</text><line style="stroke:#181818;stroke-width:0.5;" x1="434" x2="522" y1="457.5" y2="457.5"/><line style="stroke:#181818;stroke-width:0.5;" x1="434" x2="522" y1="465.5" y2="465.5"/></g><!--MD5=[b426800acd6da9b6ecac1a582c45d730]
class Ref--><g id="elem_Ref"><rect fill="#F1F1F1" height="48" id="Ref" rx="2.5" ry="2.5" style="stroke:#181818;stroke-width:0.5;" width="54" x="558" y="425.5"/><ellipse cx="573" cy="441.5" fill="#ADD1B2" rx="11" ry="11" style="stroke:#181818;stroke-width:1.0;"/><path d="M575.7656,437.375 Q575.9219,437.1563 576.1094,437.0469 Q576.2969,436.9375 576.5156,436.9375 Q576.8906,436.9375 577.125,437.1953 Q577.3594,437.4531 577.3594,438.0625 L577.3594,439.5156 Q577.3594,440.125 577.125,440.3906 Q576.8906,440.6563 576.5156,440.6563 Q576.1719,440.6563 575.9688,440.4531 Q575.7656,440.2656 575.6563,439.75 Q575.6094,439.3906 575.4219,439.2031 Q575.0938,438.8281 574.4844,438.6094 Q573.875,438.3906 573.25,438.3906 Q572.4844,438.3906 571.8516,438.7188 Q571.2188,439.0469 570.7266,439.7969 Q570.2344,440.5469 570.2344,441.5781 L570.2344,442.6719 Q570.2344,443.9063 571.125,444.7266 Q572.0156,445.5469 573.6094,445.5469 Q574.5469,445.5469 575.2031,445.2969 Q575.5938,445.1406 576.0156,444.7031 Q576.2813,444.4375 576.4297,444.3594 Q576.5781,444.2813 576.7813,444.2813 Q577.1094,444.2813 577.3672,444.5391 Q577.625,444.7969 577.625,445.1406 Q577.625,445.4844 577.2813,445.8906 Q576.7813,446.4688 575.9844,446.7969 Q574.9063,447.25 573.6094,447.25 Q572.0938,447.25 570.8906,446.625 Q569.9063,446.125 569.2188,445.0547 Q568.5313,443.9844 568.5313,442.7031 L568.5313,441.5469 Q568.5313,440.2188 569.1484,439.0703 Q569.7656,437.9219 570.8594,437.3047 Q571.9531,436.6875 573.1875,436.6875 Q573.9219,436.6875 574.5703,436.8516 Q575.2188,437.0156 575.7656,437.375 Z " fill="#000000"/><text fill="#000000" font-family="sans-serif" font-size="14" lengthAdjust="spacing" textLength="22" x="587" y="447.2285">Ref</text><line style="stroke:#181818;stroke-width:0.5;" x1="559" x2="611" y1="457.5" y2="457.5"/><line style="stroke:#181818;stroke-width:0.5;" x1="559" x2="611" y1="465.5" y2="465.5"/></g><!--MD5=[685d6ec15f3caaaf2ddc1ca659765db7]
class Mask--><g id="elem_Mask"><rect fill="#F1F1F1" height="48" id="Mask" rx="2.5" ry="2.5" style="stroke:#181818;stroke-width:0.5;" width="65" x="235.5" y="560"/><ellipse cx="250.5" cy="576" fill="#ADD1B2" rx="11" ry="11" style="stroke:#181818;stroke-width:1.0;"/><path d="M253.2656,571.875 Q253.4219,571.6563 253.6094,571.5469 Q253.7969,571.4375 254.0156,571.4375 Q254.3906,571.4375 254.625,571.6953 Q254.8594,571.9531 254.8594,572.5625 L254.8594,574.0156 Q254.8594,574.625 254.625,574.8906 Q254.3906,575.1563 254.0156,575.1563 Q253.6719,575.1563 253.4688,574.9531 Q253.2656,574.7656 253.1563,574.25 Q253.1094,573.8906 252.9219,573.7031 Q252.5938,573.3281 251.9844,573.1094 Q251.375,572.8906 250.75,572.8906 Q249.9844,572.8906 249.3516,573.2188 Q248.7188,573.5469 248.2266,574.2969 Q247.7344,575.0469 247.7344,576.0781 L247.7344,577.1719 Q247.7344,578.4063 248.625,579.2266 Q249.5156,580.0469 251.1094,580.0469 Q252.0469,580.0469 252.7031,579.7969 Q253.0938,579.6406 253.5156,579.2031 Q253.7813,578.9375 253.9297,578.8594 Q254.0781,578.7813 254.2813,578.7813 Q254.6094,578.7813 254.8672,579.0391 Q255.125,579.2969 255.125,579.6406 Q255.125,579.9844 254.7813,580.3906 Q254.2813,580.9688 253.4844,581.2969 Q252.4063,581.75 251.1094,581.75 Q249.5938,581.75 248.3906,581.125 Q247.4063,580.625 246.7188,579.5547 Q246.0313,578.4844 246.0313,577.2031 L246.0313,576.0469 Q246.0313,574.7188 246.6484,573.5703 Q247.2656,572.4219 248.3594,571.8047 Q249.4531,571.1875 250.6875,571.1875 Q251.4219,571.1875 252.0703,571.3516 Q252.7188,571.5156 253.2656,571.875 Z " fill="#000000"/><text fill="#000000" font-family="sans-serif" font-size="14" lengthAdjust="spacing" textLength="33" x="264.5" y="581.7285">Mask</text><line style="stroke:#181818;stroke-width:0.5;" x1="236.5" x2="299.5" y1="592" y2="592"/><line style="stroke:#181818;stroke-width:0.5;" x1="236.5" x2="299.5" y1="600" y2="600"/></g><!--MD5=[a3638c1e5b65d287ecad7f06f5c0f212]
class Role--><g id="elem_Role"><rect fill="#F1F1F1" height="48" id="Role" rx="2.5" ry="2.5" style="stroke:#181818;stroke-width:0.5;" width="61" x="447.5" y="560"/><ellipse cx="462.5" cy="576" fill="#ADD1B2" rx="11" ry="11" style="stroke:#181818;stroke-width:1.0;"/><path d="M465.2656,571.875 Q465.4219,571.6563 465.6094,571.5469 Q465.7969,571.4375 466.0156,571.4375 Q466.3906,571.4375 466.625,571.6953 Q466.8594,571.9531 466.8594,572.5625 L466.8594,574.0156 Q466.8594,574.625 466.625,574.8906 Q466.3906,575.1563 466.0156,575.1563 Q465.6719,575.1563 465.4688,574.9531 Q465.2656,574.7656 465.1563,574.25 Q465.1094,573.8906 464.9219,573.7031 Q464.5938,573.3281 463.9844,573.1094 Q463.375,572.8906 462.75,572.8906 Q461.9844,572.8906 461.3516,573.2188 Q460.7188,573.5469 460.2266,574.2969 Q459.7344,575.0469 459.7344,576.0781 L459.7344,577.1719 Q459.7344,578.4063 460.625,579.2266 Q461.5156,580.0469 463.1094,580.0469 Q464.0469,580.0469 464.7031,579.7969 Q465.0938,579.6406 465.5156,579.2031 Q465.7813,578.9375 465.9297,578.8594 Q466.0781,578.7813 466.2813,578.7813 Q466.6094,578.7813 466.8672,579.0391 Q467.125,579.2969 467.125,579.6406 Q467.125,579.9844 466.7813,580.3906 Q466.2813,580.9688 465.4844,581.2969 Q464.4063,581.75 463.1094,581.75 Q461.5938,581.75 460.3906,581.125 Q459.4063,580.625 458.7188,579.5547 Q458.0313,578.4844 458.0313,577.2031 L458.0313,576.0469 Q458.0313,574.7188 458.6484,573.5703 Q459.2656,572.4219 460.3594,571.8047 Q461.4531,571.1875 462.6875,571.1875 Q463.4219,571.1875 464.0703,571.3516 Q464.7188,571.5156 465.2656,571.875 Z " fill="#000000"/><text fill="#000000" font-family="sans-serif" font-size="14" lengthAdjust="spacing" textLength="29" x="476.5" y="581.7285">Role</text><line style="stroke:#181818;stroke-width:0.5;" x1="448.5" x2="507.5" y1="592" y2="592"/><line style="stroke:#181818;stroke-width:0.5;" x1="448.5" x2="507.5" y1="600" y2="600"/></g><!--MD5=[dab16d122782a892ddb6ee0eadcd68f0]
class Access--><g id="elem_Access"><rect fill="#F1F1F1" height="48" id="Access" rx="2.5" ry="2.5" style="stroke:#181818;stroke-width:0.5;" width="77" x="335.5" y="560"/><ellipse cx="350.5" cy="576" fill="#ADD1B2" rx="11" ry="11" style="stroke:#181818;stroke-width:1.0;"/><path d="M353.2656,571.875 Q353.4219,571.6563 353.6094,571.5469 Q353.7969,571.4375 354.0156,571.4375 Q354.3906,571.4375 354.625,571.6953 Q354.8594,571.9531 354.8594,572.5625 L354.8594,574.0156 Q354.8594,574.625 354.625,574.8906 Q354.3906,575.1563 354.0156,575.1563 Q353.6719,575.1563 353.4688,574.9531 Q353.2656,574.7656 353.1563,574.25 Q353.1094,573.8906 352.9219,573.7031 Q352.5938,573.3281 351.9844,573.1094 Q351.375,572.8906 350.75,572.8906 Q349.9844,572.8906 349.3516,573.2188 Q348.7188,573.5469 348.2266,574.2969 Q347.7344,575.0469 347.7344,576.0781 L347.7344,577.1719 Q347.7344,578.4063 348.625,579.2266 Q349.5156,580.0469 351.1094,580.0469 Q352.0469,580.0469 352.7031,579.7969 Q353.0938,579.6406 353.5156,579.2031 Q353.7813,578.9375 353.9297,578.8594 Q354.0781,578.7813 354.2813,578.7813 Q354.6094,578.7813 354.8672,579.0391 Q355.125,579.2969 355.125,579.6406 Q355.125,579.9844 354.7813,580.3906 Q354.2813,580.9688 353.4844,581.2969 Q352.4063,581.75 351.1094,581.75 Q349.5938,581.75 348.3906,581.125 Q347.4063,580.625 346.7188,579.5547 Q346.0313,578.4844 346.0313,577.2031 L346.0313,576.0469 Q346.0313,574.7188 346.6484,573.5703 Q347.2656,572.4219 348.3594,571.8047 Q349.4531,571.1875 350.6875,571.1875 Q351.4219,571.1875 352.0703,571.3516 Q352.7188,571.5156 353.2656,571.875 Z " fill="#000000"/><text fill="#000000" font-family="sans-serif" font-size="14" lengthAdjust="spacing" textLength="45" x="364.5" y="581.7285">Access</text><line style="stroke:#181818;stroke-width:0.5;" x1="336.5" x2="411.5" y1="592" y2="592"/><line style="stroke:#181818;stroke-width:0.5;" x1="336.5" x2="411.5" y1="600" y2="600"/></g><!--MD5=[cab6cc7c7e9655fb6553c1ac47211468]
link Epure to Node--><g id="link_Epure_Node"><path codeLine="29" d="M334.86,231.22 C333.56,286.06 334.34,349.74 337.22,393.92 " fill="none" id="Epure-to-Node" style="stroke:#181818;stroke-width:1.0;"/><polygon fill="#181818" points="337.56,398.94,340.9331,389.6868,337.217,393.9518,332.952,390.2356,337.56,398.94" style="stroke:#181818;stroke-width:1.0;"/></g><!--MD5=[cab6cc7c7e9655fb6553c1ac47211468]
link Epure to Node--><g id="link_Epure_Node"><path codeLine="38" d="M359.85,231.22 C361.08,280.05 360.56,335.89 358.28,378.74 " fill="none" id="Epure-to-Node-1" style="stroke:#181818;stroke-width:1.0;"/><polygon fill="none" points="365.25,379.43,356.99,398.94,351.28,378.54,365.25,379.43" style="stroke:#181818;stroke-width:1.0;"/></g><!--MD5=[fb7add3d04029a548e9a9a347d9aecd1]
link Node to Node--><g id="link_Node_Node"><path codeLine="33" d="M391.6034,424.6435 C391.6034,424.6435 414.5,434.19 414.5,449.5 C414.5,464.81 405.1,473.12 392.75,474.44 " fill="none" id="Node-Node" style="stroke:#181818;stroke-width:1.0;"/><polygon fill="#181818" points="379.64,473.42,388.3004,478.1102,384.6248,473.8102,388.9247,470.1346,379.64,473.42" style="stroke:#181818;stroke-width:1.0;"/><line style="stroke:#181818;stroke-width:1.0;" x1="384.6248" x2="392.605" y1="473.8102" y2="474.425"/><polygon fill="#181818" points="379.64,425.58,385.9339,429.0996,391.6034,424.6435,385.3095,421.124,379.64,425.58" style="stroke:#181818;stroke-width:1.0;"/></g><!--MD5=[e20c9232d9a42a0761e9fab6f2a5677a]
link Storage to Node--><g id="link_Storage_Node"><path codeLine="34" d="M279.3,449.5 C284.34,449.5 289.38,449.5 294.41,449.5 " fill="none" id="Storage-to-Node" style="stroke:#181818;stroke-width:1.0;"/><polygon fill="none" points="294.47,442.5,314.47,449.5,294.47,456.5,294.47,442.5" style="stroke:#181818;stroke-width:1.0;"/></g><!--MD5=[05309fd987834d6df49408a8def51c35]
link Table to Storage--><g id="link_Table_Storage"><path codeLine="35" d="M162.38,449.5 C167.15,449.5 171.92,449.5 176.69,449.5 " fill="none" id="Table-to-Storage" style="stroke:#181818;stroke-width:1.0;"/><polygon fill="none" points="176.94,442.5,196.94,449.5,176.94,456.5,176.94,442.5" style="stroke:#181818;stroke-width:1.0;"/></g><!--MD5=[bed23d63d17255e2fb5e20132d7eb507]
link DBEpure to Epure--><g id="link_DBEpure_Epure"><path codeLine="39" d="M240.53,119 C245.6,119 250.66,119 255.72,119 " fill="none" id="DBEpure-to-Epure" style="stroke:#181818;stroke-width:1.0;"/><polygon fill="none" points="255.88,112,275.88,119,255.88,126,255.88,112" style="stroke:#181818;stroke-width:1.0;"/></g><!--MD5=[53d6d98a62f0530a26711cc5c04a952e]
reverse link Epure to Field--><g id="link_Epure_Field"><path codeLine="40" d="M264.85,245.49 C253.55,262.75 243.12,278.68 235.17,290.83 " fill="none" id="Epure-backto-Field" style="stroke:#181818;stroke-width:1.0;"/><polygon fill="none" points="259.08,241.53,275.89,228.63,270.79,249.19,259.08,241.53" style="stroke:#181818;stroke-width:1.0;"/></g><!--MD5=[b535fe8e5b7b5f78c11f2d6dfe1c1b32]
reverse link DB to DBEpure--><g id="link_DB_DBEpure"><path codeLine="41" d="M121.98,119 C131.81,119 141.64,119 151.47,119 " fill="none" id="DB-backto-DBEpure" style="stroke:#181818;stroke-width:1.0;"/><polygon fill="#181818" points="116.84,119,125.84,123,121.84,119,125.84,115,116.84,119" style="stroke:#181818;stroke-width:1.0;"/></g><!--MD5=[1fddd5756f188b31780967ef87aaad0f]
reverse link Field to Table--><g id="link_Field_Table"><path codeLine="42" d="M192.51,355.6 C176.74,378.3 157.5,406.02 144.15,425.24 " fill="none" id="Field-backto-Table" style="stroke:#181818;stroke-width:1.0;"/><polygon fill="none" points="186.82,351.52,203.97,339.08,198.32,359.5,186.82,351.52" style="stroke:#181818;stroke-width:1.0;"/></g><!--MD5=[22fa3e5cdb5df3ae792336286ad20bd8]
link DB to Table--><g id="link_DB_Table"><path codeLine="43" d="M94.9454,155.0243 C94.9454,155.0243 116.81,349.17 123.92,412.3 " fill="none" id="DB-Table" style="stroke:#181818;stroke-width:1.0;"/><polygon fill="#181818" points="125.4,425.43,128.3669,416.0386,124.84,420.4615,120.4172,416.9346,125.4,425.43" style="stroke:#181818;stroke-width:1.0;"/><line style="stroke:#181818;stroke-width:1.0;" x1="124.84" x2="123.945" y1="420.4615" y2="412.51"/><polygon fill="#181818" points="93.6,143.1,90.2979,149.5106,94.9454,155.0243,98.2475,148.6137,93.6,143.1" style="stroke:#181818;stroke-width:1.0;"/></g><!--MD5=[a44407cae740cc7713ddaae731391d72]
link Table to Header--><g id="link_Table_Header"><path codeLine="44" d="M113.72,473.58 C99.63,496.33 78.1,531.12 63.11,555.35 " fill="none" id="Table-to-Header" style="stroke:#181818;stroke-width:1.0;"/><polygon fill="#181818" points="60.39,559.74,68.5302,554.1959,63.0233,555.4896,61.7295,549.9827,60.39,559.74" style="stroke:#181818;stroke-width:1.0;"/></g><!--MD5=[2a897e562ab40cd5e3a4d544ecd131ab]
link Table to Row--><g id="link_Table_Row"><path codeLine="45" d="M133.7942,485.4181 C133.7942,485.4181 140.89,528.12 144.01,546.91 " fill="none" id="Table-Row" style="stroke:#181818;stroke-width:1.0;"/><polygon fill="#181818" points="146.14,559.74,148.6129,550.2066,145.3216,554.8074,140.7208,551.5161,146.14,559.74" style="stroke:#181818;stroke-width:1.0;"/><line style="stroke:#181818;stroke-width:1.0;" x1="145.3216" x2="144.01" y1="554.8074" y2="546.915"/><polygon fill="#181818" points="131.83,473.58,128.8661,480.1538,133.7942,485.4181,136.7582,478.8443,131.83,473.58" style="stroke:#181818;stroke-width:1.0;"/></g><!--MD5=[999d15f032d743bc0ba98e414132454b]
link Category to Ref--><g id="link_Category_Ref"><path codeLine="47" d="M535.14,449.5 C535.14,449.5 541.85,449.5 544.68,449.5 " fill="none" id="Category-Ref" style="stroke:#181818;stroke-width:1.0;"/><polygon fill="#181818" points="557.94,449.5,548.94,445.5,552.94,449.5,548.94,453.5,557.94,449.5" style="stroke:#181818;stroke-width:1.0;"/><line style="stroke:#181818;stroke-width:1.0;" x1="552.94" x2="544.94" y1="449.5" y2="449.5"/><polygon fill="#181818" points="523.14,449.5,529.14,453.5,535.14,449.5,529.14,445.5,523.14,449.5" style="stroke:#181818;stroke-width:1.0;"/></g><!--MD5=[0c13925b62760f2d74db9f03fe7098ba]
reverse link Node to Category--><g id="link_Node_Category"><path codeLine="48" d="M400.02,449.5 C410.92,449.5 421.82,449.5 432.71,449.5 " fill="none" id="Node-backto-Category" style="stroke:#181818;stroke-width:1.0;"/><polygon fill="none" points="399.75,456.5,379.75,449.5,399.75,442.5,399.75,456.5" style="stroke:#181818;stroke-width:1.0;"/></g><!--MD5=[7fe8302c16bbdb12fec227033fc39d07]
link Node to Mask--><g id="link_Node_Mask"><path codeLine="49" d="M317.36,500.22 C306.23,518.87 293.99,539.4 284.48,555.35 " fill="none" id="Node-to-Mask" style="stroke:#181818;stroke-width:1.0;"/><polygon fill="#181818" points="281.88,559.72,289.9265,554.0408,284.4419,555.4262,283.0565,549.9417,281.88,559.72" style="stroke:#181818;stroke-width:1.0;"/></g><!--MD5=[265b2031e2da21cdd0be02d42fa5c7f6]
reverse link Category to Role--><g id="link_Category_Role"><path codeLine="56" d="M478,493.83 C478,515.78 478,541.56 478,559.74 " fill="none" id="Category-backto-Role" style="stroke:#181818;stroke-width:1.0;"/><polygon fill="none" points="471,493.58,478,473.58,485,493.58,471,493.58" style="stroke:#181818;stroke-width:1.0;"/></g><!--MD5=[e25b0c96f2a3e10e48faa9ef0081d75d]
link Access to Role--><g id="link_Access_Role"><path codeLine="58" d="M412.59,584 C422.46,584 432.32,584 442.18,584 " fill="none" id="Access-to-Role" style="stroke:#181818;stroke-width:1.0;"/><polygon fill="#181818" points="447.34,584,438.34,580,442.34,584,438.34,588,447.34,584" style="stroke:#181818;stroke-width:1.0;"/></g><!--MD5=[b9f12aa94b4e67c2d12b415847882adb]
reverse link Mask to Access--><g id="link_Mask_Access"><path codeLine="59" d="M305.85,584 C315.69,584 325.52,584 335.35,584 " fill="none" id="Mask-backto-Access" style="stroke:#181818;stroke-width:1.0;"/><polygon fill="#181818" points="300.71,584,309.71,588,305.71,584,309.71,580,300.71,584" style="stroke:#181818;stroke-width:1.0;"/></g><!--MD5=[8a83cf3194cd043cd4a20bd773c57058]
reverse link Node to Access--><g id="link_Node_Access"><path codeLine="60" d="M358.21,505.52 C362.07,524.48 366.19,544.69 369.26,559.72 " fill="none" id="Node-backto-Access" style="stroke:#181818;stroke-width:1.0;"/><polygon fill="#181818" points="357.13,500.22,355.0104,509.8381,358.1298,505.119,362.8489,508.2384,357.13,500.22" style="stroke:#181818;stroke-width:1.0;"/></g><!--MD5=[56b473dec64c07141aa285b7510b124f]
@startuml
' enum box{
'     null(abstract)
'     this(parent)
'     Storage.get(storageName)
' }

class Epure{
    parent
    __new__()    
    save(make, storage)
    take(storage)
    delete(storage)

    storage()

    pack(): row
    unpack(row)
}

class Node{
    add()
    get()
    mask
}

' Storage <|- - EpureStorage
' EpureBox *- -> Epure
' Model - -> container
Epure - -> Node
' Node <|-up- Primitive


Node *- -> Node
Node <|-left- Storage
Storage <|-left- Table
' Storage <|- - NoSql

Epure - -|> Node
Epure <|-left- DBEpure
Field -up-|> Epure
DBEpure -left-> DB
Field <|- - Table
DB *- -> Table
Table - -> Header
Table *- -> Row

Category *-right-> Ref
Node <|-right- Category
Node - -> Mask


' Model - -> View
' Category <|- - View
' View o- -> Model

Category <|- - Role
' Access -up-> Node
    Access -right-> Role
    Access -left-> Mask
    Access -up-> Node
    ' Access -down-> Predicate

' Migration - -> BD
' Migration - -> Epure
@enduml

@startuml

class Epure{
    parent
    __new__()    
    save(make, storage)
    take(storage)
    delete(storage)

    storage()

    pack(): row
    unpack(row)
}

class Node{
    add()
    get()
    mask
}

Epure - -> Node


Node *- -> Node
Node <|-left- Storage
Storage <|-left- Table

Epure - -|> Node
Epure <|-left- DBEpure
Field -up-|> Epure
DBEpure -left-> DB
Field <|- - Table
DB *- -> Table
Table - -> Header
Table *- -> Row

Category *-right-> Ref
Node <|-right- Category
Node - -> Mask



Category <|- - Role
    Access -right-> Role
    Access -left-> Mask
    Access -up-> Node

@enduml

PlantUML version 1.2022.5(Sat Apr 30 13:55:52 MSK 2022)
(GPL source distribution)
Java Runtime: Java(TM) SE Runtime Environment
JVM: Java HotSpot(TM) 64-Bit Server VM
Default Encoding: Cp1251
Language: ru
Country: RU
--></g></svg>