<?xml version="1.0" encoding="UTF-8" standalone="no"?><svg xmlns="http://www.w3.org/2000/svg" xmlns:xlink="http://www.w3.org/1999/xlink" contentStyleType="text/css" height="440px" preserveAspectRatio="none" style="width:617px;height:440px;background:#FFFFFF;" version="1.1" viewBox="0 0 617 440" width="617px" zoomAndPan="magnify"><defs/><g><!--MD5=[82c521ab5f33e54093245fc7e5a7a937]
class Epure--><g id="elem_Epure"><rect codeLine="1" fill="#F1F1F1" height="48" id="Epure" rx="2.5" ry="2.5" style="stroke:#181818;stroke-width:0.5;" width="70" x="27" y="16"/><ellipse cx="42" cy="32" fill="#ADD1B2" rx="11" ry="11" style="stroke:#181818;stroke-width:1.0;"/><path d="M44.7656,27.875 Q44.9219,27.6563 45.1094,27.5469 Q45.2969,27.4375 45.5156,27.4375 Q45.8906,27.4375 46.125,27.6953 Q46.3594,27.9531 46.3594,28.5625 L46.3594,30.0156 Q46.3594,30.625 46.125,30.8906 Q45.8906,31.1563 45.5156,31.1563 Q45.1719,31.1563 44.9688,30.9531 Q44.7656,30.7656 44.6563,30.25 Q44.6094,29.8906 44.4219,29.7031 Q44.0938,29.3281 43.4844,29.1094 Q42.875,28.8906 42.25,28.8906 Q41.4844,28.8906 40.8516,29.2188 Q40.2188,29.5469 39.7266,30.2969 Q39.2344,31.0469 39.2344,32.0781 L39.2344,33.1719 Q39.2344,34.4063 40.125,35.2266 Q41.0156,36.0469 42.6094,36.0469 Q43.5469,36.0469 44.2031,35.7969 Q44.5938,35.6406 45.0156,35.2031 Q45.2813,34.9375 45.4297,34.8594 Q45.5781,34.7813 45.7813,34.7813 Q46.1094,34.7813 46.3672,35.0391 Q46.625,35.2969 46.625,35.6406 Q46.625,35.9844 46.2813,36.3906 Q45.7813,36.9688 44.9844,37.2969 Q43.9063,37.75 42.6094,37.75 Q41.0938,37.75 39.8906,37.125 Q38.9063,36.625 38.2188,35.5547 Q37.5313,34.4844 37.5313,33.2031 L37.5313,32.0469 Q37.5313,30.7188 38.1484,29.5703 Q38.7656,28.4219 39.8594,27.8047 Q40.9531,27.1875 42.1875,27.1875 Q42.9219,27.1875 43.5703,27.3516 Q44.2188,27.5156 44.7656,27.875 Z " fill="#000000"/><text fill="#000000" font-family="sans-serif" font-size="14" lengthAdjust="spacing" textLength="38" x="56" y="37.7285">Epure</text><line style="stroke:#181818;stroke-width:0.5;" x1="28" x2="96" y1="48" y2="48"/><line style="stroke:#181818;stroke-width:0.5;" x1="28" x2="96" y1="56" y2="56"/></g><!--MD5=[42b9497bfa6e322481f93ca214773a55]
class Epurium--><g id="elem_Epurium"><rect codeLine="3" fill="#F1F1F1" height="48" id="Epurium" rx="2.5" ry="2.5" style="stroke:#181818;stroke-width:0.5;" width="84" x="132" y="16"/><ellipse cx="147" cy="32" fill="#ADD1B2" rx="11" ry="11" style="stroke:#181818;stroke-width:1.0;"/><path d="M149.7656,27.875 Q149.9219,27.6563 150.1094,27.5469 Q150.2969,27.4375 150.5156,27.4375 Q150.8906,27.4375 151.125,27.6953 Q151.3594,27.9531 151.3594,28.5625 L151.3594,30.0156 Q151.3594,30.625 151.125,30.8906 Q150.8906,31.1563 150.5156,31.1563 Q150.1719,31.1563 149.9688,30.9531 Q149.7656,30.7656 149.6563,30.25 Q149.6094,29.8906 149.4219,29.7031 Q149.0938,29.3281 148.4844,29.1094 Q147.875,28.8906 147.25,28.8906 Q146.4844,28.8906 145.8516,29.2188 Q145.2188,29.5469 144.7266,30.2969 Q144.2344,31.0469 144.2344,32.0781 L144.2344,33.1719 Q144.2344,34.4063 145.125,35.2266 Q146.0156,36.0469 147.6094,36.0469 Q148.5469,36.0469 149.2031,35.7969 Q149.5938,35.6406 150.0156,35.2031 Q150.2813,34.9375 150.4297,34.8594 Q150.5781,34.7813 150.7813,34.7813 Q151.1094,34.7813 151.3672,35.0391 Q151.625,35.2969 151.625,35.6406 Q151.625,35.9844 151.2813,36.3906 Q150.7813,36.9688 149.9844,37.2969 Q148.9063,37.75 147.6094,37.75 Q146.0938,37.75 144.8906,37.125 Q143.9063,36.625 143.2188,35.5547 Q142.5313,34.4844 142.5313,33.2031 L142.5313,32.0469 Q142.5313,30.7188 143.1484,29.5703 Q143.7656,28.4219 144.8594,27.8047 Q145.9531,27.1875 147.1875,27.1875 Q147.9219,27.1875 148.5703,27.3516 Q149.2188,27.5156 149.7656,27.875 Z " fill="#000000"/><text fill="#000000" font-family="sans-serif" font-size="14" lengthAdjust="spacing" textLength="52" x="161" y="37.7285">Epurium</text><line style="stroke:#181818;stroke-width:0.5;" x1="133" x2="215" y1="48" y2="48"/><line style="stroke:#181818;stroke-width:0.5;" x1="133" x2="215" y1="56" y2="56"/></g><!--MD5=[6b13f1b330d33795af281e5c1dfe1e98]
class Resource--><g id="elem_Resource"><rect codeLine="5" fill="#F1F1F1" height="65.6094" id="Resource" rx="2.5" ry="2.5" style="stroke:#181818;stroke-width:0.5;" width="93" x="251.5" y="7"/><ellipse cx="266.5" cy="23" fill="#ADD1B2" rx="11" ry="11" style="stroke:#181818;stroke-width:1.0;"/><path d="M269.2656,18.875 Q269.4219,18.6563 269.6094,18.5469 Q269.7969,18.4375 270.0156,18.4375 Q270.3906,18.4375 270.625,18.6953 Q270.8594,18.9531 270.8594,19.5625 L270.8594,21.0156 Q270.8594,21.625 270.625,21.8906 Q270.3906,22.1563 270.0156,22.1563 Q269.6719,22.1563 269.4688,21.9531 Q269.2656,21.7656 269.1563,21.25 Q269.1094,20.8906 268.9219,20.7031 Q268.5938,20.3281 267.9844,20.1094 Q267.375,19.8906 266.75,19.8906 Q265.9844,19.8906 265.3516,20.2188 Q264.7188,20.5469 264.2266,21.2969 Q263.7344,22.0469 263.7344,23.0781 L263.7344,24.1719 Q263.7344,25.4063 264.625,26.2266 Q265.5156,27.0469 267.1094,27.0469 Q268.0469,27.0469 268.7031,26.7969 Q269.0938,26.6406 269.5156,26.2031 Q269.7813,25.9375 269.9297,25.8594 Q270.0781,25.7813 270.2813,25.7813 Q270.6094,25.7813 270.8672,26.0391 Q271.125,26.2969 271.125,26.6406 Q271.125,26.9844 270.7813,27.3906 Q270.2813,27.9688 269.4844,28.2969 Q268.4063,28.75 267.1094,28.75 Q265.5938,28.75 264.3906,28.125 Q263.4063,27.625 262.7188,26.5547 Q262.0313,25.4844 262.0313,24.2031 L262.0313,23.0469 Q262.0313,21.7188 262.6484,20.5703 Q263.2656,19.4219 264.3594,18.8047 Q265.4531,18.1875 266.6875,18.1875 Q267.4219,18.1875 268.0703,18.3516 Q268.7188,18.5156 269.2656,18.875 Z " fill="#000000"/><text fill="#000000" font-family="sans-serif" font-size="14" lengthAdjust="spacing" textLength="61" x="280.5" y="28.7285">Resource</text><line style="stroke:#181818;stroke-width:0.5;" x1="252.5" x2="343.5" y1="39" y2="39"/><text fill="#000000" font-family="sans-serif" font-size="14" lengthAdjust="spacing" textLength="12" x="257.5" y="57.5332">...</text><line style="stroke:#181818;stroke-width:0.5;" x1="252.5" x2="343.5" y1="64.6094" y2="64.6094"/></g><!--MD5=[04add1350e67c79380c0d55bbbeb7508]
class Savable--><g id="elem_Savable"><rect codeLine="8" fill="#F1F1F1" height="65.6094" id="Savable" rx="2.5" ry="2.5" style="stroke:#181818;stroke-width:0.5;" width="83" x="256.5" y="133"/><ellipse cx="271.5" cy="149" fill="#ADD1B2" rx="11" ry="11" style="stroke:#181818;stroke-width:1.0;"/><path d="M274.2656,144.875 Q274.4219,144.6563 274.6094,144.5469 Q274.7969,144.4375 275.0156,144.4375 Q275.3906,144.4375 275.625,144.6953 Q275.8594,144.9531 275.8594,145.5625 L275.8594,147.0156 Q275.8594,147.625 275.625,147.8906 Q275.3906,148.1563 275.0156,148.1563 Q274.6719,148.1563 274.4688,147.9531 Q274.2656,147.7656 274.1563,147.25 Q274.1094,146.8906 273.9219,146.7031 Q273.5938,146.3281 272.9844,146.1094 Q272.375,145.8906 271.75,145.8906 Q270.9844,145.8906 270.3516,146.2188 Q269.7188,146.5469 269.2266,147.2969 Q268.7344,148.0469 268.7344,149.0781 L268.7344,150.1719 Q268.7344,151.4063 269.625,152.2266 Q270.5156,153.0469 272.1094,153.0469 Q273.0469,153.0469 273.7031,152.7969 Q274.0938,152.6406 274.5156,152.2031 Q274.7813,151.9375 274.9297,151.8594 Q275.0781,151.7813 275.2813,151.7813 Q275.6094,151.7813 275.8672,152.0391 Q276.125,152.2969 276.125,152.6406 Q276.125,152.9844 275.7813,153.3906 Q275.2813,153.9688 274.4844,154.2969 Q273.4063,154.75 272.1094,154.75 Q270.5938,154.75 269.3906,154.125 Q268.4063,153.625 267.7188,152.5547 Q267.0313,151.4844 267.0313,150.2031 L267.0313,149.0469 Q267.0313,147.7188 267.6484,146.5703 Q268.2656,145.4219 269.3594,144.8047 Q270.4531,144.1875 271.6875,144.1875 Q272.4219,144.1875 273.0703,144.3516 Q273.7188,144.5156 274.2656,144.875 Z " fill="#000000"/><text fill="#000000" font-family="sans-serif" font-size="14" lengthAdjust="spacing" textLength="51" x="285.5" y="154.7285">Savable</text><line style="stroke:#181818;stroke-width:0.5;" x1="257.5" x2="338.5" y1="165" y2="165"/><text fill="#000000" font-family="sans-serif" font-size="14" lengthAdjust="spacing" textLength="12" x="262.5" y="183.5332">...</text><line style="stroke:#181818;stroke-width:0.5;" x1="257.5" x2="338.5" y1="190.6094" y2="190.6094"/></g><!--MD5=[3fee75583bb7a64f68d843a3c9534ab3]
class Node--><g id="elem_Node"><rect codeLine="11" fill="#F1F1F1" height="65.6094" id="Node" rx="2.5" ry="2.5" style="stroke:#181818;stroke-width:0.5;" width="65" x="265.5" y="259"/><ellipse cx="280.5" cy="275" fill="#ADD1B2" rx="11" ry="11" style="stroke:#181818;stroke-width:1.0;"/><path d="M283.2656,270.875 Q283.4219,270.6563 283.6094,270.5469 Q283.7969,270.4375 284.0156,270.4375 Q284.3906,270.4375 284.625,270.6953 Q284.8594,270.9531 284.8594,271.5625 L284.8594,273.0156 Q284.8594,273.625 284.625,273.8906 Q284.3906,274.1563 284.0156,274.1563 Q283.6719,274.1563 283.4688,273.9531 Q283.2656,273.7656 283.1563,273.25 Q283.1094,272.8906 282.9219,272.7031 Q282.5938,272.3281 281.9844,272.1094 Q281.375,271.8906 280.75,271.8906 Q279.9844,271.8906 279.3516,272.2188 Q278.7188,272.5469 278.2266,273.2969 Q277.7344,274.0469 277.7344,275.0781 L277.7344,276.1719 Q277.7344,277.4063 278.625,278.2266 Q279.5156,279.0469 281.1094,279.0469 Q282.0469,279.0469 282.7031,278.7969 Q283.0938,278.6406 283.5156,278.2031 Q283.7813,277.9375 283.9297,277.8594 Q284.0781,277.7813 284.2813,277.7813 Q284.6094,277.7813 284.8672,278.0391 Q285.125,278.2969 285.125,278.6406 Q285.125,278.9844 284.7813,279.3906 Q284.2813,279.9688 283.4844,280.2969 Q282.4063,280.75 281.1094,280.75 Q279.5938,280.75 278.3906,280.125 Q277.4063,279.625 276.7188,278.5547 Q276.0313,277.4844 276.0313,276.2031 L276.0313,275.0469 Q276.0313,273.7188 276.6484,272.5703 Q277.2656,271.4219 278.3594,270.8047 Q279.4531,270.1875 280.6875,270.1875 Q281.4219,270.1875 282.0703,270.3516 Q282.7188,270.5156 283.2656,270.875 Z " fill="#000000"/><text fill="#000000" font-family="sans-serif" font-size="14" lengthAdjust="spacing" textLength="33" x="294.5" y="280.7285">Node</text><line style="stroke:#181818;stroke-width:0.5;" x1="266.5" x2="329.5" y1="291" y2="291"/><line style="stroke:#181818;stroke-width:0.5;" x1="266.5" x2="329.5" y1="299" y2="299"/><text fill="#000000" font-family="sans-serif" font-size="14" lengthAdjust="spacing" textLength="40" x="271.5" y="317.5332">save()</text></g><!--MD5=[251454e98c15f29849fb35b1904d0020]
class Composition--><g id="elem_Composition"><rect codeLine="15" fill="#F1F1F1" height="65.6094" id="Composition" rx="2.5" ry="2.5" style="stroke:#181818;stroke-width:0.5;" width="110" x="7" y="133"/><ellipse cx="22" cy="149" fill="#ADD1B2" rx="11" ry="11" style="stroke:#181818;stroke-width:1.0;"/><path d="M24.7656,144.875 Q24.9219,144.6563 25.1094,144.5469 Q25.2969,144.4375 25.5156,144.4375 Q25.8906,144.4375 26.125,144.6953 Q26.3594,144.9531 26.3594,145.5625 L26.3594,147.0156 Q26.3594,147.625 26.125,147.8906 Q25.8906,148.1563 25.5156,148.1563 Q25.1719,148.1563 24.9688,147.9531 Q24.7656,147.7656 24.6563,147.25 Q24.6094,146.8906 24.4219,146.7031 Q24.0938,146.3281 23.4844,146.1094 Q22.875,145.8906 22.25,145.8906 Q21.4844,145.8906 20.8516,146.2188 Q20.2188,146.5469 19.7266,147.2969 Q19.2344,148.0469 19.2344,149.0781 L19.2344,150.1719 Q19.2344,151.4063 20.125,152.2266 Q21.0156,153.0469 22.6094,153.0469 Q23.5469,153.0469 24.2031,152.7969 Q24.5938,152.6406 25.0156,152.2031 Q25.2813,151.9375 25.4297,151.8594 Q25.5781,151.7813 25.7813,151.7813 Q26.1094,151.7813 26.3672,152.0391 Q26.625,152.2969 26.625,152.6406 Q26.625,152.9844 26.2813,153.3906 Q25.7813,153.9688 24.9844,154.2969 Q23.9063,154.75 22.6094,154.75 Q21.0938,154.75 19.8906,154.125 Q18.9063,153.625 18.2188,152.5547 Q17.5313,151.4844 17.5313,150.2031 L17.5313,149.0469 Q17.5313,147.7188 18.1484,146.5703 Q18.7656,145.4219 19.8594,144.8047 Q20.9531,144.1875 22.1875,144.1875 Q22.9219,144.1875 23.5703,144.3516 Q24.2188,144.5156 24.7656,144.875 Z " fill="#000000"/><text fill="#000000" font-family="sans-serif" font-size="14" lengthAdjust="spacing" textLength="78" x="36" y="154.7285">Composition</text><line style="stroke:#181818;stroke-width:0.5;" x1="8" x2="116" y1="165" y2="165"/><text fill="#000000" font-family="sans-serif" font-size="14" lengthAdjust="spacing" textLength="75" x="13" y="183.5332">"__proto__"</text><line style="stroke:#181818;stroke-width:0.5;" x1="8" x2="116" y1="190.6094" y2="190.6094"/></g><!--MD5=[5c3937593241a38eeb9994b6a340444a]
class Translator--><g id="elem_Translator"><rect codeLine="19" fill="#F1F1F1" height="65.6094" id="Translator" rx="2.5" ry="2.5" style="stroke:#181818;stroke-width:0.5;" width="230" x="380" y="7"/><ellipse cx="458.25" cy="23" fill="#ADD1B2" rx="11" ry="11" style="stroke:#181818;stroke-width:1.0;"/><path d="M461.0156,18.875 Q461.1719,18.6563 461.3594,18.5469 Q461.5469,18.4375 461.7656,18.4375 Q462.1406,18.4375 462.375,18.6953 Q462.6094,18.9531 462.6094,19.5625 L462.6094,21.0156 Q462.6094,21.625 462.375,21.8906 Q462.1406,22.1563 461.7656,22.1563 Q461.4219,22.1563 461.2188,21.9531 Q461.0156,21.7656 460.9063,21.25 Q460.8594,20.8906 460.6719,20.7031 Q460.3438,20.3281 459.7344,20.1094 Q459.125,19.8906 458.5,19.8906 Q457.7344,19.8906 457.1016,20.2188 Q456.4688,20.5469 455.9766,21.2969 Q455.4844,22.0469 455.4844,23.0781 L455.4844,24.1719 Q455.4844,25.4063 456.375,26.2266 Q457.2656,27.0469 458.8594,27.0469 Q459.7969,27.0469 460.4531,26.7969 Q460.8438,26.6406 461.2656,26.2031 Q461.5313,25.9375 461.6797,25.8594 Q461.8281,25.7813 462.0313,25.7813 Q462.3594,25.7813 462.6172,26.0391 Q462.875,26.2969 462.875,26.6406 Q462.875,26.9844 462.5313,27.3906 Q462.0313,27.9688 461.2344,28.2969 Q460.1563,28.75 458.8594,28.75 Q457.3438,28.75 456.1406,28.125 Q455.1563,27.625 454.4688,26.5547 Q453.7813,25.4844 453.7813,24.2031 L453.7813,23.0469 Q453.7813,21.7188 454.3984,20.5703 Q455.0156,19.4219 456.1094,18.8047 Q457.2031,18.1875 458.4375,18.1875 Q459.1719,18.1875 459.8203,18.3516 Q460.4688,18.5156 461.0156,18.875 Z " fill="#000000"/><text fill="#000000" font-family="sans-serif" font-size="14" lengthAdjust="spacing" textLength="65" x="478.75" y="28.7285">Translator</text><line style="stroke:#181818;stroke-width:0.5;" x1="381" x2="609" y1="39" y2="39"/><line style="stroke:#181818;stroke-width:0.5;" x1="381" x2="609" y1="47" y2="47"/><text fill="#000000" font-family="sans-serif" font-size="14" lengthAdjust="spacing" textLength="218" x="386" y="65.5332">translate_to_sql(string expression)</text></g><!--MD5=[3d671f1c4168cdf8910636aa5f2125e7]
class PredicateTranslator--><g id="elem_PredicateTranslator"><rect codeLine="23" fill="#F1F1F1" height="65.6094" id="PredicateTranslator" rx="2.5" ry="2.5" style="stroke:#181818;stroke-width:0.5;" width="221" x="384.5" y="133"/><ellipse cx="428.3" cy="149" fill="#ADD1B2" rx="11" ry="11" style="stroke:#181818;stroke-width:1.0;"/><path d="M431.0656,144.875 Q431.2219,144.6563 431.4094,144.5469 Q431.5969,144.4375 431.8156,144.4375 Q432.1906,144.4375 432.425,144.6953 Q432.6594,144.9531 432.6594,145.5625 L432.6594,147.0156 Q432.6594,147.625 432.425,147.8906 Q432.1906,148.1563 431.8156,148.1563 Q431.4719,148.1563 431.2688,147.9531 Q431.0656,147.7656 430.9563,147.25 Q430.9094,146.8906 430.7219,146.7031 Q430.3938,146.3281 429.7844,146.1094 Q429.175,145.8906 428.55,145.8906 Q427.7844,145.8906 427.1516,146.2188 Q426.5188,146.5469 426.0266,147.2969 Q425.5344,148.0469 425.5344,149.0781 L425.5344,150.1719 Q425.5344,151.4063 426.425,152.2266 Q427.3156,153.0469 428.9094,153.0469 Q429.8469,153.0469 430.5031,152.7969 Q430.8938,152.6406 431.3156,152.2031 Q431.5813,151.9375 431.7297,151.8594 Q431.8781,151.7813 432.0813,151.7813 Q432.4094,151.7813 432.6672,152.0391 Q432.925,152.2969 432.925,152.6406 Q432.925,152.9844 432.5813,153.3906 Q432.0813,153.9688 431.2844,154.2969 Q430.2063,154.75 428.9094,154.75 Q427.3938,154.75 426.1906,154.125 Q425.2063,153.625 424.5188,152.5547 Q423.8313,151.4844 423.8313,150.2031 L423.8313,149.0469 Q423.8313,147.7188 424.4484,146.5703 Q425.0656,145.4219 426.1594,144.8047 Q427.2531,144.1875 428.4875,144.1875 Q429.2219,144.1875 429.8703,144.3516 Q430.5188,144.5156 431.0656,144.875 Z " fill="#000000"/><text fill="#000000" font-family="sans-serif" font-size="14" lengthAdjust="spacing" textLength="125" x="448.7" y="154.7285">PredicateTranslator</text><line style="stroke:#181818;stroke-width:0.5;" x1="385.5" x2="604.5" y1="165" y2="165"/><line style="stroke:#181818;stroke-width:0.5;" x1="385.5" x2="604.5" y1="173" y2="173"/><text fill="#000000" font-family="sans-serif" font-size="14" lengthAdjust="spacing" textLength="209" x="390.5" y="191.5332">translate_to_sql(string predicate)</text></g><!--MD5=[e0d976d1b04f08d2eb9bf773a31611e6]
class NodeList--><g id="elem_NodeList"><rect codeLine="27" fill="#F1F1F1" height="48" id="NodeList" rx="2.5" ry="2.5" style="stroke:#181818;stroke-width:0.5;" width="87" x="254.5" y="385"/><ellipse cx="269.5" cy="401" fill="#ADD1B2" rx="11" ry="11" style="stroke:#181818;stroke-width:1.0;"/><path d="M272.2656,396.875 Q272.4219,396.6563 272.6094,396.5469 Q272.7969,396.4375 273.0156,396.4375 Q273.3906,396.4375 273.625,396.6953 Q273.8594,396.9531 273.8594,397.5625 L273.8594,399.0156 Q273.8594,399.625 273.625,399.8906 Q273.3906,400.1563 273.0156,400.1563 Q272.6719,400.1563 272.4688,399.9531 Q272.2656,399.7656 272.1563,399.25 Q272.1094,398.8906 271.9219,398.7031 Q271.5938,398.3281 270.9844,398.1094 Q270.375,397.8906 269.75,397.8906 Q268.9844,397.8906 268.3516,398.2188 Q267.7188,398.5469 267.2266,399.2969 Q266.7344,400.0469 266.7344,401.0781 L266.7344,402.1719 Q266.7344,403.4063 267.625,404.2266 Q268.5156,405.0469 270.1094,405.0469 Q271.0469,405.0469 271.7031,404.7969 Q272.0938,404.6406 272.5156,404.2031 Q272.7813,403.9375 272.9297,403.8594 Q273.0781,403.7813 273.2813,403.7813 Q273.6094,403.7813 273.8672,404.0391 Q274.125,404.2969 274.125,404.6406 Q274.125,404.9844 273.7813,405.3906 Q273.2813,405.9688 272.4844,406.2969 Q271.4063,406.75 270.1094,406.75 Q268.5938,406.75 267.3906,406.125 Q266.4063,405.625 265.7188,404.5547 Q265.0313,403.4844 265.0313,402.2031 L265.0313,401.0469 Q265.0313,399.7188 265.6484,398.5703 Q266.2656,397.4219 267.3594,396.8047 Q268.4531,396.1875 269.6875,396.1875 Q270.4219,396.1875 271.0703,396.3516 Q271.7188,396.5156 272.2656,396.875 Z " fill="#000000"/><text fill="#000000" font-family="sans-serif" font-size="14" lengthAdjust="spacing" textLength="55" x="283.5" y="406.7285">NodeList</text><line style="stroke:#181818;stroke-width:0.5;" x1="255.5" x2="340.5" y1="417" y2="417"/><line style="stroke:#181818;stroke-width:0.5;" x1="255.5" x2="340.5" y1="425" y2="425"/></g><!--MD5=[ac90556c3811d13f2bb52760420b2e27]
reverse link Translator to PredicateTranslator--><g id="link_Translator_PredicateTranslator"><path codeLine="30" d="M495,93.45 C495,106.85 495,120.87 495,132.91 " fill="none" id="Translator-backto-PredicateTranslator" style="stroke:#181818;stroke-width:1.0;"/><polygon fill="none" points="488,93.26,495,73.26,502,93.26,488,93.26" style="stroke:#181818;stroke-width:1.0;"/></g><!--MD5=[d2ec28d69675ff84c1283f5029b203c0]
reverse link Resource to Savable--><g id="link_Resource_Savable"><path codeLine="32" d="M298,93.45 C298,106.85 298,120.87 298,132.91 " fill="none" id="Resource-backto-Savable" style="stroke:#181818;stroke-width:1.0;"/><polygon fill="none" points="291,93.26,298,73.26,305,93.26,291,93.26" style="stroke:#181818;stroke-width:1.0;"/></g><!--MD5=[b255d7e3895c07749ef7df1fca958c42]
reverse link Savable to Node--><g id="link_Savable_Node"><path codeLine="33" d="M298,219.45 C298,232.85 298,246.87 298,258.91 " fill="none" id="Savable-backto-Node" style="stroke:#181818;stroke-width:1.0;"/><polygon fill="none" points="291,219.26,298,199.26,305,219.26,291,219.26" style="stroke:#181818;stroke-width:1.0;"/></g><!--MD5=[d6cc220964a3638c72f5a8dd9e2d1f5c]
reverse link Node to NodeList--><g id="link_Node_NodeList"><path codeLine="34" d="M298,345.34 C298,359.21 298,373.47 298,384.89 " fill="none" id="Node-backto-NodeList" style="stroke:#181818;stroke-width:1.0;"/><polygon fill="none" points="291,345.03,298,325.03,305,345.03,291,345.03" style="stroke:#181818;stroke-width:1.0;"/></g><!--MD5=[ce2592fce913f741d19acb937430ce42]
@startuml
class Epure{}

class Epurium{}

class Resource{
    ...
}
class Savable{
    ...
}
class Node{
    save()
}

class Composition{
    "__proto__"
}

class Translator{
    translate_to_sql(string expression)
}

class PredicateTranslator{
    translate_to_sql(string predicate)
}

class NodeList{}


Translator <|- - PredicateTranslator

Resource <|- - Savable
Savable <|- - Node
Node <|- - NodeList
@enduml

PlantUML version 1.2022.5(Sat Apr 30 13:55:52 MSK 2022)
(GPL source distribution)
Java Runtime: Java(TM) SE Runtime Environment
JVM: Java HotSpot(TM) 64-Bit Server VM
Default Encoding: Cp1251
Language: ru
Country: RU
--></g></svg>