<?xml version="1.0" encoding="UTF-8" standalone="no"?><svg xmlns="http://www.w3.org/2000/svg" xmlns:xlink="http://www.w3.org/1999/xlink" contentStyleType="text/css" height="702px" preserveAspectRatio="none" style="width:1056px;height:702px;background:#FFFFFF;" version="1.1" viewBox="0 0 1056 702" width="1056px" zoomAndPan="magnify"><defs/><g><!--MD5=[6b13f1b330d33795af281e5c1dfe1e98]
class Resource--><g id="elem_Resource"><rect codeLine="1" fill="#F1F1F1" height="259.3125" id="Resource" rx="2.5" ry="2.5" style="stroke:#181818;stroke-width:0.5;" width="317" x="310" y="115"/><ellipse cx="433.75" cy="131" fill="#ADD1B2" rx="11" ry="11" style="stroke:#181818;stroke-width:1.0;"/><path d="M436.5156,126.875 Q436.6719,126.6563 436.8594,126.5469 Q437.0469,126.4375 437.2656,126.4375 Q437.6406,126.4375 437.875,126.6953 Q438.1094,126.9531 438.1094,127.5625 L438.1094,129.0156 Q438.1094,129.625 437.875,129.8906 Q437.6406,130.1563 437.2656,130.1563 Q436.9219,130.1563 436.7188,129.9531 Q436.5156,129.7656 436.4063,129.25 Q436.3594,128.8906 436.1719,128.7031 Q435.8438,128.3281 435.2344,128.1094 Q434.625,127.8906 434,127.8906 Q433.2344,127.8906 432.6016,128.2188 Q431.9688,128.5469 431.4766,129.2969 Q430.9844,130.0469 430.9844,131.0781 L430.9844,132.1719 Q430.9844,133.4063 431.875,134.2266 Q432.7656,135.0469 434.3594,135.0469 Q435.2969,135.0469 435.9531,134.7969 Q436.3438,134.6406 436.7656,134.2031 Q437.0313,133.9375 437.1797,133.8594 Q437.3281,133.7813 437.5313,133.7813 Q437.8594,133.7813 438.1172,134.0391 Q438.375,134.2969 438.375,134.6406 Q438.375,134.9844 438.0313,135.3906 Q437.5313,135.9688 436.7344,136.2969 Q435.6563,136.75 434.3594,136.75 Q432.8438,136.75 431.6406,136.125 Q430.6563,135.625 429.9688,134.5547 Q429.2813,133.4844 429.2813,132.2031 L429.2813,131.0469 Q429.2813,129.7188 429.8984,128.5703 Q430.5156,127.4219 431.6094,126.8047 Q432.7031,126.1875 433.9375,126.1875 Q434.6719,126.1875 435.3203,126.3516 Q435.9688,126.5156 436.5156,126.875 Z " fill="#000000"/><text fill="#000000" font-family="sans-serif" font-size="14" lengthAdjust="spacing" textLength="61" x="454.25" y="136.7285">Resource</text><line style="stroke:#181818;stroke-width:0.5;" x1="311" x2="626" y1="147" y2="147"/><text fill="#000000" font-family="sans-serif" font-size="14" lengthAdjust="spacing" textLength="39" x="316" y="165.5332">res_id</text><text fill="#000000" font-family="sans-serif" font-size="14" lengthAdjust="spacing" textLength="35" x="316" y="183.1426">name</text><line style="stroke:#181818;stroke-width:0.5;" x1="311" x2="626" y1="190.2188" y2="190.2188"/><text fill="#000000" font-family="sans-serif" font-size="14" lengthAdjust="spacing" textLength="249" x="316" y="208.752">create(Savable resource, res_id=None)</text><text fill="#000000" font-family="sans-serif" font-size="14" lengthAdjust="spacing" textLength="80" x="316" y="226.3613">read(Object)</text><text fill="#000000" font-family="sans-serif" font-size="14" lengthAdjust="spacing" textLength="253" x="316" y="243.9707">update(Savable resource, res_id=None)</text><text fill="#000000" font-family="sans-serif" font-size="14" lengthAdjust="spacing" textLength="305" x="316" y="261.5801">delete(Savable resource, res_id=None ? Object)</text><text fill="#000000" font-family="sans-serif" font-size="14" lengthAdjust="spacing" textLength="4" x="316" y="279.1895"> </text><text fill="#000000" font-family="sans-serif" font-size="14" lengthAdjust="spacing" textLength="153" x="316" y="296.7988">create_all(List[Savable])</text><text fill="#000000" font-family="sans-serif" font-size="14" lengthAdjust="spacing" textLength="157" x="316" y="314.4082">update_all(List[Savable])</text><text fill="#000000" font-family="sans-serif" font-size="14" lengthAdjust="spacing" textLength="79" x="316" y="332.0176">delete_all(?)</text><text fill="#000000" font-family="sans-serif" font-size="14" lengthAdjust="spacing" textLength="4" x="316" y="349.627"> </text><text fill="#000000" font-family="sans-serif" font-size="14" lengthAdjust="spacing" textLength="137" x="316" y="367.2363">"execute"(str script='')</text></g><!--MD5=[464be7afade68e010f8f1d76973bc1ef]
class Db--><g id="elem_Db"><rect codeLine="17" fill="#F1F1F1" height="65.6094" id="Db" rx="2.5" ry="2.5" style="stroke:#181818;stroke-width:0.5;" width="134" x="140.5" y="211.5"/><ellipse cx="194.25" cy="227.5" fill="#ADD1B2" rx="11" ry="11" style="stroke:#181818;stroke-width:1.0;"/><path d="M197.0156,223.375 Q197.1719,223.1563 197.3594,223.0469 Q197.5469,222.9375 197.7656,222.9375 Q198.1406,222.9375 198.375,223.1953 Q198.6094,223.4531 198.6094,224.0625 L198.6094,225.5156 Q198.6094,226.125 198.375,226.3906 Q198.1406,226.6563 197.7656,226.6563 Q197.4219,226.6563 197.2188,226.4531 Q197.0156,226.2656 196.9063,225.75 Q196.8594,225.3906 196.6719,225.2031 Q196.3438,224.8281 195.7344,224.6094 Q195.125,224.3906 194.5,224.3906 Q193.7344,224.3906 193.1016,224.7188 Q192.4688,225.0469 191.9766,225.7969 Q191.4844,226.5469 191.4844,227.5781 L191.4844,228.6719 Q191.4844,229.9063 192.375,230.7266 Q193.2656,231.5469 194.8594,231.5469 Q195.7969,231.5469 196.4531,231.2969 Q196.8438,231.1406 197.2656,230.7031 Q197.5313,230.4375 197.6797,230.3594 Q197.8281,230.2813 198.0313,230.2813 Q198.3594,230.2813 198.6172,230.5391 Q198.875,230.7969 198.875,231.1406 Q198.875,231.4844 198.5313,231.8906 Q198.0313,232.4688 197.2344,232.7969 Q196.1563,233.25 194.8594,233.25 Q193.3438,233.25 192.1406,232.625 Q191.1563,232.125 190.4688,231.0547 Q189.7813,229.9844 189.7813,228.7031 L189.7813,227.5469 Q189.7813,226.2188 190.3984,225.0703 Q191.0156,223.9219 192.1094,223.3047 Q193.2031,222.6875 194.4375,222.6875 Q195.1719,222.6875 195.8203,222.8516 Q196.4688,223.0156 197.0156,223.375 Z " fill="#000000"/><text fill="#000000" font-family="sans-serif" font-size="14" lengthAdjust="spacing" textLength="18" x="214.75" y="233.2285">Db</text><line style="stroke:#181818;stroke-width:0.5;" x1="141.5" x2="273.5" y1="243.5" y2="243.5"/><line style="stroke:#181818;stroke-width:0.5;" x1="141.5" x2="273.5" y1="251.5" y2="251.5"/><text fill="#000000" font-family="sans-serif" font-size="14" lengthAdjust="spacing" textLength="122" x="146.5" y="270.0332">init(str connect_str)</text></g><!--MD5=[b2db8ccf06f2c83cde37e701a8b7a4d1]
class GresDb--><g id="elem_GresDb"><rect codeLine="21" fill="#F1F1F1" height="48" id="GresDb" rx="2.5" ry="2.5" style="stroke:#181818;stroke-width:0.5;" width="81" x="167" y="7"/><ellipse cx="182" cy="23" fill="#ADD1B2" rx="11" ry="11" style="stroke:#181818;stroke-width:1.0;"/><path d="M184.7656,18.875 Q184.9219,18.6563 185.1094,18.5469 Q185.2969,18.4375 185.5156,18.4375 Q185.8906,18.4375 186.125,18.6953 Q186.3594,18.9531 186.3594,19.5625 L186.3594,21.0156 Q186.3594,21.625 186.125,21.8906 Q185.8906,22.1563 185.5156,22.1563 Q185.1719,22.1563 184.9688,21.9531 Q184.7656,21.7656 184.6563,21.25 Q184.6094,20.8906 184.4219,20.7031 Q184.0938,20.3281 183.4844,20.1094 Q182.875,19.8906 182.25,19.8906 Q181.4844,19.8906 180.8516,20.2188 Q180.2188,20.5469 179.7266,21.2969 Q179.2344,22.0469 179.2344,23.0781 L179.2344,24.1719 Q179.2344,25.4063 180.125,26.2266 Q181.0156,27.0469 182.6094,27.0469 Q183.5469,27.0469 184.2031,26.7969 Q184.5938,26.6406 185.0156,26.2031 Q185.2813,25.9375 185.4297,25.8594 Q185.5781,25.7813 185.7813,25.7813 Q186.1094,25.7813 186.3672,26.0391 Q186.625,26.2969 186.625,26.6406 Q186.625,26.9844 186.2813,27.3906 Q185.7813,27.9688 184.9844,28.2969 Q183.9063,28.75 182.6094,28.75 Q181.0938,28.75 179.8906,28.125 Q178.9063,27.625 178.2188,26.5547 Q177.5313,25.4844 177.5313,24.2031 L177.5313,23.0469 Q177.5313,21.7188 178.1484,20.5703 Q178.7656,19.4219 179.8594,18.8047 Q180.9531,18.1875 182.1875,18.1875 Q182.9219,18.1875 183.5703,18.3516 Q184.2188,18.5156 184.7656,18.875 Z " fill="#000000"/><text fill="#000000" font-family="sans-serif" font-size="14" lengthAdjust="spacing" textLength="49" x="196" y="28.7285">GresDb</text><line style="stroke:#181818;stroke-width:0.5;" x1="168" x2="247" y1="39" y2="39"/><line style="stroke:#181818;stroke-width:0.5;" x1="168" x2="247" y1="47" y2="47"/></g><!--MD5=[4d307c3040e9f3ff2b2d0c8321016fdb]
class LiteDb--><g id="elem_LiteDb"><rect codeLine="22" fill="#F1F1F1" height="48" id="LiteDb" rx="2.5" ry="2.5" style="stroke:#181818;stroke-width:0.5;" width="73" x="32" y="220.5"/><ellipse cx="47" cy="236.5" fill="#ADD1B2" rx="11" ry="11" style="stroke:#181818;stroke-width:1.0;"/><path d="M49.7656,232.375 Q49.9219,232.1563 50.1094,232.0469 Q50.2969,231.9375 50.5156,231.9375 Q50.8906,231.9375 51.125,232.1953 Q51.3594,232.4531 51.3594,233.0625 L51.3594,234.5156 Q51.3594,235.125 51.125,235.3906 Q50.8906,235.6563 50.5156,235.6563 Q50.1719,235.6563 49.9688,235.4531 Q49.7656,235.2656 49.6563,234.75 Q49.6094,234.3906 49.4219,234.2031 Q49.0938,233.8281 48.4844,233.6094 Q47.875,233.3906 47.25,233.3906 Q46.4844,233.3906 45.8516,233.7188 Q45.2188,234.0469 44.7266,234.7969 Q44.2344,235.5469 44.2344,236.5781 L44.2344,237.6719 Q44.2344,238.9063 45.125,239.7266 Q46.0156,240.5469 47.6094,240.5469 Q48.5469,240.5469 49.2031,240.2969 Q49.5938,240.1406 50.0156,239.7031 Q50.2813,239.4375 50.4297,239.3594 Q50.5781,239.2813 50.7813,239.2813 Q51.1094,239.2813 51.3672,239.5391 Q51.625,239.7969 51.625,240.1406 Q51.625,240.4844 51.2813,240.8906 Q50.7813,241.4688 49.9844,241.7969 Q48.9063,242.25 47.6094,242.25 Q46.0938,242.25 44.8906,241.625 Q43.9063,241.125 43.2188,240.0547 Q42.5313,238.9844 42.5313,237.7031 L42.5313,236.5469 Q42.5313,235.2188 43.1484,234.0703 Q43.7656,232.9219 44.8594,232.3047 Q45.9531,231.6875 47.1875,231.6875 Q47.9219,231.6875 48.5703,231.8516 Q49.2188,232.0156 49.7656,232.375 Z " fill="#000000"/><text fill="#000000" font-family="sans-serif" font-size="14" lengthAdjust="spacing" textLength="41" x="61" y="242.2285">LiteDb</text><line style="stroke:#181818;stroke-width:0.5;" x1="33" x2="104" y1="252.5" y2="252.5"/><line style="stroke:#181818;stroke-width:0.5;" x1="33" x2="104" y1="260.5" y2="260.5"/></g><!--MD5=[04add1350e67c79380c0d55bbbeb7508]
class Savable--><g id="elem_Savable"><rect codeLine="24" fill="#F1F1F1" height="118.4375" id="Savable" rx="2.5" ry="2.5" style="stroke:#181818;stroke-width:0.5;" width="116" x="410.5" y="434"/><ellipse cx="440.35" cy="450" fill="#ADD1B2" rx="11" ry="11" style="stroke:#181818;stroke-width:1.0;"/><path d="M443.1156,445.875 Q443.2719,445.6563 443.4594,445.5469 Q443.6469,445.4375 443.8656,445.4375 Q444.2406,445.4375 444.475,445.6953 Q444.7094,445.9531 444.7094,446.5625 L444.7094,448.0156 Q444.7094,448.625 444.475,448.8906 Q444.2406,449.1563 443.8656,449.1563 Q443.5219,449.1563 443.3188,448.9531 Q443.1156,448.7656 443.0063,448.25 Q442.9594,447.8906 442.7719,447.7031 Q442.4438,447.3281 441.8344,447.1094 Q441.225,446.8906 440.6,446.8906 Q439.8344,446.8906 439.2016,447.2188 Q438.5688,447.5469 438.0766,448.2969 Q437.5844,449.0469 437.5844,450.0781 L437.5844,451.1719 Q437.5844,452.4063 438.475,453.2266 Q439.3656,454.0469 440.9594,454.0469 Q441.8969,454.0469 442.5531,453.7969 Q442.9438,453.6406 443.3656,453.2031 Q443.6313,452.9375 443.7797,452.8594 Q443.9281,452.7813 444.1313,452.7813 Q444.4594,452.7813 444.7172,453.0391 Q444.975,453.2969 444.975,453.6406 Q444.975,453.9844 444.6313,454.3906 Q444.1313,454.9688 443.3344,455.2969 Q442.2563,455.75 440.9594,455.75 Q439.4438,455.75 438.2406,455.125 Q437.2563,454.625 436.5688,453.5547 Q435.8813,452.4844 435.8813,451.2031 L435.8813,450.0469 Q435.8813,448.7188 436.4984,447.5703 Q437.1156,446.4219 438.2094,445.8047 Q439.3031,445.1875 440.5375,445.1875 Q441.2719,445.1875 441.9203,445.3516 Q442.5688,445.5156 443.1156,445.875 Z " fill="#000000"/><text fill="#000000" font-family="sans-serif" font-size="14" lengthAdjust="spacing" textLength="51" x="457.65" y="455.7285">Savable</text><line style="stroke:#181818;stroke-width:0.5;" x1="411.5" x2="525.5" y1="466" y2="466"/><text fill="#000000" font-family="sans-serif" font-size="14" lengthAdjust="spacing" textLength="56" x="416.5" y="484.5332">resource</text><line style="stroke:#181818;stroke-width:0.5;" x1="411.5" x2="525.5" y1="491.6094" y2="491.6094"/><text fill="#000000" font-family="sans-serif" font-size="14" lengthAdjust="spacing" textLength="104" x="416.5" y="510.1426">save(int level=0)</text><text fill="#000000" font-family="sans-serif" font-size="14" lengthAdjust="spacing" textLength="61" x="416.5" y="527.752">serialize()</text><text fill="#000000" font-family="sans-serif" font-size="14" lengthAdjust="spacing" textLength="77" x="416.5" y="545.3613">deserialize()</text></g><!--MD5=[c0b936abb008b3271898d4186b5531e4]
class Table--><g id="elem_Table"><rect codeLine="31" fill="#F1F1F1" height="65.6094" id="Table" rx="2.5" ry="2.5" style="stroke:#181818;stroke-width:0.5;" width="102" x="156.5" y="460"/><ellipse cx="186.8" cy="476" fill="#ADD1B2" rx="11" ry="11" style="stroke:#181818;stroke-width:1.0;"/><path d="M189.5656,471.875 Q189.7219,471.6563 189.9094,471.5469 Q190.0969,471.4375 190.3156,471.4375 Q190.6906,471.4375 190.925,471.6953 Q191.1594,471.9531 191.1594,472.5625 L191.1594,474.0156 Q191.1594,474.625 190.925,474.8906 Q190.6906,475.1563 190.3156,475.1563 Q189.9719,475.1563 189.7688,474.9531 Q189.5656,474.7656 189.4563,474.25 Q189.4094,473.8906 189.2219,473.7031 Q188.8938,473.3281 188.2844,473.1094 Q187.675,472.8906 187.05,472.8906 Q186.2844,472.8906 185.6516,473.2188 Q185.0188,473.5469 184.5266,474.2969 Q184.0344,475.0469 184.0344,476.0781 L184.0344,477.1719 Q184.0344,478.4063 184.925,479.2266 Q185.8156,480.0469 187.4094,480.0469 Q188.3469,480.0469 189.0031,479.7969 Q189.3938,479.6406 189.8156,479.2031 Q190.0813,478.9375 190.2297,478.8594 Q190.3781,478.7813 190.5813,478.7813 Q190.9094,478.7813 191.1672,479.0391 Q191.425,479.2969 191.425,479.6406 Q191.425,479.9844 191.0813,480.3906 Q190.5813,480.9688 189.7844,481.2969 Q188.7063,481.75 187.4094,481.75 Q185.8938,481.75 184.6906,481.125 Q183.7063,480.625 183.0188,479.5547 Q182.3313,478.4844 182.3313,477.2031 L182.3313,476.0469 Q182.3313,474.7188 182.9484,473.5703 Q183.5656,472.4219 184.6594,471.8047 Q185.7531,471.1875 186.9875,471.1875 Q187.7219,471.1875 188.3703,471.3516 Q189.0188,471.5156 189.5656,471.875 Z " fill="#000000"/><text fill="#000000" font-family="sans-serif" font-size="14" lengthAdjust="spacing" textLength="36" x="204.2" y="481.7285">Table</text><line style="stroke:#181818;stroke-width:0.5;" x1="157.5" x2="257.5" y1="492" y2="492"/><text fill="#000000" font-family="sans-serif" font-size="14" lengthAdjust="spacing" textLength="90" x="162.5" y="510.5332">name = res_id</text><line style="stroke:#181818;stroke-width:0.5;" x1="157.5" x2="257.5" y1="517.6094" y2="517.6094"/></g><!--MD5=[370961c8c67dbe83008ce44ed56af7e8]
class GresTable--><g id="elem_GresTable"><rect codeLine="35" fill="#F1F1F1" height="48" id="GresTable" rx="2.5" ry="2.5" style="stroke:#181818;stroke-width:0.5;" width="99" x="14" y="469"/><ellipse cx="29" cy="485" fill="#ADD1B2" rx="11" ry="11" style="stroke:#181818;stroke-width:1.0;"/><path d="M31.7656,480.875 Q31.9219,480.6563 32.1094,480.5469 Q32.2969,480.4375 32.5156,480.4375 Q32.8906,480.4375 33.125,480.6953 Q33.3594,480.9531 33.3594,481.5625 L33.3594,483.0156 Q33.3594,483.625 33.125,483.8906 Q32.8906,484.1563 32.5156,484.1563 Q32.1719,484.1563 31.9688,483.9531 Q31.7656,483.7656 31.6563,483.25 Q31.6094,482.8906 31.4219,482.7031 Q31.0938,482.3281 30.4844,482.1094 Q29.875,481.8906 29.25,481.8906 Q28.4844,481.8906 27.8516,482.2188 Q27.2188,482.5469 26.7266,483.2969 Q26.2344,484.0469 26.2344,485.0781 L26.2344,486.1719 Q26.2344,487.4063 27.125,488.2266 Q28.0156,489.0469 29.6094,489.0469 Q30.5469,489.0469 31.2031,488.7969 Q31.5938,488.6406 32.0156,488.2031 Q32.2813,487.9375 32.4297,487.8594 Q32.5781,487.7813 32.7813,487.7813 Q33.1094,487.7813 33.3672,488.0391 Q33.625,488.2969 33.625,488.6406 Q33.625,488.9844 33.2813,489.3906 Q32.7813,489.9688 31.9844,490.2969 Q30.9063,490.75 29.6094,490.75 Q28.0938,490.75 26.8906,490.125 Q25.9063,489.625 25.2188,488.5547 Q24.5313,487.4844 24.5313,486.2031 L24.5313,485.0469 Q24.5313,483.7188 25.1484,482.5703 Q25.7656,481.4219 26.8594,480.8047 Q27.9531,480.1875 29.1875,480.1875 Q29.9219,480.1875 30.5703,480.3516 Q31.2188,480.5156 31.7656,480.875 Z " fill="#000000"/><text fill="#000000" font-family="sans-serif" font-size="14" lengthAdjust="spacing" textLength="67" x="43" y="490.7285">GresTable</text><line style="stroke:#181818;stroke-width:0.5;" x1="15" x2="112" y1="501" y2="501"/><line style="stroke:#181818;stroke-width:0.5;" x1="15" x2="112" y1="509" y2="509"/></g><!--MD5=[d9ddd8318e09ba6dc510ea66047114ff]
class JsonbTable--><g id="elem_JsonbTable"><rect codeLine="36" fill="#F1F1F1" height="48" id="JsonbTable" rx="2.5" ry="2.5" style="stroke:#181818;stroke-width:0.5;" width="105" x="7" y="629.5"/><ellipse cx="22" cy="645.5" fill="#ADD1B2" rx="11" ry="11" style="stroke:#181818;stroke-width:1.0;"/><path d="M24.7656,641.375 Q24.9219,641.1563 25.1094,641.0469 Q25.2969,640.9375 25.5156,640.9375 Q25.8906,640.9375 26.125,641.1953 Q26.3594,641.4531 26.3594,642.0625 L26.3594,643.5156 Q26.3594,644.125 26.125,644.3906 Q25.8906,644.6563 25.5156,644.6563 Q25.1719,644.6563 24.9688,644.4531 Q24.7656,644.2656 24.6563,643.75 Q24.6094,643.3906 24.4219,643.2031 Q24.0938,642.8281 23.4844,642.6094 Q22.875,642.3906 22.25,642.3906 Q21.4844,642.3906 20.8516,642.7188 Q20.2188,643.0469 19.7266,643.7969 Q19.2344,644.5469 19.2344,645.5781 L19.2344,646.6719 Q19.2344,647.9063 20.125,648.7266 Q21.0156,649.5469 22.6094,649.5469 Q23.5469,649.5469 24.2031,649.2969 Q24.5938,649.1406 25.0156,648.7031 Q25.2813,648.4375 25.4297,648.3594 Q25.5781,648.2813 25.7813,648.2813 Q26.1094,648.2813 26.3672,648.5391 Q26.625,648.7969 26.625,649.1406 Q26.625,649.4844 26.2813,649.8906 Q25.7813,650.4688 24.9844,650.7969 Q23.9063,651.25 22.6094,651.25 Q21.0938,651.25 19.8906,650.625 Q18.9063,650.125 18.2188,649.0547 Q17.5313,647.9844 17.5313,646.7031 L17.5313,645.5469 Q17.5313,644.2188 18.1484,643.0703 Q18.7656,641.9219 19.8594,641.3047 Q20.9531,640.6875 22.1875,640.6875 Q22.9219,640.6875 23.5703,640.8516 Q24.2188,641.0156 24.7656,641.375 Z " fill="#000000"/><text fill="#000000" font-family="sans-serif" font-size="14" lengthAdjust="spacing" textLength="73" x="36" y="651.2285">JsonbTable</text><line style="stroke:#181818;stroke-width:0.5;" x1="8" x2="111" y1="661.5" y2="661.5"/><line style="stroke:#181818;stroke-width:0.5;" x1="8" x2="111" y1="669.5" y2="669.5"/></g><!--MD5=[80ff1cbdbf4e6fafe4447ae5c6d67dc9]
class LiteTable--><g id="elem_LiteTable"><rect codeLine="37" fill="#F1F1F1" height="48" id="LiteTable" rx="2.5" ry="2.5" style="stroke:#181818;stroke-width:0.5;" width="91" x="147" y="629.5"/><ellipse cx="162" cy="645.5" fill="#ADD1B2" rx="11" ry="11" style="stroke:#181818;stroke-width:1.0;"/><path d="M164.7656,641.375 Q164.9219,641.1563 165.1094,641.0469 Q165.2969,640.9375 165.5156,640.9375 Q165.8906,640.9375 166.125,641.1953 Q166.3594,641.4531 166.3594,642.0625 L166.3594,643.5156 Q166.3594,644.125 166.125,644.3906 Q165.8906,644.6563 165.5156,644.6563 Q165.1719,644.6563 164.9688,644.4531 Q164.7656,644.2656 164.6563,643.75 Q164.6094,643.3906 164.4219,643.2031 Q164.0938,642.8281 163.4844,642.6094 Q162.875,642.3906 162.25,642.3906 Q161.4844,642.3906 160.8516,642.7188 Q160.2188,643.0469 159.7266,643.7969 Q159.2344,644.5469 159.2344,645.5781 L159.2344,646.6719 Q159.2344,647.9063 160.125,648.7266 Q161.0156,649.5469 162.6094,649.5469 Q163.5469,649.5469 164.2031,649.2969 Q164.5938,649.1406 165.0156,648.7031 Q165.2813,648.4375 165.4297,648.3594 Q165.5781,648.2813 165.7813,648.2813 Q166.1094,648.2813 166.3672,648.5391 Q166.625,648.7969 166.625,649.1406 Q166.625,649.4844 166.2813,649.8906 Q165.7813,650.4688 164.9844,650.7969 Q163.9063,651.25 162.6094,651.25 Q161.0938,651.25 159.8906,650.625 Q158.9063,650.125 158.2188,649.0547 Q157.5313,647.9844 157.5313,646.7031 L157.5313,645.5469 Q157.5313,644.2188 158.1484,643.0703 Q158.7656,641.9219 159.8594,641.3047 Q160.9531,640.6875 162.1875,640.6875 Q162.9219,640.6875 163.5703,640.8516 Q164.2188,641.0156 164.7656,641.375 Z " fill="#000000"/><text fill="#000000" font-family="sans-serif" font-size="14" lengthAdjust="spacing" textLength="59" x="176" y="651.2285">LiteTable</text><line style="stroke:#181818;stroke-width:0.5;" x1="148" x2="237" y1="661.5" y2="661.5"/><line style="stroke:#181818;stroke-width:0.5;" x1="148" x2="237" y1="669.5" y2="669.5"/></g><!--MD5=[43d6d58434ec60818a2006166dc03379]
class TableHeader--><g id="elem_TableHeader"><rect codeLine="39" fill="#F1F1F1" height="48" id="TableHeader" rx="2.5" ry="2.5" style="stroke:#181818;stroke-width:0.5;" width="114" x="273.5" y="629.5"/><ellipse cx="288.5" cy="645.5" fill="#ADD1B2" rx="11" ry="11" style="stroke:#181818;stroke-width:1.0;"/><path d="M291.2656,641.375 Q291.4219,641.1563 291.6094,641.0469 Q291.7969,640.9375 292.0156,640.9375 Q292.3906,640.9375 292.625,641.1953 Q292.8594,641.4531 292.8594,642.0625 L292.8594,643.5156 Q292.8594,644.125 292.625,644.3906 Q292.3906,644.6563 292.0156,644.6563 Q291.6719,644.6563 291.4688,644.4531 Q291.2656,644.2656 291.1563,643.75 Q291.1094,643.3906 290.9219,643.2031 Q290.5938,642.8281 289.9844,642.6094 Q289.375,642.3906 288.75,642.3906 Q287.9844,642.3906 287.3516,642.7188 Q286.7188,643.0469 286.2266,643.7969 Q285.7344,644.5469 285.7344,645.5781 L285.7344,646.6719 Q285.7344,647.9063 286.625,648.7266 Q287.5156,649.5469 289.1094,649.5469 Q290.0469,649.5469 290.7031,649.2969 Q291.0938,649.1406 291.5156,648.7031 Q291.7813,648.4375 291.9297,648.3594 Q292.0781,648.2813 292.2813,648.2813 Q292.6094,648.2813 292.8672,648.5391 Q293.125,648.7969 293.125,649.1406 Q293.125,649.4844 292.7813,649.8906 Q292.2813,650.4688 291.4844,650.7969 Q290.4063,651.25 289.1094,651.25 Q287.5938,651.25 286.3906,650.625 Q285.4063,650.125 284.7188,649.0547 Q284.0313,647.9844 284.0313,646.7031 L284.0313,645.5469 Q284.0313,644.2188 284.6484,643.0703 Q285.2656,641.9219 286.3594,641.3047 Q287.4531,640.6875 288.6875,640.6875 Q289.4219,640.6875 290.0703,640.8516 Q290.7188,641.0156 291.2656,641.375 Z " fill="#000000"/><text fill="#000000" font-family="sans-serif" font-size="14" lengthAdjust="spacing" textLength="82" x="302.5" y="651.2285">TableHeader</text><line style="stroke:#181818;stroke-width:0.5;" x1="274.5" x2="386.5" y1="661.5" y2="661.5"/><line style="stroke:#181818;stroke-width:0.5;" x1="274.5" x2="386.5" y1="669.5" y2="669.5"/></g><!--MD5=[5de7445a3966e79bc254e6fe5fe40f7b]
class TableColumn--><g id="elem_TableColumn"><rect codeLine="40" fill="#F1F1F1" height="48" id="TableColumn" rx="2.5" ry="2.5" style="stroke:#181818;stroke-width:0.5;" width="116" x="422.5" y="629.5"/><ellipse cx="437.5" cy="645.5" fill="#ADD1B2" rx="11" ry="11" style="stroke:#181818;stroke-width:1.0;"/><path d="M440.2656,641.375 Q440.4219,641.1563 440.6094,641.0469 Q440.7969,640.9375 441.0156,640.9375 Q441.3906,640.9375 441.625,641.1953 Q441.8594,641.4531 441.8594,642.0625 L441.8594,643.5156 Q441.8594,644.125 441.625,644.3906 Q441.3906,644.6563 441.0156,644.6563 Q440.6719,644.6563 440.4688,644.4531 Q440.2656,644.2656 440.1563,643.75 Q440.1094,643.3906 439.9219,643.2031 Q439.5938,642.8281 438.9844,642.6094 Q438.375,642.3906 437.75,642.3906 Q436.9844,642.3906 436.3516,642.7188 Q435.7188,643.0469 435.2266,643.7969 Q434.7344,644.5469 434.7344,645.5781 L434.7344,646.6719 Q434.7344,647.9063 435.625,648.7266 Q436.5156,649.5469 438.1094,649.5469 Q439.0469,649.5469 439.7031,649.2969 Q440.0938,649.1406 440.5156,648.7031 Q440.7813,648.4375 440.9297,648.3594 Q441.0781,648.2813 441.2813,648.2813 Q441.6094,648.2813 441.8672,648.5391 Q442.125,648.7969 442.125,649.1406 Q442.125,649.4844 441.7813,649.8906 Q441.2813,650.4688 440.4844,650.7969 Q439.4063,651.25 438.1094,651.25 Q436.5938,651.25 435.3906,650.625 Q434.4063,650.125 433.7188,649.0547 Q433.0313,647.9844 433.0313,646.7031 L433.0313,645.5469 Q433.0313,644.2188 433.6484,643.0703 Q434.2656,641.9219 435.3594,641.3047 Q436.4531,640.6875 437.6875,640.6875 Q438.4219,640.6875 439.0703,640.8516 Q439.7188,641.0156 440.2656,641.375 Z " fill="#000000"/><text fill="#000000" font-family="sans-serif" font-size="14" lengthAdjust="spacing" textLength="84" x="451.5" y="651.2285">TableColumn</text><line style="stroke:#181818;stroke-width:0.5;" x1="423.5" x2="537.5" y1="661.5" y2="661.5"/><line style="stroke:#181818;stroke-width:0.5;" x1="423.5" x2="537.5" y1="669.5" y2="669.5"/></g><!--MD5=[8699619b1008ad6a65e734fe7c7e339d]
class NotNull--><g id="elem_NotNull"><rect codeLine="41" fill="#F1F1F1" height="48" id="NotNull" rx="2.5" ry="2.5" style="stroke:#181818;stroke-width:0.5;" width="76" x="283.5" y="7"/><ellipse cx="298.5" cy="23" fill="#ADD1B2" rx="11" ry="11" style="stroke:#181818;stroke-width:1.0;"/><path d="M301.2656,18.875 Q301.4219,18.6563 301.6094,18.5469 Q301.7969,18.4375 302.0156,18.4375 Q302.3906,18.4375 302.625,18.6953 Q302.8594,18.9531 302.8594,19.5625 L302.8594,21.0156 Q302.8594,21.625 302.625,21.8906 Q302.3906,22.1563 302.0156,22.1563 Q301.6719,22.1563 301.4688,21.9531 Q301.2656,21.7656 301.1563,21.25 Q301.1094,20.8906 300.9219,20.7031 Q300.5938,20.3281 299.9844,20.1094 Q299.375,19.8906 298.75,19.8906 Q297.9844,19.8906 297.3516,20.2188 Q296.7188,20.5469 296.2266,21.2969 Q295.7344,22.0469 295.7344,23.0781 L295.7344,24.1719 Q295.7344,25.4063 296.625,26.2266 Q297.5156,27.0469 299.1094,27.0469 Q300.0469,27.0469 300.7031,26.7969 Q301.0938,26.6406 301.5156,26.2031 Q301.7813,25.9375 301.9297,25.8594 Q302.0781,25.7813 302.2813,25.7813 Q302.6094,25.7813 302.8672,26.0391 Q303.125,26.2969 303.125,26.6406 Q303.125,26.9844 302.7813,27.3906 Q302.2813,27.9688 301.4844,28.2969 Q300.4063,28.75 299.1094,28.75 Q297.5938,28.75 296.3906,28.125 Q295.4063,27.625 294.7188,26.5547 Q294.0313,25.4844 294.0313,24.2031 L294.0313,23.0469 Q294.0313,21.7188 294.6484,20.5703 Q295.2656,19.4219 296.3594,18.8047 Q297.4531,18.1875 298.6875,18.1875 Q299.4219,18.1875 300.0703,18.3516 Q300.7188,18.5156 301.2656,18.875 Z " fill="#000000"/><text fill="#000000" font-family="sans-serif" font-size="14" lengthAdjust="spacing" textLength="44" x="312.5" y="28.7285">NotNull</text><line style="stroke:#181818;stroke-width:0.5;" x1="284.5" x2="358.5" y1="39" y2="39"/><line style="stroke:#181818;stroke-width:0.5;" x1="284.5" x2="358.5" y1="47" y2="47"/></g><!--MD5=[a6cda19987f54858434fa4113610982e]
class FileResource--><g id="elem_FileResource"><rect codeLine="43" fill="#F1F1F1" height="65.6094" id="FileResource" rx="2.5" ry="2.5" style="stroke:#181818;stroke-width:0.5;" width="116" x="772.5" y="460"/><ellipse cx="787.5" cy="476" fill="#ADD1B2" rx="11" ry="11" style="stroke:#181818;stroke-width:1.0;"/><path d="M790.2656,471.875 Q790.4219,471.6563 790.6094,471.5469 Q790.7969,471.4375 791.0156,471.4375 Q791.3906,471.4375 791.625,471.6953 Q791.8594,471.9531 791.8594,472.5625 L791.8594,474.0156 Q791.8594,474.625 791.625,474.8906 Q791.3906,475.1563 791.0156,475.1563 Q790.6719,475.1563 790.4688,474.9531 Q790.2656,474.7656 790.1563,474.25 Q790.1094,473.8906 789.9219,473.7031 Q789.5938,473.3281 788.9844,473.1094 Q788.375,472.8906 787.75,472.8906 Q786.9844,472.8906 786.3516,473.2188 Q785.7188,473.5469 785.2266,474.2969 Q784.7344,475.0469 784.7344,476.0781 L784.7344,477.1719 Q784.7344,478.4063 785.625,479.2266 Q786.5156,480.0469 788.1094,480.0469 Q789.0469,480.0469 789.7031,479.7969 Q790.0938,479.6406 790.5156,479.2031 Q790.7813,478.9375 790.9297,478.8594 Q791.0781,478.7813 791.2813,478.7813 Q791.6094,478.7813 791.8672,479.0391 Q792.125,479.2969 792.125,479.6406 Q792.125,479.9844 791.7813,480.3906 Q791.2813,480.9688 790.4844,481.2969 Q789.4063,481.75 788.1094,481.75 Q786.5938,481.75 785.3906,481.125 Q784.4063,480.625 783.7188,479.5547 Q783.0313,478.4844 783.0313,477.2031 L783.0313,476.0469 Q783.0313,474.7188 783.6484,473.5703 Q784.2656,472.4219 785.3594,471.8047 Q786.4531,471.1875 787.6875,471.1875 Q788.4219,471.1875 789.0703,471.3516 Q789.7188,471.5156 790.2656,471.875 Z " fill="#000000"/><text fill="#000000" font-family="sans-serif" font-size="14" lengthAdjust="spacing" textLength="84" x="801.5" y="481.7285">FileResource</text><line style="stroke:#181818;stroke-width:0.5;" x1="773.5" x2="887.5" y1="492" y2="492"/><line style="stroke:#181818;stroke-width:0.5;" x1="773.5" x2="887.5" y1="500" y2="500"/><text fill="#000000" font-family="sans-serif" font-size="14" lengthAdjust="spacing" textLength="76" x="778.5" y="518.5332">init(str path)</text></g><!--MD5=[e3c91158bcdad03aa33a6fcf074a92a7]
class IniFile--><g id="elem_IniFile"><rect codeLine="47" fill="#F1F1F1" height="48" id="IniFile" rx="2.5" ry="2.5" style="stroke:#181818;stroke-width:0.5;" width="69" x="874" y="220.5"/><ellipse cx="889" cy="236.5" fill="#ADD1B2" rx="11" ry="11" style="stroke:#181818;stroke-width:1.0;"/><path d="M891.7656,232.375 Q891.9219,232.1563 892.1094,232.0469 Q892.2969,231.9375 892.5156,231.9375 Q892.8906,231.9375 893.125,232.1953 Q893.3594,232.4531 893.3594,233.0625 L893.3594,234.5156 Q893.3594,235.125 893.125,235.3906 Q892.8906,235.6563 892.5156,235.6563 Q892.1719,235.6563 891.9688,235.4531 Q891.7656,235.2656 891.6563,234.75 Q891.6094,234.3906 891.4219,234.2031 Q891.0938,233.8281 890.4844,233.6094 Q889.875,233.3906 889.25,233.3906 Q888.4844,233.3906 887.8516,233.7188 Q887.2188,234.0469 886.7266,234.7969 Q886.2344,235.5469 886.2344,236.5781 L886.2344,237.6719 Q886.2344,238.9063 887.125,239.7266 Q888.0156,240.5469 889.6094,240.5469 Q890.5469,240.5469 891.2031,240.2969 Q891.5938,240.1406 892.0156,239.7031 Q892.2813,239.4375 892.4297,239.3594 Q892.5781,239.2813 892.7813,239.2813 Q893.1094,239.2813 893.3672,239.5391 Q893.625,239.7969 893.625,240.1406 Q893.625,240.4844 893.2813,240.8906 Q892.7813,241.4688 891.9844,241.7969 Q890.9063,242.25 889.6094,242.25 Q888.0938,242.25 886.8906,241.625 Q885.9063,241.125 885.2188,240.0547 Q884.5313,238.9844 884.5313,237.7031 L884.5313,236.5469 Q884.5313,235.2188 885.1484,234.0703 Q885.7656,232.9219 886.8594,232.3047 Q887.9531,231.6875 889.1875,231.6875 Q889.9219,231.6875 890.5703,231.8516 Q891.2188,232.0156 891.7656,232.375 Z " fill="#000000"/><text fill="#000000" font-family="sans-serif" font-size="14" lengthAdjust="spacing" textLength="37" x="903" y="242.2285">IniFile</text><line style="stroke:#181818;stroke-width:0.5;" x1="875" x2="942" y1="252.5" y2="252.5"/><line style="stroke:#181818;stroke-width:0.5;" x1="875" x2="942" y1="260.5" y2="260.5"/></g><!--MD5=[d6207198cce69febe883b1dce65d01a1]
class IniSection--><g id="elem_IniSection"><rect codeLine="48" fill="#F1F1F1" height="48" id="IniSection" rx="2.5" ry="2.5" style="stroke:#181818;stroke-width:0.5;" width="93" x="940" y="629.5"/><ellipse cx="955" cy="645.5" fill="#ADD1B2" rx="11" ry="11" style="stroke:#181818;stroke-width:1.0;"/><path d="M957.7656,641.375 Q957.9219,641.1563 958.1094,641.0469 Q958.2969,640.9375 958.5156,640.9375 Q958.8906,640.9375 959.125,641.1953 Q959.3594,641.4531 959.3594,642.0625 L959.3594,643.5156 Q959.3594,644.125 959.125,644.3906 Q958.8906,644.6563 958.5156,644.6563 Q958.1719,644.6563 957.9688,644.4531 Q957.7656,644.2656 957.6563,643.75 Q957.6094,643.3906 957.4219,643.2031 Q957.0938,642.8281 956.4844,642.6094 Q955.875,642.3906 955.25,642.3906 Q954.4844,642.3906 953.8516,642.7188 Q953.2188,643.0469 952.7266,643.7969 Q952.2344,644.5469 952.2344,645.5781 L952.2344,646.6719 Q952.2344,647.9063 953.125,648.7266 Q954.0156,649.5469 955.6094,649.5469 Q956.5469,649.5469 957.2031,649.2969 Q957.5938,649.1406 958.0156,648.7031 Q958.2813,648.4375 958.4297,648.3594 Q958.5781,648.2813 958.7813,648.2813 Q959.1094,648.2813 959.3672,648.5391 Q959.625,648.7969 959.625,649.1406 Q959.625,649.4844 959.2813,649.8906 Q958.7813,650.4688 957.9844,650.7969 Q956.9063,651.25 955.6094,651.25 Q954.0938,651.25 952.8906,650.625 Q951.9063,650.125 951.2188,649.0547 Q950.5313,647.9844 950.5313,646.7031 L950.5313,645.5469 Q950.5313,644.2188 951.1484,643.0703 Q951.7656,641.9219 952.8594,641.3047 Q953.9531,640.6875 955.1875,640.6875 Q955.9219,640.6875 956.5703,640.8516 Q957.2188,641.0156 957.7656,641.375 Z " fill="#000000"/><text fill="#000000" font-family="sans-serif" font-size="14" lengthAdjust="spacing" textLength="61" x="969" y="651.2285">IniSection</text><line style="stroke:#181818;stroke-width:0.5;" x1="941" x2="1032" y1="661.5" y2="661.5"/><line style="stroke:#181818;stroke-width:0.5;" x1="941" x2="1032" y1="669.5" y2="669.5"/></g><!--MD5=[e3e99a18f832b8bfe8c6c1c33e99e423]
class NoneIniSection--><g id="elem_NoneIniSection"><rect codeLine="49" fill="#F1F1F1" height="48" id="NoneIniSection" rx="2.5" ry="2.5" style="stroke:#181818;stroke-width:0.5;" width="126" x="923.5" y="469"/><ellipse cx="938.5" cy="485" fill="#ADD1B2" rx="11" ry="11" style="stroke:#181818;stroke-width:1.0;"/><path d="M941.2656,480.875 Q941.4219,480.6563 941.6094,480.5469 Q941.7969,480.4375 942.0156,480.4375 Q942.3906,480.4375 942.625,480.6953 Q942.8594,480.9531 942.8594,481.5625 L942.8594,483.0156 Q942.8594,483.625 942.625,483.8906 Q942.3906,484.1563 942.0156,484.1563 Q941.6719,484.1563 941.4688,483.9531 Q941.2656,483.7656 941.1563,483.25 Q941.1094,482.8906 940.9219,482.7031 Q940.5938,482.3281 939.9844,482.1094 Q939.375,481.8906 938.75,481.8906 Q937.9844,481.8906 937.3516,482.2188 Q936.7188,482.5469 936.2266,483.2969 Q935.7344,484.0469 935.7344,485.0781 L935.7344,486.1719 Q935.7344,487.4063 936.625,488.2266 Q937.5156,489.0469 939.1094,489.0469 Q940.0469,489.0469 940.7031,488.7969 Q941.0938,488.6406 941.5156,488.2031 Q941.7813,487.9375 941.9297,487.8594 Q942.0781,487.7813 942.2813,487.7813 Q942.6094,487.7813 942.8672,488.0391 Q943.125,488.2969 943.125,488.6406 Q943.125,488.9844 942.7813,489.3906 Q942.2813,489.9688 941.4844,490.2969 Q940.4063,490.75 939.1094,490.75 Q937.5938,490.75 936.3906,490.125 Q935.4063,489.625 934.7188,488.5547 Q934.0313,487.4844 934.0313,486.2031 L934.0313,485.0469 Q934.0313,483.7188 934.6484,482.5703 Q935.2656,481.4219 936.3594,480.8047 Q937.4531,480.1875 938.6875,480.1875 Q939.4219,480.1875 940.0703,480.3516 Q940.7188,480.5156 941.2656,480.875 Z " fill="#000000"/><text fill="#000000" font-family="sans-serif" font-size="14" lengthAdjust="spacing" textLength="94" x="952.5" y="490.7285">NoneIniSection</text><line style="stroke:#181818;stroke-width:0.5;" x1="924.5" x2="1048.5" y1="501" y2="501"/><line style="stroke:#181818;stroke-width:0.5;" x1="924.5" x2="1048.5" y1="509" y2="509"/></g><!--MD5=[715128bba345a62fb0ee618baa868826]
class JsonFile--><g id="elem_JsonFile"><rect codeLine="50" fill="#F1F1F1" height="48" id="JsonFile" rx="2.5" ry="2.5" style="stroke:#181818;stroke-width:0.5;" width="84" x="788.5" y="629.5"/><ellipse cx="803.5" cy="645.5" fill="#ADD1B2" rx="11" ry="11" style="stroke:#181818;stroke-width:1.0;"/><path d="M806.2656,641.375 Q806.4219,641.1563 806.6094,641.0469 Q806.7969,640.9375 807.0156,640.9375 Q807.3906,640.9375 807.625,641.1953 Q807.8594,641.4531 807.8594,642.0625 L807.8594,643.5156 Q807.8594,644.125 807.625,644.3906 Q807.3906,644.6563 807.0156,644.6563 Q806.6719,644.6563 806.4688,644.4531 Q806.2656,644.2656 806.1563,643.75 Q806.1094,643.3906 805.9219,643.2031 Q805.5938,642.8281 804.9844,642.6094 Q804.375,642.3906 803.75,642.3906 Q802.9844,642.3906 802.3516,642.7188 Q801.7188,643.0469 801.2266,643.7969 Q800.7344,644.5469 800.7344,645.5781 L800.7344,646.6719 Q800.7344,647.9063 801.625,648.7266 Q802.5156,649.5469 804.1094,649.5469 Q805.0469,649.5469 805.7031,649.2969 Q806.0938,649.1406 806.5156,648.7031 Q806.7813,648.4375 806.9297,648.3594 Q807.0781,648.2813 807.2813,648.2813 Q807.6094,648.2813 807.8672,648.5391 Q808.125,648.7969 808.125,649.1406 Q808.125,649.4844 807.7813,649.8906 Q807.2813,650.4688 806.4844,650.7969 Q805.4063,651.25 804.1094,651.25 Q802.5938,651.25 801.3906,650.625 Q800.4063,650.125 799.7188,649.0547 Q799.0313,647.9844 799.0313,646.7031 L799.0313,645.5469 Q799.0313,644.2188 799.6484,643.0703 Q800.2656,641.9219 801.3594,641.3047 Q802.4531,640.6875 803.6875,640.6875 Q804.4219,640.6875 805.0703,640.8516 Q805.7188,641.0156 806.2656,641.375 Z " fill="#000000"/><text fill="#000000" font-family="sans-serif" font-size="14" lengthAdjust="spacing" textLength="52" x="817.5" y="651.2285">JsonFile</text><line style="stroke:#181818;stroke-width:0.5;" x1="789.5" x2="871.5" y1="661.5" y2="661.5"/><line style="stroke:#181818;stroke-width:0.5;" x1="789.5" x2="871.5" y1="669.5" y2="669.5"/></g><!--MD5=[3fee75583bb7a64f68d843a3c9534ab3]
class Node--><g id="elem_Node"><rect codeLine="52" fill="#F1F1F1" height="100.8281" id="Node" rx="2.5" ry="2.5" style="stroke:#181818;stroke-width:0.5;" width="176" x="561.5" y="442.5"/><ellipse cx="628.75" cy="458.5" fill="#ADD1B2" rx="11" ry="11" style="stroke:#181818;stroke-width:1.0;"/><path d="M631.5156,454.375 Q631.6719,454.1563 631.8594,454.0469 Q632.0469,453.9375 632.2656,453.9375 Q632.6406,453.9375 632.875,454.1953 Q633.1094,454.4531 633.1094,455.0625 L633.1094,456.5156 Q633.1094,457.125 632.875,457.3906 Q632.6406,457.6563 632.2656,457.6563 Q631.9219,457.6563 631.7188,457.4531 Q631.5156,457.2656 631.4063,456.75 Q631.3594,456.3906 631.1719,456.2031 Q630.8438,455.8281 630.2344,455.6094 Q629.625,455.3906 629,455.3906 Q628.2344,455.3906 627.6016,455.7188 Q626.9688,456.0469 626.4766,456.7969 Q625.9844,457.5469 625.9844,458.5781 L625.9844,459.6719 Q625.9844,460.9063 626.875,461.7266 Q627.7656,462.5469 629.3594,462.5469 Q630.2969,462.5469 630.9531,462.2969 Q631.3438,462.1406 631.7656,461.7031 Q632.0313,461.4375 632.1797,461.3594 Q632.3281,461.2813 632.5313,461.2813 Q632.8594,461.2813 633.1172,461.5391 Q633.375,461.7969 633.375,462.1406 Q633.375,462.4844 633.0313,462.8906 Q632.5313,463.4688 631.7344,463.7969 Q630.6563,464.25 629.3594,464.25 Q627.8438,464.25 626.6406,463.625 Q625.6563,463.125 624.9688,462.0547 Q624.2813,460.9844 624.2813,459.7031 L624.2813,458.5469 Q624.2813,457.2188 624.8984,456.0703 Q625.5156,454.9219 626.6094,454.3047 Q627.7031,453.6875 628.9375,453.6875 Q629.6719,453.6875 630.3203,453.8516 Q630.9688,454.0156 631.5156,454.375 Z " fill="#000000"/><text fill="#000000" font-family="sans-serif" font-size="14" lengthAdjust="spacing" textLength="33" x="649.25" y="464.2285">Node</text><line style="stroke:#181818;stroke-width:0.5;" x1="562.5" x2="736.5" y1="474.5" y2="474.5"/><text fill="#000000" font-family="sans-serif" font-size="14" lengthAdjust="spacing" textLength="90" x="567.5" y="493.0332">"__exclude__"</text><line style="stroke:#181818;stroke-width:0.5;" x1="562.5" x2="736.5" y1="500.1094" y2="500.1094"/><text fill="#000000" font-family="sans-serif" font-size="14" lengthAdjust="spacing" textLength="88" x="567.5" y="518.6426">save(int level)</text><text fill="#000000" font-family="sans-serif" font-size="14" lengthAdjust="spacing" textLength="164" x="567.5" y="536.252">is_excluded(str atr_name)</text></g><!--MD5=[2486d40b882f2b25a6a3a545ecdc85be]
class TableNode--><g id="elem_TableNode"><rect codeLine="58" fill="#F1F1F1" height="83.2188" id="TableNode" rx="2.5" ry="2.5" style="stroke:#181818;stroke-width:0.5;" width="160" x="573.5" y="612"/><ellipse cx="615.05" cy="628" fill="#ADD1B2" rx="11" ry="11" style="stroke:#181818;stroke-width:1.0;"/><path d="M617.8156,623.875 Q617.9719,623.6563 618.1594,623.5469 Q618.3469,623.4375 618.5656,623.4375 Q618.9406,623.4375 619.175,623.6953 Q619.4094,623.9531 619.4094,624.5625 L619.4094,626.0156 Q619.4094,626.625 619.175,626.8906 Q618.9406,627.1563 618.5656,627.1563 Q618.2219,627.1563 618.0188,626.9531 Q617.8156,626.7656 617.7063,626.25 Q617.6594,625.8906 617.4719,625.7031 Q617.1438,625.3281 616.5344,625.1094 Q615.925,624.8906 615.3,624.8906 Q614.5344,624.8906 613.9016,625.2188 Q613.2688,625.5469 612.7766,626.2969 Q612.2844,627.0469 612.2844,628.0781 L612.2844,629.1719 Q612.2844,630.4063 613.175,631.2266 Q614.0656,632.0469 615.6594,632.0469 Q616.5969,632.0469 617.2531,631.7969 Q617.6438,631.6406 618.0656,631.2031 Q618.3313,630.9375 618.4797,630.8594 Q618.6281,630.7813 618.8313,630.7813 Q619.1594,630.7813 619.4172,631.0391 Q619.675,631.2969 619.675,631.6406 Q619.675,631.9844 619.3313,632.3906 Q618.8313,632.9688 618.0344,633.2969 Q616.9563,633.75 615.6594,633.75 Q614.1438,633.75 612.9406,633.125 Q611.9563,632.625 611.2688,631.5547 Q610.5813,630.4844 610.5813,629.2031 L610.5813,628.0469 Q610.5813,626.7188 611.1984,625.5703 Q611.8156,624.4219 612.9094,623.8047 Q614.0031,623.1875 615.2375,623.1875 Q615.9719,623.1875 616.6203,623.3516 Q617.2688,623.5156 617.8156,623.875 Z " fill="#000000"/><text fill="#000000" font-family="sans-serif" font-size="14" lengthAdjust="spacing" textLength="69" x="634.95" y="633.7285">TableNode</text><line style="stroke:#181818;stroke-width:0.5;" x1="574.5" x2="732.5" y1="644" y2="644"/><text fill="#000000" font-family="sans-serif" font-size="14" lengthAdjust="spacing" textLength="103" x="579.5" y="662.5332">table = resource</text><text fill="#000000" font-family="sans-serif" font-size="14" lengthAdjust="spacing" textLength="148" x="579.5" y="680.1426">db = resource.resource</text><line style="stroke:#181818;stroke-width:0.5;" x1="574.5" x2="732.5" y1="687.2188" y2="687.2188"/></g><!--MD5=[7b3e1712e9081d3d8b958043a5801735]
link Db to Resource--><g id="link_Db_Resource"><path codeLine="65" d="M274.53,244.5 C279.58,244.5 284.63,244.5 289.67,244.5 " fill="none" id="Db-to-Resource" style="stroke:#181818;stroke-width:1.0;"/><polygon fill="none" points="289.77,237.5,309.77,244.5,289.77,251.5,289.77,237.5" style="stroke:#181818;stroke-width:1.0;"/></g><!--MD5=[f99c02d12937b74020b8240a398a8d23]
link GresDb to Db--><g id="link_GresDb_Db"><path codeLine="66" d="M207.5,55.04 C207.5,87.44 207.5,147.39 207.5,191 " fill="none" id="GresDb-to-Db" style="stroke:#181818;stroke-width:1.0;"/><polygon fill="none" points="214.5,191.2,207.5,211.2,200.5,191.2,214.5,191.2" style="stroke:#181818;stroke-width:1.0;"/></g><!--MD5=[a335d8c56f8d19a4561fc9d26229b7a3]
link LiteDb to Db--><g id="link_LiteDb_Db"><path codeLine="67" d="M105.15,244.5 C110.19,244.5 115.23,244.5 120.27,244.5 " fill="none" id="LiteDb-to-Db" style="stroke:#181818;stroke-width:1.0;"/><polygon fill="none" points="120.33,237.5,140.33,244.5,120.33,251.5,120.33,237.5" style="stroke:#181818;stroke-width:1.0;"/></g><!--MD5=[1ccc123cd51227ade960b8cbb501f504]
link Db to Table--><g id="link_Db_Table"><path codeLine="68" d="M207.5,289.73 C207.5,289.73 207.5,402.12 207.5,446.5 " fill="none" id="Db-Table" style="stroke:#181818;stroke-width:1.0;"/><polygon fill="#181818" points="207.5,459.77,211.5,450.77,207.5,454.77,203.5,450.77,207.5,459.77" style="stroke:#181818;stroke-width:1.0;"/><line style="stroke:#181818;stroke-width:1.0;" x1="207.5" x2="207.5" y1="454.77" y2="446.77"/><polygon fill="none" points="207.5,277.73,203.5,283.73,207.5,289.73,211.5,283.73,207.5,277.73" style="stroke:#181818;stroke-width:1.0;"/></g><!--MD5=[d2ec28d69675ff84c1283f5029b203c0]
reverse link Resource to Savable--><g id="link_Resource_Savable"><path codeLine="69" d="M456,394.58 C456.27,408.35 456.77,421.68 457.48,433.82 " fill="none" id="Resource-backto-Savable" style="stroke:#181818;stroke-width:1.0;"/><polygon fill="none" points="449,394.25,455.76,374.16,463,394.08,449,394.25" style="stroke:#181818;stroke-width:1.0;"/></g><!--MD5=[5222c9fd74b60e35ab2e93d3d00836e7]
link Resource to Savable--><g id="link_Resource_Savable"><path codeLine="70" d="M481.8713,386.1594 C481.8713,386.1594 481.36,410.09 480.87,420.72 " fill="none" id="Resource-Savable" style="stroke:#181818;stroke-width:1.0;"/><polygon fill="#181818" points="480.17,433.82,484.6486,425.0484,480.4391,428.8272,476.6602,424.6177,480.17,433.82" style="stroke:#181818;stroke-width:1.0;"/><line style="stroke:#181818;stroke-width:1.0;" x1="480.4391" x2="480.865" y1="428.8272" y2="420.835"/><polygon fill="none" points="481.99,374.16,477.9309,380.1201,481.8713,386.1594,485.9305,380.1993,481.99,374.16" style="stroke:#181818;stroke-width:1.0;"/></g><!--MD5=[f9836f65ecaecd3a4f4f6bff8bbaeffc]
reverse link Savable to FileResource--><g id="link_Savable_FileResource"><path codeLine="71" d="M532.06,420.69 C541.08,413.95 550.79,408.11 561,404 C633.55,374.76 664.37,374.96 737,404 C765.09,415.23 789.56,439.37 806.41,459.67 " fill="none" id="Savable-backto-FileResource" style="stroke:#181818;stroke-width:1.0;"/><polygon fill="none" points="536.42,426.17,516.59,433.63,527.44,415.43,536.42,426.17" style="stroke:#181818;stroke-width:1.0;"/></g><!--MD5=[e63ee973a175bd36670afcfe55ac44ff]
link IniFile to FileResource--><g id="link_IniFile_FileResource"><path codeLine="72" d="M901.16,268.69 C888.78,307.82 863.46,387.84 846.73,440.7 " fill="none" id="IniFile-to-FileResource" style="stroke:#181818;stroke-width:1.0;"/><polygon fill="none" points="853.39,442.86,840.68,459.82,840.04,438.64,853.39,442.86" style="stroke:#181818;stroke-width:1.0;"/></g><!--MD5=[8d68989c58e3a5256308129b75697cae]
link IniFile to NoneIniSection--><g id="link_IniFile_NoneIniSection"><path codeLine="73" d="M919.4643,280.1296 C919.4643,280.1296 960.39,409.48 975.17,456.21 " fill="none" id="IniFile-NoneIniSection" style="stroke:#181818;stroke-width:1.0;"/><polygon fill="#181818" points="979.12,468.69,980.215,458.9022,977.6099,463.9235,972.5886,461.3184,979.12,468.69" style="stroke:#181818;stroke-width:1.0;"/><line style="stroke:#181818;stroke-width:1.0;" x1="977.6099" x2="975.2" y1="463.9235" y2="456.295"/><polygon fill="none" points="915.84,268.69,913.8389,275.6179,919.4643,280.1296,921.4653,273.2017,915.84,268.69" style="stroke:#181818;stroke-width:1.0;"/></g><!--MD5=[7ab78a78f01f13b3f8adaa147fbe9d58]
reverse link NoneIniSection to IniSection--><g id="link_NoneIniSection_IniSection"><path codeLine="74" d="M986.5,537.3 C986.5,567.04 986.5,605.35 986.5,629.42 " fill="none" id="NoneIniSection-backto-IniSection" style="stroke:#181818;stroke-width:1.0;"/><polygon fill="none" points="979.5,537.05,986.5,517.05,993.5,537.05,979.5,537.05" style="stroke:#181818;stroke-width:1.0;"/></g><!--MD5=[be61dba62c4da3d8f0a63ab43f39e3cc]
reverse link FileResource to JsonFile--><g id="link_FileResource_JsonFile"><path codeLine="75" d="M830.5,546.25 C830.5,574.31 830.5,607.49 830.5,629.21 " fill="none" id="FileResource-backto-JsonFile" style="stroke:#181818;stroke-width:1.0;"/><polygon fill="none" points="823.5,546.07,830.5,526.07,837.5,546.07,823.5,546.07" style="stroke:#181818;stroke-width:1.0;"/></g><!--MD5=[e527005c2b6ea5a209a486f8a584f00b]
link Table to Savable--><g id="link_Table_Savable"><path codeLine="76" d="M258.73,493 C302.55,493 346.37,493 390.19,493 " fill="none" id="Table-to-Savable" style="stroke:#181818;stroke-width:1.0;"/><polygon fill="none" points="390.32,486,410.32,493,390.32,500,390.32,486" style="stroke:#181818;stroke-width:1.0;"/></g><!--MD5=[51f38624dca375147f54fa729a19e73a]
link GresTable to Table--><g id="link_GresTable_Table"><path codeLine="77" d="M113.28,493 C120.91,493 128.53,493 136.16,493 " fill="none" id="GresTable-to-Table" style="stroke:#181818;stroke-width:1.0;"/><polygon fill="none" points="136.34,486,156.34,493,136.34,500,136.34,486" style="stroke:#181818;stroke-width:1.0;"/></g><!--MD5=[2267fa562c28ca81ba7d378d0de375b9]
reverse link GresTable to JsonbTable--><g id="link_GresTable_JsonbTable"><path codeLine="78" d="M62.41,537.3 C61.66,567.04 60.69,605.35 60.08,629.42 " fill="none" id="GresTable-backto-JsonbTable" style="stroke:#181818;stroke-width:1.0;"/><polygon fill="none" points="55.42,536.86,62.92,517.05,69.41,537.22,55.42,536.86" style="stroke:#181818;stroke-width:1.0;"/></g><!--MD5=[b8132b73519e6306962e830082501983]
reverse link Table to LiteTable--><g id="link_Table_LiteTable"><path codeLine="79" d="M202.55,546.25 C199.9,574.31 196.76,607.49 194.7,629.21 " fill="none" id="Table-backto-LiteTable" style="stroke:#181818;stroke-width:1.0;"/><polygon fill="none" points="195.61,545.33,204.46,526.07,209.55,546.65,195.61,545.33" style="stroke:#181818;stroke-width:1.0;"/></g><!--MD5=[898f62776bc99e1c278a663791d8a7e2]
link Table to TableHeader--><g id="link_Table_TableHeader"><path codeLine="80" d="M232.39,526.07 C254.91,555.1 287.73,597.39 309.1,624.93 " fill="none" id="Table-to-TableHeader" style="stroke:#181818;stroke-width:1.0;"/><polygon fill="#181818" points="312.43,629.21,310.0715,619.6477,309.3642,625.2602,303.7518,624.5529,312.43,629.21" style="stroke:#181818;stroke-width:1.0;"/></g><!--MD5=[b255d7e3895c07749ef7df1fca958c42]
reverse link Savable to Node--><g id="link_Savable_Node"><path codeLine="81" d="M547.05,493 C551.81,493 556.57,493 561.33,493 " fill="none" id="Savable-backto-Node" style="stroke:#181818;stroke-width:1.0;"/><polygon fill="none" points="546.83,500,526.83,493,546.83,486,546.83,500" style="stroke:#181818;stroke-width:1.0;"/></g><!--MD5=[232f0cccf99ab70271aee7c45d0b6eb2]
reverse link Node to TableNode--><g id="link_Node_TableNode"><path codeLine="82" d="M651.26,563.73 C651.68,580.23 652.11,597.28 652.48,611.98 " fill="none" id="Node-backto-TableNode" style="stroke:#181818;stroke-width:1.0;"/><polygon fill="none" points="644.26,563.89,650.75,543.72,658.26,563.53,644.26,563.89" style="stroke:#181818;stroke-width:1.0;"/></g><!--MD5=[5fba4b337d51fe203cd457259c7fd2bb]
reverse link Savable to TableHeader--><g id="link_Savable_TableHeader"><path codeLine="83" d="M404.59,567.4 C385.13,589.75 365.13,612.72 350.82,629.16 " fill="none" id="Savable-backto-TableHeader" style="stroke:#181818;stroke-width:1.0;"/><polygon fill="none" points="399.49,562.61,417.9,552.12,410.04,571.8,399.49,562.61" style="stroke:#181818;stroke-width:1.0;"/></g><!--MD5=[8f9cc1c9f398c994aff6bc54f7862ee3]
link TableHeader to TableColumn--><g id="link_TableHeader_TableColumn"><path codeLine="84" d="M399.63,653.5 C399.63,653.5 406.36,653.5 409.19,653.5 " fill="none" id="TableHeader-TableColumn" style="stroke:#181818;stroke-width:1.0;"/><polygon fill="#181818" points="422.46,653.5,413.46,649.5,417.46,653.5,413.46,657.5,422.46,653.5" style="stroke:#181818;stroke-width:1.0;"/><line style="stroke:#181818;stroke-width:1.0;" x1="417.46" x2="409.46" y1="653.5" y2="653.5"/><polygon fill="none" points="387.63,653.5,393.63,657.5,399.63,653.5,393.63,649.5,387.63,653.5" style="stroke:#181818;stroke-width:1.0;"/></g><!--MD5=[dc8ea39670c93db972e1cde5acd5ca00]
reverse link Savable to TableColumn--><g id="link_Savable_TableColumn"><path codeLine="85" d="M474.42,572.25 C476,593.03 477.58,613.91 478.73,629.16 " fill="none" id="Savable-backto-TableColumn" style="stroke:#181818;stroke-width:1.0;"/><polygon fill="none" points="467.43,572.59,472.9,552.12,481.39,571.53,467.43,572.59" style="stroke:#181818;stroke-width:1.0;"/></g><!--MD5=[b48a32e77445982ac6eec967f28b38c1]
@startuml
class Resource{    
    create(Savable resource, res_id=None)
    read(Object)
    update(Savable resource, res_id=None)
    delete(Savable resource, res_id=None ? Object)

    create_all(List[Savable])
    update_all(List[Savable])
    delete_all(?)
    
    "execute"(str script='')
    res_id
    name
}


class Db{
    init(str connect_str)
}

class GresDb{}
class LiteDb{}

class Savable{    
    resource
    save(int level=0)
    serialize()
    deserialize()    
}

class Table{
    name = res_id
}

class GresTable{}
class JsonbTable{}
class LiteTable{}

class TableHeader{}
class TableColumn{}
class NotNull{}

class FileResource{
    init(str path)
}

class IniFile{}
class IniSection{}
class NoneIniSection{}
class JsonFile{}

class Node{
    "__exclude__"
    save(int level)
    is_excluded(str atr_name)
}

class TableNode{
    table = resource
    db = resource.resource
}



Resource <|-left- Db
    Db <|-up- GresDb
    Db <|-left- LiteDb
    Db o-down-> Table
Resource <|- - Savable
Resource o- -> Savable
    Savable <|-right- FileResource
        FileResource <|-up- IniFile
            IniFile o- -> NoneIniSection
                NoneIniSection <|- - IniSection
        FileResource <|- - JsonFile
    Savable <|-left- Table
        Table <|-left- GresTable
            GresTable <|- - JsonbTable
        Table <|- - LiteTable
        Table - -> TableHeader
    Savable <|-right- Node
        Node <|- - TableNode
    Savable <|- - TableHeader
        TableHeader o-right-> TableColumn
    Savable <|- - TableColumn
@enduml

PlantUML version 1.2022.5(Sat Apr 30 13:55:52 MSK 2022)
(GPL source distribution)
Java Runtime: Java(TM) SE Runtime Environment
JVM: Java HotSpot(TM) 64-Bit Server VM
Default Encoding: Cp1251
Language: ru
Country: RU
--></g></svg>