<?xml version="1.0" encoding="UTF-8" standalone="no"?><svg xmlns="http://www.w3.org/2000/svg" xmlns:xlink="http://www.w3.org/1999/xlink" contentStyleType="text/css" height="668px" preserveAspectRatio="none" style="width:1031px;height:668px;background:#FFFFFF;" version="1.1" viewBox="0 0 1031 668" width="1031px" zoomAndPan="magnify"><defs/><g><!--MD5=[6b13f1b330d33795af281e5c1dfe1e98]
class Resource--><g id="elem_Resource"><rect codeLine="1" fill="#F1F1F1" height="241.7031" id="Resource" rx="2.5" ry="2.5" style="stroke:#181818;stroke-width:0.5;" width="317" x="285" y="115"/><ellipse cx="408.75" cy="131" fill="#ADD1B2" rx="11" ry="11" style="stroke:#181818;stroke-width:1.0;"/><path d="M411.5156,126.875 Q411.6719,126.6563 411.8594,126.5469 Q412.0469,126.4375 412.2656,126.4375 Q412.6406,126.4375 412.875,126.6953 Q413.1094,126.9531 413.1094,127.5625 L413.1094,129.0156 Q413.1094,129.625 412.875,129.8906 Q412.6406,130.1563 412.2656,130.1563 Q411.9219,130.1563 411.7188,129.9531 Q411.5156,129.7656 411.4063,129.25 Q411.3594,128.8906 411.1719,128.7031 Q410.8438,128.3281 410.2344,128.1094 Q409.625,127.8906 409,127.8906 Q408.2344,127.8906 407.6016,128.2188 Q406.9688,128.5469 406.4766,129.2969 Q405.9844,130.0469 405.9844,131.0781 L405.9844,132.1719 Q405.9844,133.4063 406.875,134.2266 Q407.7656,135.0469 409.3594,135.0469 Q410.2969,135.0469 410.9531,134.7969 Q411.3438,134.6406 411.7656,134.2031 Q412.0313,133.9375 412.1797,133.8594 Q412.3281,133.7813 412.5313,133.7813 Q412.8594,133.7813 413.1172,134.0391 Q413.375,134.2969 413.375,134.6406 Q413.375,134.9844 413.0313,135.3906 Q412.5313,135.9688 411.7344,136.2969 Q410.6563,136.75 409.3594,136.75 Q407.8438,136.75 406.6406,136.125 Q405.6563,135.625 404.9688,134.5547 Q404.2813,133.4844 404.2813,132.2031 L404.2813,131.0469 Q404.2813,129.7188 404.8984,128.5703 Q405.5156,127.4219 406.6094,126.8047 Q407.7031,126.1875 408.9375,126.1875 Q409.6719,126.1875 410.3203,126.3516 Q410.9688,126.5156 411.5156,126.875 Z " fill="#000000"/><text fill="#000000" font-family="sans-serif" font-size="14" lengthAdjust="spacing" textLength="61" x="429.25" y="136.7285">Resource</text><line style="stroke:#181818;stroke-width:0.5;" x1="286" x2="601" y1="147" y2="147"/><text fill="#000000" font-family="sans-serif" font-size="14" lengthAdjust="spacing" textLength="39" x="291" y="165.5332">res_id</text><line style="stroke:#181818;stroke-width:0.5;" x1="286" x2="601" y1="172.6094" y2="172.6094"/><text fill="#000000" font-family="sans-serif" font-size="14" lengthAdjust="spacing" textLength="249" x="291" y="191.1426">create(Savable resource, res_id=None)</text><text fill="#000000" font-family="sans-serif" font-size="14" lengthAdjust="spacing" textLength="80" x="291" y="208.752">read(Object)</text><text fill="#000000" font-family="sans-serif" font-size="14" lengthAdjust="spacing" textLength="253" x="291" y="226.3613">update(Savable resource, res_id=None)</text><text fill="#000000" font-family="sans-serif" font-size="14" lengthAdjust="spacing" textLength="305" x="291" y="243.9707">delete(Savable resource, res_id=None ? Object)</text><text fill="#000000" font-family="sans-serif" font-size="14" lengthAdjust="spacing" textLength="4" x="291" y="261.5801"> </text><text fill="#000000" font-family="sans-serif" font-size="14" lengthAdjust="spacing" textLength="153" x="291" y="279.1895">create_all(List[Savable])</text><text fill="#000000" font-family="sans-serif" font-size="14" lengthAdjust="spacing" textLength="157" x="291" y="296.7988">update_all(List[Savable])</text><text fill="#000000" font-family="sans-serif" font-size="14" lengthAdjust="spacing" textLength="79" x="291" y="314.4082">delete_all(?)</text><text fill="#000000" font-family="sans-serif" font-size="14" lengthAdjust="spacing" textLength="4" x="291" y="332.0176"> </text><text fill="#000000" font-family="sans-serif" font-size="14" lengthAdjust="spacing" textLength="137" x="291" y="349.627">"execute"(str script='')</text></g><!--MD5=[464be7afade68e010f8f1d76973bc1ef]
class Db--><g id="elem_Db"><rect codeLine="15" fill="#F1F1F1" height="65.6094" id="Db" rx="2.5" ry="2.5" style="stroke:#181818;stroke-width:0.5;" width="134" x="115.5" y="203"/><ellipse cx="169.25" cy="219" fill="#ADD1B2" rx="11" ry="11" style="stroke:#181818;stroke-width:1.0;"/><path d="M172.0156,214.875 Q172.1719,214.6563 172.3594,214.5469 Q172.5469,214.4375 172.7656,214.4375 Q173.1406,214.4375 173.375,214.6953 Q173.6094,214.9531 173.6094,215.5625 L173.6094,217.0156 Q173.6094,217.625 173.375,217.8906 Q173.1406,218.1563 172.7656,218.1563 Q172.4219,218.1563 172.2188,217.9531 Q172.0156,217.7656 171.9063,217.25 Q171.8594,216.8906 171.6719,216.7031 Q171.3438,216.3281 170.7344,216.1094 Q170.125,215.8906 169.5,215.8906 Q168.7344,215.8906 168.1016,216.2188 Q167.4688,216.5469 166.9766,217.2969 Q166.4844,218.0469 166.4844,219.0781 L166.4844,220.1719 Q166.4844,221.4063 167.375,222.2266 Q168.2656,223.0469 169.8594,223.0469 Q170.7969,223.0469 171.4531,222.7969 Q171.8438,222.6406 172.2656,222.2031 Q172.5313,221.9375 172.6797,221.8594 Q172.8281,221.7813 173.0313,221.7813 Q173.3594,221.7813 173.6172,222.0391 Q173.875,222.2969 173.875,222.6406 Q173.875,222.9844 173.5313,223.3906 Q173.0313,223.9688 172.2344,224.2969 Q171.1563,224.75 169.8594,224.75 Q168.3438,224.75 167.1406,224.125 Q166.1563,223.625 165.4688,222.5547 Q164.7813,221.4844 164.7813,220.2031 L164.7813,219.0469 Q164.7813,217.7188 165.3984,216.5703 Q166.0156,215.4219 167.1094,214.8047 Q168.2031,214.1875 169.4375,214.1875 Q170.1719,214.1875 170.8203,214.3516 Q171.4688,214.5156 172.0156,214.875 Z " fill="#000000"/><text fill="#000000" font-family="sans-serif" font-size="14" lengthAdjust="spacing" textLength="18" x="189.75" y="224.7285">Db</text><line style="stroke:#181818;stroke-width:0.5;" x1="116.5" x2="248.5" y1="235" y2="235"/><line style="stroke:#181818;stroke-width:0.5;" x1="116.5" x2="248.5" y1="243" y2="243"/><text fill="#000000" font-family="sans-serif" font-size="14" lengthAdjust="spacing" textLength="122" x="121.5" y="261.5332">init(str connect_str)</text></g><!--MD5=[b2db8ccf06f2c83cde37e701a8b7a4d1]
class GresDb--><g id="elem_GresDb"><rect codeLine="19" fill="#F1F1F1" height="48" id="GresDb" rx="2.5" ry="2.5" style="stroke:#181818;stroke-width:0.5;" width="81" x="142" y="7"/><ellipse cx="157" cy="23" fill="#ADD1B2" rx="11" ry="11" style="stroke:#181818;stroke-width:1.0;"/><path d="M159.7656,18.875 Q159.9219,18.6563 160.1094,18.5469 Q160.2969,18.4375 160.5156,18.4375 Q160.8906,18.4375 161.125,18.6953 Q161.3594,18.9531 161.3594,19.5625 L161.3594,21.0156 Q161.3594,21.625 161.125,21.8906 Q160.8906,22.1563 160.5156,22.1563 Q160.1719,22.1563 159.9688,21.9531 Q159.7656,21.7656 159.6563,21.25 Q159.6094,20.8906 159.4219,20.7031 Q159.0938,20.3281 158.4844,20.1094 Q157.875,19.8906 157.25,19.8906 Q156.4844,19.8906 155.8516,20.2188 Q155.2188,20.5469 154.7266,21.2969 Q154.2344,22.0469 154.2344,23.0781 L154.2344,24.1719 Q154.2344,25.4063 155.125,26.2266 Q156.0156,27.0469 157.6094,27.0469 Q158.5469,27.0469 159.2031,26.7969 Q159.5938,26.6406 160.0156,26.2031 Q160.2813,25.9375 160.4297,25.8594 Q160.5781,25.7813 160.7813,25.7813 Q161.1094,25.7813 161.3672,26.0391 Q161.625,26.2969 161.625,26.6406 Q161.625,26.9844 161.2813,27.3906 Q160.7813,27.9688 159.9844,28.2969 Q158.9063,28.75 157.6094,28.75 Q156.0938,28.75 154.8906,28.125 Q153.9063,27.625 153.2188,26.5547 Q152.5313,25.4844 152.5313,24.2031 L152.5313,23.0469 Q152.5313,21.7188 153.1484,20.5703 Q153.7656,19.4219 154.8594,18.8047 Q155.9531,18.1875 157.1875,18.1875 Q157.9219,18.1875 158.5703,18.3516 Q159.2188,18.5156 159.7656,18.875 Z " fill="#000000"/><text fill="#000000" font-family="sans-serif" font-size="14" lengthAdjust="spacing" textLength="49" x="171" y="28.7285">GresDb</text><line style="stroke:#181818;stroke-width:0.5;" x1="143" x2="222" y1="39" y2="39"/><line style="stroke:#181818;stroke-width:0.5;" x1="143" x2="222" y1="47" y2="47"/></g><!--MD5=[4d307c3040e9f3ff2b2d0c8321016fdb]
class LiteDb--><g id="elem_LiteDb"><rect codeLine="20" fill="#F1F1F1" height="48" id="LiteDb" rx="2.5" ry="2.5" style="stroke:#181818;stroke-width:0.5;" width="73" x="7" y="212"/><ellipse cx="22" cy="228" fill="#ADD1B2" rx="11" ry="11" style="stroke:#181818;stroke-width:1.0;"/><path d="M24.7656,223.875 Q24.9219,223.6563 25.1094,223.5469 Q25.2969,223.4375 25.5156,223.4375 Q25.8906,223.4375 26.125,223.6953 Q26.3594,223.9531 26.3594,224.5625 L26.3594,226.0156 Q26.3594,226.625 26.125,226.8906 Q25.8906,227.1563 25.5156,227.1563 Q25.1719,227.1563 24.9688,226.9531 Q24.7656,226.7656 24.6563,226.25 Q24.6094,225.8906 24.4219,225.7031 Q24.0938,225.3281 23.4844,225.1094 Q22.875,224.8906 22.25,224.8906 Q21.4844,224.8906 20.8516,225.2188 Q20.2188,225.5469 19.7266,226.2969 Q19.2344,227.0469 19.2344,228.0781 L19.2344,229.1719 Q19.2344,230.4063 20.125,231.2266 Q21.0156,232.0469 22.6094,232.0469 Q23.5469,232.0469 24.2031,231.7969 Q24.5938,231.6406 25.0156,231.2031 Q25.2813,230.9375 25.4297,230.8594 Q25.5781,230.7813 25.7813,230.7813 Q26.1094,230.7813 26.3672,231.0391 Q26.625,231.2969 26.625,231.6406 Q26.625,231.9844 26.2813,232.3906 Q25.7813,232.9688 24.9844,233.2969 Q23.9063,233.75 22.6094,233.75 Q21.0938,233.75 19.8906,233.125 Q18.9063,232.625 18.2188,231.5547 Q17.5313,230.4844 17.5313,229.2031 L17.5313,228.0469 Q17.5313,226.7188 18.1484,225.5703 Q18.7656,224.4219 19.8594,223.8047 Q20.9531,223.1875 22.1875,223.1875 Q22.9219,223.1875 23.5703,223.3516 Q24.2188,223.5156 24.7656,223.875 Z " fill="#000000"/><text fill="#000000" font-family="sans-serif" font-size="14" lengthAdjust="spacing" textLength="41" x="36" y="233.7285">LiteDb</text><line style="stroke:#181818;stroke-width:0.5;" x1="8" x2="79" y1="244" y2="244"/><line style="stroke:#181818;stroke-width:0.5;" x1="8" x2="79" y1="252" y2="252"/></g><!--MD5=[04add1350e67c79380c0d55bbbeb7508]
class Savable--><g id="elem_Savable"><rect codeLine="22" fill="#F1F1F1" height="118.4375" id="Savable" rx="2.5" ry="2.5" style="stroke:#181818;stroke-width:0.5;" width="116" x="385.5" y="426"/><ellipse cx="415.35" cy="442" fill="#ADD1B2" rx="11" ry="11" style="stroke:#181818;stroke-width:1.0;"/><path d="M418.1156,437.875 Q418.2719,437.6563 418.4594,437.5469 Q418.6469,437.4375 418.8656,437.4375 Q419.2406,437.4375 419.475,437.6953 Q419.7094,437.9531 419.7094,438.5625 L419.7094,440.0156 Q419.7094,440.625 419.475,440.8906 Q419.2406,441.1563 418.8656,441.1563 Q418.5219,441.1563 418.3188,440.9531 Q418.1156,440.7656 418.0063,440.25 Q417.9594,439.8906 417.7719,439.7031 Q417.4438,439.3281 416.8344,439.1094 Q416.225,438.8906 415.6,438.8906 Q414.8344,438.8906 414.2016,439.2188 Q413.5688,439.5469 413.0766,440.2969 Q412.5844,441.0469 412.5844,442.0781 L412.5844,443.1719 Q412.5844,444.4063 413.475,445.2266 Q414.3656,446.0469 415.9594,446.0469 Q416.8969,446.0469 417.5531,445.7969 Q417.9438,445.6406 418.3656,445.2031 Q418.6313,444.9375 418.7797,444.8594 Q418.9281,444.7813 419.1313,444.7813 Q419.4594,444.7813 419.7172,445.0391 Q419.975,445.2969 419.975,445.6406 Q419.975,445.9844 419.6313,446.3906 Q419.1313,446.9688 418.3344,447.2969 Q417.2563,447.75 415.9594,447.75 Q414.4438,447.75 413.2406,447.125 Q412.2563,446.625 411.5688,445.5547 Q410.8813,444.4844 410.8813,443.2031 L410.8813,442.0469 Q410.8813,440.7188 411.4984,439.5703 Q412.1156,438.4219 413.2094,437.8047 Q414.3031,437.1875 415.5375,437.1875 Q416.2719,437.1875 416.9203,437.3516 Q417.5688,437.5156 418.1156,437.875 Z " fill="#000000"/><text fill="#000000" font-family="sans-serif" font-size="14" lengthAdjust="spacing" textLength="51" x="432.65" y="447.7285">Savable</text><line style="stroke:#181818;stroke-width:0.5;" x1="386.5" x2="500.5" y1="458" y2="458"/><text fill="#000000" font-family="sans-serif" font-size="14" lengthAdjust="spacing" textLength="56" x="391.5" y="476.5332">resource</text><line style="stroke:#181818;stroke-width:0.5;" x1="386.5" x2="500.5" y1="483.6094" y2="483.6094"/><text fill="#000000" font-family="sans-serif" font-size="14" lengthAdjust="spacing" textLength="104" x="391.5" y="502.1426">save(int level=0)</text><text fill="#000000" font-family="sans-serif" font-size="14" lengthAdjust="spacing" textLength="61" x="391.5" y="519.752">serialize()</text><text fill="#000000" font-family="sans-serif" font-size="14" lengthAdjust="spacing" textLength="77" x="391.5" y="537.3613">deserialize()</text></g><!--MD5=[c0b936abb008b3271898d4186b5531e4]
class Table--><g id="elem_Table"><rect codeLine="29" fill="#F1F1F1" height="48" id="Table" rx="2.5" ry="2.5" style="stroke:#181818;stroke-width:0.5;" width="68" x="210.5" y="461"/><ellipse cx="225.5" cy="477" fill="#ADD1B2" rx="11" ry="11" style="stroke:#181818;stroke-width:1.0;"/><path d="M228.2656,472.875 Q228.4219,472.6563 228.6094,472.5469 Q228.7969,472.4375 229.0156,472.4375 Q229.3906,472.4375 229.625,472.6953 Q229.8594,472.9531 229.8594,473.5625 L229.8594,475.0156 Q229.8594,475.625 229.625,475.8906 Q229.3906,476.1563 229.0156,476.1563 Q228.6719,476.1563 228.4688,475.9531 Q228.2656,475.7656 228.1563,475.25 Q228.1094,474.8906 227.9219,474.7031 Q227.5938,474.3281 226.9844,474.1094 Q226.375,473.8906 225.75,473.8906 Q224.9844,473.8906 224.3516,474.2188 Q223.7188,474.5469 223.2266,475.2969 Q222.7344,476.0469 222.7344,477.0781 L222.7344,478.1719 Q222.7344,479.4063 223.625,480.2266 Q224.5156,481.0469 226.1094,481.0469 Q227.0469,481.0469 227.7031,480.7969 Q228.0938,480.6406 228.5156,480.2031 Q228.7813,479.9375 228.9297,479.8594 Q229.0781,479.7813 229.2813,479.7813 Q229.6094,479.7813 229.8672,480.0391 Q230.125,480.2969 230.125,480.6406 Q230.125,480.9844 229.7813,481.3906 Q229.2813,481.9688 228.4844,482.2969 Q227.4063,482.75 226.1094,482.75 Q224.5938,482.75 223.3906,482.125 Q222.4063,481.625 221.7188,480.5547 Q221.0313,479.4844 221.0313,478.2031 L221.0313,477.0469 Q221.0313,475.7188 221.6484,474.5703 Q222.2656,473.4219 223.3594,472.8047 Q224.4531,472.1875 225.6875,472.1875 Q226.4219,472.1875 227.0703,472.3516 Q227.7188,472.5156 228.2656,472.875 Z " fill="#000000"/><text fill="#000000" font-family="sans-serif" font-size="14" lengthAdjust="spacing" textLength="36" x="239.5" y="482.7285">Table</text><line style="stroke:#181818;stroke-width:0.5;" x1="211.5" x2="277.5" y1="493" y2="493"/><line style="stroke:#181818;stroke-width:0.5;" x1="211.5" x2="277.5" y1="501" y2="501"/></g><!--MD5=[370961c8c67dbe83008ce44ed56af7e8]
class GresTable--><g id="elem_GresTable"><rect codeLine="31" fill="#F1F1F1" height="48" id="GresTable" rx="2.5" ry="2.5" style="stroke:#181818;stroke-width:0.5;" width="99" x="69" y="461"/><ellipse cx="84" cy="477" fill="#ADD1B2" rx="11" ry="11" style="stroke:#181818;stroke-width:1.0;"/><path d="M86.7656,472.875 Q86.9219,472.6563 87.1094,472.5469 Q87.2969,472.4375 87.5156,472.4375 Q87.8906,472.4375 88.125,472.6953 Q88.3594,472.9531 88.3594,473.5625 L88.3594,475.0156 Q88.3594,475.625 88.125,475.8906 Q87.8906,476.1563 87.5156,476.1563 Q87.1719,476.1563 86.9688,475.9531 Q86.7656,475.7656 86.6563,475.25 Q86.6094,474.8906 86.4219,474.7031 Q86.0938,474.3281 85.4844,474.1094 Q84.875,473.8906 84.25,473.8906 Q83.4844,473.8906 82.8516,474.2188 Q82.2188,474.5469 81.7266,475.2969 Q81.2344,476.0469 81.2344,477.0781 L81.2344,478.1719 Q81.2344,479.4063 82.125,480.2266 Q83.0156,481.0469 84.6094,481.0469 Q85.5469,481.0469 86.2031,480.7969 Q86.5938,480.6406 87.0156,480.2031 Q87.2813,479.9375 87.4297,479.8594 Q87.5781,479.7813 87.7813,479.7813 Q88.1094,479.7813 88.3672,480.0391 Q88.625,480.2969 88.625,480.6406 Q88.625,480.9844 88.2813,481.3906 Q87.7813,481.9688 86.9844,482.2969 Q85.9063,482.75 84.6094,482.75 Q83.0938,482.75 81.8906,482.125 Q80.9063,481.625 80.2188,480.5547 Q79.5313,479.4844 79.5313,478.2031 L79.5313,477.0469 Q79.5313,475.7188 80.1484,474.5703 Q80.7656,473.4219 81.8594,472.8047 Q82.9531,472.1875 84.1875,472.1875 Q84.9219,472.1875 85.5703,472.3516 Q86.2188,472.5156 86.7656,472.875 Z " fill="#000000"/><text fill="#000000" font-family="sans-serif" font-size="14" lengthAdjust="spacing" textLength="67" x="98" y="482.7285">GresTable</text><line style="stroke:#181818;stroke-width:0.5;" x1="70" x2="167" y1="493" y2="493"/><line style="stroke:#181818;stroke-width:0.5;" x1="70" x2="167" y1="501" y2="501"/></g><!--MD5=[d9ddd8318e09ba6dc510ea66047114ff]
class JsonbTable--><g id="elem_JsonbTable"><rect codeLine="32" fill="#F1F1F1" height="48" id="JsonbTable" rx="2.5" ry="2.5" style="stroke:#181818;stroke-width:0.5;" width="105" x="59" y="613"/><ellipse cx="74" cy="629" fill="#ADD1B2" rx="11" ry="11" style="stroke:#181818;stroke-width:1.0;"/><path d="M76.7656,624.875 Q76.9219,624.6563 77.1094,624.5469 Q77.2969,624.4375 77.5156,624.4375 Q77.8906,624.4375 78.125,624.6953 Q78.3594,624.9531 78.3594,625.5625 L78.3594,627.0156 Q78.3594,627.625 78.125,627.8906 Q77.8906,628.1563 77.5156,628.1563 Q77.1719,628.1563 76.9688,627.9531 Q76.7656,627.7656 76.6563,627.25 Q76.6094,626.8906 76.4219,626.7031 Q76.0938,626.3281 75.4844,626.1094 Q74.875,625.8906 74.25,625.8906 Q73.4844,625.8906 72.8516,626.2188 Q72.2188,626.5469 71.7266,627.2969 Q71.2344,628.0469 71.2344,629.0781 L71.2344,630.1719 Q71.2344,631.4063 72.125,632.2266 Q73.0156,633.0469 74.6094,633.0469 Q75.5469,633.0469 76.2031,632.7969 Q76.5938,632.6406 77.0156,632.2031 Q77.2813,631.9375 77.4297,631.8594 Q77.5781,631.7813 77.7813,631.7813 Q78.1094,631.7813 78.3672,632.0391 Q78.625,632.2969 78.625,632.6406 Q78.625,632.9844 78.2813,633.3906 Q77.7813,633.9688 76.9844,634.2969 Q75.9063,634.75 74.6094,634.75 Q73.0938,634.75 71.8906,634.125 Q70.9063,633.625 70.2188,632.5547 Q69.5313,631.4844 69.5313,630.2031 L69.5313,629.0469 Q69.5313,627.7188 70.1484,626.5703 Q70.7656,625.4219 71.8594,624.8047 Q72.9531,624.1875 74.1875,624.1875 Q74.9219,624.1875 75.5703,624.3516 Q76.2188,624.5156 76.7656,624.875 Z " fill="#000000"/><text fill="#000000" font-family="sans-serif" font-size="14" lengthAdjust="spacing" textLength="73" x="88" y="634.7285">JsonbTable</text><line style="stroke:#181818;stroke-width:0.5;" x1="60" x2="163" y1="645" y2="645"/><line style="stroke:#181818;stroke-width:0.5;" x1="60" x2="163" y1="653" y2="653"/></g><!--MD5=[80ff1cbdbf4e6fafe4447ae5c6d67dc9]
class LiteTable--><g id="elem_LiteTable"><rect codeLine="33" fill="#F1F1F1" height="48" id="LiteTable" rx="2.5" ry="2.5" style="stroke:#181818;stroke-width:0.5;" width="91" x="199" y="613"/><ellipse cx="214" cy="629" fill="#ADD1B2" rx="11" ry="11" style="stroke:#181818;stroke-width:1.0;"/><path d="M216.7656,624.875 Q216.9219,624.6563 217.1094,624.5469 Q217.2969,624.4375 217.5156,624.4375 Q217.8906,624.4375 218.125,624.6953 Q218.3594,624.9531 218.3594,625.5625 L218.3594,627.0156 Q218.3594,627.625 218.125,627.8906 Q217.8906,628.1563 217.5156,628.1563 Q217.1719,628.1563 216.9688,627.9531 Q216.7656,627.7656 216.6563,627.25 Q216.6094,626.8906 216.4219,626.7031 Q216.0938,626.3281 215.4844,626.1094 Q214.875,625.8906 214.25,625.8906 Q213.4844,625.8906 212.8516,626.2188 Q212.2188,626.5469 211.7266,627.2969 Q211.2344,628.0469 211.2344,629.0781 L211.2344,630.1719 Q211.2344,631.4063 212.125,632.2266 Q213.0156,633.0469 214.6094,633.0469 Q215.5469,633.0469 216.2031,632.7969 Q216.5938,632.6406 217.0156,632.2031 Q217.2813,631.9375 217.4297,631.8594 Q217.5781,631.7813 217.7813,631.7813 Q218.1094,631.7813 218.3672,632.0391 Q218.625,632.2969 218.625,632.6406 Q218.625,632.9844 218.2813,633.3906 Q217.7813,633.9688 216.9844,634.2969 Q215.9063,634.75 214.6094,634.75 Q213.0938,634.75 211.8906,634.125 Q210.9063,633.625 210.2188,632.5547 Q209.5313,631.4844 209.5313,630.2031 L209.5313,629.0469 Q209.5313,627.7188 210.1484,626.5703 Q210.7656,625.4219 211.8594,624.8047 Q212.9531,624.1875 214.1875,624.1875 Q214.9219,624.1875 215.5703,624.3516 Q216.2188,624.5156 216.7656,624.875 Z " fill="#000000"/><text fill="#000000" font-family="sans-serif" font-size="14" lengthAdjust="spacing" textLength="59" x="228" y="634.7285">LiteTable</text><line style="stroke:#181818;stroke-width:0.5;" x1="200" x2="289" y1="645" y2="645"/><line style="stroke:#181818;stroke-width:0.5;" x1="200" x2="289" y1="653" y2="653"/></g><!--MD5=[43d6d58434ec60818a2006166dc03379]
class TableHeader--><g id="elem_TableHeader"><rect codeLine="35" fill="#F1F1F1" height="48" id="TableHeader" rx="2.5" ry="2.5" style="stroke:#181818;stroke-width:0.5;" width="114" x="325.5" y="613"/><ellipse cx="340.5" cy="629" fill="#ADD1B2" rx="11" ry="11" style="stroke:#181818;stroke-width:1.0;"/><path d="M343.2656,624.875 Q343.4219,624.6563 343.6094,624.5469 Q343.7969,624.4375 344.0156,624.4375 Q344.3906,624.4375 344.625,624.6953 Q344.8594,624.9531 344.8594,625.5625 L344.8594,627.0156 Q344.8594,627.625 344.625,627.8906 Q344.3906,628.1563 344.0156,628.1563 Q343.6719,628.1563 343.4688,627.9531 Q343.2656,627.7656 343.1563,627.25 Q343.1094,626.8906 342.9219,626.7031 Q342.5938,626.3281 341.9844,626.1094 Q341.375,625.8906 340.75,625.8906 Q339.9844,625.8906 339.3516,626.2188 Q338.7188,626.5469 338.2266,627.2969 Q337.7344,628.0469 337.7344,629.0781 L337.7344,630.1719 Q337.7344,631.4063 338.625,632.2266 Q339.5156,633.0469 341.1094,633.0469 Q342.0469,633.0469 342.7031,632.7969 Q343.0938,632.6406 343.5156,632.2031 Q343.7813,631.9375 343.9297,631.8594 Q344.0781,631.7813 344.2813,631.7813 Q344.6094,631.7813 344.8672,632.0391 Q345.125,632.2969 345.125,632.6406 Q345.125,632.9844 344.7813,633.3906 Q344.2813,633.9688 343.4844,634.2969 Q342.4063,634.75 341.1094,634.75 Q339.5938,634.75 338.3906,634.125 Q337.4063,633.625 336.7188,632.5547 Q336.0313,631.4844 336.0313,630.2031 L336.0313,629.0469 Q336.0313,627.7188 336.6484,626.5703 Q337.2656,625.4219 338.3594,624.8047 Q339.4531,624.1875 340.6875,624.1875 Q341.4219,624.1875 342.0703,624.3516 Q342.7188,624.5156 343.2656,624.875 Z " fill="#000000"/><text fill="#000000" font-family="sans-serif" font-size="14" lengthAdjust="spacing" textLength="82" x="354.5" y="634.7285">TableHeader</text><line style="stroke:#181818;stroke-width:0.5;" x1="326.5" x2="438.5" y1="645" y2="645"/><line style="stroke:#181818;stroke-width:0.5;" x1="326.5" x2="438.5" y1="653" y2="653"/></g><!--MD5=[5de7445a3966e79bc254e6fe5fe40f7b]
class TableColumn--><g id="elem_TableColumn"><rect codeLine="36" fill="#F1F1F1" height="48" id="TableColumn" rx="2.5" ry="2.5" style="stroke:#181818;stroke-width:0.5;" width="116" x="474.5" y="613"/><ellipse cx="489.5" cy="629" fill="#ADD1B2" rx="11" ry="11" style="stroke:#181818;stroke-width:1.0;"/><path d="M492.2656,624.875 Q492.4219,624.6563 492.6094,624.5469 Q492.7969,624.4375 493.0156,624.4375 Q493.3906,624.4375 493.625,624.6953 Q493.8594,624.9531 493.8594,625.5625 L493.8594,627.0156 Q493.8594,627.625 493.625,627.8906 Q493.3906,628.1563 493.0156,628.1563 Q492.6719,628.1563 492.4688,627.9531 Q492.2656,627.7656 492.1563,627.25 Q492.1094,626.8906 491.9219,626.7031 Q491.5938,626.3281 490.9844,626.1094 Q490.375,625.8906 489.75,625.8906 Q488.9844,625.8906 488.3516,626.2188 Q487.7188,626.5469 487.2266,627.2969 Q486.7344,628.0469 486.7344,629.0781 L486.7344,630.1719 Q486.7344,631.4063 487.625,632.2266 Q488.5156,633.0469 490.1094,633.0469 Q491.0469,633.0469 491.7031,632.7969 Q492.0938,632.6406 492.5156,632.2031 Q492.7813,631.9375 492.9297,631.8594 Q493.0781,631.7813 493.2813,631.7813 Q493.6094,631.7813 493.8672,632.0391 Q494.125,632.2969 494.125,632.6406 Q494.125,632.9844 493.7813,633.3906 Q493.2813,633.9688 492.4844,634.2969 Q491.4063,634.75 490.1094,634.75 Q488.5938,634.75 487.3906,634.125 Q486.4063,633.625 485.7188,632.5547 Q485.0313,631.4844 485.0313,630.2031 L485.0313,629.0469 Q485.0313,627.7188 485.6484,626.5703 Q486.2656,625.4219 487.3594,624.8047 Q488.4531,624.1875 489.6875,624.1875 Q490.4219,624.1875 491.0703,624.3516 Q491.7188,624.5156 492.2656,624.875 Z " fill="#000000"/><text fill="#000000" font-family="sans-serif" font-size="14" lengthAdjust="spacing" textLength="84" x="503.5" y="634.7285">TableColumn</text><line style="stroke:#181818;stroke-width:0.5;" x1="475.5" x2="589.5" y1="645" y2="645"/><line style="stroke:#181818;stroke-width:0.5;" x1="475.5" x2="589.5" y1="653" y2="653"/></g><!--MD5=[a6cda19987f54858434fa4113610982e]
class FileResource--><g id="elem_FileResource"><rect codeLine="38" fill="#F1F1F1" height="65.6094" id="FileResource" rx="2.5" ry="2.5" style="stroke:#181818;stroke-width:0.5;" width="116" x="747.5" y="452"/><ellipse cx="762.5" cy="468" fill="#ADD1B2" rx="11" ry="11" style="stroke:#181818;stroke-width:1.0;"/><path d="M765.2656,463.875 Q765.4219,463.6563 765.6094,463.5469 Q765.7969,463.4375 766.0156,463.4375 Q766.3906,463.4375 766.625,463.6953 Q766.8594,463.9531 766.8594,464.5625 L766.8594,466.0156 Q766.8594,466.625 766.625,466.8906 Q766.3906,467.1563 766.0156,467.1563 Q765.6719,467.1563 765.4688,466.9531 Q765.2656,466.7656 765.1563,466.25 Q765.1094,465.8906 764.9219,465.7031 Q764.5938,465.3281 763.9844,465.1094 Q763.375,464.8906 762.75,464.8906 Q761.9844,464.8906 761.3516,465.2188 Q760.7188,465.5469 760.2266,466.2969 Q759.7344,467.0469 759.7344,468.0781 L759.7344,469.1719 Q759.7344,470.4063 760.625,471.2266 Q761.5156,472.0469 763.1094,472.0469 Q764.0469,472.0469 764.7031,471.7969 Q765.0938,471.6406 765.5156,471.2031 Q765.7813,470.9375 765.9297,470.8594 Q766.0781,470.7813 766.2813,470.7813 Q766.6094,470.7813 766.8672,471.0391 Q767.125,471.2969 767.125,471.6406 Q767.125,471.9844 766.7813,472.3906 Q766.2813,472.9688 765.4844,473.2969 Q764.4063,473.75 763.1094,473.75 Q761.5938,473.75 760.3906,473.125 Q759.4063,472.625 758.7188,471.5547 Q758.0313,470.4844 758.0313,469.2031 L758.0313,468.0469 Q758.0313,466.7188 758.6484,465.5703 Q759.2656,464.4219 760.3594,463.8047 Q761.4531,463.1875 762.6875,463.1875 Q763.4219,463.1875 764.0703,463.3516 Q764.7188,463.5156 765.2656,463.875 Z " fill="#000000"/><text fill="#000000" font-family="sans-serif" font-size="14" lengthAdjust="spacing" textLength="84" x="776.5" y="473.7285">FileResource</text><line style="stroke:#181818;stroke-width:0.5;" x1="748.5" x2="862.5" y1="484" y2="484"/><line style="stroke:#181818;stroke-width:0.5;" x1="748.5" x2="862.5" y1="492" y2="492"/><text fill="#000000" font-family="sans-serif" font-size="14" lengthAdjust="spacing" textLength="76" x="753.5" y="510.5332">init(str path)</text></g><!--MD5=[e3c91158bcdad03aa33a6fcf074a92a7]
class IniFile--><g id="elem_IniFile"><rect codeLine="42" fill="#F1F1F1" height="48" id="IniFile" rx="2.5" ry="2.5" style="stroke:#181818;stroke-width:0.5;" width="69" x="849" y="212"/><ellipse cx="864" cy="228" fill="#ADD1B2" rx="11" ry="11" style="stroke:#181818;stroke-width:1.0;"/><path d="M866.7656,223.875 Q866.9219,223.6563 867.1094,223.5469 Q867.2969,223.4375 867.5156,223.4375 Q867.8906,223.4375 868.125,223.6953 Q868.3594,223.9531 868.3594,224.5625 L868.3594,226.0156 Q868.3594,226.625 868.125,226.8906 Q867.8906,227.1563 867.5156,227.1563 Q867.1719,227.1563 866.9688,226.9531 Q866.7656,226.7656 866.6563,226.25 Q866.6094,225.8906 866.4219,225.7031 Q866.0938,225.3281 865.4844,225.1094 Q864.875,224.8906 864.25,224.8906 Q863.4844,224.8906 862.8516,225.2188 Q862.2188,225.5469 861.7266,226.2969 Q861.2344,227.0469 861.2344,228.0781 L861.2344,229.1719 Q861.2344,230.4063 862.125,231.2266 Q863.0156,232.0469 864.6094,232.0469 Q865.5469,232.0469 866.2031,231.7969 Q866.5938,231.6406 867.0156,231.2031 Q867.2813,230.9375 867.4297,230.8594 Q867.5781,230.7813 867.7813,230.7813 Q868.1094,230.7813 868.3672,231.0391 Q868.625,231.2969 868.625,231.6406 Q868.625,231.9844 868.2813,232.3906 Q867.7813,232.9688 866.9844,233.2969 Q865.9063,233.75 864.6094,233.75 Q863.0938,233.75 861.8906,233.125 Q860.9063,232.625 860.2188,231.5547 Q859.5313,230.4844 859.5313,229.2031 L859.5313,228.0469 Q859.5313,226.7188 860.1484,225.5703 Q860.7656,224.4219 861.8594,223.8047 Q862.9531,223.1875 864.1875,223.1875 Q864.9219,223.1875 865.5703,223.3516 Q866.2188,223.5156 866.7656,223.875 Z " fill="#000000"/><text fill="#000000" font-family="sans-serif" font-size="14" lengthAdjust="spacing" textLength="37" x="878" y="233.7285">IniFile</text><line style="stroke:#181818;stroke-width:0.5;" x1="850" x2="917" y1="244" y2="244"/><line style="stroke:#181818;stroke-width:0.5;" x1="850" x2="917" y1="252" y2="252"/></g><!--MD5=[d6207198cce69febe883b1dce65d01a1]
class IniSection--><g id="elem_IniSection"><rect codeLine="43" fill="#F1F1F1" height="48" id="IniSection" rx="2.5" ry="2.5" style="stroke:#181818;stroke-width:0.5;" width="93" x="915" y="613"/><ellipse cx="930" cy="629" fill="#ADD1B2" rx="11" ry="11" style="stroke:#181818;stroke-width:1.0;"/><path d="M932.7656,624.875 Q932.9219,624.6563 933.1094,624.5469 Q933.2969,624.4375 933.5156,624.4375 Q933.8906,624.4375 934.125,624.6953 Q934.3594,624.9531 934.3594,625.5625 L934.3594,627.0156 Q934.3594,627.625 934.125,627.8906 Q933.8906,628.1563 933.5156,628.1563 Q933.1719,628.1563 932.9688,627.9531 Q932.7656,627.7656 932.6563,627.25 Q932.6094,626.8906 932.4219,626.7031 Q932.0938,626.3281 931.4844,626.1094 Q930.875,625.8906 930.25,625.8906 Q929.4844,625.8906 928.8516,626.2188 Q928.2188,626.5469 927.7266,627.2969 Q927.2344,628.0469 927.2344,629.0781 L927.2344,630.1719 Q927.2344,631.4063 928.125,632.2266 Q929.0156,633.0469 930.6094,633.0469 Q931.5469,633.0469 932.2031,632.7969 Q932.5938,632.6406 933.0156,632.2031 Q933.2813,631.9375 933.4297,631.8594 Q933.5781,631.7813 933.7813,631.7813 Q934.1094,631.7813 934.3672,632.0391 Q934.625,632.2969 934.625,632.6406 Q934.625,632.9844 934.2813,633.3906 Q933.7813,633.9688 932.9844,634.2969 Q931.9063,634.75 930.6094,634.75 Q929.0938,634.75 927.8906,634.125 Q926.9063,633.625 926.2188,632.5547 Q925.5313,631.4844 925.5313,630.2031 L925.5313,629.0469 Q925.5313,627.7188 926.1484,626.5703 Q926.7656,625.4219 927.8594,624.8047 Q928.9531,624.1875 930.1875,624.1875 Q930.9219,624.1875 931.5703,624.3516 Q932.2188,624.5156 932.7656,624.875 Z " fill="#000000"/><text fill="#000000" font-family="sans-serif" font-size="14" lengthAdjust="spacing" textLength="61" x="944" y="634.7285">IniSection</text><line style="stroke:#181818;stroke-width:0.5;" x1="916" x2="1007" y1="645" y2="645"/><line style="stroke:#181818;stroke-width:0.5;" x1="916" x2="1007" y1="653" y2="653"/></g><!--MD5=[e3e99a18f832b8bfe8c6c1c33e99e423]
class NoneIniSection--><g id="elem_NoneIniSection"><rect codeLine="44" fill="#F1F1F1" height="48" id="NoneIniSection" rx="2.5" ry="2.5" style="stroke:#181818;stroke-width:0.5;" width="126" x="898.5" y="461"/><ellipse cx="913.5" cy="477" fill="#ADD1B2" rx="11" ry="11" style="stroke:#181818;stroke-width:1.0;"/><path d="M916.2656,472.875 Q916.4219,472.6563 916.6094,472.5469 Q916.7969,472.4375 917.0156,472.4375 Q917.3906,472.4375 917.625,472.6953 Q917.8594,472.9531 917.8594,473.5625 L917.8594,475.0156 Q917.8594,475.625 917.625,475.8906 Q917.3906,476.1563 917.0156,476.1563 Q916.6719,476.1563 916.4688,475.9531 Q916.2656,475.7656 916.1563,475.25 Q916.1094,474.8906 915.9219,474.7031 Q915.5938,474.3281 914.9844,474.1094 Q914.375,473.8906 913.75,473.8906 Q912.9844,473.8906 912.3516,474.2188 Q911.7188,474.5469 911.2266,475.2969 Q910.7344,476.0469 910.7344,477.0781 L910.7344,478.1719 Q910.7344,479.4063 911.625,480.2266 Q912.5156,481.0469 914.1094,481.0469 Q915.0469,481.0469 915.7031,480.7969 Q916.0938,480.6406 916.5156,480.2031 Q916.7813,479.9375 916.9297,479.8594 Q917.0781,479.7813 917.2813,479.7813 Q917.6094,479.7813 917.8672,480.0391 Q918.125,480.2969 918.125,480.6406 Q918.125,480.9844 917.7813,481.3906 Q917.2813,481.9688 916.4844,482.2969 Q915.4063,482.75 914.1094,482.75 Q912.5938,482.75 911.3906,482.125 Q910.4063,481.625 909.7188,480.5547 Q909.0313,479.4844 909.0313,478.2031 L909.0313,477.0469 Q909.0313,475.7188 909.6484,474.5703 Q910.2656,473.4219 911.3594,472.8047 Q912.4531,472.1875 913.6875,472.1875 Q914.4219,472.1875 915.0703,472.3516 Q915.7188,472.5156 916.2656,472.875 Z " fill="#000000"/><text fill="#000000" font-family="sans-serif" font-size="14" lengthAdjust="spacing" textLength="94" x="927.5" y="482.7285">NoneIniSection</text><line style="stroke:#181818;stroke-width:0.5;" x1="899.5" x2="1023.5" y1="493" y2="493"/><line style="stroke:#181818;stroke-width:0.5;" x1="899.5" x2="1023.5" y1="501" y2="501"/></g><!--MD5=[715128bba345a62fb0ee618baa868826]
class JsonFile--><g id="elem_JsonFile"><rect codeLine="45" fill="#F1F1F1" height="48" id="JsonFile" rx="2.5" ry="2.5" style="stroke:#181818;stroke-width:0.5;" width="84" x="763.5" y="613"/><ellipse cx="778.5" cy="629" fill="#ADD1B2" rx="11" ry="11" style="stroke:#181818;stroke-width:1.0;"/><path d="M781.2656,624.875 Q781.4219,624.6563 781.6094,624.5469 Q781.7969,624.4375 782.0156,624.4375 Q782.3906,624.4375 782.625,624.6953 Q782.8594,624.9531 782.8594,625.5625 L782.8594,627.0156 Q782.8594,627.625 782.625,627.8906 Q782.3906,628.1563 782.0156,628.1563 Q781.6719,628.1563 781.4688,627.9531 Q781.2656,627.7656 781.1563,627.25 Q781.1094,626.8906 780.9219,626.7031 Q780.5938,626.3281 779.9844,626.1094 Q779.375,625.8906 778.75,625.8906 Q777.9844,625.8906 777.3516,626.2188 Q776.7188,626.5469 776.2266,627.2969 Q775.7344,628.0469 775.7344,629.0781 L775.7344,630.1719 Q775.7344,631.4063 776.625,632.2266 Q777.5156,633.0469 779.1094,633.0469 Q780.0469,633.0469 780.7031,632.7969 Q781.0938,632.6406 781.5156,632.2031 Q781.7813,631.9375 781.9297,631.8594 Q782.0781,631.7813 782.2813,631.7813 Q782.6094,631.7813 782.8672,632.0391 Q783.125,632.2969 783.125,632.6406 Q783.125,632.9844 782.7813,633.3906 Q782.2813,633.9688 781.4844,634.2969 Q780.4063,634.75 779.1094,634.75 Q777.5938,634.75 776.3906,634.125 Q775.4063,633.625 774.7188,632.5547 Q774.0313,631.4844 774.0313,630.2031 L774.0313,629.0469 Q774.0313,627.7188 774.6484,626.5703 Q775.2656,625.4219 776.3594,624.8047 Q777.4531,624.1875 778.6875,624.1875 Q779.4219,624.1875 780.0703,624.3516 Q780.7188,624.5156 781.2656,624.875 Z " fill="#000000"/><text fill="#000000" font-family="sans-serif" font-size="14" lengthAdjust="spacing" textLength="52" x="792.5" y="634.7285">JsonFile</text><line style="stroke:#181818;stroke-width:0.5;" x1="764.5" x2="846.5" y1="645" y2="645"/><line style="stroke:#181818;stroke-width:0.5;" x1="764.5" x2="846.5" y1="653" y2="653"/></g><!--MD5=[3fee75583bb7a64f68d843a3c9534ab3]
class Node--><g id="elem_Node"><rect codeLine="47" fill="#F1F1F1" height="136.0469" id="Node" rx="2.5" ry="2.5" style="stroke:#181818;stroke-width:0.5;" width="176" x="536.5" y="417"/><ellipse cx="603.75" cy="433" fill="#ADD1B2" rx="11" ry="11" style="stroke:#181818;stroke-width:1.0;"/><path d="M606.5156,428.875 Q606.6719,428.6563 606.8594,428.5469 Q607.0469,428.4375 607.2656,428.4375 Q607.6406,428.4375 607.875,428.6953 Q608.1094,428.9531 608.1094,429.5625 L608.1094,431.0156 Q608.1094,431.625 607.875,431.8906 Q607.6406,432.1563 607.2656,432.1563 Q606.9219,432.1563 606.7188,431.9531 Q606.5156,431.7656 606.4063,431.25 Q606.3594,430.8906 606.1719,430.7031 Q605.8438,430.3281 605.2344,430.1094 Q604.625,429.8906 604,429.8906 Q603.2344,429.8906 602.6016,430.2188 Q601.9688,430.5469 601.4766,431.2969 Q600.9844,432.0469 600.9844,433.0781 L600.9844,434.1719 Q600.9844,435.4063 601.875,436.2266 Q602.7656,437.0469 604.3594,437.0469 Q605.2969,437.0469 605.9531,436.7969 Q606.3438,436.6406 606.7656,436.2031 Q607.0313,435.9375 607.1797,435.8594 Q607.3281,435.7813 607.5313,435.7813 Q607.8594,435.7813 608.1172,436.0391 Q608.375,436.2969 608.375,436.6406 Q608.375,436.9844 608.0313,437.3906 Q607.5313,437.9688 606.7344,438.2969 Q605.6563,438.75 604.3594,438.75 Q602.8438,438.75 601.6406,438.125 Q600.6563,437.625 599.9688,436.5547 Q599.2813,435.4844 599.2813,434.2031 L599.2813,433.0469 Q599.2813,431.7188 599.8984,430.5703 Q600.5156,429.4219 601.6094,428.8047 Q602.7031,428.1875 603.9375,428.1875 Q604.6719,428.1875 605.3203,428.3516 Q605.9688,428.5156 606.5156,428.875 Z " fill="#000000"/><text fill="#000000" font-family="sans-serif" font-size="14" lengthAdjust="spacing" textLength="33" x="624.25" y="438.7285">Node</text><line style="stroke:#181818;stroke-width:0.5;" x1="537.5" x2="711.5" y1="449" y2="449"/><text fill="#000000" font-family="sans-serif" font-size="14" lengthAdjust="spacing" textLength="39" x="542.5" y="467.5332">table?</text><text fill="#000000" font-family="sans-serif" font-size="14" lengthAdjust="spacing" textLength="16" x="542.5" y="485.1426">db</text><text fill="#000000" font-family="sans-serif" font-size="14" lengthAdjust="spacing" textLength="90" x="542.5" y="502.752">"__exclude__"</text><line style="stroke:#181818;stroke-width:0.5;" x1="537.5" x2="711.5" y1="509.8281" y2="509.8281"/><text fill="#000000" font-family="sans-serif" font-size="14" lengthAdjust="spacing" textLength="88" x="542.5" y="528.3613">save(int level)</text><text fill="#000000" font-family="sans-serif" font-size="14" lengthAdjust="spacing" textLength="164" x="542.5" y="545.9707">is_excluded(str atr_name)</text></g><!--MD5=[7b3e1712e9081d3d8b958043a5801735]
link Db to Resource--><g id="link_Db_Resource"><path codeLine="58" d="M249.53,236 C254.58,236 259.63,236 264.67,236 " fill="none" id="Db-to-Resource" style="stroke:#181818;stroke-width:1.0;"/><polygon fill="none" points="264.77,229,284.77,236,264.77,243,264.77,229" style="stroke:#181818;stroke-width:1.0;"/></g><!--MD5=[f99c02d12937b74020b8240a398a8d23]
link GresDb to Db--><g id="link_GresDb_Db"><path codeLine="59" d="M182.5,55.29 C182.5,86.15 182.5,141.49 182.5,182.63 " fill="none" id="GresDb-to-Db" style="stroke:#181818;stroke-width:1.0;"/><polygon fill="none" points="189.5,182.65,182.5,202.65,175.5,182.65,189.5,182.65" style="stroke:#181818;stroke-width:1.0;"/></g><!--MD5=[a335d8c56f8d19a4561fc9d26229b7a3]
link LiteDb to Db--><g id="link_LiteDb_Db"><path codeLine="60" d="M80.15,236 C85.19,236 90.23,236 95.27,236 " fill="none" id="LiteDb-to-Db" style="stroke:#181818;stroke-width:1.0;"/><polygon fill="none" points="95.33,229,115.33,236,95.33,243,95.33,229" style="stroke:#181818;stroke-width:1.0;"/></g><!--MD5=[1ccc123cd51227ade960b8cbb501f504]
link Db to Table--><g id="link_Db_Table"><path codeLine="61" d="M193.4535,280.6809 C193.4535,280.6809 224.47,404.22 235.52,448.24 " fill="none" id="Db-Table" style="stroke:#181818;stroke-width:1.0;"/><polygon fill="#181818" points="238.69,460.85,240.3748,451.1463,237.4709,456.0009,232.6163,453.0969,238.69,460.85" style="stroke:#181818;stroke-width:1.0;"/><line style="stroke:#181818;stroke-width:1.0;" x1="237.4709" x2="235.525" y1="456.0009" y2="448.24"/><polygon fill="none" points="190.54,269.04,188.1165,275.8316,193.4535,280.6809,195.8771,273.8893,190.54,269.04" style="stroke:#181818;stroke-width:1.0;"/></g><!--MD5=[d2ec28d69675ff84c1283f5029b203c0]
reverse link Resource to Savable--><g id="link_Resource_Savable"><path codeLine="62" d="M430.86,377.39 C431.07,394.45 431.62,411.06 432.5,425.91 " fill="none" id="Resource-backto-Savable" style="stroke:#181818;stroke-width:1.0;"/><polygon fill="none" points="423.86,377.28,430.75,357.24,437.86,377.21,423.86,377.28" style="stroke:#181818;stroke-width:1.0;"/></g><!--MD5=[5222c9fd74b60e35ab2e93d3d00836e7]
link Resource to Savable--><g id="link_Resource_Savable"><path codeLine="63" d="M456.9604,369.2399 C456.9604,369.2399 456.48,399.45 455.86,412.87 " fill="none" id="Resource-Savable" style="stroke:#181818;stroke-width:1.0;"/><polygon fill="#181818" points="455.15,425.91,459.6383,417.1433,455.4246,420.9175,451.6503,416.7039,455.15,425.91" style="stroke:#181818;stroke-width:1.0;"/><line style="stroke:#181818;stroke-width:1.0;" x1="455.4246" x2="455.855" y1="420.9175" y2="412.93"/><polygon fill="none" points="457,357.24,452.9802,363.2268,456.9604,369.2399,460.9802,363.2532,457,357.24" style="stroke:#181818;stroke-width:1.0;"/></g><!--MD5=[f9836f65ecaecd3a4f4f6bff8bbaeffc]
reverse link Savable to FileResource--><g id="link_Savable_FileResource"><path codeLine="64" d="M499.1,411.63 C510.16,401.61 522.56,392.8 536,387 C607.83,356.03 640.09,356.22 712,387 C742.7,400.14 768.11,428.86 784.65,451.82 " fill="none" id="Savable-backto-FileResource" style="stroke:#181818;stroke-width:1.0;"/><polygon fill="none" points="503.97,416.66,484.88,425.85,494.07,406.76,503.97,416.66" style="stroke:#181818;stroke-width:1.0;"/></g><!--MD5=[e63ee973a175bd36670afcfe55ac44ff]
link IniFile to FileResource--><g id="link_IniFile_FileResource"><path codeLine="65" d="M876.16,260.24 C863.78,299.44 838.46,379.63 821.73,432.6 " fill="none" id="IniFile-to-FileResource" style="stroke:#181818;stroke-width:1.0;"/><polygon fill="none" points="828.38,434.79,815.68,451.76,815.03,430.58,828.38,434.79" style="stroke:#181818;stroke-width:1.0;"/></g><!--MD5=[8d68989c58e3a5256308129b75697cae]
link IniFile to NoneIniSection--><g id="link_IniFile_NoneIniSection"><path codeLine="66" d="M894.4523,271.6834 C894.4523,271.6834 935.39,401.31 950.17,448.14 " fill="none" id="IniFile-NoneIniSection" style="stroke:#181818;stroke-width:1.0;"/><polygon fill="#181818" points="954.12,460.64,955.2252,450.8534,952.6149,455.8719,947.5963,453.2616,954.12,460.64" style="stroke:#181818;stroke-width:1.0;"/><line style="stroke:#181818;stroke-width:1.0;" x1="952.6149" x2="950.21" y1="455.8719" y2="448.25"/><polygon fill="none" points="890.84,260.24,888.8317,267.1658,894.4523,271.6834,896.4606,264.7576,890.84,260.24" style="stroke:#181818;stroke-width:1.0;"/></g><!--MD5=[7ab78a78f01f13b3f8adaa147fbe9d58]
reverse link NoneIniSection to IniSection--><g id="link_NoneIniSection_IniSection"><path codeLine="67" d="M961.5,529.49 C961.5,556.61 961.5,590.45 961.5,612.62 " fill="none" id="NoneIniSection-backto-IniSection" style="stroke:#181818;stroke-width:1.0;"/><polygon fill="none" points="954.5,529.11,961.5,509.11,968.5,529.11,954.5,529.11" style="stroke:#181818;stroke-width:1.0;"/></g><!--MD5=[be61dba62c4da3d8f0a63ab43f39e3cc]
reverse link FileResource to JsonFile--><g id="link_FileResource_JsonFile"><path codeLine="68" d="M805.5,538.3 C805.5,563.67 805.5,592.87 805.5,612.69 " fill="none" id="FileResource-backto-JsonFile" style="stroke:#181818;stroke-width:1.0;"/><polygon fill="none" points="798.5,538.18,805.5,518.18,812.5,538.18,798.5,538.18" style="stroke:#181818;stroke-width:1.0;"/></g><!--MD5=[e527005c2b6ea5a209a486f8a584f00b]
link Table to Savable--><g id="link_Table_Savable"><path codeLine="69" d="M278.7,485 C307.42,485 336.13,485 364.85,485 " fill="none" id="Table-to-Savable" style="stroke:#181818;stroke-width:1.0;"/><polygon fill="none" points="365.24,478,385.24,485,365.24,492,365.24,478" style="stroke:#181818;stroke-width:1.0;"/></g><!--MD5=[51f38624dca375147f54fa729a19e73a]
link GresTable to Table--><g id="link_GresTable_Table"><path codeLine="70" d="M168.21,485 C175.54,485 182.87,485 190.21,485 " fill="none" id="GresTable-to-Table" style="stroke:#181818;stroke-width:1.0;"/><polygon fill="none" points="190.23,478,210.23,485,190.23,492,190.23,478" style="stroke:#181818;stroke-width:1.0;"/></g><!--MD5=[2267fa562c28ca81ba7d378d0de375b9]
reverse link GresTable to JsonbTable--><g id="link_GresTable_JsonbTable"><path codeLine="71" d="M116.47,529.49 C115.2,556.61 113.63,590.45 112.59,612.62 " fill="none" id="GresTable-backto-JsonbTable" style="stroke:#181818;stroke-width:1.0;"/><polygon fill="none" points="109.5,528.76,117.42,509.11,123.48,529.41,109.5,528.76" style="stroke:#181818;stroke-width:1.0;"/></g><!--MD5=[b8132b73519e6306962e830082501983]
reverse link Table to LiteTable--><g id="link_Table_LiteTable"><path codeLine="72" d="M244.5,529.49 C244.5,556.61 244.5,590.45 244.5,612.62 " fill="none" id="Table-backto-LiteTable" style="stroke:#181818;stroke-width:1.0;"/><polygon fill="none" points="237.5,529.11,244.5,509.11,251.5,529.11,237.5,529.11" style="stroke:#181818;stroke-width:1.0;"/></g><!--MD5=[898f62776bc99e1c278a663791d8a7e2]
link Table to TableHeader--><g id="link_Table_TableHeader"><path codeLine="73" d="M265.76,509.11 C290.51,536.01 331.32,580.37 357.55,608.88 " fill="none" id="Table-to-TableHeader" style="stroke:#181818;stroke-width:1.0;"/><polygon fill="#181818" points="360.99,612.62,357.8292,603.2921,357.6004,608.9443,351.9482,608.7155,360.99,612.62" style="stroke:#181818;stroke-width:1.0;"/></g><!--MD5=[b255d7e3895c07749ef7df1fca958c42]
reverse link Savable to Node--><g id="link_Savable_Node"><path codeLine="74" d="M522.05,485 C526.81,485 531.57,485 536.33,485 " fill="none" id="Savable-backto-Node" style="stroke:#181818;stroke-width:1.0;"/><polygon fill="none" points="521.83,492,501.83,485,521.83,478,521.83,492" style="stroke:#181818;stroke-width:1.0;"/></g><!--MD5=[5fba4b337d51fe203cd457259c7fd2bb]
reverse link Savable to TableHeader--><g id="link_Savable_TableHeader"><path codeLine="75" d="M412.12,563.17 C404.76,581.26 397.47,599.19 391.96,612.73 " fill="none" id="Savable-backto-TableHeader" style="stroke:#181818;stroke-width:1.0;"/><polygon fill="none" points="405.72,560.31,419.74,544.42,418.69,565.59,405.72,560.31" style="stroke:#181818;stroke-width:1.0;"/></g><!--MD5=[8f9cc1c9f398c994aff6bc54f7862ee3]
link TableHeader to TableColumn--><g id="link_TableHeader_TableColumn"><path codeLine="76" d="M451.63,637 C451.63,637 458.36,637 461.19,637 " fill="none" id="TableHeader-TableColumn" style="stroke:#181818;stroke-width:1.0;"/><polygon fill="#181818" points="474.46,637,465.46,633,469.46,637,465.46,641,474.46,637" style="stroke:#181818;stroke-width:1.0;"/><line style="stroke:#181818;stroke-width:1.0;" x1="469.46" x2="461.46" y1="637" y2="637"/><polygon fill="none" points="439.63,637,445.63,641,451.63,637,445.63,633,439.63,637" style="stroke:#181818;stroke-width:1.0;"/></g><!--MD5=[dc8ea39670c93db972e1cde5acd5ca00]
reverse link Savable to TableColumn--><g id="link_Savable_TableColumn"><path codeLine="77" d="M488.44,561.74 C499.46,580.32 510.45,598.84 518.7,612.73 " fill="none" id="Savable-backto-TableColumn" style="stroke:#181818;stroke-width:1.0;"/><polygon fill="none" points="482.35,565.2,478.16,544.42,494.39,558.05,482.35,565.2" style="stroke:#181818;stroke-width:1.0;"/></g><!--MD5=[ccc3cc862e237989030c84a2486bfa10]
@startuml
class Resource{    
    create(Savable resource, res_id=None)
    read(Object)
    update(Savable resource, res_id=None)
    delete(Savable resource, res_id=None ? Object)

    create_all(List[Savable])
    update_all(List[Savable])
    delete_all(?)
    
    "execute"(str script='')
    res_id
}

class Db{
    init(str connect_str)
}

class GresDb{}
class LiteDb{}

class Savable{    
    resource
    save(int level=0)
    serialize()
    deserialize()    
}

class Table{}

class GresTable{}
class JsonbTable{}
class LiteTable{}

class TableHeader{}
class TableColumn{}

class FileResource{
    init(str path)
}

class IniFile{}
class IniSection{}
class NoneIniSection{}
class JsonFile{}

class Node{
    table?
    db
    "__exclude__"
    save(int level)
    is_excluded(str atr_name)
}




Resource <|-left- Db
    Db <|-up- GresDb
    Db <|-left- LiteDb
    Db o-down-> Table
Resource <|- - Savable
Resource o- -> Savable
    Savable <|-right- FileResource
        FileResource <|-up- IniFile
            IniFile o- -> NoneIniSection
                NoneIniSection <|- - IniSection
        FileResource <|- - JsonFile
    Savable <|-left- Table
        Table <|-left- GresTable
            GresTable <|- - JsonbTable
        Table <|- - LiteTable
        Table - -> TableHeader
    Savable <|-right- Node
    Savable <|- - TableHeader
        TableHeader o-right-> TableColumn
    Savable <|- - TableColumn
@enduml

PlantUML version 1.2022.5(Sat Apr 30 13:55:52 MSK 2022)
(GPL source distribution)
Java Runtime: Java(TM) SE Runtime Environment
JVM: Java HotSpot(TM) 64-Bit Server VM
Default Encoding: Cp1251
Language: ru
Country: RU
--></g></svg>