<?xml version="1.0" encoding="UTF-8" standalone="no"?><svg xmlns="http://www.w3.org/2000/svg" xmlns:xlink="http://www.w3.org/1999/xlink" contentStyleType="text/css" height="614px" preserveAspectRatio="none" style="width:658px;height:614px;background:#FFFFFF;" version="1.1" viewBox="0 0 658 614" width="658px" zoomAndPan="magnify"><defs/><g><!--MD5=[11b747870319a085bc745183e08c5f76]
class Storage--><g id="elem_Storage"><rect codeLine="1" fill="#F1F1F1" height="118.4375" id="Storage" rx="2.5" ry="2.5" style="stroke:#181818;stroke-width:0.5;" width="145" x="167" y="7"/><ellipse cx="210.35" cy="23" fill="#ADD1B2" rx="11" ry="11" style="stroke:#181818;stroke-width:1.0;"/><path d="M213.1156,18.875 Q213.2719,18.6563 213.4594,18.5469 Q213.6469,18.4375 213.8656,18.4375 Q214.2406,18.4375 214.475,18.6953 Q214.7094,18.9531 214.7094,19.5625 L214.7094,21.0156 Q214.7094,21.625 214.475,21.8906 Q214.2406,22.1563 213.8656,22.1563 Q213.5219,22.1563 213.3188,21.9531 Q213.1156,21.7656 213.0063,21.25 Q212.9594,20.8906 212.7719,20.7031 Q212.4438,20.3281 211.8344,20.1094 Q211.225,19.8906 210.6,19.8906 Q209.8344,19.8906 209.2016,20.2188 Q208.5688,20.5469 208.0766,21.2969 Q207.5844,22.0469 207.5844,23.0781 L207.5844,24.1719 Q207.5844,25.4063 208.475,26.2266 Q209.3656,27.0469 210.9594,27.0469 Q211.8969,27.0469 212.5531,26.7969 Q212.9438,26.6406 213.3656,26.2031 Q213.6313,25.9375 213.7797,25.8594 Q213.9281,25.7813 214.1313,25.7813 Q214.4594,25.7813 214.7172,26.0391 Q214.975,26.2969 214.975,26.6406 Q214.975,26.9844 214.6313,27.3906 Q214.1313,27.9688 213.3344,28.2969 Q212.2563,28.75 210.9594,28.75 Q209.4438,28.75 208.2406,28.125 Q207.2563,27.625 206.5688,26.5547 Q205.8813,25.4844 205.8813,24.2031 L205.8813,23.0469 Q205.8813,21.7188 206.4984,20.5703 Q207.1156,19.4219 208.2094,18.8047 Q209.3031,18.1875 210.5375,18.1875 Q211.2719,18.1875 211.9203,18.3516 Q212.5688,18.5156 213.1156,18.875 Z " fill="#000000"/><text fill="#000000" font-family="sans-serif" font-size="14" lengthAdjust="spacing" textLength="50" x="230.65" y="28.7285">Storage</text><line style="stroke:#181818;stroke-width:0.5;" x1="168" x2="311" y1="39" y2="39"/><text fill="#000000" font-family="sans-serif" font-size="14" lengthAdjust="spacing" textLength="35" x="173" y="57.5332">name</text><line style="stroke:#181818;stroke-width:0.5;" x1="168" x2="311" y1="64.6094" y2="64.6094"/><text fill="#000000" font-family="sans-serif" font-size="14" lengthAdjust="spacing" textLength="133" x="173" y="83.1426">put(Savable storage)</text><text fill="#000000" font-family="sans-serif" font-size="14" lengthAdjust="spacing" textLength="94" x="173" y="100.752">search(Object)</text><text fill="#000000" font-family="sans-serif" font-size="14" lengthAdjust="spacing" textLength="127" x="173" y="118.3613">execute(str script='')</text></g><!--MD5=[464be7afade68e010f8f1d76973bc1ef]
class Db--><g id="elem_Db"><rect codeLine="8" fill="#F1F1F1" height="65.6094" id="Db" rx="2.5" ry="2.5" style="stroke:#181818;stroke-width:0.5;" width="134" x="92.5" y="211"/><ellipse cx="146.25" cy="227" fill="#ADD1B2" rx="11" ry="11" style="stroke:#181818;stroke-width:1.0;"/><path d="M149.0156,222.875 Q149.1719,222.6563 149.3594,222.5469 Q149.5469,222.4375 149.7656,222.4375 Q150.1406,222.4375 150.375,222.6953 Q150.6094,222.9531 150.6094,223.5625 L150.6094,225.0156 Q150.6094,225.625 150.375,225.8906 Q150.1406,226.1563 149.7656,226.1563 Q149.4219,226.1563 149.2188,225.9531 Q149.0156,225.7656 148.9063,225.25 Q148.8594,224.8906 148.6719,224.7031 Q148.3438,224.3281 147.7344,224.1094 Q147.125,223.8906 146.5,223.8906 Q145.7344,223.8906 145.1016,224.2188 Q144.4688,224.5469 143.9766,225.2969 Q143.4844,226.0469 143.4844,227.0781 L143.4844,228.1719 Q143.4844,229.4063 144.375,230.2266 Q145.2656,231.0469 146.8594,231.0469 Q147.7969,231.0469 148.4531,230.7969 Q148.8438,230.6406 149.2656,230.2031 Q149.5313,229.9375 149.6797,229.8594 Q149.8281,229.7813 150.0313,229.7813 Q150.3594,229.7813 150.6172,230.0391 Q150.875,230.2969 150.875,230.6406 Q150.875,230.9844 150.5313,231.3906 Q150.0313,231.9688 149.2344,232.2969 Q148.1563,232.75 146.8594,232.75 Q145.3438,232.75 144.1406,232.125 Q143.1563,231.625 142.4688,230.5547 Q141.7813,229.4844 141.7813,228.2031 L141.7813,227.0469 Q141.7813,225.7188 142.3984,224.5703 Q143.0156,223.4219 144.1094,222.8047 Q145.2031,222.1875 146.4375,222.1875 Q147.1719,222.1875 147.8203,222.3516 Q148.4688,222.5156 149.0156,222.875 Z " fill="#000000"/><text fill="#000000" font-family="sans-serif" font-size="14" lengthAdjust="spacing" textLength="18" x="166.75" y="232.7285">Db</text><line style="stroke:#181818;stroke-width:0.5;" x1="93.5" x2="225.5" y1="243" y2="243"/><line style="stroke:#181818;stroke-width:0.5;" x1="93.5" x2="225.5" y1="251" y2="251"/><text fill="#000000" font-family="sans-serif" font-size="14" lengthAdjust="spacing" textLength="122" x="98.5" y="269.5332">init(str connect_str)</text></g><!--MD5=[b2db8ccf06f2c83cde37e701a8b7a4d1]
class GresDb--><g id="elem_GresDb"><rect codeLine="12" fill="#F1F1F1" height="48" id="GresDb" rx="2.5" ry="2.5" style="stroke:#181818;stroke-width:0.5;" width="81" x="7" y="407"/><ellipse cx="22" cy="423" fill="#ADD1B2" rx="11" ry="11" style="stroke:#181818;stroke-width:1.0;"/><path d="M24.7656,418.875 Q24.9219,418.6563 25.1094,418.5469 Q25.2969,418.4375 25.5156,418.4375 Q25.8906,418.4375 26.125,418.6953 Q26.3594,418.9531 26.3594,419.5625 L26.3594,421.0156 Q26.3594,421.625 26.125,421.8906 Q25.8906,422.1563 25.5156,422.1563 Q25.1719,422.1563 24.9688,421.9531 Q24.7656,421.7656 24.6563,421.25 Q24.6094,420.8906 24.4219,420.7031 Q24.0938,420.3281 23.4844,420.1094 Q22.875,419.8906 22.25,419.8906 Q21.4844,419.8906 20.8516,420.2188 Q20.2188,420.5469 19.7266,421.2969 Q19.2344,422.0469 19.2344,423.0781 L19.2344,424.1719 Q19.2344,425.4063 20.125,426.2266 Q21.0156,427.0469 22.6094,427.0469 Q23.5469,427.0469 24.2031,426.7969 Q24.5938,426.6406 25.0156,426.2031 Q25.2813,425.9375 25.4297,425.8594 Q25.5781,425.7813 25.7813,425.7813 Q26.1094,425.7813 26.3672,426.0391 Q26.625,426.2969 26.625,426.6406 Q26.625,426.9844 26.2813,427.3906 Q25.7813,427.9688 24.9844,428.2969 Q23.9063,428.75 22.6094,428.75 Q21.0938,428.75 19.8906,428.125 Q18.9063,427.625 18.2188,426.5547 Q17.5313,425.4844 17.5313,424.2031 L17.5313,423.0469 Q17.5313,421.7188 18.1484,420.5703 Q18.7656,419.4219 19.8594,418.8047 Q20.9531,418.1875 22.1875,418.1875 Q22.9219,418.1875 23.5703,418.3516 Q24.2188,418.5156 24.7656,418.875 Z " fill="#000000"/><text fill="#000000" font-family="sans-serif" font-size="14" lengthAdjust="spacing" textLength="49" x="36" y="428.7285">GresDb</text><line style="stroke:#181818;stroke-width:0.5;" x1="8" x2="87" y1="439" y2="439"/><line style="stroke:#181818;stroke-width:0.5;" x1="8" x2="87" y1="447" y2="447"/></g><!--MD5=[4d307c3040e9f3ff2b2d0c8321016fdb]
class LiteDb--><g id="elem_LiteDb"><rect codeLine="13" fill="#F1F1F1" height="48" id="LiteDb" rx="2.5" ry="2.5" style="stroke:#181818;stroke-width:0.5;" width="73" x="123" y="407"/><ellipse cx="138" cy="423" fill="#ADD1B2" rx="11" ry="11" style="stroke:#181818;stroke-width:1.0;"/><path d="M140.7656,418.875 Q140.9219,418.6563 141.1094,418.5469 Q141.2969,418.4375 141.5156,418.4375 Q141.8906,418.4375 142.125,418.6953 Q142.3594,418.9531 142.3594,419.5625 L142.3594,421.0156 Q142.3594,421.625 142.125,421.8906 Q141.8906,422.1563 141.5156,422.1563 Q141.1719,422.1563 140.9688,421.9531 Q140.7656,421.7656 140.6563,421.25 Q140.6094,420.8906 140.4219,420.7031 Q140.0938,420.3281 139.4844,420.1094 Q138.875,419.8906 138.25,419.8906 Q137.4844,419.8906 136.8516,420.2188 Q136.2188,420.5469 135.7266,421.2969 Q135.2344,422.0469 135.2344,423.0781 L135.2344,424.1719 Q135.2344,425.4063 136.125,426.2266 Q137.0156,427.0469 138.6094,427.0469 Q139.5469,427.0469 140.2031,426.7969 Q140.5938,426.6406 141.0156,426.2031 Q141.2813,425.9375 141.4297,425.8594 Q141.5781,425.7813 141.7813,425.7813 Q142.1094,425.7813 142.3672,426.0391 Q142.625,426.2969 142.625,426.6406 Q142.625,426.9844 142.2813,427.3906 Q141.7813,427.9688 140.9844,428.2969 Q139.9063,428.75 138.6094,428.75 Q137.0938,428.75 135.8906,428.125 Q134.9063,427.625 134.2188,426.5547 Q133.5313,425.4844 133.5313,424.2031 L133.5313,423.0469 Q133.5313,421.7188 134.1484,420.5703 Q134.7656,419.4219 135.8594,418.8047 Q136.9531,418.1875 138.1875,418.1875 Q138.9219,418.1875 139.5703,418.3516 Q140.2188,418.5156 140.7656,418.875 Z " fill="#000000"/><text fill="#000000" font-family="sans-serif" font-size="14" lengthAdjust="spacing" textLength="41" x="152" y="428.7285">LiteDb</text><line style="stroke:#181818;stroke-width:0.5;" x1="124" x2="195" y1="439" y2="439"/><line style="stroke:#181818;stroke-width:0.5;" x1="124" x2="195" y1="447" y2="447"/></g><!--MD5=[04add1350e67c79380c0d55bbbeb7508]
class Savable--><g id="elem_Savable"><rect codeLine="15" fill="#F1F1F1" height="118.4375" id="Savable" rx="2.5" ry="2.5" style="stroke:#181818;stroke-width:0.5;" width="116" x="295.5" y="185"/><ellipse cx="325.35" cy="201" fill="#ADD1B2" rx="11" ry="11" style="stroke:#181818;stroke-width:1.0;"/><path d="M328.1156,196.875 Q328.2719,196.6563 328.4594,196.5469 Q328.6469,196.4375 328.8656,196.4375 Q329.2406,196.4375 329.475,196.6953 Q329.7094,196.9531 329.7094,197.5625 L329.7094,199.0156 Q329.7094,199.625 329.475,199.8906 Q329.2406,200.1563 328.8656,200.1563 Q328.5219,200.1563 328.3188,199.9531 Q328.1156,199.7656 328.0063,199.25 Q327.9594,198.8906 327.7719,198.7031 Q327.4438,198.3281 326.8344,198.1094 Q326.225,197.8906 325.6,197.8906 Q324.8344,197.8906 324.2016,198.2188 Q323.5688,198.5469 323.0766,199.2969 Q322.5844,200.0469 322.5844,201.0781 L322.5844,202.1719 Q322.5844,203.4063 323.475,204.2266 Q324.3656,205.0469 325.9594,205.0469 Q326.8969,205.0469 327.5531,204.7969 Q327.9438,204.6406 328.3656,204.2031 Q328.6313,203.9375 328.7797,203.8594 Q328.9281,203.7813 329.1313,203.7813 Q329.4594,203.7813 329.7172,204.0391 Q329.975,204.2969 329.975,204.6406 Q329.975,204.9844 329.6313,205.3906 Q329.1313,205.9688 328.3344,206.2969 Q327.2563,206.75 325.9594,206.75 Q324.4438,206.75 323.2406,206.125 Q322.2563,205.625 321.5688,204.5547 Q320.8813,203.4844 320.8813,202.2031 L320.8813,201.0469 Q320.8813,199.7188 321.4984,198.5703 Q322.1156,197.4219 323.2094,196.8047 Q324.3031,196.1875 325.5375,196.1875 Q326.2719,196.1875 326.9203,196.3516 Q327.5688,196.5156 328.1156,196.875 Z " fill="#000000"/><text fill="#000000" font-family="sans-serif" font-size="14" lengthAdjust="spacing" textLength="51" x="342.65" y="206.7285">Savable</text><line style="stroke:#181818;stroke-width:0.5;" x1="296.5" x2="410.5" y1="217" y2="217"/><text fill="#000000" font-family="sans-serif" font-size="14" lengthAdjust="spacing" textLength="48" x="301.5" y="235.5332">storage</text><line style="stroke:#181818;stroke-width:0.5;" x1="296.5" x2="410.5" y1="242.6094" y2="242.6094"/><text fill="#000000" font-family="sans-serif" font-size="14" lengthAdjust="spacing" textLength="104" x="301.5" y="261.1426">save(int level=0)</text><text fill="#000000" font-family="sans-serif" font-size="14" lengthAdjust="spacing" textLength="61" x="301.5" y="278.752">serialize()</text><text fill="#000000" font-family="sans-serif" font-size="14" lengthAdjust="spacing" textLength="77" x="301.5" y="296.3613">deserialize()</text></g><!--MD5=[c0b936abb008b3271898d4186b5531e4]
class Table--><g id="elem_Table"><rect codeLine="22" fill="#F1F1F1" height="48" id="Table" rx="2.5" ry="2.5" style="stroke:#181818;stroke-width:0.5;" width="68" x="231.5" y="407"/><ellipse cx="246.5" cy="423" fill="#ADD1B2" rx="11" ry="11" style="stroke:#181818;stroke-width:1.0;"/><path d="M249.2656,418.875 Q249.4219,418.6563 249.6094,418.5469 Q249.7969,418.4375 250.0156,418.4375 Q250.3906,418.4375 250.625,418.6953 Q250.8594,418.9531 250.8594,419.5625 L250.8594,421.0156 Q250.8594,421.625 250.625,421.8906 Q250.3906,422.1563 250.0156,422.1563 Q249.6719,422.1563 249.4688,421.9531 Q249.2656,421.7656 249.1563,421.25 Q249.1094,420.8906 248.9219,420.7031 Q248.5938,420.3281 247.9844,420.1094 Q247.375,419.8906 246.75,419.8906 Q245.9844,419.8906 245.3516,420.2188 Q244.7188,420.5469 244.2266,421.2969 Q243.7344,422.0469 243.7344,423.0781 L243.7344,424.1719 Q243.7344,425.4063 244.625,426.2266 Q245.5156,427.0469 247.1094,427.0469 Q248.0469,427.0469 248.7031,426.7969 Q249.0938,426.6406 249.5156,426.2031 Q249.7813,425.9375 249.9297,425.8594 Q250.0781,425.7813 250.2813,425.7813 Q250.6094,425.7813 250.8672,426.0391 Q251.125,426.2969 251.125,426.6406 Q251.125,426.9844 250.7813,427.3906 Q250.2813,427.9688 249.4844,428.2969 Q248.4063,428.75 247.1094,428.75 Q245.5938,428.75 244.3906,428.125 Q243.4063,427.625 242.7188,426.5547 Q242.0313,425.4844 242.0313,424.2031 L242.0313,423.0469 Q242.0313,421.7188 242.6484,420.5703 Q243.2656,419.4219 244.3594,418.8047 Q245.4531,418.1875 246.6875,418.1875 Q247.4219,418.1875 248.0703,418.3516 Q248.7188,418.5156 249.2656,418.875 Z " fill="#000000"/><text fill="#000000" font-family="sans-serif" font-size="14" lengthAdjust="spacing" textLength="36" x="260.5" y="428.7285">Table</text><line style="stroke:#181818;stroke-width:0.5;" x1="232.5" x2="298.5" y1="439" y2="439"/><line style="stroke:#181818;stroke-width:0.5;" x1="232.5" x2="298.5" y1="447" y2="447"/></g><!--MD5=[370961c8c67dbe83008ce44ed56af7e8]
class GresTable--><g id="elem_GresTable"><rect codeLine="24" fill="#F1F1F1" height="48" id="GresTable" rx="2.5" ry="2.5" style="stroke:#181818;stroke-width:0.5;" width="99" x="88" y="559"/><ellipse cx="103" cy="575" fill="#ADD1B2" rx="11" ry="11" style="stroke:#181818;stroke-width:1.0;"/><path d="M105.7656,570.875 Q105.9219,570.6563 106.1094,570.5469 Q106.2969,570.4375 106.5156,570.4375 Q106.8906,570.4375 107.125,570.6953 Q107.3594,570.9531 107.3594,571.5625 L107.3594,573.0156 Q107.3594,573.625 107.125,573.8906 Q106.8906,574.1563 106.5156,574.1563 Q106.1719,574.1563 105.9688,573.9531 Q105.7656,573.7656 105.6563,573.25 Q105.6094,572.8906 105.4219,572.7031 Q105.0938,572.3281 104.4844,572.1094 Q103.875,571.8906 103.25,571.8906 Q102.4844,571.8906 101.8516,572.2188 Q101.2188,572.5469 100.7266,573.2969 Q100.2344,574.0469 100.2344,575.0781 L100.2344,576.1719 Q100.2344,577.4063 101.125,578.2266 Q102.0156,579.0469 103.6094,579.0469 Q104.5469,579.0469 105.2031,578.7969 Q105.5938,578.6406 106.0156,578.2031 Q106.2813,577.9375 106.4297,577.8594 Q106.5781,577.7813 106.7813,577.7813 Q107.1094,577.7813 107.3672,578.0391 Q107.625,578.2969 107.625,578.6406 Q107.625,578.9844 107.2813,579.3906 Q106.7813,579.9688 105.9844,580.2969 Q104.9063,580.75 103.6094,580.75 Q102.0938,580.75 100.8906,580.125 Q99.9063,579.625 99.2188,578.5547 Q98.5313,577.4844 98.5313,576.2031 L98.5313,575.0469 Q98.5313,573.7188 99.1484,572.5703 Q99.7656,571.4219 100.8594,570.8047 Q101.9531,570.1875 103.1875,570.1875 Q103.9219,570.1875 104.5703,570.3516 Q105.2188,570.5156 105.7656,570.875 Z " fill="#000000"/><text fill="#000000" font-family="sans-serif" font-size="14" lengthAdjust="spacing" textLength="67" x="117" y="580.7285">GresTable</text><line style="stroke:#181818;stroke-width:0.5;" x1="89" x2="186" y1="591" y2="591"/><line style="stroke:#181818;stroke-width:0.5;" x1="89" x2="186" y1="599" y2="599"/></g><!--MD5=[80ff1cbdbf4e6fafe4447ae5c6d67dc9]
class LiteTable--><g id="elem_LiteTable"><rect codeLine="25" fill="#F1F1F1" height="48" id="LiteTable" rx="2.5" ry="2.5" style="stroke:#181818;stroke-width:0.5;" width="91" x="222" y="559"/><ellipse cx="237" cy="575" fill="#ADD1B2" rx="11" ry="11" style="stroke:#181818;stroke-width:1.0;"/><path d="M239.7656,570.875 Q239.9219,570.6563 240.1094,570.5469 Q240.2969,570.4375 240.5156,570.4375 Q240.8906,570.4375 241.125,570.6953 Q241.3594,570.9531 241.3594,571.5625 L241.3594,573.0156 Q241.3594,573.625 241.125,573.8906 Q240.8906,574.1563 240.5156,574.1563 Q240.1719,574.1563 239.9688,573.9531 Q239.7656,573.7656 239.6563,573.25 Q239.6094,572.8906 239.4219,572.7031 Q239.0938,572.3281 238.4844,572.1094 Q237.875,571.8906 237.25,571.8906 Q236.4844,571.8906 235.8516,572.2188 Q235.2188,572.5469 234.7266,573.2969 Q234.2344,574.0469 234.2344,575.0781 L234.2344,576.1719 Q234.2344,577.4063 235.125,578.2266 Q236.0156,579.0469 237.6094,579.0469 Q238.5469,579.0469 239.2031,578.7969 Q239.5938,578.6406 240.0156,578.2031 Q240.2813,577.9375 240.4297,577.8594 Q240.5781,577.7813 240.7813,577.7813 Q241.1094,577.7813 241.3672,578.0391 Q241.625,578.2969 241.625,578.6406 Q241.625,578.9844 241.2813,579.3906 Q240.7813,579.9688 239.9844,580.2969 Q238.9063,580.75 237.6094,580.75 Q236.0938,580.75 234.8906,580.125 Q233.9063,579.625 233.2188,578.5547 Q232.5313,577.4844 232.5313,576.2031 L232.5313,575.0469 Q232.5313,573.7188 233.1484,572.5703 Q233.7656,571.4219 234.8594,570.8047 Q235.9531,570.1875 237.1875,570.1875 Q237.9219,570.1875 238.5703,570.3516 Q239.2188,570.5156 239.7656,570.875 Z " fill="#000000"/><text fill="#000000" font-family="sans-serif" font-size="14" lengthAdjust="spacing" textLength="59" x="251" y="580.7285">LiteTable</text><line style="stroke:#181818;stroke-width:0.5;" x1="223" x2="312" y1="591" y2="591"/><line style="stroke:#181818;stroke-width:0.5;" x1="223" x2="312" y1="599" y2="599"/></g><!--MD5=[4559e451c9ce63b7bac6a4b27b898818]
class FileStorage--><g id="elem_FileStorage"><rect codeLine="27" fill="#F1F1F1" height="65.6094" id="FileStorage" rx="2.5" ry="2.5" style="stroke:#181818;stroke-width:0.5;" width="105" x="335" y="398"/><ellipse cx="350" cy="414" fill="#ADD1B2" rx="11" ry="11" style="stroke:#181818;stroke-width:1.0;"/><path d="M352.7656,409.875 Q352.9219,409.6563 353.1094,409.5469 Q353.2969,409.4375 353.5156,409.4375 Q353.8906,409.4375 354.125,409.6953 Q354.3594,409.9531 354.3594,410.5625 L354.3594,412.0156 Q354.3594,412.625 354.125,412.8906 Q353.8906,413.1563 353.5156,413.1563 Q353.1719,413.1563 352.9688,412.9531 Q352.7656,412.7656 352.6563,412.25 Q352.6094,411.8906 352.4219,411.7031 Q352.0938,411.3281 351.4844,411.1094 Q350.875,410.8906 350.25,410.8906 Q349.4844,410.8906 348.8516,411.2188 Q348.2188,411.5469 347.7266,412.2969 Q347.2344,413.0469 347.2344,414.0781 L347.2344,415.1719 Q347.2344,416.4063 348.125,417.2266 Q349.0156,418.0469 350.6094,418.0469 Q351.5469,418.0469 352.2031,417.7969 Q352.5938,417.6406 353.0156,417.2031 Q353.2813,416.9375 353.4297,416.8594 Q353.5781,416.7813 353.7813,416.7813 Q354.1094,416.7813 354.3672,417.0391 Q354.625,417.2969 354.625,417.6406 Q354.625,417.9844 354.2813,418.3906 Q353.7813,418.9688 352.9844,419.2969 Q351.9063,419.75 350.6094,419.75 Q349.0938,419.75 347.8906,419.125 Q346.9063,418.625 346.2188,417.5547 Q345.5313,416.4844 345.5313,415.2031 L345.5313,414.0469 Q345.5313,412.7188 346.1484,411.5703 Q346.7656,410.4219 347.8594,409.8047 Q348.9531,409.1875 350.1875,409.1875 Q350.9219,409.1875 351.5703,409.3516 Q352.2188,409.5156 352.7656,409.875 Z " fill="#000000"/><text fill="#000000" font-family="sans-serif" font-size="14" lengthAdjust="spacing" textLength="73" x="364" y="419.7285">FileStorage</text><line style="stroke:#181818;stroke-width:0.5;" x1="336" x2="439" y1="430" y2="430"/><line style="stroke:#181818;stroke-width:0.5;" x1="336" x2="439" y1="438" y2="438"/><text fill="#000000" font-family="sans-serif" font-size="14" lengthAdjust="spacing" textLength="76" x="341" y="456.5332">init(str path)</text></g><!--MD5=[e3c91158bcdad03aa33a6fcf074a92a7]
class IniFile--><g id="elem_IniFile"><rect codeLine="31" fill="#F1F1F1" height="48" id="IniFile" rx="2.5" ry="2.5" style="stroke:#181818;stroke-width:0.5;" width="69" x="351" y="559"/><ellipse cx="366" cy="575" fill="#ADD1B2" rx="11" ry="11" style="stroke:#181818;stroke-width:1.0;"/><path d="M368.7656,570.875 Q368.9219,570.6563 369.1094,570.5469 Q369.2969,570.4375 369.5156,570.4375 Q369.8906,570.4375 370.125,570.6953 Q370.3594,570.9531 370.3594,571.5625 L370.3594,573.0156 Q370.3594,573.625 370.125,573.8906 Q369.8906,574.1563 369.5156,574.1563 Q369.1719,574.1563 368.9688,573.9531 Q368.7656,573.7656 368.6563,573.25 Q368.6094,572.8906 368.4219,572.7031 Q368.0938,572.3281 367.4844,572.1094 Q366.875,571.8906 366.25,571.8906 Q365.4844,571.8906 364.8516,572.2188 Q364.2188,572.5469 363.7266,573.2969 Q363.2344,574.0469 363.2344,575.0781 L363.2344,576.1719 Q363.2344,577.4063 364.125,578.2266 Q365.0156,579.0469 366.6094,579.0469 Q367.5469,579.0469 368.2031,578.7969 Q368.5938,578.6406 369.0156,578.2031 Q369.2813,577.9375 369.4297,577.8594 Q369.5781,577.7813 369.7813,577.7813 Q370.1094,577.7813 370.3672,578.0391 Q370.625,578.2969 370.625,578.6406 Q370.625,578.9844 370.2813,579.3906 Q369.7813,579.9688 368.9844,580.2969 Q367.9063,580.75 366.6094,580.75 Q365.0938,580.75 363.8906,580.125 Q362.9063,579.625 362.2188,578.5547 Q361.5313,577.4844 361.5313,576.2031 L361.5313,575.0469 Q361.5313,573.7188 362.1484,572.5703 Q362.7656,571.4219 363.8594,570.8047 Q364.9531,570.1875 366.1875,570.1875 Q366.9219,570.1875 367.5703,570.3516 Q368.2188,570.5156 368.7656,570.875 Z " fill="#000000"/><text fill="#000000" font-family="sans-serif" font-size="14" lengthAdjust="spacing" textLength="37" x="380" y="580.7285">IniFile</text><line style="stroke:#181818;stroke-width:0.5;" x1="352" x2="419" y1="591" y2="591"/><line style="stroke:#181818;stroke-width:0.5;" x1="352" x2="419" y1="599" y2="599"/></g><!--MD5=[715128bba345a62fb0ee618baa868826]
class JsonFile--><g id="elem_JsonFile"><rect codeLine="32" fill="#F1F1F1" height="48" id="JsonFile" rx="2.5" ry="2.5" style="stroke:#181818;stroke-width:0.5;" width="84" x="455.5" y="559"/><ellipse cx="470.5" cy="575" fill="#ADD1B2" rx="11" ry="11" style="stroke:#181818;stroke-width:1.0;"/><path d="M473.2656,570.875 Q473.4219,570.6563 473.6094,570.5469 Q473.7969,570.4375 474.0156,570.4375 Q474.3906,570.4375 474.625,570.6953 Q474.8594,570.9531 474.8594,571.5625 L474.8594,573.0156 Q474.8594,573.625 474.625,573.8906 Q474.3906,574.1563 474.0156,574.1563 Q473.6719,574.1563 473.4688,573.9531 Q473.2656,573.7656 473.1563,573.25 Q473.1094,572.8906 472.9219,572.7031 Q472.5938,572.3281 471.9844,572.1094 Q471.375,571.8906 470.75,571.8906 Q469.9844,571.8906 469.3516,572.2188 Q468.7188,572.5469 468.2266,573.2969 Q467.7344,574.0469 467.7344,575.0781 L467.7344,576.1719 Q467.7344,577.4063 468.625,578.2266 Q469.5156,579.0469 471.1094,579.0469 Q472.0469,579.0469 472.7031,578.7969 Q473.0938,578.6406 473.5156,578.2031 Q473.7813,577.9375 473.9297,577.8594 Q474.0781,577.7813 474.2813,577.7813 Q474.6094,577.7813 474.8672,578.0391 Q475.125,578.2969 475.125,578.6406 Q475.125,578.9844 474.7813,579.3906 Q474.2813,579.9688 473.4844,580.2969 Q472.4063,580.75 471.1094,580.75 Q469.5938,580.75 468.3906,580.125 Q467.4063,579.625 466.7188,578.5547 Q466.0313,577.4844 466.0313,576.2031 L466.0313,575.0469 Q466.0313,573.7188 466.6484,572.5703 Q467.2656,571.4219 468.3594,570.8047 Q469.4531,570.1875 470.6875,570.1875 Q471.4219,570.1875 472.0703,570.3516 Q472.7188,570.5156 473.2656,570.875 Z " fill="#000000"/><text fill="#000000" font-family="sans-serif" font-size="14" lengthAdjust="spacing" textLength="52" x="484.5" y="580.7285">JsonFile</text><line style="stroke:#181818;stroke-width:0.5;" x1="456.5" x2="538.5" y1="591" y2="591"/><line style="stroke:#181818;stroke-width:0.5;" x1="456.5" x2="538.5" y1="599" y2="599"/></g><!--MD5=[3fee75583bb7a64f68d843a3c9534ab3]
class Node--><g id="elem_Node"><rect codeLine="34" fill="#F1F1F1" height="136.0469" id="Node" rx="2.5" ry="2.5" style="stroke:#181818;stroke-width:0.5;" width="176" x="475.5" y="363"/><ellipse cx="542.75" cy="379" fill="#ADD1B2" rx="11" ry="11" style="stroke:#181818;stroke-width:1.0;"/><path d="M545.5156,374.875 Q545.6719,374.6563 545.8594,374.5469 Q546.0469,374.4375 546.2656,374.4375 Q546.6406,374.4375 546.875,374.6953 Q547.1094,374.9531 547.1094,375.5625 L547.1094,377.0156 Q547.1094,377.625 546.875,377.8906 Q546.6406,378.1563 546.2656,378.1563 Q545.9219,378.1563 545.7188,377.9531 Q545.5156,377.7656 545.4063,377.25 Q545.3594,376.8906 545.1719,376.7031 Q544.8438,376.3281 544.2344,376.1094 Q543.625,375.8906 543,375.8906 Q542.2344,375.8906 541.6016,376.2188 Q540.9688,376.5469 540.4766,377.2969 Q539.9844,378.0469 539.9844,379.0781 L539.9844,380.1719 Q539.9844,381.4063 540.875,382.2266 Q541.7656,383.0469 543.3594,383.0469 Q544.2969,383.0469 544.9531,382.7969 Q545.3438,382.6406 545.7656,382.2031 Q546.0313,381.9375 546.1797,381.8594 Q546.3281,381.7813 546.5313,381.7813 Q546.8594,381.7813 547.1172,382.0391 Q547.375,382.2969 547.375,382.6406 Q547.375,382.9844 547.0313,383.3906 Q546.5313,383.9688 545.7344,384.2969 Q544.6563,384.75 543.3594,384.75 Q541.8438,384.75 540.6406,384.125 Q539.6563,383.625 538.9688,382.5547 Q538.2813,381.4844 538.2813,380.2031 L538.2813,379.0469 Q538.2813,377.7188 538.8984,376.5703 Q539.5156,375.4219 540.6094,374.8047 Q541.7031,374.1875 542.9375,374.1875 Q543.6719,374.1875 544.3203,374.3516 Q544.9688,374.5156 545.5156,374.875 Z " fill="#000000"/><text fill="#000000" font-family="sans-serif" font-size="14" lengthAdjust="spacing" textLength="33" x="563.25" y="384.7285">Node</text><line style="stroke:#181818;stroke-width:0.5;" x1="476.5" x2="650.5" y1="395" y2="395"/><text fill="#000000" font-family="sans-serif" font-size="14" lengthAdjust="spacing" textLength="31" x="481.5" y="413.5332">table</text><text fill="#000000" font-family="sans-serif" font-size="14" lengthAdjust="spacing" textLength="16" x="481.5" y="431.1426">db</text><text fill="#000000" font-family="sans-serif" font-size="14" lengthAdjust="spacing" textLength="48" x="481.5" y="448.752">exclude</text><line style="stroke:#181818;stroke-width:0.5;" x1="476.5" x2="650.5" y1="455.8281" y2="455.8281"/><text fill="#000000" font-family="sans-serif" font-size="14" lengthAdjust="spacing" textLength="88" x="481.5" y="474.3613">save(int level)</text><text fill="#000000" font-family="sans-serif" font-size="14" lengthAdjust="spacing" textLength="164" x="481.5" y="491.9707">is_excluded(str atr_name)</text></g><!--MD5=[816e9c027e5f4d77b5c5dd69b8d83234]
reverse link Storage to Db--><g id="link_Storage_Db"><path codeLine="43" d="M210.94,129.84 C198.47,157.27 184.38,188.25 174.11,210.86 " fill="none" id="Storage-backto-Db" style="stroke:#181818;stroke-width:1.0;"/><polygon fill="#181818" points="213.08,125.12,205.7143,131.6581,211.011,129.6718,212.9972,134.9685,213.08,125.12" style="stroke:#181818;stroke-width:1.0;"/></g><!--MD5=[b6374c3ad25834ac0da7c8763d91d2fb]
reverse link Db to GresDb--><g id="link_Db_GresDb"><path codeLine="44" d="M137.3,281.67 C114.74,318.93 80.5,375.49 61.48,406.91 " fill="none" id="Db-backto-GresDb" style="stroke:#181818;stroke-width:1.0;"/><polygon fill="#181818" points="139.99,277.22,131.9157,282.8597,137.407,281.5012,138.7656,286.9925,139.99,277.22" style="stroke:#181818;stroke-width:1.0;"/></g><!--MD5=[9a4e178ebf444982b05b4291d5795baf]
reverse link Db to LiteDb--><g id="link_Db_LiteDb"><path codeLine="45" d="M159.5,282.58 C159.5,319.84 159.5,375.74 159.5,406.91 " fill="none" id="Db-backto-LiteDb" style="stroke:#181818;stroke-width:1.0;"/><polygon fill="#181818" points="159.5,277.22,155.5,286.22,159.5,282.22,163.5,286.22,159.5,277.22" style="stroke:#181818;stroke-width:1.0;"/></g><!--MD5=[06bc641697eb23114d71b656d69d464d]
reverse link Storage to Savable--><g id="link_Storage_Savable"><path codeLine="46" d="M280.09,129.66 C291.75,147.67 304.42,167.23 315.9,184.94 " fill="none" id="Storage-backto-Savable" style="stroke:#181818;stroke-width:1.0;"/><polygon fill="#181818" points="277.14,125.12,278.6655,134.85,279.8539,129.3194,285.3845,130.5078,277.14,125.12" style="stroke:#181818;stroke-width:1.0;"/></g><!--MD5=[c0c5e12ee215e209b572df56d584ba94]
reverse link Savable to FileStorage--><g id="link_Savable_FileStorage"><path codeLine="47" d="M365.12,308.21 C370.65,338.34 377.04,373.1 381.57,397.75 " fill="none" id="Savable-backto-FileStorage" style="stroke:#181818;stroke-width:1.0;"/><polygon fill="#181818" points="364.16,303.03,361.8467,312.6033,365.0607,307.9482,369.7159,311.1622,364.16,303.03" style="stroke:#181818;stroke-width:1.0;"/></g><!--MD5=[0ebf0993364e6cdae07c3c49fb341363]
reverse link FileStorage to IniFile--><g id="link_FileStorage_IniFile"><path codeLine="48" d="M387,469.29 C386.63,497.31 386.13,534.81 385.81,558.69 " fill="none" id="FileStorage-backto-IniFile" style="stroke:#181818;stroke-width:1.0;"/><polygon fill="#181818" points="387.07,464.18,382.9418,473.1219,386.9986,469.1795,390.941,473.2362,387.07,464.18" style="stroke:#181818;stroke-width:1.0;"/></g><!--MD5=[a458a97d701919896b953fef19b5ac47]
reverse link FileStorage to JsonFile--><g id="link_FileStorage_JsonFile"><path codeLine="49" d="M414.08,468.25 C434.71,496.37 462.67,534.51 480.41,558.69 " fill="none" id="FileStorage-backto-JsonFile" style="stroke:#181818;stroke-width:1.0;"/><polygon fill="#181818" points="411.1,464.18,413.1848,473.8057,414.0519,468.2156,419.6419,469.0827,411.1,464.18" style="stroke:#181818;stroke-width:1.0;"/></g><!--MD5=[29ad2f6311713c8ceae63c209b94edb4]
reverse link Savable to Table--><g id="link_Savable_Table"><path codeLine="50" d="M323.72,307.6 C307.42,341.87 288.21,382.26 276.44,407 " fill="none" id="Savable-backto-Table" style="stroke:#181818;stroke-width:1.0;"/><polygon fill="#181818" points="325.9,303.03,318.427,309.4452,323.7559,307.5469,325.6541,312.8758,325.9,303.03" style="stroke:#181818;stroke-width:1.0;"/></g><!--MD5=[0bd0cdabf80b912a0e7fc18d82d3d208]
reverse link Table to GresTable--><g id="link_Table_GresTable"><path codeLine="51" d="M245.27,459.1 C235.84,471.45 224.33,486.16 213.5,499 C195.99,519.76 175.09,542.44 159.64,558.84 " fill="none" id="Table-backto-GresTable" style="stroke:#181818;stroke-width:1.0;"/><polygon fill="#181818" points="248.38,455,239.75,459.7459,245.3549,458.9811,246.1198,464.586,248.38,455" style="stroke:#181818;stroke-width:1.0;"/></g><!--MD5=[b8132b73519e6306962e830082501983]
reverse link Table to LiteTable--><g id="link_Table_LiteTable"><path codeLine="52" d="M265.88,460.24 C266.26,488.68 266.83,532.04 267.19,558.62 " fill="none" id="Table-backto-LiteTable" style="stroke:#181818;stroke-width:1.0;"/><polygon fill="#181818" points="265.81,455.11,261.9393,464.1664,265.8816,460.1095,269.9385,464.0518,265.81,455.11" style="stroke:#181818;stroke-width:1.0;"/></g><!--MD5=[b255d7e3895c07749ef7df1fca958c42]
reverse link Savable to Node--><g id="link_Savable_Node"><path codeLine="53" d="M415.6,299.7 C438.13,319.55 463.84,342.21 487.44,363 " fill="none" id="Savable-backto-Node" style="stroke:#181818;stroke-width:1.0;"/><polygon fill="#181818" points="411.72,296.29,415.8232,305.2434,415.4696,299.5976,421.1154,299.2441,411.72,296.29" style="stroke:#181818;stroke-width:1.0;"/></g><!--MD5=[4ad632cec2a655e091fd55daa16d0cb3]
@startuml
class Storage{    
    put(Savable storage)
    search(Object)
    execute(str script='')
    name
}

class Db{
    init(str connect_str)
}

class GresDb{}
class LiteDb{}

class Savable{    
    storage
    save(int level=0)
    serialize()
    deserialize()    
}

class Table{}

class GresTable{}
class LiteTable{}

class FileStorage{
    init(str path)
}

class IniFile{}
class JsonFile{}

class Node{
    table
    db
    exclude
    save(int level)
    is_excluded(str atr_name)
}


Storage <- - Db
    Db <- - GresDb
    Db <- - LiteDb
Storage <- - Savable
    Savable <- - FileStorage
        FileStorage <- - IniFile
        FileStorage <- - JsonFile
    Savable <- - Table
        Table <- - GresTable
        Table <- - LiteTable
    Savable <- - Node
@enduml

PlantUML version 1.2022.5(Sat Apr 30 13:55:52 MSK 2022)
(GPL source distribution)
Java Runtime: Java(TM) SE Runtime Environment
JVM: Java HotSpot(TM) 64-Bit Server VM
Default Encoding: Cp1251
Language: ru
Country: RU
--></g></svg>