<?xml version="1.0" encoding="UTF-8" standalone="no"?><svg xmlns="http://www.w3.org/2000/svg" xmlns:xlink="http://www.w3.org/1999/xlink" contentStyleType="text/css" height="386px" preserveAspectRatio="none" style="width:614px;height:386px;background:#FFFFFF;" version="1.1" viewBox="0 0 614 386" width="614px" zoomAndPan="magnify"><defs/><g><!--MD5=[9d35236b92952560f647498cf8a29acb]
class Term--><g id="elem_Term"><rect codeLine="1" fill="#F1F1F1" height="48" id="Term" rx="2.5" ry="2.5" style="stroke:#181818;stroke-width:0.5;" width="65" x="245" y="7"/><ellipse cx="260" cy="23" fill="#ADD1B2" rx="11" ry="11" style="stroke:#181818;stroke-width:1.0;"/><path d="M262.7656,18.875 Q262.9219,18.6563 263.1094,18.5469 Q263.2969,18.4375 263.5156,18.4375 Q263.8906,18.4375 264.125,18.6953 Q264.3594,18.9531 264.3594,19.5625 L264.3594,21.0156 Q264.3594,21.625 264.125,21.8906 Q263.8906,22.1563 263.5156,22.1563 Q263.1719,22.1563 262.9688,21.9531 Q262.7656,21.7656 262.6563,21.25 Q262.6094,20.8906 262.4219,20.7031 Q262.0938,20.3281 261.4844,20.1094 Q260.875,19.8906 260.25,19.8906 Q259.4844,19.8906 258.8516,20.2188 Q258.2188,20.5469 257.7266,21.2969 Q257.2344,22.0469 257.2344,23.0781 L257.2344,24.1719 Q257.2344,25.4063 258.125,26.2266 Q259.0156,27.0469 260.6094,27.0469 Q261.5469,27.0469 262.2031,26.7969 Q262.5938,26.6406 263.0156,26.2031 Q263.2813,25.9375 263.4297,25.8594 Q263.5781,25.7813 263.7813,25.7813 Q264.1094,25.7813 264.3672,26.0391 Q264.625,26.2969 264.625,26.6406 Q264.625,26.9844 264.2813,27.3906 Q263.7813,27.9688 262.9844,28.2969 Q261.9063,28.75 260.6094,28.75 Q259.0938,28.75 257.8906,28.125 Q256.9063,27.625 256.2188,26.5547 Q255.5313,25.4844 255.5313,24.2031 L255.5313,23.0469 Q255.5313,21.7188 256.1484,20.5703 Q256.7656,19.4219 257.8594,18.8047 Q258.9531,18.1875 260.1875,18.1875 Q260.9219,18.1875 261.5703,18.3516 Q262.2188,18.5156 262.7656,18.875 Z " fill="#000000"/><text fill="#000000" font-family="sans-serif" font-size="14" lengthAdjust="spacing" textLength="33" x="274" y="28.7285">Term</text><line style="stroke:#181818;stroke-width:0.5;" x1="246" x2="309" y1="39" y2="39"/><line style="stroke:#181818;stroke-width:0.5;" x1="246" x2="309" y1="47" y2="47"/></g><!--MD5=[8ec9733ebc222e095410d87e12ef10c0]
class Binary--><g id="elem_Binary"><rect codeLine="3" fill="#F1F1F1" height="48" id="Binary" rx="2.5" ry="2.5" style="stroke:#181818;stroke-width:0.5;" width="72" x="175.5" y="115"/><ellipse cx="190.5" cy="131" fill="#ADD1B2" rx="11" ry="11" style="stroke:#181818;stroke-width:1.0;"/><path d="M193.2656,126.875 Q193.4219,126.6563 193.6094,126.5469 Q193.7969,126.4375 194.0156,126.4375 Q194.3906,126.4375 194.625,126.6953 Q194.8594,126.9531 194.8594,127.5625 L194.8594,129.0156 Q194.8594,129.625 194.625,129.8906 Q194.3906,130.1563 194.0156,130.1563 Q193.6719,130.1563 193.4688,129.9531 Q193.2656,129.7656 193.1563,129.25 Q193.1094,128.8906 192.9219,128.7031 Q192.5938,128.3281 191.9844,128.1094 Q191.375,127.8906 190.75,127.8906 Q189.9844,127.8906 189.3516,128.2188 Q188.7188,128.5469 188.2266,129.2969 Q187.7344,130.0469 187.7344,131.0781 L187.7344,132.1719 Q187.7344,133.4063 188.625,134.2266 Q189.5156,135.0469 191.1094,135.0469 Q192.0469,135.0469 192.7031,134.7969 Q193.0938,134.6406 193.5156,134.2031 Q193.7813,133.9375 193.9297,133.8594 Q194.0781,133.7813 194.2813,133.7813 Q194.6094,133.7813 194.8672,134.0391 Q195.125,134.2969 195.125,134.6406 Q195.125,134.9844 194.7813,135.3906 Q194.2813,135.9688 193.4844,136.2969 Q192.4063,136.75 191.1094,136.75 Q189.5938,136.75 188.3906,136.125 Q187.4063,135.625 186.7188,134.5547 Q186.0313,133.4844 186.0313,132.2031 L186.0313,131.0469 Q186.0313,129.7188 186.6484,128.5703 Q187.2656,127.4219 188.3594,126.8047 Q189.4531,126.1875 190.6875,126.1875 Q191.4219,126.1875 192.0703,126.3516 Q192.7188,126.5156 193.2656,126.875 Z " fill="#000000"/><text fill="#000000" font-family="sans-serif" font-size="14" lengthAdjust="spacing" textLength="40" x="204.5" y="136.7285">Binary</text><line style="stroke:#181818;stroke-width:0.5;" x1="176.5" x2="246.5" y1="147" y2="147"/><line style="stroke:#181818;stroke-width:0.5;" x1="176.5" x2="246.5" y1="155" y2="155"/></g><!--MD5=[b7f3c5f6c9fa77cd0687973749f6a61a]
class BinOperation--><g id="elem_BinOperation"><rect codeLine="5" fill="#F1F1F1" height="48" id="BinOperation" rx="2.5" ry="2.5" style="stroke:#181818;stroke-width:0.5;" width="115" x="7" y="223"/><ellipse cx="22" cy="239" fill="#ADD1B2" rx="11" ry="11" style="stroke:#181818;stroke-width:1.0;"/><path d="M24.7656,234.875 Q24.9219,234.6563 25.1094,234.5469 Q25.2969,234.4375 25.5156,234.4375 Q25.8906,234.4375 26.125,234.6953 Q26.3594,234.9531 26.3594,235.5625 L26.3594,237.0156 Q26.3594,237.625 26.125,237.8906 Q25.8906,238.1563 25.5156,238.1563 Q25.1719,238.1563 24.9688,237.9531 Q24.7656,237.7656 24.6563,237.25 Q24.6094,236.8906 24.4219,236.7031 Q24.0938,236.3281 23.4844,236.1094 Q22.875,235.8906 22.25,235.8906 Q21.4844,235.8906 20.8516,236.2188 Q20.2188,236.5469 19.7266,237.2969 Q19.2344,238.0469 19.2344,239.0781 L19.2344,240.1719 Q19.2344,241.4063 20.125,242.2266 Q21.0156,243.0469 22.6094,243.0469 Q23.5469,243.0469 24.2031,242.7969 Q24.5938,242.6406 25.0156,242.2031 Q25.2813,241.9375 25.4297,241.8594 Q25.5781,241.7813 25.7813,241.7813 Q26.1094,241.7813 26.3672,242.0391 Q26.625,242.2969 26.625,242.6406 Q26.625,242.9844 26.2813,243.3906 Q25.7813,243.9688 24.9844,244.2969 Q23.9063,244.75 22.6094,244.75 Q21.0938,244.75 19.8906,244.125 Q18.9063,243.625 18.2188,242.5547 Q17.5313,241.4844 17.5313,240.2031 L17.5313,239.0469 Q17.5313,237.7188 18.1484,236.5703 Q18.7656,235.4219 19.8594,234.8047 Q20.9531,234.1875 22.1875,234.1875 Q22.9219,234.1875 23.5703,234.3516 Q24.2188,234.5156 24.7656,234.875 Z " fill="#000000"/><text fill="#000000" font-family="sans-serif" font-size="14" lengthAdjust="spacing" textLength="83" x="36" y="244.7285">BinOperation</text><line style="stroke:#181818;stroke-width:0.5;" x1="8" x2="121" y1="255" y2="255"/><line style="stroke:#181818;stroke-width:0.5;" x1="8" x2="121" y1="263" y2="263"/></g><!--MD5=[221384b39e785ef50d5e122329174c9e]
class Comparison--><g id="elem_Comparison"><rect codeLine="7" fill="#F1F1F1" height="48" id="Comparison" rx="2.5" ry="2.5" style="stroke:#181818;stroke-width:0.5;" width="108" x="157.5" y="223"/><ellipse cx="172.5" cy="239" fill="#ADD1B2" rx="11" ry="11" style="stroke:#181818;stroke-width:1.0;"/><path d="M175.2656,234.875 Q175.4219,234.6563 175.6094,234.5469 Q175.7969,234.4375 176.0156,234.4375 Q176.3906,234.4375 176.625,234.6953 Q176.8594,234.9531 176.8594,235.5625 L176.8594,237.0156 Q176.8594,237.625 176.625,237.8906 Q176.3906,238.1563 176.0156,238.1563 Q175.6719,238.1563 175.4688,237.9531 Q175.2656,237.7656 175.1563,237.25 Q175.1094,236.8906 174.9219,236.7031 Q174.5938,236.3281 173.9844,236.1094 Q173.375,235.8906 172.75,235.8906 Q171.9844,235.8906 171.3516,236.2188 Q170.7188,236.5469 170.2266,237.2969 Q169.7344,238.0469 169.7344,239.0781 L169.7344,240.1719 Q169.7344,241.4063 170.625,242.2266 Q171.5156,243.0469 173.1094,243.0469 Q174.0469,243.0469 174.7031,242.7969 Q175.0938,242.6406 175.5156,242.2031 Q175.7813,241.9375 175.9297,241.8594 Q176.0781,241.7813 176.2813,241.7813 Q176.6094,241.7813 176.8672,242.0391 Q177.125,242.2969 177.125,242.6406 Q177.125,242.9844 176.7813,243.3906 Q176.2813,243.9688 175.4844,244.2969 Q174.4063,244.75 173.1094,244.75 Q171.5938,244.75 170.3906,244.125 Q169.4063,243.625 168.7188,242.5547 Q168.0313,241.4844 168.0313,240.2031 L168.0313,239.0469 Q168.0313,237.7188 168.6484,236.5703 Q169.2656,235.4219 170.3594,234.8047 Q171.4531,234.1875 172.6875,234.1875 Q173.4219,234.1875 174.0703,234.3516 Q174.7188,234.5156 175.2656,234.875 Z " fill="#000000"/><text fill="#000000" font-family="sans-serif" font-size="14" lengthAdjust="spacing" textLength="76" x="186.5" y="244.7285">Comparison</text><line style="stroke:#181818;stroke-width:0.5;" x1="158.5" x2="264.5" y1="255" y2="255"/><line style="stroke:#181818;stroke-width:0.5;" x1="158.5" x2="264.5" y1="263" y2="263"/></g><!--MD5=[3670a9b67b8a752f6e42da25dea7e2da]
class Leaf--><g id="elem_Leaf"><rect codeLine="11" fill="#F1F1F1" height="48" id="Leaf" rx="2.5" ry="2.5" style="stroke:#181818;stroke-width:0.5;" width="60" x="313.5" y="115"/><ellipse cx="328.5" cy="131" fill="#ADD1B2" rx="11" ry="11" style="stroke:#181818;stroke-width:1.0;"/><path d="M331.2656,126.875 Q331.4219,126.6563 331.6094,126.5469 Q331.7969,126.4375 332.0156,126.4375 Q332.3906,126.4375 332.625,126.6953 Q332.8594,126.9531 332.8594,127.5625 L332.8594,129.0156 Q332.8594,129.625 332.625,129.8906 Q332.3906,130.1563 332.0156,130.1563 Q331.6719,130.1563 331.4688,129.9531 Q331.2656,129.7656 331.1563,129.25 Q331.1094,128.8906 330.9219,128.7031 Q330.5938,128.3281 329.9844,128.1094 Q329.375,127.8906 328.75,127.8906 Q327.9844,127.8906 327.3516,128.2188 Q326.7188,128.5469 326.2266,129.2969 Q325.7344,130.0469 325.7344,131.0781 L325.7344,132.1719 Q325.7344,133.4063 326.625,134.2266 Q327.5156,135.0469 329.1094,135.0469 Q330.0469,135.0469 330.7031,134.7969 Q331.0938,134.6406 331.5156,134.2031 Q331.7813,133.9375 331.9297,133.8594 Q332.0781,133.7813 332.2813,133.7813 Q332.6094,133.7813 332.8672,134.0391 Q333.125,134.2969 333.125,134.6406 Q333.125,134.9844 332.7813,135.3906 Q332.2813,135.9688 331.4844,136.2969 Q330.4063,136.75 329.1094,136.75 Q327.5938,136.75 326.3906,136.125 Q325.4063,135.625 324.7188,134.5547 Q324.0313,133.4844 324.0313,132.2031 L324.0313,131.0469 Q324.0313,129.7188 324.6484,128.5703 Q325.2656,127.4219 326.3594,126.8047 Q327.4531,126.1875 328.6875,126.1875 Q329.4219,126.1875 330.0703,126.3516 Q330.7188,126.5156 331.2656,126.875 Z " fill="#000000"/><text fill="#000000" font-family="sans-serif" font-size="14" lengthAdjust="spacing" textLength="28" x="342.5" y="136.7285">Leaf</text><line style="stroke:#181818;stroke-width:0.5;" x1="314.5" x2="372.5" y1="147" y2="147"/><line style="stroke:#181818;stroke-width:0.5;" x1="314.5" x2="372.5" y1="155" y2="155"/></g><!--MD5=[204a995c784cbe6b3a7450752a2139a2]
class Primitive--><g id="elem_Primitive"><rect codeLine="13" fill="#F1F1F1" height="48" id="Primitive" rx="2.5" ry="2.5" style="stroke:#181818;stroke-width:0.5;" width="85" x="301" y="223"/><ellipse cx="316" cy="239" fill="#ADD1B2" rx="11" ry="11" style="stroke:#181818;stroke-width:1.0;"/><path d="M318.7656,234.875 Q318.9219,234.6563 319.1094,234.5469 Q319.2969,234.4375 319.5156,234.4375 Q319.8906,234.4375 320.125,234.6953 Q320.3594,234.9531 320.3594,235.5625 L320.3594,237.0156 Q320.3594,237.625 320.125,237.8906 Q319.8906,238.1563 319.5156,238.1563 Q319.1719,238.1563 318.9688,237.9531 Q318.7656,237.7656 318.6563,237.25 Q318.6094,236.8906 318.4219,236.7031 Q318.0938,236.3281 317.4844,236.1094 Q316.875,235.8906 316.25,235.8906 Q315.4844,235.8906 314.8516,236.2188 Q314.2188,236.5469 313.7266,237.2969 Q313.2344,238.0469 313.2344,239.0781 L313.2344,240.1719 Q313.2344,241.4063 314.125,242.2266 Q315.0156,243.0469 316.6094,243.0469 Q317.5469,243.0469 318.2031,242.7969 Q318.5938,242.6406 319.0156,242.2031 Q319.2813,241.9375 319.4297,241.8594 Q319.5781,241.7813 319.7813,241.7813 Q320.1094,241.7813 320.3672,242.0391 Q320.625,242.2969 320.625,242.6406 Q320.625,242.9844 320.2813,243.3906 Q319.7813,243.9688 318.9844,244.2969 Q317.9063,244.75 316.6094,244.75 Q315.0938,244.75 313.8906,244.125 Q312.9063,243.625 312.2188,242.5547 Q311.5313,241.4844 311.5313,240.2031 L311.5313,239.0469 Q311.5313,237.7188 312.1484,236.5703 Q312.7656,235.4219 313.8594,234.8047 Q314.9531,234.1875 316.1875,234.1875 Q316.9219,234.1875 317.5703,234.3516 Q318.2188,234.5156 318.7656,234.875 Z " fill="#000000"/><text fill="#000000" font-family="sans-serif" font-size="14" lengthAdjust="spacing" textLength="53" x="330" y="244.7285">Primitive</text><line style="stroke:#181818;stroke-width:0.5;" x1="302" x2="385" y1="255" y2="255"/><line style="stroke:#181818;stroke-width:0.5;" x1="302" x2="385" y1="263" y2="263"/></g><!--MD5=[51a1a013f382af0d078fee3b61494ac1]
class QueryingProxy--><g id="elem_QueryingProxy"><rect codeLine="15" fill="#F1F1F1" height="48" id="QueryingProxy" rx="2.5" ry="2.5" style="stroke:#181818;stroke-width:0.5;" width="125" x="421" y="223"/><ellipse cx="436" cy="239" fill="#ADD1B2" rx="11" ry="11" style="stroke:#181818;stroke-width:1.0;"/><path d="M438.7656,234.875 Q438.9219,234.6563 439.1094,234.5469 Q439.2969,234.4375 439.5156,234.4375 Q439.8906,234.4375 440.125,234.6953 Q440.3594,234.9531 440.3594,235.5625 L440.3594,237.0156 Q440.3594,237.625 440.125,237.8906 Q439.8906,238.1563 439.5156,238.1563 Q439.1719,238.1563 438.9688,237.9531 Q438.7656,237.7656 438.6563,237.25 Q438.6094,236.8906 438.4219,236.7031 Q438.0938,236.3281 437.4844,236.1094 Q436.875,235.8906 436.25,235.8906 Q435.4844,235.8906 434.8516,236.2188 Q434.2188,236.5469 433.7266,237.2969 Q433.2344,238.0469 433.2344,239.0781 L433.2344,240.1719 Q433.2344,241.4063 434.125,242.2266 Q435.0156,243.0469 436.6094,243.0469 Q437.5469,243.0469 438.2031,242.7969 Q438.5938,242.6406 439.0156,242.2031 Q439.2813,241.9375 439.4297,241.8594 Q439.5781,241.7813 439.7813,241.7813 Q440.1094,241.7813 440.3672,242.0391 Q440.625,242.2969 440.625,242.6406 Q440.625,242.9844 440.2813,243.3906 Q439.7813,243.9688 438.9844,244.2969 Q437.9063,244.75 436.6094,244.75 Q435.0938,244.75 433.8906,244.125 Q432.9063,243.625 432.2188,242.5547 Q431.5313,241.4844 431.5313,240.2031 L431.5313,239.0469 Q431.5313,237.7188 432.1484,236.5703 Q432.7656,235.4219 433.8594,234.8047 Q434.9531,234.1875 436.1875,234.1875 Q436.9219,234.1875 437.5703,234.3516 Q438.2188,234.5156 438.7656,234.875 Z " fill="#000000"/><text fill="#000000" font-family="sans-serif" font-size="14" lengthAdjust="spacing" textLength="93" x="450" y="244.7285">QueryingProxy</text><line style="stroke:#181818;stroke-width:0.5;" x1="422" x2="545" y1="255" y2="255"/><line style="stroke:#181818;stroke-width:0.5;" x1="422" x2="545" y1="263" y2="263"/></g><!--MD5=[35a4d1acb3e2fbaec284679a6b35bcf6]
class ColumnProxy--><g id="elem_ColumnProxy"><rect codeLine="17" fill="#F1F1F1" height="48" id="ColumnProxy" rx="2.5" ry="2.5" style="stroke:#181818;stroke-width:0.5;" width="115" x="354" y="331"/><ellipse cx="369" cy="347" fill="#ADD1B2" rx="11" ry="11" style="stroke:#181818;stroke-width:1.0;"/><path d="M371.7656,342.875 Q371.9219,342.6563 372.1094,342.5469 Q372.2969,342.4375 372.5156,342.4375 Q372.8906,342.4375 373.125,342.6953 Q373.3594,342.9531 373.3594,343.5625 L373.3594,345.0156 Q373.3594,345.625 373.125,345.8906 Q372.8906,346.1563 372.5156,346.1563 Q372.1719,346.1563 371.9688,345.9531 Q371.7656,345.7656 371.6563,345.25 Q371.6094,344.8906 371.4219,344.7031 Q371.0938,344.3281 370.4844,344.1094 Q369.875,343.8906 369.25,343.8906 Q368.4844,343.8906 367.8516,344.2188 Q367.2188,344.5469 366.7266,345.2969 Q366.2344,346.0469 366.2344,347.0781 L366.2344,348.1719 Q366.2344,349.4063 367.125,350.2266 Q368.0156,351.0469 369.6094,351.0469 Q370.5469,351.0469 371.2031,350.7969 Q371.5938,350.6406 372.0156,350.2031 Q372.2813,349.9375 372.4297,349.8594 Q372.5781,349.7813 372.7813,349.7813 Q373.1094,349.7813 373.3672,350.0391 Q373.625,350.2969 373.625,350.6406 Q373.625,350.9844 373.2813,351.3906 Q372.7813,351.9688 371.9844,352.2969 Q370.9063,352.75 369.6094,352.75 Q368.0938,352.75 366.8906,352.125 Q365.9063,351.625 365.2188,350.5547 Q364.5313,349.4844 364.5313,348.2031 L364.5313,347.0469 Q364.5313,345.7188 365.1484,344.5703 Q365.7656,343.4219 366.8594,342.8047 Q367.9531,342.1875 369.1875,342.1875 Q369.9219,342.1875 370.5703,342.3516 Q371.2188,342.5156 371.7656,342.875 Z " fill="#000000"/><text fill="#000000" font-family="sans-serif" font-size="14" lengthAdjust="spacing" textLength="83" x="383" y="352.7285">ColumnProxy</text><line style="stroke:#181818;stroke-width:0.5;" x1="355" x2="468" y1="363" y2="363"/><line style="stroke:#181818;stroke-width:0.5;" x1="355" x2="468" y1="371" y2="371"/></g><!--MD5=[5793687805454fa362f6238cd1b8b1ae]
class TableProxy--><g id="elem_TableProxy"><rect codeLine="19" fill="#F1F1F1" height="48" id="TableProxy" rx="2.5" ry="2.5" style="stroke:#181818;stroke-width:0.5;" width="103" x="504" y="331"/><ellipse cx="519" cy="347" fill="#ADD1B2" rx="11" ry="11" style="stroke:#181818;stroke-width:1.0;"/><path d="M521.7656,342.875 Q521.9219,342.6563 522.1094,342.5469 Q522.2969,342.4375 522.5156,342.4375 Q522.8906,342.4375 523.125,342.6953 Q523.3594,342.9531 523.3594,343.5625 L523.3594,345.0156 Q523.3594,345.625 523.125,345.8906 Q522.8906,346.1563 522.5156,346.1563 Q522.1719,346.1563 521.9688,345.9531 Q521.7656,345.7656 521.6563,345.25 Q521.6094,344.8906 521.4219,344.7031 Q521.0938,344.3281 520.4844,344.1094 Q519.875,343.8906 519.25,343.8906 Q518.4844,343.8906 517.8516,344.2188 Q517.2188,344.5469 516.7266,345.2969 Q516.2344,346.0469 516.2344,347.0781 L516.2344,348.1719 Q516.2344,349.4063 517.125,350.2266 Q518.0156,351.0469 519.6094,351.0469 Q520.5469,351.0469 521.2031,350.7969 Q521.5938,350.6406 522.0156,350.2031 Q522.2813,349.9375 522.4297,349.8594 Q522.5781,349.7813 522.7813,349.7813 Q523.1094,349.7813 523.3672,350.0391 Q523.625,350.2969 523.625,350.6406 Q523.625,350.9844 523.2813,351.3906 Q522.7813,351.9688 521.9844,352.2969 Q520.9063,352.75 519.6094,352.75 Q518.0938,352.75 516.8906,352.125 Q515.9063,351.625 515.2188,350.5547 Q514.5313,349.4844 514.5313,348.2031 L514.5313,347.0469 Q514.5313,345.7188 515.1484,344.5703 Q515.7656,343.4219 516.8594,342.8047 Q517.9531,342.1875 519.1875,342.1875 Q519.9219,342.1875 520.5703,342.3516 Q521.2188,342.5156 521.7656,342.875 Z " fill="#000000"/><text fill="#000000" font-family="sans-serif" font-size="14" lengthAdjust="spacing" textLength="71" x="533" y="352.7285">TableProxy</text><line style="stroke:#181818;stroke-width:0.5;" x1="505" x2="606" y1="363" y2="363"/><line style="stroke:#181818;stroke-width:0.5;" x1="505" x2="606" y1="371" y2="371"/></g><!--MD5=[b225b454a976c47930c1b641d77574c7]
reverse link Term to Binary--><g id="link_Term_Binary"><path codeLine="22" d="M252.51,72.13 C243.57,86.5 233.79,102.21 226.02,114.68 " fill="none" id="Term-backto-Binary" style="stroke:#181818;stroke-width:1.0;"/><polygon fill="none" points="246.67,68.28,263.18,55,258.55,75.68,246.67,68.28" style="stroke:#181818;stroke-width:1.0;"/></g><!--MD5=[21203040a67116e74ba42d538b80d817]
reverse link Binary to BinOperation--><g id="link_Binary_BinOperation"><path codeLine="23" d="M163.32,174.75 C141.42,190.53 116.11,208.78 96.59,222.86 " fill="none" id="Binary-backto-BinOperation" style="stroke:#181818;stroke-width:1.0;"/><polygon fill="none" points="159.29,169.02,179.6,163,167.48,180.38,159.29,169.02" style="stroke:#181818;stroke-width:1.0;"/></g><!--MD5=[a944b97332866647dbbdb4340b013abe]
reverse link Binary to Comparison--><g id="link_Binary_Comparison"><path codeLine="24" d="M211.5,183.02 C211.5,196.58 211.5,211.04 211.5,222.68 " fill="none" id="Binary-backto-Comparison" style="stroke:#181818;stroke-width:1.0;"/><polygon fill="none" points="204.5,183,211.5,163,218.5,183,204.5,183" style="stroke:#181818;stroke-width:1.0;"/></g><!--MD5=[1691c9ace4f70439bfcdaea9bc5b6e38]
reverse link Term to Leaf--><g id="link_Term_Leaf"><path codeLine="25" d="M302.49,72.13 C311.43,86.5 321.21,102.21 328.98,114.68 " fill="none" id="Term-backto-Leaf" style="stroke:#181818;stroke-width:1.0;"/><polygon fill="none" points="296.45,75.68,291.82,55,308.33,68.28,296.45,75.68" style="stroke:#181818;stroke-width:1.0;"/></g><!--MD5=[bddd7190fa99403b1da072c5355c7627]
reverse link Leaf to Primitive--><g id="link_Leaf_Primitive"><path codeLine="26" d="M343.5,183.02 C343.5,196.58 343.5,211.04 343.5,222.68 " fill="none" id="Leaf-backto-Primitive" style="stroke:#181818;stroke-width:1.0;"/><polygon fill="none" points="336.5,183,343.5,163,350.5,183,336.5,183" style="stroke:#181818;stroke-width:1.0;"/></g><!--MD5=[af2ef915a1510b5813d0b1a705b5a09a]
reverse link Leaf to QueryingProxy--><g id="link_Leaf_QueryingProxy"><path codeLine="27" d="M389.72,175 C410.53,190.75 434.53,208.92 453.03,222.93 " fill="none" id="Leaf-backto-QueryingProxy" style="stroke:#181818;stroke-width:1.0;"/><polygon fill="none" points="385.25,180.39,373.53,162.74,393.7,169.23,385.25,180.39" style="stroke:#181818;stroke-width:1.0;"/></g><!--MD5=[e63b43e5e0f6df81780619d6fdd78337]
reverse link QueryingProxy to ColumnProxy--><g id="link_QueryingProxy_ColumnProxy"><path codeLine="28" d="M456.56,287.66 C446.72,302.15 435.91,318.07 427.34,330.68 " fill="none" id="QueryingProxy-backto-ColumnProxy" style="stroke:#181818;stroke-width:1.0;"/><polygon fill="none" points="450.85,283.61,467.88,271,462.43,291.48,450.85,283.61" style="stroke:#181818;stroke-width:1.0;"/></g><!--MD5=[a87edb8e8aae89bee45a9fa1413ac386]
reverse link QueryingProxy to TableProxy--><g id="link_QueryingProxy_TableProxy"><path codeLine="29" d="M510.44,287.66 C520.28,302.15 531.09,318.07 539.66,330.68 " fill="none" id="QueryingProxy-backto-TableProxy" style="stroke:#181818;stroke-width:1.0;"/><polygon fill="none" points="504.57,291.48,499.12,271,516.15,283.61,504.57,291.48" style="stroke:#181818;stroke-width:1.0;"/></g><!--MD5=[acaaa61218bcd28d5d5d08b84d9c4f25]
@startuml
class Term{}

class Binary{}

class BinOperation{}

class Comparison{}



class Leaf{}

class Primitive{}

class QueryingProxy{}

class ColumnProxy{}

class TableProxy{}


Term <|- - Binary
    Binary <|- - BinOperation
    Binary <|- - Comparison
Term <|- - Leaf
    Leaf <|- - Primitive
    Leaf <|- - QueryingProxy
        QueryingProxy <|- - ColumnProxy
        QueryingProxy <|- - TableProxy
@enduml

PlantUML version 1.2022.5(Sat Apr 30 13:55:52 MSK 2022)
(GPL source distribution)
Java Runtime: Java(TM) SE Runtime Environment
JVM: Java HotSpot(TM) 64-Bit Server VM
Default Encoding: Cp1251
Language: ru
Country: RU
--></g></svg>